<?xml version="1.0" standalone="no"?>
<!DOCTYPE svg PUBLIC "-//W3C//DTD SVG 1.1//EN" "http://www.w3.org/Graphics/SVG/1.1/DTD/svg11.dtd" >
<svg>
<metadata>
Created by FontForge 20090622 at Mon Nov 13 22:05:08 2017
 By deploy user
Copyright (c) 2014 by Zetafonts. All rights reserved.
</metadata>
<defs>
<font id="AmazingGrotesk-Italic" horiz-adv-x="632" >
  <font-face 
    font-family="Amazing Grotesk"
    font-weight="400"
    font-style="italic"
    font-stretch="normal"
    units-per-em="1000"
    panose-1="2 0 5 3 0 0 0 9 0 4"
    ascent="800"
    descent="-200"
    x-height="551"
    cap-height="710"
    bbox="-50 -293 1314.35 950"
    underline-thickness="50"
    underline-position="-50"
    unicode-range="U+000D-U+FB06"
  />
<missing-glyph horiz-adv-x="266" 
 />
    <glyph glyph-name=".notdef" horiz-adv-x="266" 
 />
    <glyph glyph-name=".null" horiz-adv-x="0" 
 />
    <glyph glyph-name=".null" horiz-adv-x="0" 
 />
    <glyph glyph-name="nonmarkingreturn" unicode="&#xd;" horiz-adv-x="276" 
 />
    <glyph glyph-name="space" unicode=" " horiz-adv-x="276" 
 />
    <glyph glyph-name="B" unicode="B" horiz-adv-x="685" 
d="M168 652l11 58h288q36 0 78 -4t76.5 -21t53.5 -51.5t8 -95.5l-2 -12q-11 -61 -43.5 -95.5t-79.5 -49.5q66 -18 96 -58t16 -121l-2 -14q-10 -55 -35 -91t-60 -57.5t-76.5 -30.5t-83.5 -9h-352l10 57h76l104 595h-83zM602 199q8 45 -2.5 73.5t-33.5 45t-57 23t-73 6.5h-170
l-51 -290h202q33 0 63 7t55 23.5t42.5 44t24.5 67.5zM614 531q7 42 -3.5 66.5t-34 36.5t-56 15t-69.5 3h-132l-44 -251h133q36 0 70 4t61.5 17.5t47 39.5t27.5 69z" />
    <glyph glyph-name="D" unicode="D" horiz-adv-x="704" 
d="M169 652l11 58h298q67 0 119.5 -10t85.5 -42t43.5 -93.5t-7.5 -163.5l-18 -106q-17 -96 -52 -154.5t-81.5 -89.5t-101.5 -41t-112 -10h-292l11 57h75l103 595h-82zM653 412q15 88 2 136.5t-41.5 71.5t-66.5 27.5t-73 4.5h-156l-104 -595h150q43 0 85.5 9t79 35.5t64 75
t41.5 127.5z" />
    <glyph glyph-name="E" unicode="E" horiz-adv-x="630" 
d="M169 652l11 58h511l-25 -142h-58l14 84h-303l-46 -261h257l-10 -58h-257l-48 -276h319l14 84h58l-24 -141h-519l10 57h74l104 595h-82z" />
    <glyph glyph-name="F" unicode="F" horiz-adv-x="574" 
d="M169 652l11 58h501l-26 -143h-58l15 85h-291l-48 -274h248l-10 -58h-248l-46 -263h86l-10 -57h-238l10 57h83l104 595h-83z" />
    <glyph glyph-name="H" unicode="H" horiz-adv-x="784" 
d="M608 652l11 58h235l-11 -58h-83l-104 -595h83l-10 -57h-235l10 57h83l49 278h-371l-49 -278h83l-10 -57h-235l10 57h83l104 595h-83l11 58h235l-11 -58h-83l-45 -260h371l45 260h-83z" />
    <glyph glyph-name="I" unicode="I" horiz-adv-x="291" 
d="M143 652l11 58h235l-11 -58h-83l-104 -595h83l-10 -57h-235l10 57h84l104 595h-84z" />
    <glyph glyph-name="J" unicode="J" horiz-adv-x="431" 
d="M52 73q21 -14 46 -21t49 -7q31 0 58.5 7t50 28t40 59.5t28.5 102.5l73 411h-92l10 57h161l-84 -472q-14 -77 -36 -126t-53 -76.5t-70 -38t-87 -10.5q-15 0 -33 3t-35.5 7.5t-33.5 10.5t-27 13z" />
    <glyph glyph-name="L" unicode="L" horiz-adv-x="602" 
d="M573 0h-511l10 57h75l104 595h-83l11 58h224l-11 -58h-74l-104 -593h310q6 21 10.5 43.5l9.5 48.5h55z" />
    <glyph glyph-name="M" unicode="M" horiz-adv-x="941" 
d="M55 0l10 57h75l60 297.5l61 297.5h-83l11 58h174l141 -510l166.5 255l165.5 255h172l-11 -58h-83l-43.5 -297l-44.5 -298h75l-10 -57h-217l10 57h75l82 551l-165 -249l-163 -249h-49l-144 500l-56.5 -276.5l-56.5 -276.5h75l-10 -57h-217z" />
    <glyph glyph-name="N" unicode="N" horiz-adv-x="822" 
d="M168 652l11 58h160l307 -611l97 553h-83l11 58h235l-11 -58h-83l-104 -595h83l-10 -57h-161l-154 305l-154 305l-97 -553h75l-10 -57h-226l10 57h83l104 595h-83z" />
    <glyph glyph-name="K" unicode="K" horiz-adv-x="749" 
d="M823 710l-11 -58h-76l-26 -24l-48.5 -46.5l-93.5 -91.5l-161 -160l188 -222q39 -47 70 -63l30 -16l-25 -39h-8q-7 0 -18 2t-26 10.5t-35 25t-45 46.5l-264 311l-40 -239q-14 -77 -31.5 -114.5t-31.5 -52.5l-53 6l16 42q7 18 14 42t12 53l93 530h-93l11 58h161l-42 -238
l77 -97l338 335h118z" />
    <glyph glyph-name="V" unicode="V" horiz-adv-x="716" 
d="M137 652l11 58h138l88 -614l309 614h136l-11 -58h-82l-166 -326l-166 -326h-71l-103 652h-83z" />
    <glyph glyph-name="X" unicode="X" horiz-adv-x="723" 
d="M804 710l-11 -58h-60l-279 -297l177 -298h58l-10 -57h-97l-176 302l-281 -302h-93l10 57h53l280 298l-175 297h-54l11 58h94l86.5 -151l86.5 -151l141.5 151l140.5 151h98z" />
    <glyph glyph-name="Y" unicode="Y" horiz-adv-x="677" 
d="M132 652l11 58h114l69.5 -159l70.5 -159l273 318h112l-11 -58h-73l-139.5 -162l-138.5 -162l-47 -271h83l-10 -57h-235l10 57h83l47 271l-72 162l-73 162h-74z" />
    <glyph glyph-name="Z" unicode="Z" horiz-adv-x="648" 
d="M40 59l297.5 297l297.5 297h-420l-19 -103h-58l29 160h561l-10 -56l-297 -298.5l-298 -298.5h440q5 32 9 54l9 50h58l-28 -161h-581z" />
    <glyph glyph-name="P" unicode="P" horiz-adv-x="643" 
d="M168 652l11 58h271q71 0 121 -10t80 -34t39 -63.5t-1 -99.5l-2 -12q-11 -60 -35.5 -100t-63.5 -64t-92 -34.5t-120 -10.5h-122l-39 -225h75l-10 -57h-219l10 57h76l104 595h-83zM622 496q9 54 -1 85t-34.5 47t-62 20t-82.5 4h-123l-55 -314h122q45 0 84 6t69.5 23t52 48
t30.5 81z" />
    <glyph glyph-name="U" unicode="U" horiz-adv-x="762" 
d="M842 652h-72l-61 -351q-18 -98 -52.5 -159t-79 -95t-96.5 -46t-104 -12t-99.5 12t-80 46t-45.5 95t5 159l61 351h-72l11 58h213l-10 -57h-72l-63 -356q-14 -81 -5 -130.5t33 -76t59.5 -35t74.5 -8.5q36 0 74 8t73 34t62.5 75.5t42.5 132.5l62 355h-73l11 58h214z" />
    <glyph glyph-name="O" unicode="O" horiz-adv-x="662" 
d="M457 720q53 0 101 -12t81 -45.5t45.5 -95t-5.5 -160.5l-18 -102q-17 -99 -50.5 -160.5t-77.5 -96t-96.5 -47t-107.5 -12.5q-56 0 -104 12.5t-80 47t-43.5 96.5t5.5 160l18 102q18 99 52 160t78.5 95t96.5 46t105 12zM447 663q-43 0 -82.5 -10t-72.5 -39t-58 -81t-40 -136
l-18 -97q-14 -80 -6 -129.5t32 -77.5t59.5 -37.5t77.5 -9.5t81 9.5t72 37.5t58 77.5t39 129.5l18 97q15 84 8 136t-30 81t-59 39t-79 10z" />
    <glyph glyph-name="Q" unicode="Q" horiz-adv-x="660" 
d="M457 720q53 0 101 -12t81 -45.5t45.5 -95t-5.5 -160.5l-18 -102q-16 -91 -45.5 -150t-68.5 -94.5t-86 -51t-97 -18.5l-23 -132l-70 7l22 126q-49 3 -90 18t-67.5 50.5t-35.5 94.5t7 150l18 102q18 99 52 160t78.5 95t96.5 46t105 12zM447 663q-43 0 -82.5 -10t-72.5 -39
t-58 -81t-40 -136l-18 -97q-14 -80 -6 -129.5t32 -77.5t59.5 -37.5t77.5 -9.5t81 9.5t72 37.5t58 77.5t39 129.5l18 97q15 84 8 136t-30 81t-59 39t-79 10z" />
    <glyph glyph-name="G" unicode="G" 
d="M598 536q5 25 8.5 48.5l7.5 48.5q-35 14 -77 23t-75 9q-42 0 -83.5 -8.5t-77 -36t-63 -79t-42.5 -136.5l-18 -102q-14 -78 -7 -128t30 -78.5t60 -39.5t84 -11q58 0 105 12t83 23q-1 15 1.5 33.5t6.5 41.5l15 87h-92l10 54h158l-28 -159q-10 -53 -9.5 -88t7.5 -50l-43 -12
q-5 3 -11 11t-9 28q-38 -12 -87.5 -25t-116.5 -13q-59 0 -108.5 12t-82 45.5t-44 93.5t5.5 157l18 105q16 93 46.5 154.5t74 98t100 51.5t125.5 15q39 0 90 -7.5t118 -29.5l-13.5 -74t-14.5 -74h-52z" />
    <glyph glyph-name="R" unicode="R" horiz-adv-x="678" 
d="M70 57h75l104 595h-83l11 58h263q67 0 120.5 -8.5t88.5 -32t49 -65.5t2 -109l-3 -15q-16 -89 -68.5 -133t-137.5 -58l106 -178q32 -54 58 -74l28 -21q-8 -8 -18 -19.5t-18 -16.5q-6 1 -16.5 4.5t-24.5 14.5t-31.5 32t-38.5 56l-114 194q-10 -2 -24.5 -1.5t-24.5 0.5h-123
l-39 -223h75l-10 -57h-216zM630 487q10 56 -2.5 88.5t-40.5 49.5t-69 22t-87 5h-116l-55 -317h116q45 0 86 4t74.5 19.5t58 45.5t35.5 83z" />
    <glyph glyph-name="S" unicode="S" horiz-adv-x="628" 
d="M634 556q-13 0 -26 0.5t-26 0.5l12 84q-34 11 -71 16.5t-63 5.5q-36 0 -72.5 -5t-67 -18t-52.5 -35t-28 -56q-6 -32 3 -56t30.5 -41t55.5 -29.5t78 -22.5q21 -5 46.5 -10t51 -14t48.5 -23.5t38.5 -37t22 -54.5t-1.5 -77q-8 -46 -35.5 -82t-68.5 -61t-93 -38.5t-109 -13.5
q-48 0 -110 6t-126 27l33 141h56l-16 -90q15 -4 33.5 -7.5t38.5 -6.5t40 -4.5t37 -1.5q34 0 75.5 7t78 23t64 41t33.5 61q7 41 -7 67.5t-40.5 43.5t-61 26.5t-67.5 17.5q-116 23 -163.5 74t-33.5 135q8 46 33 79t63.5 54t89 30.5t109.5 9.5q42 0 90 -6.5t117 -27.5l-38 -132
v0z" />
    <glyph glyph-name="b" unicode="b" horiz-adv-x="624" 
d="M314 770l-46 -260q10 8 24 16.5t34 15.5t47 11.5t63 4.5q45 0 84 -11.5t65 -40t35.5 -77.5t-3.5 -125l-13 -72q-13 -75 -40 -122.5t-63 -74.5t-78.5 -36.5t-87.5 -9.5q-40 0 -66.5 4t-44.5 10t-31 13l-25 13q-11 -24 -20.5 -34.5t-20.5 -20.5l-38 14q7 13 21 45t25 92
l103 585h-92l10 60h158zM206 154l-9 -41t-9 -34l24 -12t29 -11.5t40.5 -9t56.5 -3.5q32 0 63 7t58 28t48 59t32 99l12 69q11 61 2.5 99t-28.5 60t-49 30t-59 8q-47 0 -89 -13t-69 -31z" />
    <glyph glyph-name="d" unicode="d" horiz-adv-x="628" 
d="M483 710l10 60h158l-119 -674q-5 -32 3 -40t19 -8q8 0 21 1t33 8l2 -44q-29 -10 -46.5 -14t-34.5 -4q-43 0 -56 35q-14 -7 -29.5 -14t-37.5 -13t-53 -9.5t-76 -3.5q-42 0 -79 10.5t-61.5 38t-34 74.5t3.5 119l13 70q13 77 40.5 127t63.5 78.5t79 39.5t88 11q36 0 61 -4.5
t42 -11.5t28 -15.5t19 -15.5l35 199h-92zM530 458q-21 19 -59 31.5t-83 12.5q-30 0 -61.5 -8t-59 -30.5t-49.5 -61.5t-33 -100l-11 -63q-11 -62 -4 -100.5t26.5 -59.5t48 -28.5t61.5 -7.5q31 0 55 3t42 8t32.5 11t27.5 12z" />
    <glyph glyph-name="e" unicode="e" horiz-adv-x="569" 
d="M292 -11q-46 0 -86.5 9.5t-68.5 35.5t-39.5 73.5t1.5 122.5l15 85q13 77 41.5 124.5t66.5 74t82.5 35.5t89.5 9t83.5 -6.5t64.5 -27t36.5 -59t-0.5 -101.5q-5 -33 -26.5 -54.5t-53.5 -34t-72.5 -17.5t-84 -5t-88 3t-84.5 6q-13 -72 -8 -114t23.5 -64t48.5 -28.5t68 -6.5
q63 0 104.5 6t74.5 16q4 -24 11 -50q-35 -14 -84 -23t-115 -9zM382 502q-29 0 -60.5 -5t-59.5 -24t-50 -56.5t-34 -102.5q55 -8 113.5 -10.5t108 4.5t83.5 24.5t40 50.5q7 40 -3.5 64t-32 36t-49.5 15.5t-56 3.5z" />
    <glyph glyph-name="k" unicode="k" horiz-adv-x="620" 
d="M664 551l-11 -58h-77l-35 -33.5l-37 -35.5l-144 -148l150 -170q41 -46 72 -62l29 -16q-6 -11 -15.5 -25.5t-19.5 -14.5q-8 0 -20.5 2.5t-30 11.5t-38.5 25.5t-45 44.5l-106 121.5l-106 121.5l-30 -170q-8 -45 -18.5 -75.5t-21.5 -50t-21 -30t-16 -15.5l-19.5 6t-19.5 7
q11 15 24 49t22 88l104 587h-92l10 59h158l-65 -371l70 -79l232 231h117z" />
    <glyph glyph-name="l" unicode="l" horiz-adv-x="268" 
d="M132 712l10 58h159l-114 -646q-10 -56 -9 -89.5t6 -47.5q-11 -4 -21 -7l-21 -6q-8 5 -14.5 15.5t-10 29.5t-2.5 49.5t9 76.5l100 567h-92z" />
    <glyph glyph-name="m" unicode="m" horiz-adv-x="897" 
d="M775 280q12 68 13 111t-8.5 67.5t-30 33.5t-51.5 9q-48 0 -92.5 -22.5t-73.5 -60.5q-5 -29 -8 -62t-10 -69l-50 -286h-65l52 298q10 56 11 94.5t-8 62.5t-29.5 34.5t-53.5 10.5q-46 0 -87 -20.5t-72 -54.5l-75 -425h-66l78 443q6 35 -1 45.5t-19 10.5q-6 0 -11 -0.5
t-11 -1.5v49q11 3 23 5t23 2q26 0 42 -14.5t15 -50.5q38 31 84.5 50.5t86.5 19.5q56 0 90 -18t47 -69q37 39 89.5 63t103.5 24q57 0 88.5 -21.5t43.5 -59.5t9.5 -89t-12.5 -110l-28 -157q-8 -45 4.5 -59t60.5 -6l-6 -57q-34 -7 -60.5 -6.5t-44 12t-23.5 35.5t1 64l31 175v0z
" />
    <glyph glyph-name="o" unicode="o" horiz-adv-x="535" 
d="M93 313q13 77 40 125t63 74.5t79 36t89 9.5q45 0 84.5 -9.5t66.5 -36t37.5 -74.5t-2.5 -124l-15 -84q-14 -76 -40.5 -123t-62.5 -73t-79.5 -35t-89.5 -9t-86 9t-66.5 34.5t-36.5 72t4 121.5zM143 226q-11 -60 -2.5 -95.5t28.5 -54.5t48 -24.5t57 -5.5q27 0 56.5 5.5
t56.5 24t48.5 54t32.5 95.5l17 93q10 60 1.5 96.5t-29 56t-48.5 25.5t-55 6q-28 0 -57.5 -6.5t-56.5 -26t-48.5 -55.5t-31.5 -95z" />
    <glyph glyph-name="x" unicode="x" horiz-adv-x="642" 
d="M130 0h-93l10 57q16 0 37.5 4.5t45.5 24.5l192 189l-145 218h-54l11 58h94l145 -226l130 130l68 67q26 25 29 29h93l-11 -58q-16 0 -37.5 -4.5t-45.5 -24.5l-192 -189l145 -218h54l-10 -57h-94l-147 225z" />
    <glyph glyph-name="v" unicode="v" horiz-adv-x="588" 
d="M240 551l67 -469l115.5 234.5l115.5 234.5h135l-11 -58h-80l-251 -493h-76q-23 124 -40.5 246.5t-39.5 246.5h-81l11 58h135z" />
    <glyph glyph-name="u" unicode="u" 
d="M488 550h145l-77 -440q-11 -58 21 -58q9 0 21 3.5t26 8.5q0 -12 0.5 -26t2.5 -25q-28 -10 -47.5 -13.5t-35.5 -3.5q-26 0 -41 13t-11 50q-33 -39 -83.5 -52.5t-103.5 -13.5q-42 0 -78.5 9t-61.5 35t-34 72.5t4 121.5l46 262h-76l11 58h143l-56 -315q-10 -57 -5.5 -93
t20.5 -56.5t41.5 -28.5t56.5 -8q27 0 57 3.5t56 17.5t46.5 43.5t29.5 80.5l52 298h-79z" />
    <glyph glyph-name="y" unicode="y" horiz-adv-x="649" 
d="M495 56q-33 -36 -78 -49.5t-96 -13.5q-44 0 -79.5 9t-58 35t-30 72.5t5.5 121.5l46 262h-77l11 58h142l-55 -309q-10 -58 -6 -95t19 -58.5t39 -30t54 -8.5q28 0 58 3.5t55.5 18.5t45.5 44.5t29 81.5l52 295h-96l11 58h163l-91 -516q-14 -78 -41 -126.5t-62.5 -76
t-78 -37.5t-87.5 -10q-62 0 -111 16.5t-74 63.5l41 47q11 -23 28 -36t36.5 -20t41.5 -9t43 -2q24 0 53.5 4t57 20.5t49.5 49.5t32 91z" />
    <glyph glyph-name="w" unicode="w" horiz-adv-x="896" 
d="M981 551l-11 -58h-81l-252 -493h-73l-54 340l-174 -340h-73l-80 493h-81l11 58h136l66 -469l181 363l-6 48h-74l11 58l124 -1l62 -468l232 469h136z" />
    <glyph glyph-name="z" unicode="z" horiz-adv-x="611" 
d="M78 57l229.5 218l229.5 218h-332l-16 -94h-51l27 152h468l-10 -56l-230.5 -219l-229.5 -219h343l16 94h50l-26 -151h-478z" />
    <glyph glyph-name="t" unicode="t" horiz-adv-x="348" 
d="M250 713q16 2 31.5 4.5t31.5 5.5l-30 -169h123l-11 -61h-123l-69 -393q-5 -32 5 -40.5t22 -8.5q11 0 30 2t48 8q0 -14 0.5 -27t1.5 -27q-30 -5 -57 -9t-50 -4q-29 0 -44.5 9.5t-21 28.5t-3 47.5t9.5 67.5l61 346h-102l25 61h65q23 26 36 67.5t21 91.5z" />
    <glyph glyph-name="f" unicode="f" horiz-adv-x="414" 
d="M249 494q13 72 37.5 118.5t60 72.5t81 36t100.5 10l-9 -56q-44 0 -77 -5t-57 -23.5t-40 -54.5t-27 -98l-73 -419q-13 -72 -33.5 -118.5t-53.5 -72.5t-80.5 -36t-113.5 -10l9 53q44 0 77 5.5t57.5 24.5t41 55.5t27.5 98.5zM107 420l11 58h130h67h132l-11 -58h-329z" />
    <glyph glyph-name="h" unicode="h" horiz-adv-x="649" 
d="M562 122q-6 -36 0 -52t34 -16q11 0 31 3l-6 -57q-30 -6 -55 -6q-42 0 -62.5 24.5t-9.5 86.5l32 184q13 75 8.5 117.5t-21 63t-41 25.5t-51.5 5t-57 -4t-56.5 -19t-46.5 -43.5t-29 -76.5l-62 -357h-67l125 712h-92l10 58h159l-49 -277q35 37 79.5 51t96.5 14
q103 0 145 -55t19 -187l-34 -194v0z" />
    <glyph glyph-name="j" unicode="j" horiz-adv-x="278" 
d="M279 551l-110 -624q-9 -48 -19.5 -79t-21 -50.5t-20.5 -29t-18 -13.5l-37 13q8 13 21.5 46.5t24.5 91.5l103 587h-92l11 58h158zM212 693q4 23 21 36t40 13t36 -13t9 -36q-5 -24 -22 -37t-40 -13t-36 12.5t-8 37.5z" />
    <glyph glyph-name="s" unicode="s" horiz-adv-x="526" 
d="M467 415l13 76q-26 11 -55.5 13.5t-53.5 2.5q-32 0 -60.5 -4.5t-51 -15t-37 -26.5t-18.5 -38q-8 -48 19 -69t92 -29q18 -3 41.5 -5.5t48 -7.5t47 -14t38 -26t22.5 -42.5t1 -62.5q-16 -88 -83 -133t-167 -45q-44 0 -98.5 4.5t-108.5 21.5q8 32 12.5 62.5t10.5 62.5h66
l-13 -74q15 -5 32.5 -8.5t35.5 -6t35.5 -4t31.5 -1.5q42 0 73.5 11t53.5 28.5t34.5 40t16.5 45.5q5 28 -7.5 45t-35.5 26.5t-53.5 14.5t-60.5 9q-48 6 -79.5 18t-49 30.5t-22.5 44t1 57.5q14 80 77 113.5t166 33.5q34 0 74.5 -4t97.5 -21l-21 -123h-65z" />
    <glyph glyph-name="r" unicode="r" horiz-adv-x="486" 
d="M540 440h-65l10 55q-17 2 -33.5 3.5t-36.5 1.5q-45 0 -86 -23t-65 -79l-70 -398h-66l86 493h-90q3 14 5.5 29t4.5 29h148l-10 -54q27 32 66.5 48.5t87.5 16.5q15 0 28.5 -0.5t29 -2.5t33.5 -6t42 -11z" />
    <glyph glyph-name="g" unicode="g" horiz-adv-x="635" 
d="M268 -155q30 0 60 7.5t56 27.5t46.5 54.5t31.5 89.5q-38 -26 -75.5 -30.5t-79.5 -4.5q-45 0 -85 9.5t-67.5 36t-38.5 73.5t2 122l13 73q13 77 40.5 126.5t63.5 78t79.5 39.5t88.5 11h14q35 0 59 -4.5t41 -12t27.5 -16.5t18.5 -18q26 46 73 46q17 0 33.5 -5t41.5 -14
l-10 -22.5t-9 -22.5q-18 7 -30 8.5t-21 1.5q-11 0 -22 -11.5t-16 -44.5l-73 -410q-14 -80 -42 -128.5t-65 -75t-80 -35.5t-86 -9q-30 0 -58.5 5t-53 15.5t-43.5 27t-31 39.5q13 12 24.5 20t24.5 19q11 -23 27.5 -36t36 -19.5t41 -8.5t43.5 -2zM538 456q-21 19 -57.5 31.5
t-81.5 12.5q-30 0 -61 -8t-59 -29.5t-49.5 -59.5t-32.5 -99l-12 -69q-11 -61 -2.5 -97.5t29 -56t49.5 -26t59 -6.5q60 0 93 7.5t58 18.5z" />
    <glyph glyph-name="one" unicode="1" horiz-adv-x="357" 
d="M159 652l11 58h165l-115 -653h83l-10 -57h-234l10 57h83l104 595h-97z" />
    <glyph glyph-name="two" unicode="2" horiz-adv-x="633" 
d="M58 59l373 300l66 54t47 43t30 39.5t16 43.5q7 38 -4 61t-33.5 35.5t-54.5 16.5t-68 4q-16 0 -38 -2t-46 -7t-49.5 -12.5t-49.5 -18.5q-4 -23 -7.5 -47.5t-7.5 -48.5l-54 -9q3 37 6.5 73.5t5.5 72.5q78 29 140 45.5t107 16.5q35 0 78.5 -4.5t79 -22t55.5 -53t9 -97.5
l-1 -7q-6 -36 -23.5 -64.5t-45 -56t-65.5 -57l-86 -67.5l-291 -231h403q7 25 11.5 49.5l9.5 52.5h50l-28 -161h-545z" />
    <glyph glyph-name="zero" unicode="0" horiz-adv-x="662" 
d="M644 301q-18 -99 -50 -160t-74 -94.5t-92.5 -45.5t-105.5 -12h-6q-57 0 -102.5 12t-74.5 46.5t-38 95t8 158.5l17 101q18 104 50.5 167t75.5 96.5t95 44t109 10.5q55 0 101 -12.5t75 -47t38 -96.5t-8 -161zM594 410q15 83 6.5 133t-31 77t-56 35.5t-69.5 8.5h-4
q-39 0 -76.5 -8.5t-69.5 -35t-57 -76t-40 -131.5l-20 -116q-15 -84 -6.5 -133.5t32 -76t57 -34t69.5 -7.5h3q33 0 69 7t69.5 32.5t60.5 74.5t42 132z" />
    <glyph glyph-name="three" unicode="3" horiz-adv-x="605" 
d="M562 531q7 42 -3 66t-33 37t-55 16.5t-68 3.5h-4q-32 0 -76.5 -7t-82.5 -22q-5 -24 -8 -47t-8 -47l-55 -6q5 37 9.5 74l8.5 73q38 11 68.5 19t56 13t47.5 7.5t44 2.5t50 -1.5t56 -7t53.5 -17t43.5 -31t26 -48.5t1 -70l-1 -4q-12 -66 -44 -100.5t-80 -51.5
q57 -17 82.5 -58t11.5 -121l-1 -8q-10 -56 -42.5 -95.5t-77.5 -64t-96.5 -36t-99.5 -11.5q-81 0 -138.5 16.5t-95.5 32.5l33 53q18 -8 39 -16t46.5 -14.5t56 -11t68.5 -4.5q32 0 70.5 8.5t73.5 27.5t61 48.5t34 70.5q7 43 -3 71.5t-33 45.5t-56.5 24t-73.5 7h-59l-3 53h65
q34 0 65.5 5t57 19.5t44 39.5t25.5 66z" />
    <glyph glyph-name="four" unicode="4" horiz-adv-x="653" 
d="M520 -20l-65 10l21 118h-398l10 58l441 544h83l-441 -544h315l14 82q10 56 8.5 90t-4.5 48l42 13q9 -8 14.5 -23t6.5 -41.5t-2.5 -67.5t-11.5 -101h110l-10 -58h-110z" />
    <glyph glyph-name="five" unicode="5" horiz-adv-x="603" 
d="M186 710h477l-27 -150h-53q5 27 8 47.5t7 44.5h-360l-41 -236q27 10 61.5 17t95.5 7q64 0 114 -13t82.5 -41t45 -72t1.5 -106l-1 -8q-11 -59 -43.5 -99.5t-77 -65t-95 -35.5t-96.5 -11q-87 0 -147 16.5t-99 37.5q8 14 16.5 26.5t16.5 26.5q38 -17 90.5 -33.5t133.5 -16.5
q32 0 70 9t71.5 28.5t59 49t32.5 71.5q16 88 -32 134.5t-144 46.5q-60 0 -107 -8.5t-76 -19.5h-46z" />
    <glyph glyph-name="seven" unicode="7" horiz-adv-x="606" 
d="M172 0l440 652h-411q-6 -25 -11 -49.5t-10 -52.5h-51l29 160h542l-11 -58l-221 -326l-221 -326h-75z" />
    <glyph glyph-name="six" unicode="6" horiz-adv-x="643" 
d="M163 261q-14 -77 -7.5 -120.5t28 -65t56.5 -26.5t77 -5q34 0 72.5 4t73 21.5t61 52.5t37.5 97q10 57 -1.5 91t-35.5 51.5t-56 22.5t-64 5q-29 0 -61.5 -4t-64 -9.5t-58 -11.5t-41.5 -11zM445 659q-31 0 -68.5 -6.5t-72 -25.5t-62 -53t-38.5 -88q-5 -22 -9 -43l-8 -44
q17 7 41 15.5t52.5 15t61 11t65.5 4.5q48 0 94 -7.5t79 -31.5t48 -68.5t2 -118.5q-12 -71 -41 -116t-70.5 -71t-93.5 -35.5t-110 -9.5q-63 0 -111 9t-77.5 39t-38.5 86t8 150l34 192q13 76 45 125.5t74.5 78t93.5 39.5t104 11q32 0 58.5 -2t51.5 -7t51 -13t56 -20
q-6 -30 -10.5 -59.5t-12.5 -60.5q-11 2 -26 1.5t-26 0.5l12 71q-32 13 -73 22t-83 9z" />
    <glyph glyph-name="eight" unicode="8" horiz-adv-x="649" 
d="M446 713q36 0 78.5 -4.5t77.5 -21t54.5 -49.5t9.5 -90l-1 -5q-6 -32 -17.5 -55.5t-28 -41t-36.5 -29t-43 -20.5q67 -26 85.5 -79t6.5 -123q-10 -57 -37.5 -97t-68.5 -65t-94 -36t-114 -11q-58 0 -106.5 11.5t-81.5 36t-47 64.5t-4 97l1 6q8 47 22 80t34.5 56t47 37
t60.5 23q-21 9 -37 20.5t-26.5 29.5t-13.5 42.5t3 59.5q10 56 41.5 89t72 49.5t84 21t78.5 4.5zM565 200q15 86 -34 124t-148 38q-103 0 -161 -38.5t-73 -123.5q-8 -46 3.5 -76t36.5 -47.5t61 -24.5t76 -7q43 0 82.5 7t71.5 24.5t54.5 47.5t30.5 76zM236 541q-7 -39 3 -63
t32 -37.5t53.5 -18t67.5 -4.5h4q35 0 68.5 4.5t61 18t46.5 38t26 63.5q7 40 -6.5 63t-38 34.5t-56.5 14t-61 2.5q-30 0 -62 -2.5t-60.5 -14t-49.5 -34.5t-28 -64z" />
    <glyph glyph-name="nine" unicode="9" horiz-adv-x="660" 
d="M601 443q13 74 6.5 117t-28 65t-56 28t-76.5 6q-36 0 -74.5 -5.5t-72.5 -23t-59.5 -51t-35.5 -88.5q-10 -57 -1.5 -92.5t29 -55t50 -26t61.5 -6.5h49q39 0 76.5 7t63.5 15l51 17zM576 302l-18 -7q-14 -5 -30.5 -12t-36.5 -13.5t-45.5 -11t-56.5 -4.5h-47q-48 0 -91 9
t-72.5 35t-41.5 72t1 121q12 66 41.5 109.5t71.5 69t93 36t104 10.5q64 0 112.5 -9t77.5 -39t37 -86.5t-9 -150.5l-34 -194q-14 -77 -44.5 -126t-72 -77t-91 -39t-100.5 -11q-50 0 -110.5 9.5t-127.5 41.5q8 13 17 26t17 26q23 -13 50 -21.5t55 -14t53.5 -7.5t45.5 -2
q33 0 70.5 7.5t71.5 26.5t59 51.5t34 81.5z" />
    <glyph glyph-name="colon" unicode=":" horiz-adv-x="194" 
d="M25 42q5 25 23 38t41 13t37 -13t9 -38t-23 -38t-41 -13t-37 13t-9 38zM97 449q4 24 22.5 37.5t41.5 13.5t36.5 -13t9.5 -38q-5 -25 -23 -38.5t-41 -13.5t-37 13t-9 39z" />
    <glyph glyph-name="semicolon" unicode=";" horiz-adv-x="194" 
d="M43 42q5 25 23 38t41 13q17 0 29 -6.5t14 -23.5q3 -5 2.5 -19t-2.5 -22q-8 -45 -34.5 -83t-80.5 -64l-12 25q18 13 29 24.5t18 22t11 21.5t6 23q-23 1 -36 13.5t-8 37.5zM116 449q4 24 22.5 37.5t41.5 13.5t36.5 -13t9.5 -38q-5 -25 -23 -38.5t-41 -13.5t-37 13t-9 39z
" />
    <glyph glyph-name="bracketleft" unicode="[" horiz-adv-x="270" 
d="M250 903h172l-10 -54h-105l-175 -994h105l-9 -53h-172z" />
    <glyph glyph-name="bracketright" unicode="]" horiz-adv-x="267" 
d="M143 -198h-171l9 53h104l175 994h-105l10 54h172z" />
    <glyph glyph-name="circumflex" unicode="&#x2c6;" horiz-adv-x="443" 
d="M476 602h-65l-71 103l-108 -103h-65l154 140h48z" />
    <glyph glyph-name="OE" unicode="&#x152;" horiz-adv-x="1009" 
d="M458 720q26 0 53 -2t49 -10l1 2h506l-25 -142h-43l14 84h-366q29 -33 39.5 -90t-5.5 -149l-3 -19h232l-10 -58h-232l-7 -39q-17 -93 -47.5 -150.5t-70.5 -89.5h382l14 84h43l-24 -141h-513v4q-22 -10 -55 -12.5t-60 -2.5q-56 0 -104 12.5t-80 47t-43.5 96.5t5.5 160
l18 102q18 99 52 160t78.5 95t96.5 46t105 12zM448 663q-43 0 -82.5 -10t-72 -39t-57.5 -81t-40 -136l-18 -97q-14 -80 -6 -129.5t31.5 -77.5t59 -37.5t77.5 -9.5t81 9.5t72 37.5t58.5 77.5t39.5 129.5l18 97q15 84 7.5 136t-30.5 81t-59 39t-79 10z" />
    <glyph glyph-name="braceleft" unicode="{" horiz-adv-x="330" 
d="M264 356q-17 -98 -22.5 -182t0 -150t21.5 -112.5t42 -70.5l-39 -30q-32 26 -55 69t-33.5 106t-8.5 147t20 192h-115l9 54h115q21 110 47 194.5t58 146.5t69 103.5t80 67.5l27 -29q-30 -24 -61 -67.5t-59 -106.5t-52 -145.5t-42 -184.5z" />
    <glyph glyph-name="braceright" unicode="}" horiz-adv-x="367" 
d="M191 355q18 101 22.5 183.5t-1.5 146.5t-21 108.5t-37 68.5l39 29q33 -26 54.5 -68t31.5 -104t6.5 -146t-21.5 -194h115l-9 -55h-115q-21 -108 -48 -191.5t-60 -146t-71 -105.5t-79 -69l-27 30q34 24 66.5 70t61 112t52.5 149.5t41 181.5z" />
    <glyph glyph-name="parenleft" unicode="(" horiz-adv-x="263" 
d="M195 358q-17 -97 -22.5 -181t-0.5 -150.5t21 -114t42 -71.5l-39 -30q-33 27 -56 72t-33.5 111.5t-6.5 156.5t24 206q21 117 47 205t58.5 152t70.5 107t82 70l13.5 -14t13.5 -15q-30 -24 -61 -67.5t-59 -107t-52 -146t-42 -183.5z" />
    <glyph glyph-name="parenright" unicode=")" horiz-adv-x="245" 
d="M191 355q17 95 21.5 177t-1.5 147.5t-21 112t-36 70.5l39 29q34 -27 56.5 -70t32 -107t5 -152t-25.5 -205q-20 -116 -48 -206t-61.5 -156.5t-72.5 -111t-82 -71.5l-27 30q34 24 66.5 70t61 112t52.5 149.5t41 181.5z" />
    <glyph glyph-name="ampersand" unicode="&#x26;" horiz-adv-x="828" 
d="M537 310h142q46 0 77 -5t50.5 -12t29 -15t12.5 -13l-18 -36l-37 9q-16 4 -37.5 6.5t-48.5 3.5h-15.5t-15.5 1q-10 -59 -15.5 -100.5t-7 -70.5t0 -47.5t6.5 -31.5l-48 -20q-7 5 -15 17t-11 38q-45 -16 -106.5 -30.5t-137.5 -14.5q-48 0 -98 11.5t-89 36.5t-60.5 65.5
t-11.5 98.5q14 81 55 123t104 59q-38 15 -59.5 49.5t-10.5 98.5q11 62 42 98.5t71.5 55.5t84 24.5t78.5 5.5q25 0 48.5 -2.5t48.5 -8t53.5 -13.5t63.5 -19l-35 -147q-14 2 -26 3t-26 2q5 25 9 48t9 46q-16 9 -35.5 14.5t-40 9t-39 5t-32.5 1.5q-37 0 -71.5 -3.5t-62 -15.5
t-47.5 -36.5t-27 -66.5q-7 -38 2.5 -62t28 -38.5t43.5 -21t51 -8.5t49.5 -1.5t39.5 -0.5l-24 -54h-61q-37 0 -72.5 -5.5t-65 -21.5t-50 -44.5t-28.5 -74.5q-8 -42 10.5 -71.5t49.5 -48t69 -27t71 -8.5q66 0 120.5 13t95.5 25l20 7q1 16 2.5 35t6.5 43l14 81h-102z" />
    <glyph glyph-name="bar" unicode="|" horiz-adv-x="199" 
d="M271 781l-150 -853h-66l150 853h66z" />
    <glyph glyph-name="asterisk" unicode="*" horiz-adv-x="459" 
d="M112 351q9 11 17.5 22.5l16.5 22.5l105 -68l24 135h54l-24 -135l131 69l18 -45l-132 -69l107 -69l-35 -45l-52.5 34l-52.5 34l-24 -135h-54l24 135l-64 -34l-64 -34q-5 11 -9.5 22.5t-9.5 22.5l131 69l-53.5 34z" />
    <glyph glyph-name="less" unicode="&#x3c;" horiz-adv-x="492" 
d="M117 323l385 129l-11 -64l-151.5 -49l-150.5 -48l267 -108l-12 -65l-337 143z" />
    <glyph glyph-name="greater" unicode="&#x3e;" horiz-adv-x="486" 
d="M470 261l-389 -143l12 65l305 108l-269 97l11 64l340 -129z" />
    <glyph glyph-name="sterling" unicode="&#xa3;" horiz-adv-x="572" 
d="M635 687q-8 -37 -17 -73.5t-17 -73.5q-14 2 -26 3l-25 2q4 25 8.5 48t8.5 46q-17 10 -50 16.5t-63 6.5q-41 0 -81.5 -6.5t-75.5 -30.5t-62.5 -71t-41.5 -128l-14 -79h218l-10 -56h-218l-41 -234h381l14 84h41l-24 -141h-495q8 40 17.5 79t17.5 87l41 233q15 84 37 142
l1 4q21 55 52.5 89.5t71.5 53.5t87 25.5t100 6.5q42 0 84 -10.5t81 -22.5z" />
    <glyph glyph-name="dagger" unicode="&#x2020;" horiz-adv-x="493" 
d="M139 516h158l35 195h67l-35 -195h156l-10 -58h-156l-118 -670h-67l118 670h-158z" />
    <glyph glyph-name="daggerdbl" unicode="&#x2021;" horiz-adv-x="483" 
d="M61 71h158l69 390h-158l9 55h158l35 195h67l-35 -195h156l-9 -55h-156l-69 -390h156l-10 -54h-156l-40 -229h-67l40 229h-158z" />
    <glyph glyph-name="florin" unicode="&#x192;" horiz-adv-x="415" 
d="M301 441l-78 -444q-11 -64 -31 -103t-46 -60t-57 -28t-64 -7h-15t-14 1q4 14 10 43q23 1 46 5.5t43 18t35.5 40t23.5 72.5l81 462h-51l10 57h51q13 71 36.5 115.5t58 70t80.5 34.5t104 9l-9 -49q-34 0 -66 -6t-59 -24.5t-47.5 -54t-31.5 -95.5h122l-10 -57h-122z" />
    <glyph glyph-name="tilde" unicode="&#x2dc;" horiz-adv-x="453" 
d="M199 676q18 16 31.5 25.5t24.5 14.5t21.5 6.5t22.5 1.5t24.5 -5t25 -11t26 -11t26.5 -5q11 0 31.5 6.5t42.5 25.5l12 -35q-18 -16 -31.5 -25.5t-25 -15t-22 -7t-22.5 -1.5q-11 0 -24.5 5t-27 11t-26.5 11t-23 5h-11q-13 -2 -29.5 -9.5t-34.5 -22.5z" />
    <glyph glyph-name="ellipsis" unicode="&#x2026;" horiz-adv-x="579" 
d="M62 40q4 23 20.5 36t38.5 13t34.5 -13t8.5 -36q-5 -23 -21.5 -36t-38.5 -13t-34.5 13t-7.5 36zM253 40q4 23 20.5 36t38.5 13t34.5 -13t8.5 -36q-5 -23 -21.5 -36t-38.5 -13t-34.5 13t-7.5 36zM444 40q4 23 20.5 36t38.5 13t34.5 -13t8.5 -36q-5 -23 -21.5 -36t-38.5 -13
t-34.5 13t-7.5 36z" />
    <glyph glyph-name="endash" unicode="&#x2013;" horiz-adv-x="546" 
d="M132 311h380l-10 -58h-380z" />
    <glyph glyph-name="emdash" unicode="&#x2014;" horiz-adv-x="771" 
d="M131 311h616l-10 -58h-616z" />
    <glyph glyph-name="plus" unicode="+" horiz-adv-x="453" 
d="M112 316h134l23 132l59 8l-25 -140h137l-9 -54h-137l-24 -135l-58 -7l25 142h-134z" />
    <glyph glyph-name="guillemotleft" unicode="&#xab;" horiz-adv-x="564" 
d="M317 329l310 219l-13 -74l-236 -177l173 -188l-14 -75l-231 233zM84 329l310 219l-13 -74l-236 -177l173 -188l-14 -75l-231 233z" />
    <glyph glyph-name="guillemotright" unicode="&#xbb;" horiz-adv-x="543" 
d="M346 267l-315 -233l14 75l239 188l-174 177l13 74l234 -219zM579 267l-315 -233l14 75l239 188l-174 177l13 74l234 -219z" />
    <glyph glyph-name="dieresis" unicode="&#xa8;" horiz-adv-x="485" 
d="M194 684q4 22 20 34t36 12t32 -12t8 -34t-20 -34t-36 -12t-32 12t-8 34zM423 684q4 22 20 34t37 12q20 0 32 -12t8 -34t-20 -34t-36 -12q-21 0 -33 12t-8 34z" />
    <glyph glyph-name="AE" unicode="&#xc6;" horiz-adv-x="1007" 
d="M557 710h507l-25 -142h-57l14 84h-365l1 -251h261l-10 -58h-248v-287l276 1l14 84h54l-24 -141h-454l2 57h61l3 159h-259l-140 -216h-125l10 57h79zM563 617l-110 -171l-109 -171h219q0 85 -0.5 171t0.5 171z" />
    <glyph glyph-name="ae" unicode="&#xe6;" horiz-adv-x="948" 
d="M663 -11q-29 0 -59 4t-56 13.5t-45.5 27t-28.5 44.5q-17 -29 -41.5 -46t-54 -26t-62 -11.5t-63.5 -2.5q-101 0 -137.5 44t-22.5 120l4 24q6 34 22.5 60t46 43t73.5 26t104 9h128q7 45 7.5 78.5t-8.5 55.5t-29.5 33t-55.5 11q-38 0 -76 -5.5l-72 -10.5l-5 -31
q-11 0 -21.5 -0.5t-21.5 -0.5l4 40l4 40q20 5 45.5 10t53 9t55 6.5t51.5 2.5q34 0 58 -7t40.5 -19.5t26.5 -30t15 -37.5q20 29 46 48t55 29.5t60 14.5t62 4q44 0 82 -10.5t64 -36t36 -68t-1 -105.5l-9 -43t-10 -36h-388q-12 -70 -5 -111.5t27 -63.5t49 -28.5t61 -6.5
q63 0 105 6t74 16q6 -26 11 -50q-35 -14 -83.5 -23t-114.5 -9zM752 502q-29 0 -60 -5.5t-59 -25t-50.5 -57.5t-33.5 -102h326q3 9 5 19.5l4 21.5q7 40 -2 68.5t-28.5 46.5t-46.5 26t-55 8zM273 50q30 0 58 4.5t51.5 20t41.5 45.5t27 81l11 64h-126q-44 0 -74.5 -4.5
t-51.5 -14.5t-32.5 -26.5t-15.5 -41.5l-4 -23q-11 -57 18.5 -81t95.5 -24h1z" />
    <glyph glyph-name="equal" unicode="=" horiz-adv-x="520" 
d="M115 263h371l-10 -54h-371zM134 369h371l-10 -54h-371z" />
    <glyph glyph-name="plusminus" unicode="&#xb1;" horiz-adv-x="446" 
d="M115 343h134l23 133l59 7l-25 -140h137l-10 -54h-137l-23 -134l-59 -8l25 142h-134zM65 58h330l-10 -58h-330z" />
    <glyph glyph-name="periodcentered" unicode="&#xb7;" horiz-adv-x="304" 
d="M186 172q-37 0 -58.5 22t-13.5 62q6 38 35.5 61.5t66.5 23.5q36 0 56.5 -23.5t13.5 -61.5q-8 -39 -36 -61.5t-64 -22.5z" />
    <glyph glyph-name="divide" unicode="&#xf7;" horiz-adv-x="479" 
d="M101 316h373l-10 -58h-373zM189 71q5 25 23 38t41 13t37 -13t9 -38t-23 -38t-41 -13t-37 13t-9 38zM262 486q5 24 23 37.5t41 13.5t37 -13t9 -38t-23 -38t-41 -13t-37 12.5t-9 38.5z" />
    <glyph glyph-name="multiply" unicode="&#xd7;" horiz-adv-x="443" 
d="M348 144q-44 51 -83 101l-59 -50.5l-59 -49.5l-36 42l59 50.5l60 50.5l-84 103l51 43l83 -102l118 101l35 -43l-119 -101l84 -103z" />
    <glyph glyph-name="quotedblleft" unicode="&#x201c;" horiz-adv-x="331" 
d="M245 552q-5 -24 -20.5 -37.5t-36.5 -13.5q-31 0 -37 28q-5 18 0 42q8 44 35 81.5t80 62.5q2 -3 6.5 -12t5.5 -13q-36 -27 -48 -46.5t-16 -41.5q17 -2 26 -15t5 -35zM377 552q-5 -24 -21 -37.5t-36 -13.5q-31 0 -37 28q-2 9 -2.5 19.5t2.5 22.5q8 44 34.5 81.5t80.5 62.5
q1 -3 5.5 -12l6.5 -13q-36 -27 -48 -46.5t-17 -41.5q17 -2 26.5 -15t5.5 -35z" />
    <glyph glyph-name="quotedblright" unicode="&#x201d;" horiz-adv-x="303" 
d="M159 664q4 24 20.5 37.5t37.5 13.5h5q17 -2 27 -14.5t7 -38.5v1q-5 -28 -13 -52t-21.5 -44t-34 -36.5t-49.5 -29.5l-13 25q18 13 30 24.5t19 22t10.5 20.5t5.5 21q-17 2 -26.5 15t-4.5 35zM289 664q4 24 20.5 37.5t36.5 13.5h6q15 -2 26.5 -14t7.5 -39v1
q-9 -55 -34.5 -95t-83.5 -67l-13 25q18 13 30 24.5t19 22t10.5 20.5t5.5 21q-17 2 -26.5 15t-4.5 35z" />
    <glyph glyph-name="bullet" unicode="&#x2022;" horiz-adv-x="314" 
d="M187 172q-36 0 -58 22.5t-14 62.5q7 38 36.5 61t65.5 23t57 -23t14 -61q-8 -40 -36.5 -62.5t-64.5 -22.5z" />
    <glyph glyph-name="acute" unicode="&#xb4;" horiz-adv-x="184" 
d="M278 712l-77 -118h-60l72 118h65z" />
    <glyph glyph-name="cedilla" unicode="&#xb8;" horiz-adv-x="240" 
d="M175 13l-120 -207h-73l147 207h46z" />
    <glyph glyph-name="degree" unicode="&#xb0;" horiz-adv-x="422" 
d="M181 561q11 57 51 95t99 38q56 0 84.5 -36.5t18.5 -90.5v-5q-5 -27 -18.5 -50.5t-33 -40.5t-44 -27t-52.5 -10q-57 0 -85.5 36.5t-19.5 90.5zM221 567q-8 -44 10.5 -70.5t60.5 -26.5q38 0 66 25.5t36 66.5v3q7 40 -11 67t-57 27t-68 -26t-37 -66z" />
    <glyph glyph-name="backslash" unicode="\" horiz-adv-x="331" 
d="M212 710l100 -710h-69l-104 710h73z" />
    <glyph glyph-name="grave" unicode="`" horiz-adv-x="184" 
d="M176 594l-18 58.5t-17 59.5h65l14.5 -59.5l15.5 -58.5h-60v0z" />
    <glyph glyph-name="underscore" unicode="_" horiz-adv-x="594" 
d="M64 -72h440l-10 -55h-440z" />
    <glyph glyph-name="slash" unicode="/" horiz-adv-x="383" 
d="M513 771l-433 -900h-67l429 900h71z" />
    <glyph glyph-name="period" unicode="." horiz-adv-x="243" 
d="M74 42q5 25 23 38t41 13t37 -13t9 -38t-23 -38t-41 -13t-37 13t-9 38z" />
    <glyph glyph-name="quotedblbase" unicode="&#x201e;" horiz-adv-x="326" 
d="M53 42q5 24 21 37.5t37 13.5h5q17 -2 27.5 -14.5t7.5 -38.5v1q-5 -29 -13.5 -53t-22 -43.5t-34 -35.5t-49.5 -29l-11 24q18 14 29.5 25.5t18 22t10 20.5t6.5 21q-17 2 -26.5 14.5t-5.5 34.5zM181 42q5 24 21 37.5t37 13.5h5q19 -2 28.5 -14.5t6.5 -38.5v1
q-5 -29 -13.5 -53t-22 -43.5t-33.5 -35.5t-49 -29q-3 6 -6.5 12t-5.5 12q18 14 29.5 25.5t18 22t10 20.5t6.5 21q-17 2 -26.5 14.5t-5.5 34.5z" />
    <glyph glyph-name="quotesinglbase" unicode="&#x201a;" horiz-adv-x="199" 
d="M53 42q5 24 21 37.5t37 13.5h5q17 -2 27.5 -14.5t7.5 -38.5v1q-5 -29 -13.5 -53t-22 -43.5t-34 -35.5t-49.5 -29l-11 24q18 14 29.5 25.5t18 22t10 20.5t6.5 21q-17 2 -26.5 14.5t-5.5 34.5z" />
    <glyph glyph-name="quoteleft" unicode="&#x2018;" horiz-adv-x="197" 
d="M244 552q-5 -24 -21 -37.5t-36 -13.5q-31 0 -37 28q-2 9 -2.5 19.5t2.5 22.5q8 44 34.5 81.5t80.5 62.5q1 -3 5.5 -12l6.5 -13q-36 -27 -48 -46.5t-17 -41.5q17 -2 26.5 -15t5.5 -35z" />
    <glyph glyph-name="quoteright" unicode="&#x2019;" horiz-adv-x="197" 
d="M162 660q5 25 21 38.5t36 13.5q31 0 37 -27q3 -5 3 -19t-2 -22q-8 -45 -34.5 -83t-81.5 -64l-12 25q18 13 29.5 24.5t18.5 22t10.5 20.5t5.5 21q-17 2 -26 15t-5 35z" />
    <glyph glyph-name="guilsinglright" unicode="&#x203a;" horiz-adv-x="327" 
d="M346 267l-315 -233l14 75l239 188l-174 177l13 74l234 -219z" />
    <glyph glyph-name="asciitilde" unicode="~" horiz-adv-x="451" 
d="M112 321q20 39 47 63.5t62 24.5q19 0 38 -10t36 -21.5l32.5 -21.5t27.5 -10q2 0 10.5 3t20 9.5t23.5 17t21 26.5l20 -28q-20 -42 -46.5 -65t-60.5 -23q-16 0 -35 10t-37.5 21.5l-35 21.5t-27.5 10q-3 0 -11.5 -3t-19.5 -9.5t-23 -17t-22 -26.5z" />
    <glyph glyph-name="registered" unicode="&#xae;" horiz-adv-x="702" 
d="M472 309q-3 4 -3.5 5.5t-2.5 2.5l-47 83h-51l-23 -132h-80l7 43l20 6l46 259h-24l7 41h124q28 0 55 -3t47.5 -13t31 -29t4.5 -52l-5 -28q-7 -39 -31.5 -59t-59.5 -28l42 -70q11 -20 21.5 -29t18.5 -13q-8 -8 -15.5 -17.5t-14.5 -14.5h-7q-3 0 -10 2t-15 7t-17 14t-18 25z
M517 504q4 21 0 34t-13.5 20t-24 9.5t-30.5 2.5h-51l-22 -127h44q15 0 30.5 1.5t29 7.5t23.5 18t14 34zM107 443q12 66 47 124t86 101.5t113.5 68.5t128.5 25t119.5 -25t89.5 -68.5t51 -101.5t3 -124t-47.5 -124t-86.5 -101.5t-113.5 -68.5t-128.5 -25t-119.5 25t-89 68.5
t-50.5 101.5t-3 124zM158 441q-10 -56 3 -104.5t43 -85t75 -57.5t100 -21t108 21t96 57.5t72.5 85t39.5 104.5q10 55 -2.5 104t-42.5 85.5t-75.5 57.5t-100.5 21t-107.5 -21t-95.5 -57.5t-73 -85.5t-40 -104z" />
    <glyph glyph-name="section" unicode="&#xa7;" horiz-adv-x="543" 
d="M543 549q-14 0 -26.5 0.5t-26.5 0.5l13 73q-26 11 -55 14.5t-52 3.5q-30 0 -58.5 -4.5t-51 -14t-38 -25.5t-19.5 -40q-9 -49 18.5 -69t93.5 -29q27 -4 64.5 -8.5t70.5 -19.5t52.5 -45t10.5 -84q-9 -51 -36 -82t-67 -48q14 -6 26 -15.5t19.5 -23t10 -33t-2.5 -45.5
q-8 -44 -29.5 -76.5t-55 -53.5t-76.5 -31.5t-92 -10.5q-44 0 -90.5 5.5t-97.5 22.5l22 124h53l-13 -74q15 -5 32 -8.5t35 -5.5t35.5 -3.5t31.5 -1.5q30 0 61.5 8t57 23t42 36.5t16.5 48.5q5 28 -8 44t-36 24t-53.5 11t-60.5 7q-49 6 -80.5 20t-49 35t-21.5 48t2 60
q15 88 104 121q-42 18 -53.5 49.5t-3.5 76.5q7 39 28 66.5t53 45t73.5 25.5t90.5 8q33 0 69.5 -5t93.5 -22q-7 -31 -13 -61.5t-13 -61.5zM466 308q4 26 -6.5 42.5t-30 26.5t-44.5 13.5t-50 3.5q-30 0 -56.5 -4t-46.5 -13.5t-34 -25.5t-18 -40q-8 -48 22.5 -76.5t105.5 -28.5
q31 0 58 4t48 14t34.5 25.5t17.5 39.5q3 9 0 19z" />
    <glyph glyph-name="W" unicode="W" horiz-adv-x="1061" 
d="M1172 710l-11 -58h-82l-170.5 -326l-171.5 -326h-70l-32 217t-30 217l-228 -434h-71l-93 652h-83l11 58h138l39.5 -308l39.5 -308l116.5 224.5l114.5 224.5l-7.5 54.5t-8.5 54.5h-81l11 58h136l39.5 -308l39.5 -308l318 616h136z" />
    <glyph glyph-name="Eth" unicode="&#xd0;" horiz-adv-x="704" 
d="M111 347h79l53 305h-75l11 58h291q67 0 120 -9.5t86 -42t43 -93.5t-8 -163l-18 -106q-17 -96 -52 -154.5t-81.5 -90t-101.5 -41.5t-112 -10h-284l10 57h67l41 236h-79zM644 413q11 59 8 100t-15.5 67.5t-32 41t-43 21.5t-48.5 8t-48 1h-155l-53 -305h101l-10 -54h-101
l-41 -236h149q43 0 85 9t78.5 35.5t64.5 75t42 128.5z" />
    <glyph glyph-name="exclam" unicode="!" horiz-adv-x="301" 
d="M141 188l103 584h67l-94 -531h31l-9 -53h-98zM210 42q-5 -25 -23 -38t-41 -13t-37 13t-9 38t23 38t41 13t37 -13t9 -38z" />
    <glyph glyph-name="twosuperior" unicode="&#xb2;" horiz-adv-x="409" 
d="M109 358l204 163q36 29 58 48.5t27 42.5q7 35 -15.5 46.5t-60.5 11.5h-5q-17 0 -40 -4.5t-43 -15.5q-2 -11 -3.5 -22t-2.5 -22q-9 -3 -18.5 -5.5t-19.5 -4.5q0 21 -0.5 42t0.5 42q38 14 75.5 23t61.5 11q20 0 44.5 -2.5t45 -12t32 -29t5.5 -53.5l-2 -11q-3 -18 -15.5 -34
t-31 -31t-41.5 -31.5t-48 -36.5l-143 -115h210q4 11 6.5 23t4.5 26h38l-16 -94h-315z" />
    <glyph glyph-name="threesuperior" unicode="&#xb3;" horiz-adv-x="380" 
d="M368 606q4 19 -0.5 31t-15 18.5t-26 8.5t-34.5 2q-20 0 -38 -3.5t-37 -11.5q-2 -11 -3.5 -21.5t-2.5 -21.5l-39 -9l3 84q35 11 65.5 18.5t62.5 7.5q19 0 42 -2.5t42.5 -12t31 -28.5t5.5 -52l-1 -6q-6 -34 -23 -50.5t-44 -27.5q32 -13 45.5 -35t4.5 -71l-1 -5
q-5 -30 -22 -51.5t-41.5 -35.5t-54.5 -20.5t-60 -6.5q-40 0 -72 9.5t-53 18.5l24 39q21 -8 47.5 -16.5t61.5 -8.5q17 0 36 4t35.5 13t28.5 24t16 37q8 41 -14 59.5t-69 18.5h-22l1 39h27q33 0 60 12t34 52z" />
    <glyph glyph-name="onesuperior" unicode="&#xb9;" horiz-adv-x="243" 
d="M164 667l7 41h102l-62 -354h44l-7 -41h-136l7 41h40l45 258q6 28 6 55h-46z" />
    <glyph glyph-name="exclamdown" unicode="&#xa1;" horiz-adv-x="222" 
d="M237 381l-10 -53h-32l-93 -531h-66l103 584h98zM258 526q-5 -25 -23 -38t-41 -13t-36.5 13.5t-9.5 37.5q5 26 23 39t41 13t37 -13.5t9 -38.5z" />
    <glyph glyph-name="quotedbl" unicode="&#x22;" horiz-adv-x="243" 
d="M169 735h62l-31 -175h-42zM271 735h59l-51 -175h-39z" />
    <glyph glyph-name="trademark" unicode="&#x2122;" horiz-adv-x="923" 
d="M170 605h-38l19 109h364l-19 -109h-38l6 32q2 9 2.5 18t1.5 17h-120l-58 -330h53l-8 -42h-152l8 42h52l58 330h-64l-56 -3zM456 299l7 39h42l69 333h-47l7 43h102l46.5 -142.5l46.5 -142.5l195 285h100l-7 -43h-47q-14 -85 -25.5 -166.5l-24.5 -166.5h43l-7 -39h-134
l7 39h43q12 77 21.5 146t21.5 147l-91 -135l-91 -134h-32l-43.5 135l-42.5 136l-30.5 -147.5l-30.5 -147.5h42l-7 -39h-133z" />
    <glyph glyph-name="comma" unicode="," horiz-adv-x="207" 
d="M56 42q5 25 23 38t41 13q17 0 29 -6.5t14 -23.5q3 -5 2.5 -19t-2.5 -22q-8 -45 -34.5 -83t-80.5 -64l-12 25q18 13 29 24.5t18 22t11 21.5t6 23q-23 1 -36 13.5t-8 37.5z" />
    <glyph glyph-name="onequarter" unicode="&#xbc;" horiz-adv-x="676" 
d="M668 710l-530 -710h-57l526 710h61zM577 -23l-51 9l11 62h-229l8 43l245 299h62l-247 -299h169l6 37q5 30 4.5 49.5t-2.5 26.5q8 3 16.5 5t16.5 5q11 -8 15.5 -34t-3.5 -89h56l-8 -43h-56zM163 669l8 40h102l-63 -353h43l-7 -41h-135l7 41h40l46 258q2 14 3.5 27.5
t1.5 27.5h-46z" />
    <glyph glyph-name="onehalf" unicode="&#xbd;" horiz-adv-x="708" 
d="M668 710l-530 -710h-57l526 710h61zM377 44l203 161l57 47t27 43q5 34 -17.5 45.5t-58.5 11.5h-7q-19 0 -40.5 -4.5t-38.5 -14.5q-2 -11 -3.5 -22t-2.5 -22q-9 -3 -18 -5.5t-19 -4.5l1 83q37 14 73 22.5t60 10.5q19 0 43 -2.5t44 -12t31.5 -28.5t5.5 -52l-2 -11
q-3 -19 -15 -34.5t-30.5 -31t-41.5 -31.5t-48 -36l-140 -112h207q5 11 7 22.5t5 25.5h37l-16 -92h-310zM164 668l8 41h102l-63 -354h44l-7 -41h-136l7 41h40l46 258q2 14 3.5 27.5t1.5 27.5h-46z" />
    <glyph glyph-name="guilsinglleft" unicode="&#x2039;" horiz-adv-x="324" 
d="M84 329l310 219l-13 -74l-236 -177l173 -188l-14 -75l-231 233z" />
    <glyph glyph-name="germandbls" unicode="&#xdf;" horiz-adv-x="552" 
d="M116 10q-9 -50 -19 -83t-21 -53t-21 -30.5t-19 -14.5q-10 4 -19.5 7l-19.5 6q11 21 23.5 53t21.5 85l86 487q6 37 15 72q11 47 34.5 81.5t55 57t68 33t74.5 10.5q40 0 78.5 -10.5t67 -32.5t42.5 -56.5t6 -82.5l-2 -11q-11 -64 -43.5 -99t-77.5 -50q28 -9 49.5 -23t35 -35
t18 -50.5t-2.5 -68.5l-2 -14q-10 -57 -43 -95.5t-77.5 -62t-95 -34t-95.5 -10.5h-16t-20 0.5t-19 0.5h-15q2 13 5 26t5 26q5 -1 14.5 -1h20.5q30 0 72.5 6.5t83 23.5t72 48t40.5 81q8 45 -3 74t-35.5 46.5t-60 24t-75.5 6.5h-37q0 13 0.5 26t1.5 27q40 0 78 2.5t69 15
t53.5 39t30.5 73.5q6 32 -3 56t-28 40.5t-45 24.5t-56 8q-29 0 -55.5 -9t-47.5 -26t-35.5 -42t-20.5 -58z" />
    <glyph glyph-name="question" unicode="?" horiz-adv-x="649" 
d="M195 669l62 22q53 18 93.5 25.5t78.5 8.5q34 0 76.5 -5t77.5 -22.5t55 -52.5t9 -95q-7 -39 -28.5 -70t-50 -57t-60.5 -48l-60 -41t-47.5 -37t-22.5 -37l-13 -75h-67l15 83q5 29 25 52t48 43t59 39t59 40t48.5 46.5t26.5 59.5q7 37 -3 60t-31.5 35.5t-52 16.5t-66.5 4
q-33 0 -79.5 -8.5t-94.5 -29.5q-9 -47 -15 -98q-14 -2 -28 -3.5t-28 -3.5zM254 42q5 24 23 37.5t41 13.5t37 -13t9 -38t-23 -37.5t-41 -12.5t-37 12t-9 38z" />
    <glyph glyph-name="at" unicode="@" horiz-adv-x="819" 
d="M648 120q45 0 80 39.5t49 120.5q12 67 0.5 127.5t-44 106.5t-83.5 73.5t-119 27.5t-131.5 -26t-115 -71t-87 -106.5t-47.5 -133.5q-12 -66 1.5 -125.5t47.5 -103.5t87.5 -70t121.5 -26q32 0 65 10.5t62 21.5q11 -10 23 -18.5l24 -17.5q-43 -21 -90.5 -34.5t-92.5 -13.5
q-77 0 -139 30t-103.5 82t-58.5 121.5t-4 148.5q13 84 54.5 154.5t101.5 121.5t133.5 80t150.5 29t138.5 -29t102 -81t56.5 -122.5t1 -152.5q-12 -71 -36 -113t-52 -64.5t-56.5 -29.5t-50.5 -7q-25 0 -41.5 5t-26 13t-14 17t-6.5 17q-5 0 -7.5 2t-3.5 3q-22 -21 -50.5 -36
t-76.5 -15q-38 0 -62.5 8.5t-38 24.5t-17 38.5t1.5 50.5l3 16q10 54 53.5 84t131.5 30h80q10 53 -0.5 78.5t-58.5 25.5q-24 0 -53 -3l-47 -5l-4 -26l-39 -2l7 68l34 6.5t39 6t39.5 4t36.5 1.5q47 0 70.5 -14.5t32 -37.5t6 -51.5t-7.5 -55.5l-25 -142q-5 -27 12.5 -43.5
t42.5 -16.5zM556 277h-80q-60 0 -89.5 -18.5t-35.5 -49.5l-2 -15q-7 -38 12.5 -53.5t63.5 -15.5q18 0 36 2.5t34.5 12t29 27.5t20.5 48z" />
    <glyph glyph-name="copyright" unicode="&#xa9;" horiz-adv-x="702" 
d="M502 516q2 13 0.5 21.5t-6.5 15.5l-13 6q-7 2 -15.5 4t-17.5 2q-15 0 -29.5 -5t-26.5 -16.5t-21.5 -31.5t-14.5 -51l-8 -43q-11 -60 4.5 -81.5t53.5 -21.5q34 0 55.5 6t42.5 13l10 -38q-25 -10 -53 -18t-63 -8h-13q-24 0 -46 5t-37 19.5t-21 42t2 72.5l8 49
q9 51 25.5 80.5t38.5 45.5t48.5 20.5t55.5 4.5h14q12 0 32 -4l54 -11l-8.5 -38.5l-9.5 -39.5h-41zM107 442q12 66 47.5 124t86.5 101.5t113.5 68.5t128.5 25t119.5 -25t89 -68.5t50.5 -101.5t3 -124t-47 -124t-86 -101.5t-113.5 -68.5t-128.5 -25t-119.5 25t-89.5 68.5
t-51 101.5t-3 124zM159 441q-10 -56 3 -104.5t43 -85t75 -57.5t100 -21t108 21t96 57.5t72.5 85t39.5 104.5q10 55 -2.5 104t-42.5 85.5t-75.5 57.5t-100.5 21t-107.5 -21t-95.5 -57.5t-73 -85.5t-40 -104z" />
    <glyph glyph-name="questiondown" unicode="&#xbf;" horiz-adv-x="585" 
d="M521 47q-3 -37 -6.5 -74t-6.5 -74q-77 -28 -131 -41.5t-103 -13.5q-23 0 -50.5 2t-54.5 8t-51 17.5t-40.5 31.5t-23.5 48.5t0 69.5q6 37 28 67.5t51 56t61 47l60 41t47.5 38t23.5 37.5l13 74h66l-16 -91q-6 -28 -26 -49.5t-47.5 -40.5t-59 -37t-59 -39t-47.5 -46.5
t-26 -58.5q-7 -38 3 -61t32 -35t53 -16t67 -4q32 1 78.5 9t94.5 30q5 23 8.5 47t6.5 49zM448 526q-4 -24 -22.5 -37.5t-41.5 -13.5t-37 13t-9 38t23 38t41 13t37 -13t9 -38z" />
    <glyph glyph-name="asciicircum" unicode="^" horiz-adv-x="414" 
d="M129 525l83 98l83 99h76l48.5 -99l49.5 -98h-80l-64 149l-117 -149h-79z" />
    <glyph glyph-name="quotesingle" unicode="'" horiz-adv-x="158" 
d="M194 560h-39l16 175h69z" />
    <glyph glyph-name="perthousand" unicode="&#x2030;" horiz-adv-x="979" 
d="M721 710l-285 -355l-284 -355h-68l282.5 354.5l282.5 355.5h72zM389 524q-8 -43 -23 -68t-34.5 -38t-42.5 -17t-47 -4q-26 0 -48.5 4t-38 17.5t-21.5 38.5t2 67l12 67q7 43 22 68.5t35 38.5t44 16.5t49 3.5t47 -4t37 -17.5t20.5 -39t-2.5 -68.5zM351 592q4 25 2 41
t-10.5 25t-22.5 12t-32 3q-36 0 -58.5 -15.5t-31.5 -64.5l-12 -70q-5 -24 -2.5 -39.5t11 -24.5t22 -12t31.5 -3q36 0 59 15t32 65zM654 123q-8 -43 -22.5 -68t-34 -38t-42.5 -16.5t-48 -3.5q-26 0 -48.5 4t-37.5 17.5t-20.5 38t1.5 66.5l12 67q7 43 22 68t35 38t43.5 16.5
t48.5 3.5t47 -4t37 -17t20.5 -38.5t-1.5 -68.5zM617 191q4 25 1.5 41t-10.5 25t-22 12t-32 3q-36 0 -58.5 -15.5t-31.5 -64.5l-12 -70q-8 -49 9 -64t53 -15t59 14.5t32 65.5zM954 123q-8 -43 -22.5 -68t-34 -38t-42.5 -16.5t-48 -3.5q-26 0 -48.5 4t-37.5 17.5t-20.5 38
t1.5 66.5l12 67q7 43 22 68t35 38t43.5 16.5t48.5 3.5t47 -4t37 -17t20.5 -38.5t-1.5 -68.5zM916 191q9 51 -8.5 66t-53.5 15t-58.5 -15.5t-31.5 -64.5l-12 -70q-8 -49 8.5 -64t53.5 -15q36 0 58.5 15t31.5 65z" />
    <glyph glyph-name="numbersign" unicode="#" horiz-adv-x="765" 
d="M357 0l52 110l53 110h-180l-53 -110l-53 -110h-58l52 110l53 110h-138l9 47h152l90 190h-141l8 47h156l49.5 102.5l50.5 103.5h61l-100 -206h178l49.5 102.5l49.5 103.5h62l-100 -206h150l-8 -47h-165l-92 -190h156l-9 -47h-170l-106 -220h-58zM305 267h180l90 190h-178z
" />
    <glyph glyph-name="ring" unicode="&#x2da;" horiz-adv-x="428" 
d="M320 595q-21 0 -37.5 7.5t-27.5 20.5t-15.5 31t-0.5 39q3 20 14 38t26.5 31.5t35 21t40.5 7.5q42 0 65 -28.5t16 -69.5q-8 -42 -41 -70t-75 -28zM327 632q26 0 45 17t24 44q5 26 -8.5 43t-39.5 17t-45 -17t-24 -43q-5 -27 8.5 -44t39.5 -17z" />
    <glyph glyph-name="i" unicode="i" horiz-adv-x="317" 
d="M224 122q-8 -45 4.5 -59t60.5 -6l-8 -57q-34 -7 -61 -6.5t-44 12t-23.5 35.5t0.5 64l68 388h-91l11 58h158zM224 693q4 23 21 36t40 13t35.5 -13t8.5 -36q-5 -24 -21.5 -37t-39.5 -13t-36 12.5t-8 37.5z" />
    <glyph glyph-name="yen" unicode="&#xa5;" horiz-adv-x="667" 
d="M169 224h160l13 74h-160l9 49h147l-68.5 153l-67.5 153h-74l10 57h114l69.5 -159l70.5 -159l273 318h112l-10 -57h-73l-264 -306h131l-9 -49h-142l-13 -74h142l-9 -49h-142l-23 -131l74 -6l-6 -38h-218l6 38h75l24 137h-160z" />
    <glyph glyph-name="percent" unicode="%" horiz-adv-x="683" 
d="M721 710l-285 -355l-284 -355h-68l282.5 354.5l282.5 355.5h72zM389 524q-8 -43 -23 -68t-34.5 -38t-42.5 -17t-47 -4q-26 0 -48.5 4t-38 17.5t-21.5 38.5t2 67l12 67q7 43 22 68.5t35 38.5t44 16.5t49 3.5t47 -4t37 -17.5t20.5 -39t-2.5 -68.5zM351 592q4 25 2 41
t-10.5 25t-22.5 12t-32 3q-36 0 -58.5 -15.5t-31.5 -64.5l-12 -70q-5 -24 -2.5 -39.5t11 -24.5t22 -12t31.5 -3q36 0 59 15t32 65zM654 123q-8 -43 -22.5 -68t-34 -38t-42.5 -16.5t-48 -3.5q-26 0 -48.5 4t-37.5 17.5t-20.5 38t1.5 66.5l12 67q7 43 22 68t35 38t43.5 16.5
t48.5 3.5t47 -4t37 -17t20.5 -38.5t-1.5 -68.5zM617 191q4 25 1.5 41t-10.5 25t-22 12t-32 3q-36 0 -58.5 -15.5t-31.5 -64.5l-12 -70q-8 -49 9 -64t53 -15t59 14.5t32 65.5z" />
    <glyph glyph-name="Euro" unicode="&#x20ac;" horiz-adv-x="671" 
d="M94 310h65l13 74h-65l9 49h66q19 91 52 147.5t77 88t99 42t119 10.5h5q20 0 40.5 -1t44 -5t50.5 -11.5t60 -20.5q-8 -14 -14.5 -27.5t-14.5 -27.5q-42 19 -91 27t-94 8q-39 0 -79 -6.5t-75.5 -30t-63.5 -69.5t-43 -124h232l-9 -49h-234l-13 -74h234l-8 -49h-232
q-8 -65 2 -106.5t33.5 -65.5t58.5 -33.5t78 -9.5q39 0 73 5.5t63.5 13t54 16l45.5 15.5l14 -52l-50 -18t-59.5 -18t-70 -13.5t-80.5 -5.5h-9q-54 0 -100 10.5t-77.5 40.5t-45 83t-2.5 138h-66z" />
    <glyph glyph-name="A" unicode="A" horiz-adv-x="734" 
d="M17 0l10 57h82l303 595h-46l11 58h163l103 -653h82l-10 -57h-136l-33 205h-289l-53 -103l-51 -102h-136zM285 264h254l-59 388z" />
    <glyph glyph-name="ogonek" unicode="&#x2db;" horiz-adv-x="373" 
d="M145 -224q-56 0 -81 26.5t-17 73.5q4 21 14 43.5t25.5 42.5t36 36.5t44.5 25.5l46 -7q-26 -9 -46 -24t-34 -33t-22.5 -37t-11.5 -37q-5 -29 9 -47t48 -18q22 0 44.5 6.5t39.5 14.5l3 -37q-16 -11 -43.5 -20t-54.5 -9z" />
    <glyph glyph-name="fraction" unicode="&#x2044;" horiz-adv-x="345" 
d="M443 710l-353 -710h-68l349 710h72z" />
    <glyph glyph-name="caron" unicode="&#x2c7;" horiz-adv-x="436" 
d="M190 740h65l72 -103l107 103h65l-77.5 -70l-78.5 -70h-48z" />
    <glyph glyph-name="breve" unicode="&#x2d8;" horiz-adv-x="472" 
d="M339 599q-53 0 -87 33.5t-41 86.5l52 9q5 -37 27 -58.5t58 -21.5q38 0 68 22.5t48 57.5l46 -8q-12 -26 -30 -48.5t-40.5 -38.5t-48.5 -25t-52 -9z" />
    <glyph glyph-name="hyphen" unicode="-" horiz-adv-x="419" 
d="M111 316h297l-10 -58h-297z" />
    <glyph glyph-name="mu" unicode="&#xb5;" horiz-adv-x="564" 
d="M15 -172l11.5 40t11.5 51l112 632h67l-68 -382q-10 -57 15 -87.5t79 -30.5q29 0 58.5 6.5t56.5 19t49.5 31.5t36.5 44l71 399h66l-78 -443q-6 -32 0.5 -44.5t21.5 -12.5l20 2l-1 -50q-9 -2 -22 -4t-24 -2q-17 0 -25.5 5.5t-13 15t-7.5 24t-9 32.5q-18 -21 -43 -36.5
t-53.5 -25t-59 -14t-58.5 -4.5q-76 0 -104 37l-18 -104q-9 -49 -20.5 -81t-22.5 -51t-21 -28t-14 -12q-10 3 -19 6t-18 7q5 9 11 23t12 37z" />
    <glyph glyph-name="thorn" unicode="&#xfe;" horiz-adv-x="562" 
d="M103 -190l-35.5 -10.5l-35.5 -10.5l170 964l31.5 -10l31.5 -10l-38 -212q39 15 78 26t81 11q45 0 85 -10t67.5 -37t39 -75t-1.5 -124l-15 -83q-12 -68 -35.5 -114t-58.5 -74.5t-81.5 -41t-104.5 -12.5q-39 0 -73.5 8.5t-66.5 27.5zM152 86q20 -18 57 -31t85 -13
q30 0 61 8t59 29.5t50 60t33 99.5l12 69q11 61 3.5 98.5t-27 58.5t-48.5 28t-61 7q-57 0 -94 -11.5t-63 -22.5z" />
    <glyph glyph-name="Thorn" unicode="&#xde;" horiz-adv-x="603" 
d="M192 868l10 57h209l-10 -57h-75l-29 -161h119q65 0 116 -8.5t83.5 -31t45 -62.5t1.5 -102l-14 -81q-11 -62 -37.5 -102t-67 -62.5t-94.5 -31t-119 -8.5h-119l-28 -161h75l-10 -57h-209l10 57h68l143 811h-68zM593 491q7 55 -4.5 86.5t-37.5 47.5t-64.5 20t-83.5 4h-58
t-58 -1l-66 -371q29 -1 58 -1h58q45 0 85 4t71.5 20t54.5 47.5t35 86.5z" />
    <glyph glyph-name="dotaccent" unicode="&#x2d9;" horiz-adv-x="245" 
d="M185 680q5 25 23.5 38.5t41.5 13.5t36.5 -13t8.5 -39q-4 -24 -22.5 -37.5t-41.5 -13.5t-36.5 13t-9.5 38z" />
    <glyph glyph-name="hungarumlaut" unicode="&#x2dd;" horiz-adv-x="436" 
d="M335 717l-80 -120h-50l76 120h54zM475 717l-80 -120h-50l76 120h54z" />
    <glyph glyph-name="macron" unicode="&#xaf;" horiz-adv-x="517" 
d="M202 710h364l-9 -50h-364z" />
    <glyph glyph-name="commaaccent" unicode="&#xf6c3;" horiz-adv-x="219" 
d="M43 -128q4 24 19 37t36 13q29 0 36 -27q3 -5 3 -18.5t-2 -21.5q-8 -45 -34.5 -83.5t-81.5 -64.5l-13 25q18 14 30.5 25.5t20 22t11.5 21t6 21.5q-17 2 -26 15t-5 35z" />
    <glyph glyph-name="dotlessi" unicode="&#x131;" horiz-adv-x="317" 
d="M224 122q-8 -45 4.5 -59t60.5 -6l-8 -57q-34 -7 -61 -6.5t-44 12t-23.5 35.5t0.5 64l68 388h-91l11 58h158z" />
    <glyph glyph-name="s_t" unicode="&#xfb06;" horiz-adv-x="756" 
d="M642 713q17 2 35 4.5t34 5.5l-30 -172h123l-11 -58h-123l-24.5 -136.5t-22.5 -127.5l-22 -125q-5 -31 5.5 -40t21.5 -9t30 2t48 8q1 -14 0.5 -26.5t0.5 -25.5q-30 -5 -56 -8.5t-48 -3.5q-47 0 -61 33.5t-1 102.5l62 356h-271q-31 0 -58 -3t-48.5 -11.5t-35 -22.5
t-17.5 -36q-9 -48 18 -69t92 -30q18 -3 42 -5t48 -7t46.5 -14.5t38.5 -26t23 -42t0 -62.5q-15 -88 -83 -133t-167 -45q-44 0 -94 4.5t-104 21.5q7 32 13 62.5t13 62.5h55l-13 -74q29 -10 67 -15t67 -5q42 0 73.5 11t53.5 28.5t34.5 40t16.5 45.5q5 27 -6.5 43.5t-33 26.5
t-50 15t-57.5 9q-2 0 -4.5 0.5t-4.5 0.5q-48 6 -79.5 18t-49.5 30.5t-23 44t1 57.5q7 37 28 63.5t51.5 43t68 24t78.5 7.5h282z" />
    <glyph glyph-name="s_p" horiz-adv-x="1015" 
d="M337 494q-44 0 -74.5 -5.5t-50 -15.5t-29 -24.5t-12.5 -31.5q-8 -48 19 -69t92 -30q18 -3 41.5 -5t48 -7t47 -14.5t38 -26t22.5 -42t1 -62.5q-16 -88 -83 -133t-167 -45q-44 0 -98 4.5t-108 21.5q7 32 12 62.5t11 62.5h65l-13 -74q15 -5 32.5 -8.5t35.5 -6t35.5 -4
t31.5 -1.5q42 0 73.5 11t53.5 28.5t34.5 40t16.5 45.5q4 27 -7.5 43.5t-33 26.5t-50 15t-57.5 9q-2 0 -4.5 0.5t-4.5 0.5q-48 6 -79.5 18t-49 30.5t-22.5 44t1 57.5q13 73 69 109t145 36h283q26 0 34.5 -11.5t12.5 -31.5l8 -8q13 9 28.5 18.5t37 17t50.5 12.5t70 5
q43 0 81.5 -11t65 -39.5t36 -78t-3.5 -125.5l-13 -73q-13 -75 -39.5 -122t-62.5 -73.5t-78 -36t-87 -9.5q-64 0 -95 9t-48 20l-10 6l-38 -214l-71 -22l115 649q5 31 2 44t-31 13h-229zM598 77l6 -3l22 -10.5t27.5 -9.5t37 -6.5t51.5 -2.5q32 0 63.5 7t59 27.5t48.5 57.5
t32 98l12 69q11 61 3 99.5t-28.5 60.5t-49 30.5t-58.5 8.5q-48 0 -90.5 -14.5t-68.5 -33.5z" />
    <glyph glyph-name="eth" unicode="&#xf0;" horiz-adv-x="670" 
d="M419 520q0 12 -5 22t-5 22l158 67q-7 10 -23 22.5t-34.5 23.5t-38 19t-32.5 8q11 21 26 44q24 0 48 -9t45.5 -22t40 -28.5t30.5 -29.5l61.5 26.5l61.5 25.5l11 -44l-54.5 -23.5l-54.5 -23.5q13 -32 16.5 -71.5t-5.5 -90.5l-31 -180q-17 -96 -46 -154t-69.5 -89t-92 -40.5
t-113.5 -9.5q-59 0 -107 10t-79.5 36t-44 71t-0.5 115q15 84 48.5 130.5t79 68.5t99 26.5t108.5 4.5q33 0 58.5 -3.5t45.5 -9.5t36 -13.5l31 -14.5q10 57 14 103.5t-12 81.5l-85.5 -35zM579 358q-27 11 -69.5 23t-99.5 12h-47q-32 0 -65.5 -6t-62.5 -24.5t-51.5 -53.5
t-32.5 -92q-11 -62 1.5 -97t38.5 -52.5t60.5 -22t68.5 -4.5q40 0 77.5 5t69 26t56 64t37.5 119z" />
    <glyph glyph-name="currency" unicode="&#xa4;" horiz-adv-x="489" 
d="M194 259q-8 -45 16 -72.5t68 -27.5q43 0 76 27.5t41 72.5q8 43 -15.5 71.5t-66.5 28.5q-44 0 -77.5 -28.5t-41.5 -71.5zM133 259q8 40 31 73l-54 66l80 69l54 -66q37 19 80 19q40 0 72 -18l73 61l54 -67l-72 -61q6 -17 8 -36.5t-2 -39.5q-4 -21 -12.5 -40.5t-20.5 -36.5
l49 -60l-79 -69l-50 62q-20 -10 -39 -14t-38 -4q-20 0 -38.5 4t-33.5 14l-78 -65l-55 68l77 66q-6 17 -8 35.5t2 39.5z" />
    <glyph glyph-name="ordmasculine" unicode="&#xba;" horiz-adv-x="357" 
d="M414 515q-10 -56 -28 -90t-42 -52.5t-51.5 -24.5t-57.5 -6h-6q-29 0 -54.5 6t-42 24t-22.5 51t3 86l7 38q10 55 28.5 87.5t42.5 49.5t52.5 22t58.5 5q29 0 54.5 -6t42.5 -24.5t23.5 -52t-3.5 -88.5zM360 539q7 42 3.5 66.5t-14 37t-26.5 16.5t-34 4t-35 -4t-32 -16.5
t-27.5 -37.5t-19.5 -67l-4 -25q-8 -42 -4 -66.5t14.5 -37t26.5 -16t33 -3.5q16 0 33 3.5t32.5 15.5t28 36t19.5 65z" />
    <glyph glyph-name="brokenbar" unicode="&#xa6;" horiz-adv-x="221" 
d="M271 781l-62 -355h-67l62 355h67zM184 289l-63 -360h-67l63 360h67z" />
    <glyph glyph-name="p" unicode="p" horiz-adv-x="624" 
d="M89 -212l116 655q6 36 -2 46t-19 10q-28 0 -53 -9l-3 44q28 9 46 14t36 5q45 0 56 -48q13 9 29 18.5t37.5 17t50 12.5t66.5 5q45 0 84.5 -11t65.5 -39.5t35.5 -78t-3.5 -126.5l-13 -73q-13 -75 -40 -122t-62.5 -73.5t-78 -36t-87.5 -9.5q-36 0 -61 2.5t-42 7t-28.5 11
t-21.5 14.5l-38 -214zM206 77l6 -3l22 -10.5t27.5 -9.5t37 -6.5t51.5 -2.5q32 0 63.5 7t59 27.5t48.5 57.5t32 98l12 69q11 61 3 99.5t-28 60.5t-48.5 30.5t-58.5 8.5q-48 0 -90.5 -14t-69.5 -32z" />
    <glyph glyph-name="q" unicode="q" horiz-adv-x="622" 
d="M412 -212l42 236q-10 -7 -22.5 -13.5t-30.5 -11.5t-43 -8t-60 -3q-45 0 -85.5 10t-68.5 36.5t-39.5 73.5t1.5 122l13 73q13 77 41 126.5t65.5 78t81.5 39.5t90 11q35 0 60.5 -5t43.5 -12.5t31 -17.5t22 -19q25 49 74 49q18 0 33.5 -5.5t41.5 -13.5l-20 -45
q-17 7 -29.5 8.5t-20.5 1.5q-11 0 -22.5 -11t-16.5 -40l-112 -638zM530 457q-20 19 -58 32.5t-85 13.5q-30 0 -61 -8.5t-59 -30.5t-49.5 -60.5t-32.5 -99.5l-12 -69q-11 -61 -3 -98t28 -57.5t49 -27.5t61 -7q62 0 96 8.5t59 22.5z" />
    <glyph glyph-name="c" unicode="c" horiz-adv-x="534" 
d="M482 409l12 75q-26 11 -56.5 14.5t-52.5 3.5q-28 0 -58.5 -6.5t-58.5 -26t-50 -56t-32 -95.5l-16 -88q-12 -66 -1 -103t33.5 -55.5t52.5 -22.5t57 -4q56 0 97 9.5t73 20.5l4 -27t5 -27q-35 -14 -85.5 -22.5t-116.5 -8.5q-46 0 -86 9t-66.5 35t-36.5 72.5t4 121.5l15 86
q13 76 41 123.5t65 74.5t80.5 36.5t89.5 9.5q22 0 39.5 -1t35.5 -3.5t39 -7t48 -12.5q-6 -32 -13 -63t-12 -62h-50z" />
    <glyph glyph-name="onedotenleader" unicode="&#x2024;" horiz-adv-x="192" 
d="M36 42q5 25 23 38t41 13t37 -13t9 -38t-23 -38t-41 -13t-37 13t-9 38z" />
    <glyph glyph-name="twodotenleader" unicode="&#x2025;" horiz-adv-x="358" 
d="M36 42q5 25 23 38t41 13t37 -13t9 -38t-23 -38t-41 -13t-37 13t-9 38zM206 42q5 25 23 38t41 13t37 -13t9 -38t-23 -38t-41 -13t-37 13t-9 38z" />
    <glyph glyph-name="uni2215" unicode="&#x2215;" horiz-adv-x="328" 
d="M443 710l-353 -710h-68l349 710h72z" />
    <glyph glyph-name="uni2219" unicode="&#x2219;" horiz-adv-x="833" 
 />
    <glyph glyph-name="radical" unicode="&#x221a;" horiz-adv-x="696" 
d="M103 492l10 58h137l40 -266l40 -266l305 597q36 69 64 111.5t50.5 67t40 35t31.5 15.5q2 -10 5 -19l6 -18q-18 -11 -41 -39.5t-46 -73.5l-405 -790h-58l-97 588h-82z" />
    <glyph glyph-name="infinity" unicode="&#x221e;" horiz-adv-x="591" 
d="M583 245q-6 -32 -22.5 -57.5t-39.5 -43t-50 -27t-53 -9.5h-2q-21 0 -35.5 4.5t-24.5 11.5t-17.5 15.5t-16.5 17.5l-21 -18t-22 -15.5t-28 -11t-40 -4.5q-26 0 -49.5 9.5t-41 27t-26 42.5t-2.5 57v2q6 32 23 57t40 42.5t50 26.5t53 9q22 0 36.5 -4.5t24.5 -11t17.5 -15
l15.5 -17.5q23 17 47 32.5t66 15.5q26 0 49.5 -9.5t41 -27t25.5 -43t2 -56.5zM450 303q-23 0 -41.5 -16t-23.5 -42t8.5 -41.5t36.5 -15.5t41.5 15.5t23.5 41.5t-8.5 42t-36.5 16zM290 245q4 26 -9 42t-36 16t-41.5 -16t-23.5 -42q-5 -27 8.5 -42t36.5 -15t41.5 15.5
t23.5 41.5z" />
    <glyph glyph-name="lozenge" unicode="&#x25ca;" horiz-adv-x="443" 
d="M183 0l-46 177.5l-46 177.5l109 177.5l108 177.5h71l102 -355l-227 -355h-71zM330 634l-84.5 -139.5l-85.5 -139.5l36.5 -140l35.5 -140l179 280z" />
    <glyph glyph-name="uni037E" unicode="&#x37e;" horiz-adv-x="187" 
d="M52 42q5 25 22.5 38t41.5 13q17 0 28.5 -6.5t13.5 -23.5q3 -5 2.5 -19t-2.5 -22q-8 -45 -34.5 -83t-80.5 -64l-12 25q18 13 29 24.5t18 22t11 21.5t6 23q-23 1 -35.5 13.5t-7.5 37.5zM124 449q4 24 22.5 37.5t41.5 13.5t36.5 -13t9.5 -38q-5 -25 -23 -38t-41 -13t-37 13
t-9 38z" />
    <glyph glyph-name="litre" unicode="&#x2113;" horiz-adv-x="543" 
d="M81 222q8 48 33.5 90.5t62 73.5t82 49t93.5 18t87 -18t65 -49t36.5 -73.5t2.5 -90.5q-9 -48 -34.5 -90.5t-62 -73.5t-82 -49t-93.5 -18t-87 18t-64.5 49t-36.5 73.5t-2 90.5z" />
    <glyph glyph-name="tonos" unicode="&#x384;" horiz-adv-x="174" 
d="M172 584q-2 32 -3.5 63.5t-2.5 63.5h74l-23 -127h-45v0z" />
    <glyph glyph-name="anoteleia" unicode="&#x387;" horiz-adv-x="211" 
d="M145 172q-36 0 -58 22t-14 62q6 38 36 61.5t66 23.5t57 -23.5t14 -61.5q-8 -39 -36.5 -61.5t-64.5 -22.5z" />
    <glyph glyph-name="Alphatonos" unicode="&#x386;" horiz-adv-x="707" 
d="M209 584q-1 32 -2.5 63.5t-3.5 63.5h75l-23 -127h-46zM17 0l10 57h82l303 595h-46l11 58h163l103 -653h82l-10 -57h-136l-33 205h-289l-53 -103l-51 -102h-136zM285 264h254l-59 388z" />
    <glyph glyph-name="Etatonos" unicode="&#x389;" horiz-adv-x="815" 
d="M626 652l11 58h234l-11 -58h-83l-104 -595h83l-10 -57h-234l10 57h83l49 278h-363l-49 -278h83l-10 -57h-235l10 57h83l104 595h-83l11 58h235l-11 -58h-83l-45 -260h363l45 260h-83zM110 584q-2 32 -3.5 63.5t-2.5 63.5h74l-23 -127h-45z" />
    <glyph glyph-name="Xi" unicode="&#x39e;" horiz-adv-x="636" 
d="M218 394h363l-10 -55h-363zM183 534h-50l31 176h567l-31 -176h-50l7 39q3 21 5.5 40.5t4.5 38.5h-373q-23 0 -45.5 -1.5t-45.5 -3.5zM112 136l-6 -40t-5 -39h462q5 19 9 38.5t7 40.5l8 40h50l-31 -176h-567l31 176h50z" />
    <glyph glyph-name="Omicrontonos" unicode="&#x38c;" horiz-adv-x="686" 
d="M479 720q53 0 101 -12t81 -45.5t45.5 -95t-5.5 -160.5l-18 -102q-17 -99 -50.5 -160.5t-77.5 -96t-96.5 -47t-107.5 -12.5q-56 0 -104 12.5t-80 47t-43.5 96.5t5.5 160l18 102q18 99 52 160t78.5 95t96.5 46t105 12zM469 663q-43 0 -82.5 -10t-72.5 -39t-58 -81t-40 -136
l-18 -97q-14 -80 -6 -129.5t32 -77.5t59.5 -37.5t77.5 -9.5t81 9.5t72 37.5t58 77.5t39 129.5l18 97q15 84 8 136t-30 81t-59 39t-79 10zM115 584q-2 32 -3 63.5l-2 63.5h73l-23 -127h-45z" />
    <glyph glyph-name="Pi" unicode="&#x3a0;" horiz-adv-x="720" 
d="M464 48h75l106 604h-328l-106 -604h75l-8 -48h-218l8 48h75l106 604h-83l11 58h630l-11 -58h-83l-106 -604h75l-8 -48h-218z" />
    <glyph glyph-name="Phi" unicode="&#x3a6;" horiz-adv-x="682" 
d="M571 710l-11 -58h-75l-11 -63q77 0 124 -16t71 -46t28 -74t-6 -100q-10 -57 -30 -101t-55 -74t-87.5 -45.5t-127.5 -15.5l-10 -60h75l-10 -57h-216l10 57h75l10 60q-76 0 -123 15.5t-71 45.5t-28 74t6 101q10 58 29.5 102t54 74t87 45t128.5 15l11 63h-75l11 58h216z
M171 358q-7 -39 -6 -73t17.5 -58.5t53 -38.5t99.5 -14l63 358q-63 0 -104.5 -14t-66.5 -38t-37.5 -55.5t-18.5 -66.5zM631 358q6 35 4.5 66.5t-18.5 55.5t-53.5 38t-99.5 14l-63 -358q63 0 104.5 14t67 38.5t38.5 58.5t20 73z" />
    <glyph glyph-name="Psi" unicode="&#x3a8;" horiz-adv-x="775" 
d="M508 579l-51 -286q27 1 57 9.5t56 24t46 40t26 59.5l24 137q8 46 20 82l22 66l123 -15q-2 -10 -8 -23t-9 -31l-68 8l-39 -223q-9 -48 -34.5 -83.5t-61 -58.5t-78.5 -35.5t-86 -13.5l-31 -179h75l-10 -57h-216l10 57h75l31 179q-43 1 -81.5 13.5t-65.5 36t-40 58.5t-4 83
l39 223l-74 -8q3 18 2 31t0 23l131 15q-1 -30 -1.5 -66t-8.5 -82l-24 -137q-6 -35 4.5 -59.5t31.5 -40t48 -24t53 -9.5l51 286h66z" />
    <glyph glyph-name="Omega" unicode="&#x3a9;" horiz-adv-x="660" 
d="M450 664q-44 0 -84 -10.5t-73 -39.5t-58 -81.5t-40 -136.5q-11 -65 -8 -110t18 -75t39 -45.5t55 -19.5l-25 -146h-185l10 57h120l8 50q-31 7 -55.5 26.5t-39.5 53t-18 84t10 121.5l3 18q17 98 51 159t79 94.5t97 45.5t106 12t102 -12t80.5 -45.5t45 -94.5t-4.5 -159
l-3 -18q-13 -71 -34 -121.5t-47.5 -84t-58 -53t-65.5 -26.5l-8 -50h120l-10 -57h-185l25 146q32 4 62 19.5t55 45.5t44.5 75t30.5 110q15 84 8.5 136.5t-29 81.5t-58.5 39.5t-80 10.5z" />
    <glyph glyph-name="Omega" unicode="&#x2126;" horiz-adv-x="660" 
d="M450 664q-44 0 -84 -10.5t-73 -39.5t-58 -81.5t-40 -136.5q-11 -65 -8 -110t18 -75t39 -45.5t55 -19.5l-25 -146h-185l10 57h120l8 50q-31 7 -55.5 26.5t-39.5 53t-18 84t10 121.5l3 18q17 98 51 159t79 94.5t97 45.5t106 12t102 -12t80.5 -45.5t45 -94.5t-4.5 -159
l-3 -18q-13 -71 -34 -121.5t-47.5 -84t-58 -53t-65.5 -26.5l-8 -50h120l-10 -57h-185l25 146q32 4 62 19.5t55 45.5t44.5 75t30.5 110q15 84 8.5 136.5t-29 81.5t-58.5 39.5t-80 10.5z" />
    <glyph glyph-name="Omegatonos" unicode="&#x38f;" horiz-adv-x="659" 
d="M450 664q-44 0 -84 -10.5t-73 -39.5t-58 -81.5t-40 -136.5q-11 -65 -8 -110t18 -75t39 -45.5t55 -19.5l-25 -146h-185l10 57h120l8 50q-31 7 -55.5 26.5t-39.5 53t-18 84t10 121.5l3 18q17 98 51 159t79 94.5t97 45.5t106 12t102 -12t80.5 -45.5t45 -94.5t-4.5 -159
l-3 -18q-13 -71 -34 -121.5t-47.5 -84t-58 -53t-65.5 -26.5l-8 -50h120l-10 -57h-185l25 146q32 4 62 19.5t55 45.5t44.5 75t30.5 110q15 84 8.5 136.5t-29 81.5t-58.5 39.5t-80 10.5zM118 584q-2 32 -3.5 63.5t-2.5 63.5h74l-23 -127h-45z" />
    <glyph glyph-name="beta" unicode="&#x3b2;" horiz-adv-x="551" 
d="M5 -168q12 26 24 64t21 90l89 505q10 58 37 101.5t63 71.5t78.5 42t83.5 14q39 0 74 -12t60 -36t36.5 -58.5t3.5 -79.5q-12 -67 -43.5 -102.5t-77.5 -52.5q29 -10 50.5 -25t34.5 -37.5t16 -54t-4 -74.5q-10 -56 -42 -94.5t-75 -62.5t-92 -34.5t-94 -10.5h-18.5t-21.5 0.5
t-21 0.5h-17q2 13 5 26t5 26q5 -1 15 -1h21q31 0 73.5 6.5t83 24t71.5 48.5t40 80q8 45 -2.5 74t-34.5 46t-59 24t-76 7h-38v53h37q35 0 67 5t58 19t44 39.5t25 66.5q6 31 -2 54.5t-24.5 39.5t-40 24t-48.5 8q-29 0 -58 -10t-53.5 -30.5t-43.5 -51.5t-26 -73l-86 -489
q-14 -81 -32.5 -121.5t-30.5 -55.5z" />
    <glyph glyph-name="gamma" unicode="&#x3b3;" horiz-adv-x="633" 
d="M697 551l-11 -58h-81l-263 -487l-25 -141h75l-14 -77h-215l14 77h74l24 138l-38.5 245l-38.5 245h-81l11 58h135q15 -118 31 -228t30 -228l237 456h136z" />
    <glyph glyph-name="zeta" unicode="&#x3b6;" horiz-adv-x="627" 
d="M455 -89q6 35 -13.5 57.5t-55.5 22.5h-58q-24 0 -51.5 2t-54.5 8t-51.5 17.5t-41 31.5t-24 48.5t-0.5 69.5l1 6q10 53 51 95q30 32 82.5 76.5l116 95.5l131.5 105l129 105h-401q-7 -25 -12 -49.5t-10 -52.5h-50l29 161h537l-11 -59l-194 -161.5l-176 -144.5l-64 -53
t-46 -41t-29.5 -37t-14.5 -40q-8 -47 8.5 -72.5t51 -37.5t83.5 -14.5t105 -2.5q27 0 47.5 -11t33 -29.5t17 -44t-0.5 -53.5q-5 -27 -21.5 -49t-40 -37.5t-51.5 -24t-56 -8.5q-1 10 -1 21.5t-2 21.5q47 1 72.5 20.5t35.5 57.5z" />
    <glyph glyph-name="theta" unicode="&#x3b8;" horiz-adv-x="493" 
d="M519 381l-15.5 -81.5t-17.5 -75.5q-20 -69 -47.5 -114.5t-60 -72.5t-67.5 -37.5t-71 -10.5q-47 0 -83 15.5t-56.5 57.5t-23 115.5t17.5 188.5q18 103 47 171.5t65 109.5t77 57.5t85 16.5q40 0 74.5 -17t57 -57t29 -105t-10.5 -161zM249 45q30 0 59 12.5t54.5 45t46.5 87
t36 138.5h-291q-15 -86 -13.5 -140.5t15 -86.5t38 -44t55.5 -12zM456 386q12 78 9 131t-17 85.5t-37.5 47t-51.5 14.5t-56.5 -14t-54 -46.5t-47 -85.5t-36.5 -132h291z" />
    <glyph glyph-name="lambda" unicode="&#x3bb;" horiz-adv-x="678" 
d="M30 0l10 58h64l286 503q-7 24 -12 50t-16 47t-31.5 34.5t-58.5 13.5l10 58q62 0 94 -21t48 -53t22 -69t16 -70l102 -493q16 0 32 -0.5t32 -0.5l-10 -57h-111q-26 119 -47.5 240.5t-47.5 240.5l-271 -481h-111z" />
    <glyph glyph-name="uni03BC" unicode="&#x3bc;" horiz-adv-x="612" 
d="M35 -172l11.5 40t11.5 51l112 632h67l-68 -382q-10 -57 15 -87.5t79 -30.5q29 0 58.5 6.5t56.5 19t49.5 31.5t36.5 44l71 399h66l-78 -443q-6 -32 0.5 -44.5t21.5 -12.5l20 2l-1 -50q-9 -2 -22 -4t-24 -2q-17 0 -25.5 5.5t-13 15t-7.5 24t-9 32.5q-18 -21 -43 -36.5
t-53.5 -25t-59 -14t-58.5 -4.5q-76 0 -104 37l-18 -104q-9 -49 -20.5 -81t-22.5 -51t-21 -28t-14 -12q-21 6 -38 13q5 9 11.5 23t12.5 37z" />
    <glyph glyph-name="xi" unicode="&#x3be;" horiz-adv-x="586" 
d="M322 -12q-124 0 -173 48.5t-29 163.5q14 80 53 120.5t101 58.5q-19 7 -33.5 18.5t-24 28.5t-12 40t2.5 54q10 54 35.5 84.5t63.5 47.5h-154l11 58h516l-31 -176h-50l7 39q3 21 5.5 40.5t4.5 38.5h-164q-30 -3 -58.5 -8.5t-52.5 -19t-41 -36t-23 -58.5q-8 -44 6 -69.5
t41.5 -39t64 -17.5t73.5 -4l-19 -53h-42q-39 0 -74.5 -6.5t-63 -23t-47 -45t-26.5 -72.5q-8 -45 -3.5 -74t22.5 -46.5t50 -25t80 -8.5q36 0 68 -6.5t55 -22t34 -41.5t4 -65q-5 -27 -22 -50t-41 -39.5t-52 -25.5t-55 -9q-2 10 -3 19.5t-3 20.5q22 0 40.5 7t32.5 18.5
t23.5 25.5t13.5 29q5 29 -4 45t-26 24t-39 10t-42 2z" />
    <glyph glyph-name="pi" unicode="&#x3c0;" horiz-adv-x="734" 
d="M466 57h75l76 436h-328l-76 -436h75l-10 -57h-218l10 57h75l76 436h-83l11 58h630l-11 -58h-83l-76 -436h75l-10 -57h-218z" />
    <glyph glyph-name="rho" unicode="&#x3c1;" horiz-adv-x="617" 
d="M598 227q-14 -75 -41 -121.5t-63.5 -72.5t-80 -35t-89.5 -9q-35 0 -59 2.5t-41 7t-29.5 11t-23.5 14.5l-40 -225q-17 -2 -34 -5l-34 -6l93 527q13 77 40.5 124.5t63.5 74t79 35.5t88 9t84.5 -9.5t66.5 -36.5t37.5 -75t-2.5 -124zM546 317q11 60 2.5 96.5t-28.5 56t-48 26
t-55 6.5q-28 0 -57.5 -6.5t-56.5 -26t-48.5 -55.5t-31.5 -95l-21 -119l-11 -65.5t-7 -58.5q11 -6 23.5 -12t29.5 -10.5t39.5 -7.5t54.5 -3q31 0 62 7t58 27t48 56t32 95z" />
    <glyph glyph-name="uni03C2" unicode="&#x3c2;" horiz-adv-x="481" 
d="M379 -93q7 36 -13.5 58.5t-55.5 22.5h-42q-46 0 -86 9.5t-66.5 35.5t-36.5 73t4 122l15 86q13 76 41 123.5t65 74.5t80.5 36.5t89.5 9.5q16 0 38.5 -1.5t46 -4.5t45 -8t36.5 -12l-25 -123h-54l12 75q-26 11 -56.5 14.5t-52.5 3.5q-28 0 -58.5 -6.5t-58.5 -26t-50 -56
t-32 -95.5l-16 -88q-10 -55 -3.5 -89.5t22 -54.5t38 -28.5t45.5 -11.5l37 -2q32 0 60 -4.5t49 -15.5t34 -30t15 -49l-1 -6q2 -17 -1 -32q-5 -27 -20.5 -49t-38 -38t-50.5 -24.5t-56 -8.5h-5q-2 10 -3 19.5t-2 20.5q45 0 72.5 21t37.5 59z" />
    <glyph glyph-name="sigma" unicode="&#x3c3;" horiz-adv-x="598" 
d="M561 238q-14 -80 -40.5 -128.5t-62.5 -75.5t-79 -36t-90 -9t-87 9t-66.5 34.5t-36.5 72.5t4 124l15 86q13 77 40.5 124.5t63.5 74t79 35.5t88 9h275l-10 -54h-121q28 -25 41.5 -71t0.5 -120zM508 317q10 60 2 96t-28 56t-47.5 26.5t-54.5 6.5q-28 0 -58 -6.5t-57 -26
t-48.5 -55.5t-31.5 -95l-17 -93q-11 -60 -2.5 -96t28.5 -55t48 -24.5t57 -5.5q26 0 55.5 5.5t56.5 24.5t48.5 54.5t32.5 94.5z" />
    <glyph glyph-name="tau" unicode="&#x3c4;" horiz-adv-x="558" 
d="M154 374h-50l31 176h475l-31 -176h-49l22 120l-4 -0.5t-20 -0.5h-47.5h-86.5l-76 -436h91l-10 -57h-249l10 57h91l76 436h-152z" />
    <glyph glyph-name="phi" unicode="&#x3c6;" horiz-adv-x="574" 
d="M443 722l-29 -163q43 -2 79 -13t60 -38t32.5 -74t-4.5 -119l-14 -82q-13 -73 -38.5 -119.5t-59 -73.5t-73.5 -38t-82 -12l-36 -203h-63l36 203q-43 1 -79 12t-59.5 38t-32 73t3.5 117l15 84q13 72 37 119t57 74.5t73.5 38.5t84.5 13l29 163h63zM146 228q-10 -56 -3.5 -91
t24 -54.5t42.5 -27.5t52 -9l80 457q-27 -1 -54.5 -9.5t-52 -29t-43.5 -56t-29 -90.5zM518 317q10 56 3.5 92t-24 56.5t-42 28.5t-51.5 9l-80 -457q25 1 52 8.5t52 27t44.5 54t29.5 90.5z" />
    <glyph glyph-name="psi" unicode="&#x3c8;" horiz-adv-x="624" 
d="M464 681l-112 -635q27 1 54.5 8.5t51.5 27t43.5 54.5t29.5 91l23 133q8 45 20.5 75t26.5 50l50 -17q-9 -17 -17 -40t-14 -55l-25 -143q-13 -72 -38 -117.5t-58.5 -72.5t-73.5 -38t-83 -12l-36 -203h-67l36 203q-42 1 -78 12.5t-60.5 38.5t-33.5 73.5t4 118.5l24 140
q6 32 6.5 55t-2.5 40l56 17q6 -20 8 -50t-6 -75l-24 -134q-10 -56 -2.5 -90.5t25.5 -54t43 -27t50 -8.5l112 635h67z" />
    <glyph glyph-name="omega" unicode="&#x3c9;" horiz-adv-x="751" 
d="M152 410q8 46 18 76.5t20.5 50t20.5 30t19 15.5q9 -3 19 -7.5l19 -8.5q-11 -19 -25 -50t-24 -85l-46 -263q-4 -24 -2.5 -45.5t10.5 -37.5t26.5 -25t45.5 -9q37 0 60 12.5t36.5 33t20.5 46.5t12 54l41 232h63l-41 -231q-6 -32 -7.5 -59t6 -46.5t25.5 -30.5t53 -11
q28 0 49 9.5t36 25.5t24 37t13 45l47 264q9 53 5.5 83.5t-6.5 51.5l44 16q6 -5 12.5 -15t10.5 -29.5t3.5 -50.5t-8.5 -77l-42 -239q-7 -39 -22 -71.5t-39 -56.5t-57 -37.5t-75 -13.5q-61 0 -87.5 22t-35.5 69q-29 -47 -63 -69t-92 -22q-43 0 -71 13.5t-43 37.5t-18.5 57
t3.5 71z" />
    <glyph glyph-name="uni03D1" unicode="&#x3d1;" horiz-adv-x="644" 
d="M693 330l-24 -57h-75l-11 -45q-16 -71 -48 -115.5t-73 -69.5t-88.5 -34t-95.5 -9t-104 11t-121 43l16.5 24.5t16.5 25.5q22 -13 48.5 -21.5t53.5 -14t53 -8t46 -2.5q33 0 68.5 6.5t67.5 24.5t57 50t36 84q3 11 5.5 23.5t6.5 26.5h-194q-46 0 -88 8t-71.5 33t-42 70.5
t1.5 120.5q12 72 40.5 116.5t67.5 69t85.5 33t95.5 8.5q59 0 104.5 -7.5t73 -36t34.5 -85t-10 -154.5l-21 -119h89zM560 459q13 76 6.5 119t-27.5 65t-54 27.5t-73 5.5q-34 0 -67.5 -4.5t-62 -21.5t-50 -51t-31.5 -92t0 -93t32 -53.5t52 -24.5t60 -6h193z" />
    <glyph glyph-name="afii10018" unicode="&#x411;" horiz-adv-x="680" 
d="M178 710h520l-27 -150h-53l8 45q5 28 5 47h-312l-44 -252h147q52 0 101 -6.5t85.5 -26.5t54 -58t6.5 -102l-2 -9q-10 -59 -35 -97t-59.5 -60.5t-76.5 -31.5t-86 -9h-349l10 57h75l104 595h-83zM448 342q-12 1 -26 1.5t-31 0.5h-126l-50 -287h200q32 0 62 7t55 23.5
t42 43.5t24 67q8 45 -1.5 73t-31.5 43.5t-52.5 21t-64.5 6.5z" />
    <glyph glyph-name="afii10020" unicode="&#x413;" horiz-adv-x="578" 
d="M180 710h503l-27 -150h-54l8 45q5 28 5 47h-295l-104 -595h83l-10 -57h-234l10 57h83l104 595h-83z" />
    <glyph glyph-name="afii10040" unicode="&#x426;" horiz-adv-x="756" 
d="M690 -120h-68q8 45 13 69.5t7 35.5l3 15h-591l10 57h83l104 595h-83l11 58h226l-11 -58h-75l-104 -595h356l104 595h-75l11 58h226l-11 -58h-83l-104 -595h83z" />
    <glyph glyph-name="afii10041" unicode="&#x427;" horiz-adv-x="736" 
d="M265 652h-99l11 58h166l-36 -202q-11 -61 -5 -98t23 -57.5t44.5 -27t60.5 -6.5q26 0 55.5 4t56.5 18t47.5 42t28.5 75l34 194h-74l11 58h218l-11 -58h-75l-105 -596h75l-9 -56h-218l10 57h74l47 271q-34 -35 -80 -49.5t-97 -14.5q-46 0 -84.5 9.5t-64 35.5t-34.5 72
t4 119z" />
    <glyph glyph-name="afii10042" unicode="&#x428;" horiz-adv-x="1019" 
d="M594 652h-75l11 58h219l-11 -58h-75l-104 -595h275l104 595h-75l11 58h226l-11 -58h-83l-104 -595h83l-10 -57h-921l10 57h83l104 595h-83l11 58h226l-11 -58h-75l-104 -595h275z" />
    <glyph glyph-name="afii10043" unicode="&#x429;" horiz-adv-x="1026" 
d="M953 -120h-68l22 120h-853l10 57h83l104 595h-83l11 58h226l-11 -58h-75l-104 -595h275l104 595h-75l11 58h219l-11 -58h-75l-104 -595h275l104 595h-75l11 58h226l-11 -58h-83l-104 -595h83z" />
    <glyph glyph-name="afii10048" unicode="&#x42e;" horiz-adv-x="990" 
d="M168 652l11 58h235l-11 -58h-83l-48 -273h177l5 28q18 99 52 160t78.5 95t96.5 46t105 12t101 -12t81 -45.5t45.5 -95t-5.5 -160.5l-18 -102q-17 -99 -50.5 -160.5t-77.5 -96t-96.5 -47t-107.5 -12.5q-56 0 -104 12.5t-80 47t-43.5 96.5t5.5 160l3 16h-177l-46 -264h83
l-10 -57h-235l10 57h84l104 595h-84zM776 663q-43 0 -82.5 -10t-72 -39t-57.5 -81t-40 -136l-18 -97q-14 -80 -6 -129.5t31.5 -77.5t59 -37.5t77.5 -9.5t81 9.5t72 37.5t58.5 77.5t39.5 129.5l18 97q15 84 7.5 136t-30.5 81t-59 39t-79 10z" />
    <glyph glyph-name="afii10050" unicode="&#x490;" horiz-adv-x="582" 
d="M216 57h83l-10 -57h-234l10 57h83l104 595h-83l11 58h442l19 108h60l-30 -166h-351z" />
    <glyph glyph-name="afii10051" unicode="&#x402;" horiz-adv-x="744" 
d="M507 52q36 1 65 8t51.5 24.5t37.5 49t24 81.5q10 54 3 88t-24 52.5t-42 25t-52 6.5q-31 0 -60.5 -6.5t-54 -23.5t-42.5 -47t-27 -78l-30 -175h78l-10 -57h-232l10 57h83l104 595h-184l-17 -100h-56l28 158h550l-28 -158h-57l17 100h-185l-48 -273q31 35 77 50.5t100 15.5
q45 0 81 -10.5t58.5 -37t29.5 -72t-5 -115.5q-11 -63 -34 -104t-55.5 -65t-72.5 -33.5t-85 -9.5z" />
    <glyph glyph-name="afii10052" unicode="&#x403;" horiz-adv-x="569" 
d="M177 710h503l-27 -150h-53l8 45q5 28 5 47h-295l-104 -595h83l-10 -57h-235l10 57h83l104 595h-83zM504 875l-38 -59.5l-39 -58.5h-59l35.5 58.5l36.5 59.5h64z" />
    <glyph glyph-name="afii10053" unicode="&#x404;" horiz-adv-x="610" 
d="M504 329h-319q-15 -87 -11 -142t25.5 -86.5t59 -43t88.5 -11.5q39 0 73 5.5t63.5 13t54 16l45.5 15.5l13 -51l-50 -18t-59 -18.5t-69.5 -14t-80.5 -5.5h-9q-54 0 -102 12t-80 45.5t-43.5 93.5t5.5 157l18 105q16 94 46.5 155.5t74 98t100 51t125.5 14.5h5q20 0 40.5 -1.5
t44 -5.5t53 -11.5t67.5 -18.5l-13.5 -74t-14.5 -74h-53l7.5 48.5t8.5 48.5q-36 14 -79 22t-75 8q-49 0 -91 -9t-76 -38.5t-59.5 -84t-41.5 -145.5h319z" />
    <glyph glyph-name="Lje.alt" horiz-adv-x="544" 
d="M81 222q8 48 33.5 90.5t62 73.5t82 49t93.5 18t87 -18t65 -49t36.5 -73.5t2.5 -90.5q-9 -48 -34.5 -90.5t-62 -73.5t-82 -49t-93.5 -18t-87 18t-64.5 49t-36.5 73.5t-2 90.5z" />
    <glyph glyph-name="afii10060" unicode="&#x40b;" horiz-adv-x="806" 
d="M685 215q10 54 3 88t-24 52.5t-42 25t-52 6.5q-31 0 -60.5 -6.5t-54 -23.5t-42.5 -47t-27 -78l-30 -175h78l-10 -57h-232l10 57h83l104 595h-184l-17 -100h-56l28 158h550l-28 -158h-57l17 100h-185l-48 -273q31 35 77 50.5t100 15.5q43 0 78.5 -9.5t59.5 -33t33 -64
t-2 -101.5l-20 -115q-6 -36 0 -52t34 -16q11 0 31 3l-6 -57q-30 -6 -55 -6q-42 0 -63 24.5t-10 86.5z" />
    <glyph glyph-name="afii10066" unicode="&#x431;" horiz-adv-x="557" 
d="M590 690q-30 -10 -50.5 -13.5t-40 -3.5t-42.5 1.5t-57 1.5q-30 0 -59 -5t-54.5 -21.5t-45 -48.5t-28.5 -86l-5 -29q14 13 34.5 26t44.5 22.5t49 15.5t48 6q46 0 85.5 -10t65.5 -37t36 -74.5t-3 -122.5l-14 -76q-14 -77 -40.5 -125t-62.5 -74.5t-79 -36t-89 -9.5
q-45 0 -85 9.5t-67 36t-37.5 74t3.5 124.5l48 271q14 79 41 125t62.5 69.5t77 30.5t84.5 7q22 0 36 -0.5l27 -1t28.5 0.5t40.5 4l7 54q15 2 26 2.5t21 2.5zM502 313q10 60 2 95.5t-28 54.5t-48 24.5t-57 5.5q-25 0 -53 -7t-54.5 -25t-48.5 -50t-35 -82l-9 -54h-1l-8 -44
q-11 -60 -2 -96t29.5 -54.5t48.5 -24t55 -5.5q28 0 57.5 5.5t56.5 24.5t48 54.5t32 94.5z" />
    <glyph glyph-name="afii10069" unicode="&#x434;" horiz-adv-x="514" 
d="M197 690l39 110q8 -2 19 -2.5t26 -2.5l-13 -54q24 -3 39.5 -4t28.5 -0.5t27.5 1t36.5 0.5q42 0 81 -7t66.5 -30.5t38.5 -69.5t-3 -125l-48 -271q-14 -77 -41 -124.5t-63.5 -74.5t-79.5 -36.5t-88 -9.5q-46 0 -85.5 9.5t-66 36.5t-37 75t3.5 125l14 76q13 75 39.5 123
t62.5 75t79 37.5t89 10.5q47 0 85.5 -19.5t65.5 -45.5l4 22q10 55 2 87t-27 48.5t-46.5 21t-57.5 4.5q-35 0 -59 -1.5t-45 -1.5t-41 3.5t-46 13.5zM143 230q-11 -59 -2 -94.5t29 -54t47.5 -24t55.5 -5.5q27 0 57 5.5t57 24t48.5 54t32.5 95.5l8 44h-1l12 68q4 50 -7 80
t-31.5 46t-46.5 21t-51 5q-29 0 -59 -6t-56 -25t-47 -55t-31 -96z" />
    <glyph glyph-name="de.alt" horiz-adv-x="673" 
d="M677 57l-32 -177h-68l22 120h-505l-22 -120h-68l32 177h92l134 246.5l135 247.5h76l111 -494h93zM199 57h313l-45.5 205.5l-45.5 205.5z" />
    <glyph glyph-name="afii10072" unicode="&#x436;" horiz-adv-x="1047" 
d="M1022 409l12 75q-26 11 -56.5 14.5t-52.5 3.5q-28 0 -55.5 -6.5t-51.5 -26t-43 -56t-29 -95.5l-16 -88q-12 -66 -1 -103t33.5 -55.5t52.5 -22.5t57 -4q28 0 48.5 2.5t38 7t32.5 10t31 10.5l4 -27t5 -27q-17 -7 -35.5 -12.5t-40 -9.5t-47.5 -6.5t-59 -2.5q-46 0 -86 9
t-66.5 35t-36.5 72.5t4 121.5l1 10h-72l-42 -238h-68l42 238h-65v-2q-14 -76 -38.5 -123.5t-57.5 -74.5t-73.5 -36.5t-86.5 -9.5q-22 0 -39.5 1t-35.5 3.5t-39 7t-48 12.5q6 32 13 63t12 62h50l-12 -75q26 -11 56.5 -14.5t52.5 -3.5q28 0 55.5 6.5t51.5 26t43 56t29 95.5
l16 88q12 66 1 103t-33.5 55.5t-52.5 22.5t-57 4q-28 0 -48.5 -2.5t-38 -7t-32.5 -10t-31 -10.5l-4 27t-5 27q34 13 75 22t107 9q46 0 86 -9t66.5 -35t36 -72.5t-3.5 -121.5l-5 -26h65l45 255h68l-45 -255h73l3 18q13 76 38 123.5t58 74.5t73.5 36.5t86.5 9.5q22 0 39.5 -1
t35.5 -3.5t39 -7t48 -12.5q-6 -32 -13 -63t-12 -62h-50z" />
    <glyph glyph-name="afii10073" unicode="&#x437;" horiz-adv-x="566" 
d="M287 -11q-44 0 -79.5 5.5t-65 14t-53 18l-44.5 17.5q2 3 6.5 10.5l9.5 15.5t9.5 16t6.5 11l39.5 -15.5t48.5 -16t59 -13t71 -5.5q26 0 55.5 6.5t55.5 20.5t45.5 35.5t24.5 50.5q6 32 -1.5 51.5t-25 30.5t-43.5 15t-57 4h-58q0 3 -1 11t-2.5 17t-2.5 17t-1 11h73
q19 0 40.5 3.5t40.5 13.5t33.5 28.5t19.5 48.5q5 28 -4.5 46t-28.5 28.5t-44.5 15t-52.5 4.5q-12 0 -29 -1.5t-36.5 -4t-40 -7t-39.5 -10.5l-14 -81q-14 0 -34.5 -2t-31.5 -4l14 127q76 23 128.5 32t90.5 9q33 0 70.5 -6t67.5 -22t46.5 -45.5t7.5 -77.5q-8 -49 -34.5 -77.5
t-64.5 -41.5q52 -14 73.5 -44t10.5 -91q-8 -45 -35 -77t-64 -52.5t-79.5 -30t-80.5 -9.5z" />
    <glyph glyph-name="afii10074" unicode="&#x438;" horiz-adv-x="607" 
d="M185 198q-7 -39 -2 -68.5t19 -49t36 -29.5t49 -10q30 0 60.5 6t58 18t50.5 31.5t38 46.5l70 397h66l-78 -443q-6 -35 1.5 -45.5t19.5 -10.5q6 0 10.5 0.5t10.5 1.5v-49q-9 -2 -20.5 -5.5t-20.5 -3.5q-24 0 -35 6t-15.5 16.5t-5 25t-3.5 32.5q-20 -20 -45.5 -35.5t-54 -26
t-59 -16t-58.5 -5.5q-52 0 -85.5 18.5t-52 48.5t-22.5 69t3 81l39 219q8 45 -4.5 59t-60.5 6l6 57q34 7 61 6.5t44 -12t23.5 -35.5t-0.5 -64z" />
    <glyph glyph-name="afii10076" unicode="&#x43a;" horiz-adv-x="660" 
d="M690 551l-11 -58h-77l-106.5 -105l-108.5 -113l75.5 -84.5l75.5 -84.5q31 -35 55.5 -53t42.5 -25q-6 -11 -14.5 -25t-18.5 -14q-7 0 -19.5 3.5t-29.5 13t-38.5 27.5t-46.5 47l-212 243l-31 -178q-8 -43 -17.5 -73t-20 -50t-21 -31.5t-19.5 -16.5l-38 13q11 17 24 50
t22 87l65 369h-92l10 57h158l-26 -150l70 -83l231 234h118z" />
    <glyph glyph-name="afii10078" unicode="&#x43c;" horiz-adv-x="792" 
d="M839 551l-11 -58h-83l-76 -436h74l-10 -57h-141l79 451l-246 -313l-144 312l-79 -450h-141l10 57h75l76 436h-83l11 58h169l122 -298l114 149l114 149h170z" />
    <glyph glyph-name="afii10079" unicode="&#x43d;" horiz-adv-x="689" 
d="M582 550h70l-87 -493h83l-10 -57h-152l44 252h-326l-44 -252h-67l85 493h-83l10 57h151l-42 -240h326z" />
    <glyph glyph-name="afii10081" unicode="&#x43f;" horiz-adv-x="626" 
d="M516 342q13 79 -17 118t-85 39q-30 0 -60.5 -6t-58 -18t-50.5 -31.5t-38 -46.5l-70 -397h-66l78 443q6 35 -1.5 45.5t-19.5 10.5q-6 0 -10.5 -0.5t-10.5 -1.5v49q9 2 20.5 5.5t20.5 3.5q24 0 35 -6t15.5 -16.5t5 -25t3.5 -32.5q19 20 45 35.5t54.5 26t58.5 16t59 5.5
q52 0 85.5 -18.5t52 -48.5t22.5 -69t-3 -81l-39 -219q-8 -45 4.5 -59t60.5 -6l-6 -57q-34 -7 -61 -6.5t-44 12t-23.5 35.5t0.5 64z" />
    <glyph glyph-name="afii10084" unicode="&#x442;" horiz-adv-x="897" 
d="M785 280q12 68 13 111t-8.5 67.5t-30 33.5t-51.5 9q-48 0 -92.5 -22.5t-73.5 -60.5q-5 -29 -8 -62t-10 -69l-50 -286h-65l52 298q10 56 11 94.5t-8 62.5t-29.5 34.5t-53.5 10.5q-46 0 -87 -20.5t-72 -54.5l-75 -425h-66l78 443q6 35 -1 45.5t-19 10.5q-6 0 -11 -0.5
t-11 -1.5v49q11 3 23 5t23 2q26 0 42 -14.5t15 -50.5q38 31 84.5 50.5t86.5 19.5q56 0 90 -18t47 -69q37 39 89.5 63t103.5 24q57 0 88.5 -21.5t43.5 -59.5t9.5 -89t-12.5 -110l-28 -157q-8 -45 4.5 -59t60.5 -6l-6 -57q-34 -7 -60.5 -6.5t-44 12t-23.5 35.5t1 64l31 175v0z
" />
    <glyph glyph-name="afii10086" unicode="&#x444;" horiz-adv-x="588" 
d="M447 722l-29 -163q43 -2 79 -13t60 -38t32.5 -74t-4.5 -119l-14 -82q-13 -73 -38.5 -119.5t-59 -73.5t-73.5 -38t-82 -12l-36 -203h-66l36 203q-43 1 -79 12t-60 38t-32.5 73t3.5 117l15 84q13 72 37.5 119t57.5 74.5t73.5 38.5t84.5 13l29 163h66zM147 228
q-10 -56 -3.5 -91t24 -54.5t42.5 -27.5t52 -9l80 457q-27 -1 -55 -9.5t-52 -29t-43 -56t-29 -90.5zM523 317q10 56 3.5 92t-24 56.5t-42.5 28.5t-52 9l-80 -457q25 1 52.5 8.5t52.5 27t44.5 54t29.5 90.5z" />
    <glyph glyph-name="afii10095" unicode="&#x44d;" horiz-adv-x="529" 
d="M469 302q12 67 1.5 106.5t-33 60t-52.5 26t-57 5.5q-48 0 -94 -18t-79 -56l-28 45q38 48 93 67.5t115 19.5q46 0 89 -9.5t73.5 -36t43.5 -74.5t0 -125l-15 -83q-13 -75 -41.5 -122t-66.5 -73.5t-83.5 -36t-92.5 -9.5q-66 0 -112.5 10t-75.5 24l30 51q29 -10 68 -17.5
t101 -7.5q33 0 65 5.5t59.5 25.5t48.5 59t33 107h-271q1 13 1 27.5t2 28.5h278z" />
    <glyph glyph-name="afii10098" unicode="&#x491;" horiz-adv-x="555" 
d="M216 57h83l-10 -57h-234l10 57h83l76 436h-83l11 58h409l19 108h60l-30 -166h-318z" />
    <glyph glyph-name="afii10101" unicode="&#x454;" horiz-adv-x="530" 
d="M445 302q-3 -14 -8 -28.5t-9 -27.5h-271q-12 -68 -5 -107t27.5 -59t50.5 -25.5t63 -5.5q62 0 104 7.5t75 17.5l12 -51q-35 -14 -84.5 -24t-115.5 -10q-47 0 -89 9.5t-71 36t-41 73.5t1 122l15 83q13 77 43.5 125t70.5 74.5t86 36t92 9.5q60 0 108.5 -19.5t69.5 -67.5
l-44 -45q-20 38 -59.5 56t-87.5 18q-27 0 -59 -5.5t-62 -26t-54 -60t-36 -106.5h278v0z" />
    <glyph glyph-name="lje.alt" horiz-adv-x="545" 
d="M81 222q8 48 33.5 90.5t62 73.5t82 49t93.5 18t87 -18t65 -49t36.5 -73.5t2.5 -90.5q-9 -48 -34.5 -90.5t-62 -73.5t-82 -49t-93.5 -18t-87 18t-64.5 49t-36.5 73.5t-2 90.5z" />
    <glyph glyph-name="afii10108" unicode="&#x45b;" horiz-adv-x="671" 
d="M542 185q10 54 3 88t-24.5 52.5t-42.5 25t-51 6.5t-54 -3.5t-53 -17.5t-44 -41.5t-28 -75.5l-28 -162h76l-10 -57h-232l9 56h83l83 470h-110l10 58h110l33 185h67l-33 -185h114l-10 -58h-114l-31 -177q32 37 79 51.5t101 14.5q43 0 78.5 -9t59 -34t31 -69.5t-4.5 -114.5
l-13 -69q-8 -45 4.5 -59t60.5 -6l-6 -57q-33 -7 -60 -6.5t-44 12t-24 35.5t0 64z" />
    <glyph glyph-name="afii10109" unicode="&#x45c;" horiz-adv-x="659" 
d="M690 551l-11 -58h-77l-106.5 -105l-108.5 -113l75.5 -84.5l75.5 -84.5q31 -35 55.5 -53t42.5 -25q-6 -11 -15.5 -25.5t-19.5 -14.5q-7 0 -19 2.5t-29 11t-38.5 25t-46.5 45.5l-212 243l-30 -170q-8 -43 -17.5 -73t-20 -50t-21 -31.5t-19.5 -16.5l-38 13q11 17 24 50
t22 87l65 369h-92l10 57h158l-26 -149l63 -92l238 242h118zM499 712l-38 -59.5l-39 -58.5h-59l35.5 58.5t35.5 59.5h65z" />
    <glyph glyph-name="afii10145" unicode="&#x40f;" horiz-adv-x="735" 
d="M380 -136h-69l24 136h-274l10 57h74l104 595h-83l11 58h152l-115 -653h331l115 653h151l-11 -58h-83l-104 -595h75l-10 -57h-274z" />
    <glyph glyph-name="afii10146" unicode="&#x462;" horiz-adv-x="801" 
d="M201 653l-18 -100h-60l30 168h583l-30 -168h-61l18 100h-199l-57 -320q22 1 50 2t57 1q44 0 86 -4.5t72.5 -22.5t45 -53t4.5 -95q-9 -50 -30.5 -81.5t-50.5 -49.5t-62.5 -25t-66.5 -7q-78 0 -151 3l-94 -5l-16 38l6.5 3t14 7l13.5 7.5l6 3.5l106 598h-196zM397 274
l-18 -107t-19 -106q38 -2 76.5 -3t79.5 -1q54 0 93 25.5t50 82.5q6 34 -2 56t-25.5 34.5t-43 17t-54.5 4.5q-68 0 -137 -3z" />
    <glyph glyph-name="afii10193" unicode="&#x45f;" horiz-adv-x="729" 
d="M378 -136h-68l24 136h-275l10 57h75l79 448h-75l8 50h143l-87 -498h331l87 498h143l-8 -50h-74l-79 -448h74l-10 -57h-274z" />
    <glyph glyph-name="afii10194" unicode="&#x463;" horiz-adv-x="583" 
d="M131 600h109l30 170h67l-30 -170h114l-10 -58h-114l-37 -209q22 1 50 2t57 1q44 0 86 -4.5t72.5 -22.5t45 -53t4.5 -95q-9 -50 -30.5 -81.5t-50.5 -49.5t-62.5 -25t-66.5 -7q-78 0 -151 3l-94 -5l-16 38l6.5 3t14 7l13.5 7.5l6 3.5l86 487h-109zM250 274l-18 -107
t-19 -106q38 -2 76.5 -3t79.5 -1q54 0 93 25.5t50 82.5q6 34 -2 56t-25.5 34.5t-43 17t-54.5 4.5q-68 0 -137 -3z" />
    <glyph glyph-name="Lambda" unicode="&#x39b;" horiz-adv-x="716" 
d="M116 57l332 653h71l103 -653h82l-10 -57h-136l-92 613l-305 -613h-138l10 57h83z" />
    <glyph glyph-name="AEacute" unicode="&#x1fc;" horiz-adv-x="1007" 
d="M714 871l-77 -118h-60l72 118h65zM557 710h507l-25 -142h-57l14 84h-365l1 -251h261l-10 -58h-248v-287l276 1l14 84h54l-24 -141h-454l2 57h61l3 159h-259l-140 -216h-125l10 57h79zM563 617l-110 -171l-109 -171h219q0 85 -0.5 171t0.5 171z" />
    <glyph glyph-name="alpha" unicode="&#x3b1;" horiz-adv-x="633" 
d="M530 457q-20 19 -58 32.5t-85 13.5q-30 0 -61 -8.5t-59 -30.5t-49.5 -60.5t-32.5 -99.5l-12 -69q-11 -61 -3 -98t28 -57.5t49 -27.5t61 -7h27q48 3 76.5 12.5t51.5 18.5zM119 304q13 76 40.5 125.5t64 78t79.5 39.5t88 11q38 0 64.5 -5t45 -13t31 -17.5t22.5 -18.5
q24 49 70 49q9 0 17 -1.5t16.5 -4l19.5 -6t26 -7.5l-20 -45q-17 7 -29.5 8.5t-20.5 1.5q-11 0 -22 -10.5t-16 -38.5l-51 -291q-6 -34 -9 -55.5t-2.5 -34t6 -17t15.5 -4.5q8 0 21 1t33 8l3 -44l-33 -11q-15 -5 -29 -5.5t-28 -1.5q-35 0 -47 35q-14 -8 -29 -15t-36 -13
t-50 -9.5t-69 -3.5q-44 0 -83.5 9.5t-66 36t-37 73.5t2.5 122z" />
    <glyph glyph-name="alphatonos" unicode="&#x3ac;" horiz-adv-x="633" 
d="M530 457q-20 19 -58 32.5t-85 13.5q-30 0 -61 -8.5t-59 -30.5t-49.5 -60.5t-32.5 -99.5l-12 -69q-11 -61 -3 -98t28 -57.5t49 -27.5t61 -7h27q48 3 76.5 12.5t51.5 18.5zM119 304q13 76 40.5 125.5t64 78t79.5 39.5t88 11q38 0 64.5 -5t45 -13t31 -17.5t22.5 -18.5
q24 49 70 49q9 0 17 -1.5t16.5 -4l19.5 -6t26 -7.5l-20 -45q-17 7 -29.5 8.5t-20.5 1.5q-11 0 -22 -10.5t-16 -38.5l-51 -291q-6 -34 -9 -55.5t-2.5 -34t6 -17t15.5 -4.5q8 0 21 1t33 8l3 -44l-33 -11q-15 -5 -29 -5.5t-28 -1.5q-35 0 -47 35q-14 -6 -29.5 -13.5
t-36.5 -13.5t-49.5 -10t-68.5 -4q-44 0 -83.5 9.5t-66 36t-37 73.5t2.5 122zM387 584q-2 32 -3.5 63.5t-2.5 63.5h74l-23 -127h-45z" />
    <glyph glyph-name="omicron" unicode="&#x3bf;" horiz-adv-x="554" 
d="M538 230q-14 -77 -40.5 -124t-62.5 -73t-78.5 -35t-88.5 -9q-47 0 -86.5 9t-66 34.5t-36.5 72.5t4 124l15 86q13 77 40.5 124.5t63.5 74t79 35.5t88 9t84 -9.5t66 -36.5t37 -75t-3 -124zM488 317q11 60 2.5 97t-28.5 57t-48 26.5t-55 6.5q-28 0 -57.5 -6.5t-56.5 -26.5
t-48.5 -56.5t-31.5 -95.5l-17 -93q-11 -60 -2.5 -96.5t28 -56t47.5 -25.5t57 -6q26 0 56 6t57 25.5t48.5 55.5t32.5 95z" />
    <glyph glyph-name="omicrontonos" unicode="&#x3cc;" horiz-adv-x="538" 
d="M530 230q-14 -77 -40.5 -124t-62.5 -73t-78.5 -35t-88.5 -9q-47 0 -86.5 9t-66 34.5t-36.5 72.5t4 124l15 86q13 77 40 124.5t63 74t79 35.5t89 9q45 0 84 -9.5t66 -36.5t37 -75t-3 -124zM480 317q11 60 2.5 97t-28.5 57t-48 26.5t-55 6.5q-28 0 -57.5 -6.5t-56.5 -26.5
t-48.5 -56.5t-31.5 -95.5l-17 -93q-11 -60 -2.5 -96.5t28 -56t47.5 -25.5t57 -6q26 0 56 6t57 25.5t48.5 55.5t32.5 95zM351 584q-2 32 -3.5 63.5t-2.5 63.5h74l-23 -127h-45z" />
    <glyph glyph-name="afii10068" unicode="&#x433;" horiz-adv-x="519" 
d="M152 415l21 123q62 16 105 20.5t77 4.5q103 0 154 -33.5t37 -113.5q-11 -65 -57.5 -101.5t-146.5 -48.5q-32 -4 -63.5 -9t-58 -14.5t-44.5 -26.5t-23 -45q-4 -23 0.5 -45.5t20.5 -40t43.5 -28.5t69.5 -11q14 0 32 1.5t36.5 4t37.5 6t35 8.5l13 74h66q-5 -32 -10.5 -62.5
t-10.5 -62.5q-60 -17 -115.5 -21.5t-99.5 -4.5q-50 0 -88.5 11.5t-63 34t-34.5 55.5t-2 77q10 56 40 86t68 44.5t77.5 18.5t68.5 9q68 8 102.5 29t42.5 69q4 22 -4.5 38t-27.5 26.5t-46 15t-59 4.5q-24 0 -54.5 -2.5t-60.5 -13.5l-13 -76h-65z" />
    <glyph glyph-name="afii10029" unicode="&#x41b;" horiz-adv-x="792" 
d="M351 652l-73 -415q-14 -77 -40 -123.5t-61 -72t-78.5 -33.5t-91.5 -8l9 56q37 0 67.5 5t55 23.5t42.5 55t29 99.5l72 413h-82l11 58h650l-11 -58h-83l-104 -595h83l-10 -57h-226l7 44h75l107 608h-348z" />
    <glyph glyph-name="El.alt" horiz-adv-x="725" 
d="M116 57l332 653h71l103 -653h82l-10 -57h-136l-92 613l-305 -613h-138l10 57h83z" />
    <glyph glyph-name="iotatonos" unicode="&#x3af;" horiz-adv-x="317" 
d="M258 654q-2 32 -3.5 63.5t-2.5 63.5h74l-23 -127h-45v0zM224 122q-8 -45 4.5 -59t60.5 -6l-8 -57q-34 -7 -61 -6.5t-44 12t-23.5 35.5t0.5 64l68 388h-91l11 58h158z" />
    <glyph glyph-name="etatonos" unicode="&#x3ae;" horiz-adv-x="624" 
d="M516 342q13 79 -17 118t-85 39q-30 0 -60.5 -6t-58 -18t-50.5 -31.5t-38 -46.5l-70 -397h-66l78 443q6 35 -1.5 45.5t-19.5 10.5q-6 0 -10.5 -0.5t-10.5 -1.5v49q9 2 20.5 5.5t20.5 3.5q24 0 35 -6t15.5 -16.5t5 -25t3.5 -32.5q19 20 45 35.5t54.5 26t58.5 16t59 5.5
q52 0 85.5 -18.5t52 -48.5t22.5 -69t-3 -81l-76 -429q-8 -45 4.5 -59t60.5 -6l-7 -57q-33 -7 -60 -6.5t-44 12t-23.5 35.5t0.5 64zM387 584q-2 32 -3.5 63.5t-2.5 63.5h74l-23 -127h-45z" />
    <glyph glyph-name="nu" unicode="&#x3bd;" horiz-adv-x="601" 
d="M680 551l-11 -58h-81l-129.5 -246.5l-129.5 -246.5h-76l-72 493h-81l11 58h136l29 -234.5t30 -234.5l119 234.5l120 234.5h135z" />
    <glyph glyph-name="afii10037" unicode="&#x423;" horiz-adv-x="678" 
d="M256 714l131 -431l255 431h111l-11 -62h-64l-266 -439l-44 -70.5t-54.5 -69.5t-75.5 -53.5t-106 -21.5l11 60q38 0 66 12.5t49.5 33t40 46.5l38.5 53l-139 449h-64l11 62h111z" />
    <glyph glyph-name="integral" unicode="&#x222b;" horiz-adv-x="382" 
d="M240 576q12 70 36.5 114t59.5 68.5t80.5 33t101.5 8.5l-9 -49q-36 0 -68 -6t-59 -24.5t-47 -54t-30 -95.5l-87 -497l-9 -43l-8 -40q-13 -60 -35.5 -97t-53.5 -57.5t-69.5 -27t-83.5 -6.5l8 47q29 1 56 5.5t50 20t40 45t26 80.5z" />
    <glyph glyph-name="afii10148" unicode="&#x474;" horiz-adv-x="690" 
d="M139 652l11 58h138l88 -614l201 397q33 68 61.5 110t52 66t41.5 34t29 13l10 -37q-17 -10 -39 -37.5t-48 -75.5l-144.5 -283l-143.5 -283h-71l-103 652h-83z" />
    <glyph glyph-name="afii10085" unicode="&#x443;" horiz-adv-x="639" 
d="M238 551l102 -481l132 240.5l132 240.5h111l-10 -57q-16 0 -32.5 -0.5t-32.5 -0.5l-275 -493q-22 -33 -41 -70t-46 -69t-66.5 -53t-101.5 -21l10 58q38 0 63.5 13.5t43.5 34.5t32.5 47t30.5 50l-110 503h-64l11 58h111z" />
    <glyph glyph-name="afii10044" unicode="&#x42a;" horiz-adv-x="710" 
d="M452 400q56 0 106 -6.5t84.5 -28.5t50 -64t3.5 -113q-10 -56 -35 -92t-60 -57.5t-76.5 -30t-83.5 -8.5h-350l10 57h76l104 595h-111l-18 -102h-54l29 160h335l-11 -58h-102l-44 -252h147zM295 342l-50 -285h201q34 0 64 7.5t54.5 24t41.5 44t24 67.5q8 44 -2.5 71.5
t-32.5 43t-53 21t-64 6.5h-183z" />
    <glyph glyph-name="afii10045" unicode="&#x42b;" horiz-adv-x="942" 
d="M419 400q56 0 106 -6.5t84.5 -28.5t50 -64t3.5 -113q-10 -56 -35 -92t-60 -57.5t-76.5 -30t-83.5 -8.5h-350l10 57h76l104 595h-85l11 58h235l-11 -58h-82l-44 -252h147zM262 342l-50 -285h201q34 0 64 7.5t54.5 24t41.5 44t24 67.5q8 44 -2.5 71.5t-32.5 43t-53 21
t-64 6.5h-183zM773 652l11 58h235l-11 -58h-83l-104 -595h83l-10 -57h-235l10 57h84l104 595h-84z" />
    <glyph glyph-name="afii10046" unicode="&#x42c;" horiz-adv-x="685" 
d="M419 400q56 0 106 -6.5t84.5 -28.5t50 -64t3.5 -113q-10 -56 -35 -92t-60 -57.5t-76.5 -30t-83.5 -8.5h-350l10 57h76l104 595h-85l11 58h235l-11 -58h-82l-44 -252h147zM262 342l-50 -285h201q34 0 64 7.5t54.5 24t41.5 44t24 67.5q8 44 -2.5 71.5t-32.5 43t-53 21
t-64 6.5h-183z" />
    <glyph glyph-name="afii10047" unicode="&#x42d;" horiz-adv-x="644" 
d="M267 386h319l2 18t3 17q14 81 3.5 129t-37.5 73t-65 32.5t-78 7.5q-34 0 -79 -8t-85 -22q-5 -25 -9 -48.5t-9 -48.5h-53l11.5 74t12.5 74q20 5 43 12.5t38 7.5q48 10 82.5 13.5t60.5 3.5q69 0 120.5 -15t81.5 -52t38 -100t-9 -159l-17 -98q-17 -97 -51 -157t-79 -93.5
t-98.5 -45.5t-108.5 -12q-80 0 -134.5 17t-93.5 34q-3 2 -6.5 2.5t-6.5 2.5l31 51l40 -15.5t49 -16t59.5 -13t71.5 -5.5q51 0 92.5 11.5t74 43t56.5 86.5t39 142h-319z" />
    <glyph glyph-name="Gamma" unicode="&#x393;" horiz-adv-x="583" 
d="M219 57h83l-10 -57h-235l10 57h84l104 595h-84l11 58h502l-25 -142h-55l14 84h-295z" />
    <glyph glyph-name="Delta" horiz-adv-x="728" 
d="M51 58l28 39l28 39l333 574h71l168 -646l11 -6l-10 -58h-639zM135 57h472l-146 568z" />
    <glyph glyph-name="Theta" unicode="&#x398;" horiz-adv-x="665" 
d="M234 379h324l-10 -58h-324zM457 720q53 0 101 -12t81 -45.5t45.5 -95t-5.5 -160.5l-18 -102q-17 -99 -50.5 -160.5t-77.5 -96t-96.5 -47t-107.5 -12.5q-56 0 -104 12.5t-80 47t-43.5 96.5t5.5 160l18 102q18 99 52 160t78.5 95t96.5 46t105 12zM447 663q-43 0 -82.5 -10
t-72.5 -39t-58 -81t-40 -136l-18 -97q-14 -80 -6 -129.5t32 -77.5t59.5 -37.5t77.5 -9.5t81 9.5t72 37.5t58 77.5t39 129.5l18 97q15 84 8 136t-30 81t-59 39t-79 10z" />
    <glyph glyph-name="Sigma" unicode="&#x3a3;" horiz-adv-x="643" 
d="M129 59h439q1 0 4 15.5t7 34t7 34.5t3 18h50l-28 -161h-580l10 59l295 296l-191 295l11 60h580l-29 -162h-50q0 2 3 18t6 34.5t5 34t1 15.5h-439l192 -295z" />
    <glyph glyph-name="afii10021" unicode="&#x414;" horiz-adv-x="781" 
d="M725 -120h-68l22 120h-572l-22 -120h-68l32 177h39q31 3 58.5 12t50 30t39 55.5t25.5 87.5l72 410h-83l11 58h587l-11 -58h-83l-104 -595h107zM402 652l-73 -415q-12 -68 -35.5 -111.5t-55.5 -68.5h343l104 595h-283z" />
    <glyph glyph-name="De.alt" horiz-adv-x="825" 
d="M87 -120h-53q-1 3 -2 8.5t-2.5 11.5t-2.5 10.5t-2 4.5l28 142h106l332 653h71l51 -327l52 -326h77l30 -25h-1h1l-27 -152h-69l22 120h-589zM509 613l-139 -278l-139 -278h362z" />
    <glyph glyph-name="uni2206" unicode="&#x2206;" horiz-adv-x="740" 
d="M35 58q5 6 11 15l20.5 31.5l40.5 63.5l69.5 111.5l107.5 175.5l156 255h71l93.5 -324l101.5 -328l-10 -58h-671zM118 57h505l-82 284l-80 284z" />
    <glyph glyph-name="product" unicode="&#x220f;" horiz-adv-x="772" 
d="M579 57l104 595h-364l-104 -595h75l-10 -57h-226l10 57h83l104 595h-83l11 58h666l-11 -58h-83l-104 -595h83l-10 -57h-226l10 57h75z" />
    <glyph glyph-name="summation" unicode="&#x2211;" horiz-adv-x="669" 
d="M129 57h439q1 0 4 16t7 34.5t7 35t3 18.5h50l-28 -161h-580l10 59l295 296l-191 295l11 60h580l-29 -162h-50q0 2 3 18.5t6 35.5t5 34.5t1 15.5h-439l192 -297z" />
    <glyph glyph-name="afii10064" unicode="&#xf6c5;" horiz-adv-x="591" 
d="M81 222q8 48 33.5 90.5t62 73.5t82 49t93.5 18t87 -18t65 -49t36.5 -73.5t2.5 -90.5q-9 -48 -34.5 -90.5t-62 -73.5t-82 -49t-93.5 -18t-87 18t-64.5 49t-36.5 73.5t-2 90.5z" />
    <glyph glyph-name="kgreenlandic" unicode="&#x138;" horiz-adv-x="658" 
d="M664 551l-11 -58h-77l-35 -33.5l-37 -35.5l-144 -148l150 -170q41 -46 72 -62l29 -16q-6 -11 -15.5 -25.5t-19.5 -14.5q-8 0 -20.5 2.5t-30 11.5t-38.5 25.5t-45 44.5l-106 121.5l-106 121.5l-30 -170q-8 -45 -18.5 -75.5t-21.5 -50t-21 -30t-16 -15.5l-19.5 6t-19.5 7
q11 15 24 49t22 88l65 369h-92l11 58h158l-27 -152l70 -79l232 231h117z" />
    <glyph glyph-name="T" unicode="T" horiz-adv-x="694" 
d="M188 534h-56l31 176h620l-31 -176h-57l20 118h-222l-104 -595h91l-10 -57h-249l10 57h91l104 595h-218z" />
    <glyph glyph-name="Phi.alt" horiz-adv-x="682" 
d="M571 710l-11 -58h-75l-11 -63q77 0 124 -16t71 -46t28 -74t-6 -100q-10 -57 -30 -101t-55 -74t-87.5 -45.5t-127.5 -15.5l-10 -60h75l-10 -57h-216l10 57h75l10 60q-76 0 -123 15.5t-71 45.5t-28 74t6 101q10 58 29.5 102t54 74t87 45t128.5 15l11 63h-75l11 58h216z
M171 358q-7 -39 -6 -73t17.5 -58.5t53 -38.5t99.5 -14l63 358q-63 0 -104.5 -14t-66.5 -38t-37.5 -55.5t-18.5 -66.5zM631 358q6 35 4.5 66.5t-18.5 55.5t-53.5 38t-99.5 14l-63 -358q63 0 104.5 14t67 38.5t38.5 58.5t20 73z" />
    <glyph glyph-name="afii10088" unicode="&#x446;" horiz-adv-x="631" 
d="M174 198q-7 -39 -2 -68.5t19 -49t36 -29.5t49 -10q30 0 60.5 6t58 18t50.5 31.5t38 46.5l70 397h66l-78 -438q-6 -35 2 -45t20 -10l56 -1l-31 -166h-68l19 106q-23 0 -33.5 6t-14.5 16.5t-4.5 25t-3.5 31.5q-20 -20 -45.5 -35.5t-54 -26t-59 -16t-58.5 -5.5
q-52 0 -85.5 18.5t-52 48.5t-22.5 69t3 81l39 219q8 45 -4.5 59t-60.5 6l6 57q34 7 61 6.5t44 -12t23.5 -35.5t-0.5 -64z" />
    <glyph glyph-name="afii10090" unicode="&#x448;" horiz-adv-x="896" 
d="M153 261q-12 -68 -13 -111t8.5 -67.5t29.5 -33.5t52 -9q48 0 92.5 22.5t73.5 60.5q5 29 8 62t10 69l50 286h65l-52 -298q-10 -56 -11 -94.5t8 -62.5t29.5 -34.5t53.5 -10.5q46 0 87 20.5t72 54.5l75 425h66l-78 -443q-6 -35 1 -45.5t19 -10.5q6 0 11 0.5t11 1.5v-49
q-11 -3 -23 -5t-23 -2q-26 0 -42 14.5t-15 50.5q-38 -31 -84.5 -50.5t-86.5 -19.5q-56 0 -90 18t-47 69q-37 -39 -89.5 -63t-103.5 -24q-57 0 -88.5 21.5t-43.5 59.5t-9.5 89t12.5 110l28 157q8 45 -4.5 59t-60.5 6l6 57q34 7 60.5 6.5t44 -12t23.5 -35.5t-1 -64z" />
    <glyph glyph-name="afii10091" unicode="&#x449;" horiz-adv-x="893" 
d="M161 261q-12 -68 -13 -111t8.5 -67.5t29.5 -33.5t52 -9q48 0 92.5 22.5t73.5 60.5q5 29 8 62t10 69l50 286h65l-52 -298q-10 -56 -11 -94.5t8 -62.5t29.5 -34.5t53.5 -10.5q46 0 87 20.5t72 54.5l75 425h66l-78 -443q-6 -35 1 -45.5t19 -10.5l56 5l-31 -166h-68l19 107
q-26 0 -42 14.5t-15 50.5q-38 -31 -84.5 -50.5t-86.5 -19.5q-56 0 -90 18t-47 69q-37 -39 -89.5 -63t-103.5 -24q-57 0 -88.5 21.5t-43.5 59.5t-9.5 89t12.5 110l28 157q8 45 -4.5 59t-60.5 6l6 57q34 7 60.5 6.5t44 -12t23.5 -35.5t-1 -64z" />
    <glyph glyph-name="afii10093" unicode="&#x44b;" horiz-adv-x="895" 
d="M298 551l-39 -218q22 1 50 2t57 1q44 0 86 -4.5t72.5 -22.5t45 -53t4.5 -95q-9 -50 -30.5 -81.5t-50.5 -49.5t-62.5 -25t-66.5 -7q-78 0 -151 3l-94 -5l-16 38l6.5 3t14 7l13.5 7.5l6 3.5l77 438h-75l11 58h142zM248 274l-18 -107t-19 -106q38 -2 76.5 -3t79.5 -1
q54 0 93 25.5t50 82.5q6 34 -2 56t-25.5 34.5t-43 17t-54.5 4.5q-68 0 -137 -3zM793 122q-8 -45 4.5 -59t60.5 -6l-8 -57q-34 -7 -61 -6.5t-44 12t-23.5 35.5t0.5 64l68 388h-91l11 58h158z" />
    <glyph glyph-name="afii10094" unicode="&#x44c;" horiz-adv-x="595" 
d="M298 551l-39 -218q22 1 50 2t57 1q44 0 86 -4.5t72.5 -22.5t45 -53t4.5 -95q-9 -50 -30.5 -81.5t-50.5 -49.5t-62.5 -25t-66.5 -7q-78 0 -151 3l-94 -5l-16 38l6.5 3t14 7l13.5 7.5l6 3.5l77 438h-75l11 58h142zM248 274l-18 -107t-19 -106q38 -2 76.5 -3t79.5 -1
q54 0 93 25.5t50 82.5q6 34 -2 56t-25.5 34.5t-43 17t-54.5 4.5q-68 0 -137 -3z" />
    <glyph glyph-name="afii10846" unicode="&#x4d9;" horiz-adv-x="548" 
d="M379 558q46 0 86.5 -9.5t68.5 -35.5t39 -73.5t-2 -122.5l-15 -85q-14 -77 -42 -124.5t-65.5 -74t-82 -35.5t-89.5 -9t-83 10.5t-63.5 36t-36 68t0.5 105.5q4 20 9 41.5t10 34.5h388q12 72 7 114t-23.5 64t-49 28.5t-67.5 6.5q-63 0 -104 -6t-75 -16q-5 24 -11 50
q35 14 84.5 23t115.5 9zM288 45q29 0 60.5 5t59.5 24t50.5 56.5t34.5 102.5h-326q-7 -17 -10 -39q-7 -41 2 -69t28.5 -46t46 -26t54.5 -8z" />
    <glyph glyph-name="commainferior" unicode="&#xf6e1;" horiz-adv-x="202" 
d="M43 42q5 25 23 38t41 13q17 0 29 -6.5t14 -23.5q3 -5 2.5 -19t-2.5 -22q-8 -45 -34.5 -83t-80.5 -64l-12 25q18 13 29 24.5t18 22t11 21.5t6 23q-23 1 -36 13.5t-8 37.5z" />
    <glyph glyph-name="afii10058" unicode="&#x409;" horiz-adv-x="978" 
d="M339 652l-62 -356q-17 -92 -40.5 -150t-56.5 -90.5t-77.5 -44t-101.5 -11.5l9 56q48 0 80 10.5t54 38t37 75.5t28 123l61 349h-82l11 58h615l-11 -58h-98l-41 -237q20 1 43 1.5t47 0.5q50 0 96.5 -7.5t80 -31t48.5 -65.5t3 -111q-11 -62 -36.5 -101t-59.5 -61.5
t-74.5 -31t-81.5 -8.5h-96.5t-62 -1.5t-45.5 -4t-47 -7.5q-1 3 -0.5 12t1 19.5t1 20t-0.5 12.5q14 2 25.5 3t25.5 3l104 595h-296zM730 57q34 0 64.5 6.5t55 23.5t42 45.5t25.5 73.5q9 51 -1 81.5t-33 46.5t-56 21t-70 5q-52 0 -104 -3l-52 -300h129z" />
    <glyph glyph-name="afii10059" unicode="&#x40a;" horiz-adv-x="987" 
d="M632 652h-75l11 58h243v-1v1l-11 -58h-99l-41 -237q20 1 43 1.5t48 0.5q51 0 97 -7.5t79 -31t48 -65.5t3 -111q-11 -62 -36.5 -101.5t-59.5 -62t-74.5 -31.5t-81.5 -9q-66 0 -129 1.5t-126 1.5q-2 5 -2.5 12t-2.5 14q14 2 27 3.5t26 3.5q6 24 12 51t12 59l35 197h-314
l-53 -300h75l-7 -41h-227l10 57h84l104 595h-84l11 58h227l-8 -42h-75l-47 -269h314zM726 56q34 0 64.5 6.5t55 23.5t42 46t25.5 74q9 51 -1 81.5t-33 46.5t-56 21t-70 5q-52 0 -104 -3l-52 -298q63 -3 129 -3z" />
    <glyph glyph-name="el.alt" horiz-adv-x="754" 
d="M555 57l76 436h-318l-48 -273h-2q-16 -72 -39.5 -115.5t-54 -66.5t-69.5 -30.5t-87 -7.5l9 55q38 1 66.5 8t50.5 30t38 68t30 122l37 210h-83l10 57h621l-10 -57h-83l-76 -436h83l-10 -57h-226l14 57h71z" />
    <glyph glyph-name="afii10038" unicode="&#x424;" horiz-adv-x="655" 
d="M571 710l-11 -58h-75l-11 -63q77 0 124 -16t71 -46t28 -74t-6 -100q-10 -57 -30 -101t-55 -74t-87.5 -45.5t-127.5 -15.5l-10 -60h75l-10 -57h-216l10 57h75l10 60q-76 0 -123 15.5t-71 45.5t-28 74t6 101q10 58 29.5 102t54 74t87 45t128.5 15l11 63h-75l11 58h216z
M171 358q-7 -39 -6 -73t17.5 -58.5t53 -38.5t99.5 -14l63 358q-63 0 -104.5 -14t-66.5 -38t-37.5 -55.5t-18.5 -66.5zM631 358q6 35 4.5 66.5t-18.5 55.5t-53.5 38t-99.5 14l-63 -358q63 0 104.5 14t67 38.5t38.5 58.5t20 73z" />
    <glyph glyph-name="afii10089" unicode="&#x447;" horiz-adv-x="696" 
d="M499 0l41 233q-17 -17 -40.5 -29.5t-50.5 -20.5t-55.5 -12t-54.5 -4q-50 0 -81.5 10t-46.5 38t-15.5 77t13.5 126l13 75h-99l10 57h165l-23 -132q-10 -58 -12.5 -95t6 -58.5t28 -30t53.5 -8.5q42 0 76.5 5t61.5 19t45.5 39t27.5 66l34 195h142l-9 -56h-75l-77 -437h75
l-10 -57h-142z" />
    <glyph glyph-name="afii10099" unicode="&#x452;" horiz-adv-x="645" 
d="M262 709h67l-23 -125h114l-10 -58h-114l-31 -177q32 37 79 51.5t101 14.5q44 0 79.5 -9.5t58 -35.5t30 -71.5t-5.5 -118.5q-11 -63 -34 -104t-55 -64.5t-72 -33t-85 -10.5l3 55q36 1 65.5 7.5t51.5 24.5t37 49t24 81q10 54 3 88t-24.5 52.5t-42.5 25t-51 6.5t-54 -3.5
t-53 -17.5t-44 -41.5t-28 -75.5l-28 -162h76l-10 -57h-232l9 56h83l83 470h-110l10 58h110z" />
    <glyph glyph-name="afii10067" unicode="&#x432;" horiz-adv-x="605" 
d="M194 8q-29 8 -51.5 24.5t-36.5 43.5t-17.5 67t6.5 95l15 85q13 74 41 120t65.5 72.5t81 36.5t87.5 11h4h9h7q33 0 70.5 -6t67.5 -22t46.5 -45.5t7.5 -77.5q-8 -49 -34.5 -77.5t-64.5 -41.5q52 -14 73.5 -44t10.5 -91q-8 -45 -35 -77t-64 -52.5t-79.5 -30t-80.5 -9.5
t-70.5 6t-58.5 13zM225 62q23 -6 48.5 -10.5t57.5 -4.5q26 0 55.5 6.5t55.5 20.5t45.5 35.5t24.5 50.5q6 32 -1.5 51.5t-25 30.5t-43.5 15t-57 4h-58q-42 0 -83 2.5t-79 6.5q-9 -53 -9 -89.5t8.5 -60.5t24 -37.5t36.5 -19.5v-1zM386 507q-29 0 -61.5 -3.5t-62 -20.5t-53 -53
t-35.5 -101q45 -6 92 -10t90 -2v-1l37 1q19 0 40.5 3.5t40.5 13.5t33.5 28.5t19.5 48.5q5 28 -5 46.5t-29.5 29.5t-46 15.5t-53.5 4.5h-7z" />
    <glyph glyph-name="epsilontonos" unicode="&#x3ad;" horiz-adv-x="613" 
d="M445 302q-3 -14 -8 -28.5t-9 -27.5h-271q-12 -68 -5 -107t27.5 -59t50.5 -25.5t63 -5.5q62 0 104 7.5t75 17.5l12 -51q-35 -14 -84.5 -24t-115.5 -10q-47 0 -89 9.5t-71 36t-41 73.5t1 122l15 83q13 77 43.5 125t70.5 74.5t86 36t92 9.5q60 0 108.5 -19.5t69.5 -67.5
l-44 -45q-20 38 -59.5 56t-87.5 18q-27 0 -59 -5.5t-62 -26t-54 -60t-36 -106.5h278zM387 584q-2 32 -3.5 63.5t-2.5 63.5h74l-23 -127h-45z" />
    <glyph glyph-name="afii10196" unicode="&#x475;" horiz-adv-x="576" 
d="M114 494l10 57h137l33.5 -227l33.5 -228l129 252q35 67 61.5 107t47 62t36.5 30t31 12l11 -37q-17 -10 -39 -37t-47 -76l-210 -409h-71l-40.5 247l-40.5 247h-82z" />
    <glyph glyph-name="afii10096" unicode="&#x44e;" horiz-adv-x="875" 
d="M290 551l-44 -245h140q14 79 41.5 128t64 76.5t79.5 37.5t89 10q45 0 84.5 -9.5t66.5 -36t37 -74.5t-3 -124l-15 -84q-14 -76 -40.5 -123t-62.5 -73t-79 -35t-89 -9q-45 0 -83.5 12t-65.5 38.5t-38 69.5t0 105l6 33h-142l-33 -191h75l-10 -57h-215l10 58h74l76 435h-92
l11 58h158zM439 226q-11 -60 -2.5 -95.5t28.5 -54.5t48 -24.5t57 -5.5q26 0 55.5 5.5t56.5 24t48.5 54t32.5 95.5l17 93q10 60 1.5 96.5t-29 56t-48 25.5t-54.5 6q-28 0 -58 -6.5t-56.5 -26t-48 -55.5t-31.5 -95z" />
    <glyph glyph-name="afii10092" unicode="&#x44a;" horiz-adv-x="605" 
d="M335 551l-2 -1l-38 -217q22 1 50 2t57 1q44 0 86 -4.5t72.5 -22.5t45 -53t4.5 -95q-9 -50 -30.5 -81.5t-50.5 -49.5t-62.5 -25t-66.5 -7q-78 0 -151 3l-94 -5l-16 38l6.5 3t14 7l13.5 7.5l6 3.5l77 438h-111l-18 -102h-53l29 160h232zM284 274l-18 -107t-19 -106
q38 -2 76.5 -3t79.5 -1q54 0 93 25.5t50 82.5q6 34 -2 56t-25.5 34.5t-43 17t-54.5 4.5q-68 0 -137 -3z" />
    <glyph glyph-name="omegatonos" unicode="&#x3ce;" horiz-adv-x="759" 
d="M152 410q8 46 18 76.5t20.5 50t20.5 30t19 15.5l18 -6t18 -7q-10 -17 -23.5 -50.5t-23.5 -87.5l-46 -263q-4 -24 -2.5 -45.5t10.5 -37.5t26.5 -25t45.5 -9q37 0 60 12.5t36.5 33t20.5 46.5t12 54l41 232l64 6l-42 -237q-6 -32 -7.5 -59t6 -46.5t25.5 -30.5t53 -11
q28 0 49 9.5t36 25.5t24 37t13 45l47 264q10 56 8 88.5t-5 49.5l40 13q6 -5 12.5 -15t10.5 -29.5t3.5 -50.5t-8.5 -77l-42 -239q-7 -39 -22 -71.5t-39 -56.5t-57 -37.5t-75 -13.5q-61 0 -87.5 22t-35.5 69q-29 -47 -63 -69t-92 -22q-43 0 -71 13.5t-43 37.5t-18.5 57t3.5 71
zM460 584q-2 32 -3.5 63.5t-2.5 63.5h74l-23 -127h-45z" />
    <glyph glyph-name="afii10195" unicode="&#x473;" horiz-adv-x="540" 
d="M533 230q-14 -77 -40.5 -124t-62 -73t-78.5 -35t-89 -9q-47 0 -86.5 9t-66 34.5t-36.5 72.5t4 124l15 86q13 77 40.5 124.5t63.5 74t79 35.5t88 9t84 -9.5t66 -36.5t37 -75t-3 -124zM273 42q25 0 54 5.5t55.5 23.5t48.5 51t33 87l-156 31.5l-157 30.5q-13 -75 -9 -120.5
t21 -69.5t45.5 -31.5t64.5 -7.5zM354 504q-27 0 -56.5 -6.5t-55.5 -25t-47 -53t-32 -89.5l310 -62l11 65q9 52 0 85.5t-29 52.5t-47 26t-54 7z" />
    <glyph glyph-name="afii10147" unicode="&#x472;" horiz-adv-x="497" 
d="M519 381l-15.5 -81.5t-17.5 -75.5q-20 -69 -47.5 -114.5t-60 -72.5t-67.5 -37.5t-71 -10.5q-47 0 -83 15.5t-56.5 57.5t-23 115.5t17.5 188.5q18 103 47 171.5t65 109.5t77 57.5t85 16.5q40 0 74.5 -17t57 -57t29 -105t-10.5 -161zM249 45q29 0 56.5 11.5t52.5 40
t45.5 78t35.5 124.5l-140 28l-140 28l-5 -30q-15 -84 -13.5 -138.5t15.5 -86t38 -43.5t55 -12zM456 390q12 76 9 128t-17 84.5t-37.5 47t-51.5 14.5t-55 -12.5t-51 -42t-45 -77.5t-38 -119l140.5 -27.5l140.5 -27.5z" />
    <glyph glyph-name="delta" unicode="&#x3b4;" horiz-adv-x="582" 
d="M104 256q13 78 39 125t61.5 72t79.5 33t94 9q-42 37 -79 75.5t-81 78.5l11 61h391l-27 -151h-55q5 25 8.5 48.5t4.5 44.5h-235l99.5 -92.5l98.5 -92.5q34 -26 48 -75.5t-1 -134.5l-5 -27q-14 -76 -40.5 -123t-62.5 -73t-79 -35t-89 -9q-47 0 -86.5 9t-66.5 34.5t-37 72
t4 121.5zM164 224q-11 -60 -2.5 -95.5t29 -53.5t48 -23.5t56.5 -5.5q27 0 56.5 5.5t56.5 24t48.5 53.5t32.5 94l7 40q10 60 2 96t-28 55t-47.5 25t-54.5 6q-28 0 -58 -6t-57.5 -25.5t-49.5 -55t-32 -95.5z" />
    <glyph glyph-name="uni02C9" unicode="&#x2c9;" horiz-adv-x="456" 
d="M173 710h366l-11 -58h-366z" />
    <glyph glyph-name="figuredash" unicode="&#x2012;" horiz-adv-x="539" 
d="M135 313h368l-10 -55h-368z" />
    <glyph glyph-name="minus" unicode="&#x2212;" horiz-adv-x="558" 
d="M137 313h385l-10 -55h-385z" />
    <glyph glyph-name="afii61352" unicode="&#x2116;" horiz-adv-x="1273" 
d="M168 652l11 58h160l259 -611l97 553h-84l11 58h235l-11 -58h-83l-104 -595h83l-10 -57h-161l-129.5 304.5l-129.5 304.5l-97 -552h75l-10 -57h-226l10 57h83l104 595h-83zM856 473q13 76 40 123t62.5 73.5t78 36t88.5 9.5q44 0 83 -9.5t65.5 -35.5t36.5 -73.5t-3 -122.5
l-14 -82q-14 -76 -40.5 -122.5t-62 -72.5t-78.5 -35t-88 -9q-46 0 -85 9t-65.5 34.5t-36 71.5t3.5 120zM905 387q-11 -59 -2.5 -94.5t28 -54.5t47.5 -24.5t57 -5.5q26 0 55.5 5.5t56.5 24t48.5 53.5t32.5 95l16 92q10 60 1.5 96t-28.5 55.5t-47.5 25.5t-54.5 6
q-28 0 -57.5 -6.5t-56.5 -26t-48.5 -55t-31.5 -94.5zM798 57h427l-10 -57h-427z" />
    <glyph glyph-name="dieresistonos" unicode="&#x385;" horiz-adv-x="485" 
d="M346 674q-2 32 -3.5 63.5t-2.5 63.5h74l-23 -127h-45zM194 684q4 22 20 34t36 12t32 -12t8 -34t-20 -34t-36 -12t-32 12t-8 34zM423 684q4 22 20 34t37 12q20 0 32 -12t8 -34t-20 -34t-36 -12q-21 0 -33 12t-8 34z" />
    <glyph glyph-name="afii10075" unicode="&#x439;" horiz-adv-x="615" 
d="M186 198q-7 -39 -2 -68.5t19 -49t36 -29.5t49 -10q30 0 60.5 6t58 18t50.5 31.5t38 46.5l70 397h66l-78 -443q-6 -35 1.5 -45.5t19.5 -10.5q6 0 10.5 0.5t10.5 1.5v-49q-9 -2 -20.5 -5.5t-20.5 -3.5q-24 0 -35 6t-15.5 16.5t-5 25t-3.5 32.5q-20 -20 -45.5 -35.5t-54 -26
t-59 -16t-58.5 -5.5q-52 0 -85.5 18.5t-52 48.5t-22.5 69t3 81l39 219q8 45 -4.5 59t-60.5 6l6 57q34 7 61 6.5t44 -12t23.5 -35.5t-0.5 -64zM399 599q-53 0 -87 33.5t-41 86.5l52 9q5 -37 27 -58.5t58 -21.5q38 0 68 22.5t48 57.5l46 -8q-12 -26 -30 -48.5t-40.5 -38.5
t-48.5 -25t-52 -9z" />
    <glyph glyph-name="eng" unicode="&#x14b;" horiz-adv-x="589" 
d="M408 500q-29 0 -58.5 -6.5t-56.5 -19t-49.5 -32t-36.5 -45.5l-70 -397h-66l78 443q6 35 -1.5 45.5t-19.5 10.5q-6 0 -10.5 -0.5t-10.5 -1.5v49q10 3 22.5 5t23.5 2q29 0 39 -20.5t15 -57.5q19 20 44.5 35.5t54 26t58 16t58.5 5.5q49 0 83.5 -13t55 -37t27 -57.5
t-0.5 -73.5q-2 -14 -4 -26.5l-4 -25.5l-70 -395q-8 -45 -18 -75.5t-20.5 -49.5t-20 -29t-16.5 -14l-19.5 6t-18.5 7q0 2 2 4q8 14 20.5 45t22.5 86l79 452q7 37 1.5 63t-21 42.5t-39 24.5t-53.5 8z" />
    <glyph glyph-name="Eng" unicode="&#x14a;" horiz-adv-x="822" 
d="M168 652l11 58h160l153.5 -305l152.5 -305l59 332l3 15l36 205h-83l11 58h234l-11 -58h-83l-127 -725q-8 -45 -18.5 -75.5t-21 -50.5t-20.5 -30.5t-18 -15.5q-11 3 -20.5 6t-19.5 7q8 14 21 46t24 92l15 83l-314 621l-97 -553h75l-10 -57h-226l10 57h83l104 595h-83z" />
    <glyph glyph-name="y.alt" horiz-adv-x="647" 
d="M221 551l102 -481l132 240.5l132 240.5h111l-10 -57q-16 0 -32.5 -0.5t-32.5 -0.5l-275 -493q-22 -33 -41 -70t-46 -69t-66.5 -53t-101.5 -21l10 58q38 0 63.5 13.5t43.5 34.5t32.5 47t30.5 50l-110 503h-64l11 58h111z" />
    <glyph glyph-name="paragraph" unicode="&#xb6;" horiz-adv-x="654" 
d="M580 659h-92l-116 -659h-51l50 284q-72 0 -122 9t-79 32t-38 62.5t2 99.5q10 60 32 102t58.5 69t91 39.5t129.5 12.5h287l-9 -51h-92l-116 -659h-51z" />
    <glyph glyph-name="Lacute" unicode="&#x139;" horiz-adv-x="602" 
d="M573 0h-511l8 50h75l106 602h-83l11 58h224l-9 -51h-74l-106 -600h310q6 21 10.5 43.5l9.5 48.5h55zM431 871l-77 -118h-60l72 118h65z" />
    <glyph glyph-name="Oslash" unicode="&#xd8;" horiz-adv-x="662" 
d="M636 771l-38 -79q26 -14 46.5 -36.5t31.5 -56.5t12.5 -81.5t-9.5 -110.5l-18 -102q-17 -99 -50.5 -160.5t-77.5 -96t-96.5 -47t-107.5 -12.5q-18 0 -34.5 1t-32.5 4l-59 -123h-67l66 139q-30 13 -53 35t-36.5 57.5t-15.5 85t10 117.5l18 102q18 99 52 160t78.5 95
t96.5 46t105 12q21 0 41 -1.5t39 -5.5l28 58h71zM455 663q-43 0 -84 -10t-75.5 -39t-60.5 -81t-41 -136l-18 -97q-9 -51 -9 -89t7.5 -65.5t22 -46t33.5 -30.5l281 589q-13 3 -27 4t-29 1zM607 397q17 100 6 155t-43 81l-281 -584q24 -3 50 -3q42 0 81 9.5t72 37.5t58 77.5
t39 129.5z" />
    <glyph glyph-name="IJ" unicode="&#x132;" horiz-adv-x="610" 
d="M646 710l-112 -634q-14 -76 -33.5 -124t-46 -75.5t-59 -38t-71.5 -10.5q-18 0 -38 4t-39 10t-35.5 13t-27.5 14l13.5 20.5t15.5 25.5q8 -5 21.5 -9.5t28.5 -8.5t30.5 -6t27.5 -2q31 0 54 8.5t39.5 29.5t28.5 57t22 91l101 577h-92l11 58h161zM145 652l11 58h235l-11 -58
h-83l-104 -595h83l-10 -57h-235l10 57h84l104 595h-84z" />
    <glyph glyph-name="Jcircumflex" unicode="&#x134;" horiz-adv-x="431" 
d="M458 901l53.5 -70l53.5 -70h-65l-71 103l-108 -103h-65l154 140h48zM52 73q21 -14 46 -21t49 -7q31 0 58.5 7t50 28t40 59.5t28.5 102.5l73 411h-92l10 57h161l-84 -472q-14 -77 -36 -126t-53 -76.5t-70 -38t-87 -10.5q-15 0 -33 3t-35.5 7.5t-33.5 10.5t-27 13z" />
    <glyph glyph-name="aeacute" unicode="&#x1fd;" horiz-adv-x="878" 
d="M621 -11q-29 0 -59 4t-56 13.5t-45.5 27t-28.5 44.5q-17 -29 -41.5 -46t-54 -26t-62 -11.5t-63.5 -2.5q-101 0 -137.5 44t-22.5 120l4 24q6 34 22.5 60t46 43t73.5 26t104 9h128q7 45 7.5 78.5t-8.5 55.5t-29.5 33t-55.5 11q-38 0 -76 -5.5l-72 -10.5l-5 -31
q-11 0 -21.5 -0.5t-21.5 -0.5l4 40l4 40q20 5 45.5 10t53 9t55 6.5t51.5 2.5q34 0 58 -7t40.5 -19.5t26.5 -30t15 -37.5q20 29 46 48t55 29.5t60 14.5t62 4q44 0 82 -10.5t64 -36t36 -68t-1 -105.5l-9 -43t-10 -36h-388q-12 -70 -5 -111.5t27 -63.5t49 -28.5t61 -6.5
q63 0 105 6t74 16q6 -26 11 -50q-35 -14 -83.5 -23t-114.5 -9zM710 502q-29 0 -60 -5.5t-59 -25t-50.5 -57.5t-33.5 -102h326q3 9 5 19.5l4 21.5q7 40 -2 68.5t-28.5 46.5t-46.5 26t-55 8zM231 50q30 0 58 4.5t51.5 20t41.5 45.5t27 81l11 64h-126q-44 0 -74.5 -4.5
t-51.5 -14.5t-32.5 -26.5t-15.5 -41.5l-4 -23q-11 -57 18.5 -81t95.5 -24h1zM615 712l-77 -118h-60l72 118h65z" />
    <glyph glyph-name="n" unicode="n" horiz-adv-x="661" 
d="M548 342q13 79 -17 118t-85 39q-30 0 -60.5 -6t-58 -18t-50.5 -31.5t-38 -46.5l-70 -397h-66l78 443q6 35 -1.5 45.5t-19.5 10.5q-6 0 -10.5 -0.5t-10.5 -1.5v49q9 2 20.5 5.5t20.5 3.5q24 0 35 -6t15.5 -16.5t5 -25t3.5 -32.5q19 20 45 35.5t54.5 26t58.5 16t59 5.5
q52 0 85.5 -18.5t52 -48.5t22.5 -69t-3 -81l-39 -219q-8 -45 4.5 -59t60.5 -6l-6 -57q-34 -7 -61 -6.5t-44 12t-23.5 35.5t0.5 64z" />
    <glyph glyph-name="oe" unicode="&#x153;" horiz-adv-x="942" 
d="M664 -11q-31 0 -59.5 4t-53.5 14t-44 27.5t-30 44.5q-20 -27 -44 -44.5t-51.5 -27.5t-57.5 -13.5t-61 -3.5q-46 0 -86 9t-66.5 34.5t-36.5 72t4 121.5l15 86q13 77 40 125t63 74.5t79 36t89 9.5q30 0 58.5 -4t52 -14.5t41.5 -28.5t28 -46q43 56 101.5 74.5t120.5 18.5
q45 0 83 -10.5t63.5 -36t35.5 -68t-1 -105.5l-8.5 -41.5t-9.5 -34.5h-388l-3 -14q-11 -67 -5 -106.5t25 -60t48.5 -26.5t66.5 -6q63 0 104.5 6t74.5 16q4 -24 11 -50q-35 -14 -84 -23t-115 -9zM143 226q-11 -60 -2.5 -95.5t28.5 -54.5t48 -24.5t57 -5.5q27 0 56.5 5.5
t56.5 24t48.5 54t32.5 95.5l17 93q10 60 1.5 96.5t-29 56t-48.5 25.5t-55 6q-28 0 -57.5 -6.5t-56.5 -26t-48.5 -55.5t-31.5 -95zM754 502q-29 0 -60.5 -5t-59.5 -24t-50 -56.5t-34 -102.5h326q5 16 10 39q7 40 -2.5 68.5t-29 46.5t-46 26t-54.5 8z" />
    <glyph glyph-name="dollar" unicode="$" horiz-adv-x="628" 
d="M634 556q-13 0 -26 0.5t-26 0.5l12 84q-34 11 -71 16.5t-63 5.5q-36 0 -72.5 -5t-67 -18t-52.5 -35t-28 -56q-6 -32 3 -56t30.5 -41t55.5 -29.5t78 -22.5q21 -5 46.5 -10t51 -14t48.5 -23.5t38.5 -37t22 -54.5t-1.5 -77q-8 -46 -35.5 -82t-68.5 -61t-93 -38.5t-109 -13.5
q-48 0 -110 6t-126 27l33 141h56l-16 -90q15 -4 33.5 -7.5t38.5 -6.5t40 -4.5t37 -1.5q34 0 74.5 7t76.5 22t62.5 40t32.5 61q7 41 -6.5 68t-39 44t-59 27t-66.5 18q-116 23 -163.5 74t-33.5 135q8 46 33 79t63.5 54t89 30.5t109.5 9.5q42 0 90 -6.5t117 -27.5zM484 781
l-150 -853h-66l150 853h66z" />
    <glyph glyph-name="cent" unicode="&#xa2;" horiz-adv-x="534" 
d="M482 409l12 75q-26 11 -56.5 14.5t-52.5 3.5q-28 0 -58.5 -6.5t-58.5 -26t-50 -56t-32 -95.5l-16 -88q-12 -66 -1 -103t33.5 -55.5t52.5 -22.5t57 -4q56 0 97 9.5t73 20.5l4 -27t5 -27q-35 -14 -85.5 -22.5t-116.5 -8.5q-46 0 -86 9t-66.5 35t-36.5 72.5t4 121.5l15 86
q13 76 41 123.5t65 74.5t80.5 36.5t89.5 9.5q22 0 39.5 -1t35.5 -3.5t39 -7t48 -12.5q-6 -32 -13 -63t-12 -62h-50zM454 709l-151 -853h-66l151 853h66z" />
    <glyph glyph-name="uni021B" unicode="&#x21b;" horiz-adv-x="348" 
d="M250 713q16 2 31.5 4.5t31.5 5.5l-30 -169h123l-11 -61h-123l-69 -393q-5 -32 5 -40.5t22 -8.5q11 0 30 2t48 8q0 -14 0.5 -27t1.5 -27q-30 -5 -57 -9t-50 -4q-29 0 -44.5 9.5t-21 28.5t-3 47.5t9.5 67.5l61 346h-102l25 61h65q23 26 36 67.5t21 91.5zM109 -128
q4 24 19 37t36 13q29 0 36 -27q3 -5 3 -18.5t-2 -21.5q-8 -45 -34.5 -83.5t-81.5 -64.5l-13 25q18 14 30.5 25.5t20 22t11.5 21t6 21.5q-17 2 -26 15t-5 35z" />
    <glyph glyph-name="uni021A" unicode="&#x21a;" horiz-adv-x="694" 
d="M188 534h-56l31 176h620l-31 -176h-57l20 118h-222l-104 -595h91l-10 -57h-249l10 57h91l104 595h-218z" />
    <glyph glyph-name="Alpha" unicode="&#x391;" horiz-adv-x="734" 
d="M17 0l10 57h82l303 595h-46l11 58h163l103 -653h82l-10 -57h-136l-33 205h-289l-53 -103l-51 -102h-136zM285 264h254l-59 388z" />
    <glyph glyph-name="Chi" unicode="&#x3a7;" horiz-adv-x="723" 
d="M804 710l-11 -58h-60l-279 -297l177 -298h58l-10 -57h-97l-176 302l-281 -302h-93l10 57h53l280 298l-175 297h-54l11 58h94l86.5 -151l86.5 -151l141.5 151l140.5 151h98z" />
    <glyph glyph-name="Tau" unicode="&#x3a4;" horiz-adv-x="694" 
d="M188 534h-56l31 176h620l-31 -176h-57l20 118h-222l-104 -595h91l-10 -57h-249l10 57h91l104 595h-218z" />
    <glyph glyph-name="Upsilon" unicode="&#x3a5;" horiz-adv-x="677" 
d="M132 652l11 58h114l69.5 -159l70.5 -159l273 318h112l-11 -58h-73l-139.5 -162l-138.5 -162l-47 -271h83l-10 -57h-235l10 57h83l47 271l-72 162l-73 162h-74z" />
    <glyph glyph-name="Upsilondieresis" unicode="&#x3ab;" horiz-adv-x="677" 
d="M132 652l11 58h114l69.5 -159l70.5 -159l273 318h112l-11 -58h-73l-139.5 -162l-138.5 -162l-47 -271h83l-10 -57h-235l10 57h83l47 271l-72 162l-73 162h-74zM323 843q4 22 20 34t36 12t32 -12t8 -34t-20 -34t-36 -12t-32 12t-8 34zM552 843q4 22 20 34t37 12
q20 0 32 -12t8 -34t-20 -34t-36 -12q-21 0 -33 12t-8 34z" />
    <glyph glyph-name="Upsilontonos" unicode="&#x38e;" horiz-adv-x="758" 
d="M213 652l11 58h114l69.5 -159l70.5 -159l273 318h112l-11 -58h-73l-139.5 -162l-138.5 -162l-47 -271h83l-10 -57h-235l10 57h83l47 271l-72 162l-73 162h-74zM116 584q-2 32 -3.5 63.5t-2.5 63.5h74l-23 -127h-45v0z" />
    <glyph glyph-name="Omicron" unicode="&#x39f;" horiz-adv-x="662" 
d="M457 720q53 0 101 -12t81 -45.5t45.5 -95t-5.5 -160.5l-18 -102q-17 -99 -50.5 -160.5t-77.5 -96t-96.5 -47t-107.5 -12.5q-56 0 -104 12.5t-80 47t-43.5 96.5t5.5 160l18 102q18 99 52 160t78.5 95t96.5 46t105 12zM447 663q-43 0 -82.5 -10t-72.5 -39t-58 -81t-40 -136
l-18 -97q-14 -80 -6 -129.5t32 -77.5t59.5 -37.5t77.5 -9.5t81 9.5t72 37.5t58 77.5t39 129.5l18 97q15 84 8 136t-30 81t-59 39t-79 10z" />
    <glyph glyph-name="Rho" unicode="&#x3a1;" horiz-adv-x="643" 
d="M168 652l11 58h271q71 0 121 -11.5t79 -37.5t38 -67t-1 -101l-2 -12q-11 -60 -35.5 -98.5t-63 -61t-91 -31t-119.5 -8.5h-122l-39 -225h75l-10 -57h-219l10 57h76l104 595h-83zM617 486q10 54 0.5 86.5t-33.5 50.5t-60.5 23.5t-81.5 5.5h-123l-55 -314h122q45 0 83 4.5
t68 19.5t50.5 44.5t29.5 79.5z" />
    <glyph glyph-name="Nu" unicode="&#x39d;" horiz-adv-x="822" 
d="M168 652l11 58h160l307 -611l97 553h-83l11 58h235l-11 -58h-83l-104 -595h83l-10 -57h-161l-154 305l-154 305l-97 -553h75l-10 -57h-226l10 57h83l104 595h-83z" />
    <glyph glyph-name="Mu" unicode="&#x39c;" horiz-adv-x="941" 
d="M55 0l10 57h75l60 297.5l61 297.5h-83l11 58h174l141 -510l166.5 255l165.5 255h172l-11 -58h-83l-43.5 -297l-44.5 -298h75l-10 -57h-217l10 57h75l82 551l-165 -249l-163 -249h-49l-144 500l-56.5 -276.5l-56.5 -276.5h75l-10 -57h-217z" />
    <glyph glyph-name="Iota" unicode="&#x399;" horiz-adv-x="291" 
d="M143 652l11 58h235l-11 -58h-83l-104 -595h83l-10 -57h-235l10 57h84l104 595h-84z" />
    <glyph glyph-name="Iotadieresis" unicode="&#x3aa;" horiz-adv-x="291" 
d="M143 652l11 58h235l-11 -58h-83l-104 -595h83l-10 -57h-235l10 57h84l104 595h-84zM132 843q4 22 20 34t36 12t32 -12t8 -34t-20 -34t-36 -12t-32 12t-8 34zM361 843q4 22 20 34t37 12q20 0 32 -12t8 -34t-20 -34t-36 -12q-21 0 -33 12t-8 34z" />
    <glyph glyph-name="Iotatonos" unicode="&#x38a;" horiz-adv-x="346" 
d="M198 652l11 58h235l-11 -58h-83l-104 -595h83l-10 -57h-235l10 57h84l104 595h-84zM115 584q-2 32 -3.5 63.5t-2.5 63.5h74l-23 -127h-45v0z" />
    <glyph glyph-name="Zeta" unicode="&#x396;" horiz-adv-x="648" 
d="M40 59l297.5 297l297.5 297h-427l-19 -103h-51l29 160h567l-10 -56l-297 -298.5l-298 -298.5h444q6 25 11 50.5l10 53.5h51l-28 -161h-587z" />
    <glyph glyph-name="Eta" unicode="&#x397;" horiz-adv-x="784" 
d="M608 652l11 58h235l-11 -58h-83l-104 -595h83l-10 -57h-235l10 57h83l49 278h-371l-49 -278h83l-10 -57h-235l10 57h83l104 595h-83l11 58h235l-11 -58h-83l-45 -260h371l45 260h-83z" />
    <glyph glyph-name="Epsilon" unicode="&#x395;" horiz-adv-x="630" 
d="M169 652l11 58h511l-25 -142h-46l14 84h-315l-46 -261h257l-10 -58h-257l-48 -276h331l14 84h46l-24 -141h-519l10 57h74l104 595h-82z" />
    <glyph glyph-name="Epsilontonos" unicode="&#x388;" horiz-adv-x="664" 
d="M203 652l11 58h511l-25 -142h-46l14 84h-315l-46 -261h257l-10 -58h-257l-48 -276h331l14 84h46l-24 -141h-519l10 57h74l104 595h-82zM110 584q-2 32 -3.5 63.5t-2.5 63.5h74l-23 -127h-45v0z" />
    <glyph glyph-name="Beta" unicode="&#x392;" horiz-adv-x="685" 
d="M168 652l11 58h288q36 0 78 -4t76.5 -21t53.5 -51.5t8 -95.5l-2 -12q-11 -61 -43.5 -95.5t-79.5 -49.5q66 -18 96 -58t16 -121l-2 -14q-10 -55 -35 -91t-60 -57.5t-76.5 -30.5t-83.5 -9h-352l10 57h76l104 595h-83zM602 199q8 45 -2.5 73.5t-33.5 45t-57 23t-73 6.5h-170
l-51 -290h202q33 0 63 7t55 23.5t42.5 44t24.5 67.5zM614 531q7 42 -3.5 66.5t-34 36.5t-56 15t-69.5 3h-132l-44 -251h133q36 0 70 4t61.5 17.5t47 39.5t27.5 69z" />
    <glyph glyph-name="eta" unicode="&#x3b7;" horiz-adv-x="626" 
d="M516 342q13 79 -17 118t-85 39q-30 0 -60.5 -6t-58 -18t-50.5 -31.5t-38 -46.5l-70 -397h-66l78 443q6 35 -1.5 45.5t-19.5 10.5q-6 0 -10.5 -0.5t-10.5 -1.5v49q9 2 20.5 5.5t20.5 3.5q24 0 35 -6t15.5 -16.5t5 -25t3.5 -32.5q19 20 45 35.5t54.5 26t58.5 16t59 5.5
q52 0 85.5 -18.5t52 -48.5t22.5 -69t-3 -81l-76 -429q-8 -45 4.5 -59t60.5 -6l-7 -57q-33 -7 -60 -6.5t-44 12t-23.5 35.5t0.5 64z" />
    <glyph glyph-name="iota" unicode="&#x3b9;" horiz-adv-x="317" 
d="M224 122q-8 -45 4.5 -59t60.5 -6l-8 -57q-34 -7 -61 -6.5t-44 12t-23.5 35.5t0.5 64l68 388h-91l11 58h158zM224 693q4 23 21 36t40 13t35.5 -13t8.5 -36q-5 -24 -21.5 -37t-39.5 -13t-36 12.5t-8 37.5z" />
    <glyph glyph-name="iotadieresis" unicode="&#x3ca;" horiz-adv-x="317" 
d="M116 684q4 22 20 34t36 12t32 -12t8 -34t-20 -34t-36 -12t-32 12t-8 34zM345 684q4 22 20 34t37 12q20 0 32 -12t8 -34t-20 -34t-36 -12q-21 0 -33 12t-8 34zM224 122q-8 -45 4.5 -59t60.5 -6l-8 -57q-34 -7 -61 -6.5t-44 12t-23.5 35.5t0.5 64l68 388h-91l11 58h158z
" />
    <glyph glyph-name="iotadieresistonos" unicode="&#x390;" horiz-adv-x="317" 
d="M116 684q4 22 20 34t36 12t32 -12t8 -34t-20 -34t-36 -12t-32 12t-8 34zM345 684q4 22 20 34t37 12q20 0 32 -12t8 -34t-20 -34t-36 -12q-21 0 -33 12t-8 34zM224 122q-8 -45 4.5 -59t60.5 -6l-8 -57q-34 -7 -61 -6.5t-44 12t-23.5 35.5t0.5 64l68 388h-91l11 58h158z
M258 654q-2 32 -3.5 63.5t-2.5 63.5h74l-23 -127h-45v0z" />
    <glyph glyph-name="kappa" unicode="&#x3ba;" horiz-adv-x="658" 
d="M664 551l-11 -58h-77l-35 -33.5l-37 -35.5l-144 -148l150 -170q41 -46 72 -62l29 -16q-6 -11 -15.5 -25.5t-19.5 -14.5q-8 0 -20.5 2.5t-30 11.5t-38.5 25.5t-45 44.5l-106 121.5l-106 121.5l-30 -170q-8 -45 -18.5 -75.5t-21.5 -50t-21 -30t-16 -15.5l-19.5 6t-19.5 7
q11 15 24 49t22 88l104 587h-92l10 59h158l-65 -371l70 -79l232 231h117z" />
    <glyph glyph-name="upsilon" unicode="&#x3c5;" 
d="M488 550h145l-77 -440q-11 -58 21 -58q9 0 21 3.5t26 8.5q0 -12 0.5 -26t2.5 -25q-28 -10 -47.5 -13.5t-35.5 -3.5q-26 0 -41 13t-11 50q-33 -39 -83.5 -52.5t-103.5 -13.5q-42 0 -78.5 9t-61.5 35t-34 72.5t4 121.5l46 262h-76l11 58h143l-56 -315q-10 -57 -5.5 -93
t20.5 -56.5t41.5 -28.5t56.5 -8q27 0 57 3.5t56 17.5t46.5 43.5t29.5 80.5l52 298h-79z" />
    <glyph glyph-name="upsilondieresis" unicode="&#x3cb;" 
d="M488 550h145l-77 -440q-11 -58 21 -58q9 0 21 3.5t26 8.5q0 -12 0.5 -26t2.5 -25q-28 -10 -47.5 -13.5t-35.5 -3.5q-26 0 -41 13t-11 50q-33 -39 -83.5 -52.5t-103.5 -13.5q-42 0 -78.5 9t-61.5 35t-34 72.5t4 121.5l46 262h-76l11 58h143l-56 -315q-10 -57 -5.5 -93
t20.5 -56.5t41.5 -28.5t56.5 -8q27 0 57 3.5t56 17.5t46.5 43.5t29.5 80.5l52 298h-79zM273 684q4 22 20 34t36 12t32 -12t8 -34t-20 -34t-36 -12t-32 12t-8 34zM502 684q4 22 20 34t37 12q20 0 32 -12t8 -34t-20 -34t-36 -12q-21 0 -33 12t-8 34z" />
    <glyph glyph-name="upsilondieresistonos" unicode="&#x3b0;" 
d="M488 550h145l-77 -440q-11 -58 21 -58q9 0 21 3.5t26 8.5q0 -12 0.5 -26t2.5 -25q-28 -10 -47.5 -13.5t-35.5 -3.5q-26 0 -41 13t-11 50q-33 -39 -83.5 -52.5t-103.5 -13.5q-42 0 -78.5 9t-61.5 35t-34 72.5t4 121.5l46 262h-76l11 58h143l-56 -315q-10 -57 -5.5 -93
t20.5 -56.5t41.5 -28.5t56.5 -8q27 0 57 3.5t56 17.5t46.5 43.5t29.5 80.5l52 298h-79zM273 684q4 22 20 34t36 12t32 -12t8 -34t-20 -34t-36 -12t-32 12t-8 34zM502 684q4 22 20 34t37 12q20 0 32 -12t8 -34t-20 -34t-36 -12q-21 0 -33 12t-8 34zM416 647q-2 32 -3.5 63.5
t-2.5 63.5h74l-23 -127h-45v0z" />
    <glyph glyph-name="upsilontonos" unicode="&#x3cd;" 
d="M488 550h145l-77 -440q-11 -58 21 -58q9 0 21 3.5t26 8.5q0 -12 0.5 -26t2.5 -25q-28 -10 -47.5 -13.5t-35.5 -3.5q-26 0 -41 13t-11 50q-33 -39 -83.5 -52.5t-103.5 -13.5q-42 0 -78.5 9t-61.5 35t-34 72.5t4 121.5l46 262h-76l11 58h143l-56 -315q-10 -57 -5.5 -93
t20.5 -56.5t41.5 -28.5t56.5 -8q27 0 57 3.5t56 17.5t46.5 43.5t29.5 80.5l52 298h-79zM385 583q-2 32 -3.5 63.5t-2.5 63.5h74l-23 -127h-45v0z" />
    <glyph glyph-name="uni03F0" unicode="&#x3f0;" horiz-adv-x="653" 
d="M130 0h-93l10 57q16 0 37.5 4.5t45.5 24.5l192 189l-145 218h-54l11 58h94l145 -226l130 130l68 67q26 25 29 29h93l-11 -58q-16 0 -37.5 -4.5t-45.5 -24.5l-192 -189l145 -218h54l-10 -57h-94l-147 225z" />
    <glyph glyph-name="chi" unicode="&#x3c7;" horiz-adv-x="642" 
d="M130 0h-93l10 57q16 0 37.5 4.5t45.5 24.5l192 189l-145 218h-54l11 58h94l145 -226l130 130l68 67q26 25 29 29h93l-11 -58q-16 0 -37.5 -4.5t-45.5 -24.5l-192 -189l145 -218h54l-10 -57h-94l-147 225z" />
    <glyph glyph-name="epsilon" unicode="&#x3b5;" horiz-adv-x="605" 
d="M445 302q-3 -14 -8 -28.5t-9 -27.5h-271q-12 -68 -5 -107t27.5 -59t50.5 -25.5t63 -5.5q62 0 104 7.5t75 17.5l12 -51q-35 -14 -84.5 -24t-115.5 -10q-47 0 -89 9.5t-71 36t-41 73.5t1 122l15 83q13 77 43.5 125t70.5 74.5t86 36t92 9.5q60 0 108.5 -19.5t69.5 -67.5
l-44 -45q-20 38 -59.5 56t-87.5 18q-27 0 -59 -5.5t-62 -26t-54 -60t-36 -106.5h278v0z" />
    <glyph glyph-name="uni03D0" unicode="&#x3d0;" horiz-adv-x="580" 
d="M5 -168q12 26 24 64t21 90l89 505q10 58 37 101.5t63 71.5t78.5 42t83.5 14q39 0 74 -12t60 -36t36.5 -58.5t3.5 -79.5q-12 -67 -43.5 -102.5t-77.5 -52.5q29 -10 50.5 -25t34.5 -37.5t16 -54t-4 -74.5q-10 -56 -42 -94.5t-75 -62.5t-92 -34.5t-94 -10.5h-18.5t-21.5 0.5
t-21 0.5h-17q2 13 5 26t5 26q5 -1 15 -1h21q31 0 73.5 6.5t83 24t71.5 48.5t40 80q8 45 -2.5 74t-34.5 46t-59 24t-76 7h-38v53h37q35 0 67 5t58 19t44 39.5t25 66.5q6 31 -2 54.5t-24.5 39.5t-40 24t-48.5 8q-29 0 -58 -10t-53.5 -30.5t-43.5 -51.5t-26 -73l-86 -489
q-14 -81 -32.5 -121.5t-30.5 -55.5z" />
    <glyph glyph-name="afii10017" unicode="&#x410;" horiz-adv-x="734" 
d="M17 0l10 57h82l303 595h-46l11 58h163l103 -653h82l-10 -57h-136l-33 205h-289l-53 -103l-51 -102h-136zM285 264h254l-59 388z" />
    <glyph glyph-name="afii10019" unicode="&#x412;" horiz-adv-x="685" 
d="M168 652l11 58h288q36 0 78 -4t76.5 -21t53.5 -51.5t8 -95.5l-2 -12q-11 -61 -43.5 -95.5t-79.5 -49.5q66 -18 96 -58t16 -121l-2 -14q-10 -55 -35 -91t-60 -57.5t-76.5 -30.5t-83.5 -9h-352l10 57h76l104 595h-83zM602 199q8 45 -2.5 73.5t-33.5 45t-57 23t-73 6.5h-170
l-51 -290h202q33 0 63 7t55 23.5t42.5 44t24.5 67.5zM614 531q7 42 -3.5 66.5t-34 36.5t-56 15t-69.5 3h-132l-44 -251h133q36 0 70 4t61.5 17.5t47 39.5t27.5 69z" />
    <glyph glyph-name="afii10080" unicode="&#x43e;" horiz-adv-x="535" 
d="M93 313q13 77 40 125t63 74.5t79 36t89 9.5q45 0 84.5 -9.5t66.5 -36t37.5 -74.5t-2.5 -124l-15 -84q-14 -76 -40.5 -123t-62.5 -73t-79.5 -35t-89.5 -9t-86 9t-66.5 34.5t-36.5 72t4 121.5zM143 226q-11 -60 -2.5 -95.5t28.5 -54.5t48 -24.5t57 -5.5q27 0 56.5 5.5
t56.5 24t48.5 54t32.5 95.5l17 93q10 60 1.5 96.5t-29 56t-48.5 25.5t-55 6q-28 0 -57.5 -6.5t-56.5 -26t-48.5 -55.5t-31.5 -95z" />
    <glyph glyph-name="afii10082" unicode="&#x440;" horiz-adv-x="624" 
d="M72 -212l116 655q6 36 -2 46t-19 10q-28 0 -53 -9l-3 44q28 9 46 14t36 5q45 0 56 -48q13 9 29 18.5t37.5 17t50 12.5t66.5 5q45 0 84.5 -11t65.5 -39.5t35.5 -78t-3.5 -126.5l-13 -73q-13 -75 -40 -122t-62.5 -73.5t-78 -36t-87.5 -9.5q-36 0 -61 2.5t-42 7t-28.5 11
t-21.5 14.5l-38 -214zM189 77l6 -3l22 -10.5t27.5 -9.5t37 -6.5t51.5 -2.5q32 0 63.5 7t59 27.5t48.5 57.5t32 98l12 69q11 61 3 99.5t-28 60.5t-48.5 30.5t-58.5 8.5q-48 0 -90.5 -14t-69.5 -32z" />
    <glyph glyph-name="afii10022" unicode="&#x415;" horiz-adv-x="630" 
d="M169 652l11 58h511l-25 -142h-46l14 84h-315l-46 -261h257l-10 -58h-257l-48 -276h331l14 84h46l-24 -141h-519l10 57h74l104 595h-82z" />
    <glyph glyph-name="afii10023" unicode="&#x401;" horiz-adv-x="630" 
d="M169 652l11 58h511l-25 -142h-46l14 84h-315l-46 -261h257l-10 -58h-257l-48 -276h331l14 84h46l-24 -141h-519l10 57h74l104 595h-82zM300 843q4 22 20 34t36 12t32 -12t8 -34t-20 -34t-36 -12t-32 12t-8 34zM529 843q4 22 20 34t37 12q20 0 32 -12t8 -34t-20 -34
t-36 -12q-21 0 -33 12t-8 34z" />
    <glyph glyph-name="afii10026" unicode="&#x418;" horiz-adv-x="822" 
d="M812 652l-104 -595h83l-10 -57h-226l10 57h75l97 553l-261.5 -305l-260.5 -305h-161l10 57h83l104 595h-83l11 58h235l-11 -58h-83l-97 -553l523 611h160l-11 -58h-83z" />
    <glyph glyph-name="afii10027" unicode="&#x419;" horiz-adv-x="822" 
d="M812 652l-104 -595h83l-10 -57h-226l10 57h75l97 553l-261.5 -305l-260.5 -305h-161l10 57h83l104 595h-83l11 58h235l-11 -58h-83l-97 -553l523 611h160l-11 -58h-83zM543 758q-53 0 -87 33.5t-41 86.5l52 9q5 -37 27 -58.5t58 -21.5q38 0 68 22.5t48 57.5l46 -8
q-12 -26 -30 -48.5t-40.5 -38.5t-48.5 -25t-52 -9z" />
    <glyph glyph-name="afii10030" unicode="&#x41c;" horiz-adv-x="941" 
d="M55 0l10 57h75l60 297.5l61 297.5h-83l11 58h174l141 -510l166.5 255l165.5 255h172l-11 -58h-83l-43.5 -297l-44.5 -298h75l-10 -57h-217l10 57h75l82 551l-165 -249l-163 -249h-49l-144 500l-56.5 -276.5l-56.5 -276.5h75l-10 -57h-217z" />
    <glyph glyph-name="afii10031" unicode="&#x41d;" horiz-adv-x="784" 
d="M608 652l11 58h235l-11 -58h-83l-104 -595h83l-10 -57h-235l10 57h83l49 278h-371l-49 -278h83l-10 -57h-235l10 57h83l104 595h-83l11 58h235l-11 -58h-83l-45 -260h371l45 260h-83z" />
    <glyph glyph-name="afii10032" unicode="&#x41e;" horiz-adv-x="662" 
d="M457 720q53 0 101 -12t81 -45.5t45.5 -95t-5.5 -160.5l-18 -102q-17 -99 -50.5 -160.5t-77.5 -96t-96.5 -47t-107.5 -12.5q-56 0 -104 12.5t-80 47t-43.5 96.5t5.5 160l18 102q18 99 52 160t78.5 95t96.5 46t105 12zM447 663q-43 0 -82.5 -10t-72.5 -39t-58 -81t-40 -136
l-18 -97q-14 -80 -6 -129.5t32 -77.5t59.5 -37.5t77.5 -9.5t81 9.5t72 37.5t58 77.5t39 129.5l18 97q15 84 8 136t-30 81t-59 39t-79 10z" />
    <glyph glyph-name="afii10034" unicode="&#x420;" horiz-adv-x="643" 
d="M168 652l11 58h271q71 0 121 -11.5t79 -37.5t38 -67t-1 -101l-2 -12q-11 -60 -35.5 -98.5t-63 -61t-91 -31t-119.5 -8.5h-122l-39 -225h75l-10 -57h-219l10 57h76l104 595h-83zM617 486q10 54 0.5 86.5t-33.5 50.5t-60.5 23.5t-81.5 5.5h-123l-55 -314h122q45 0 83 4.5
t68 19.5t50.5 44.5t29.5 79.5z" />
    <glyph glyph-name="afii10035" unicode="&#x421;" horiz-adv-x="633" 
d="M654 537h-53l16 96q-36 14 -79 22t-75 8q-42 0 -83 -8t-76 -35t-62.5 -78t-42.5 -137l-18 -102q-14 -78 -7 -127.5t30 -78.5t59.5 -40t83.5 -11q39 0 73 5.5t63.5 13t55 16.5l46.5 16l11 -52l-49 -18t-59 -18.5t-70 -14t-81 -5.5q-57 0 -106.5 12t-82.5 45.5t-45 94
t5 157.5l19 107q16 91 46.5 152t74 97.5t100 51.5t124.5 15q40 0 94.5 -8.5t122.5 -31.5z" />
    <glyph glyph-name="afii10036" unicode="&#x422;" horiz-adv-x="694" 
d="M188 534h-56l31 176h620l-31 -176h-57l20 118h-222l-104 -595h91l-10 -57h-249l10 57h91l104 595h-218z" />
    <glyph glyph-name="afii10039" unicode="&#x425;" horiz-adv-x="723" 
d="M804 710l-11 -58h-60l-279 -297l177 -298h58l-10 -57h-97l-176 302l-281 -302h-93l10 57h53l280 298l-175 297h-54l11 58h94l86.5 -151l86.5 -151l141.5 151l140.5 151h98z" />
    <glyph glyph-name="afii10049" unicode="&#x42f;" horiz-adv-x="731" 
d="M673 0h-216l10 57h75l39 223h-123h-20t-20 2l-182 -194q-33 -35 -59.5 -56t-46.5 -32.5t-33 -15t-19 -4.5q-6 5 -12.5 16.5t-11.5 19.5l36 21q17 11 38 29.5t46 44.5l168 178q-39 7 -68.5 21t-47.5 37t-24 56t2 77l3 15q12 67 40.5 109t71.5 65.5t99.5 32t124.5 8.5h263
l-11 -58h-83l-104 -595h75zM273 487q-7 -53 7 -83t42.5 -45.5t68 -19.5t84.5 -4h116l55 317h-116q-47 0 -89 -5t-76 -22t-58 -49.5t-34 -88.5z" />
    <glyph glyph-name="afii10054" unicode="&#x405;" horiz-adv-x="628" 
d="M634 556q-13 0 -26 0.5t-26 0.5l12 84q-34 11 -71 16.5t-63 5.5q-36 0 -72.5 -5t-67 -18t-52.5 -35t-28 -56q-6 -32 3 -56t30.5 -41t55.5 -29.5t78 -22.5q21 -5 46.5 -10t51 -14t48.5 -23.5t38.5 -37t22 -54.5t-1.5 -77q-8 -46 -35.5 -82t-68.5 -61t-93 -38.5t-109 -13.5
q-48 0 -110 6t-126 27l33 141h56l-16 -90q15 -4 33.5 -7.5t38.5 -6.5t40 -4.5t37 -1.5q34 0 74.5 7t76.5 22t62.5 40t32.5 61q7 41 -6.5 68t-39 44t-59 27t-66.5 18q-116 23 -163.5 74t-33.5 135q8 46 33 79t63.5 54t89 30.5t109.5 9.5q42 0 90 -6.5t117 -27.5l-38 -132v0z
" />
    <glyph glyph-name="afii10055" unicode="&#x406;" horiz-adv-x="291" 
d="M143 652l11 58h235l-11 -58h-83l-104 -595h83l-10 -57h-235l10 57h84l104 595h-84z" />
    <glyph glyph-name="afii10056" unicode="&#x407;" horiz-adv-x="291" 
d="M143 652l11 58h235l-11 -58h-83l-104 -595h83l-10 -57h-235l10 57h84l104 595h-84zM132 843q4 22 20 34t36 12t32 -12t8 -34t-20 -34t-36 -12t-32 12t-8 34zM361 843q4 22 20 34t37 12q20 0 32 -12t8 -34t-20 -34t-36 -12q-21 0 -33 12t-8 34z" />
    <glyph glyph-name="afii10057" unicode="&#x408;" horiz-adv-x="431" 
d="M476 710l-92 -519q-13 -76 -33 -123t-47.5 -73t-61.5 -36t-76 -11q-35 0 -71 9t-59 22q5 9 12 24t13 32q8 -5 23.5 -9t33 -7t35 -5t28.5 -2q23 0 43 8t37.5 28t31 55.5t23.5 90.5l80 458h-92l11 58h161z" />
    <glyph glyph-name="afii10083" unicode="&#x441;" horiz-adv-x="534" 
d="M482 409l12 75q-26 11 -56.5 14.5t-52.5 3.5q-28 0 -58.5 -6.5t-58.5 -26t-50 -56t-32 -95.5l-16 -88q-12 -66 -1 -103t33.5 -55.5t52.5 -22.5t57 -4q56 0 97 9.5t73 20.5l4 -27t5 -27q-35 -14 -85.5 -22.5t-116.5 -8.5q-46 0 -86 9t-66.5 35t-36.5 72.5t4 121.5l15 86
q13 76 41 123.5t65 74.5t80.5 36.5t89.5 9.5q22 0 39.5 -1t35.5 -3.5t39 -7t48 -12.5q-6 -32 -13 -63t-12 -62h-50z" />
    <glyph glyph-name="afii10087" unicode="&#x445;" horiz-adv-x="642" 
d="M130 0h-93l10 57q16 0 37.5 4.5t45.5 24.5l192 189l-145 218h-54l11 58h94l145 -226l130 130l68 67q26 25 29 29h93l-11 -58q-16 0 -37.5 -4.5t-45.5 -24.5l-192 -189l145 -218h54l-10 -57h-94l-147 225z" />
    <glyph glyph-name="afii10024" unicode="&#x416;" horiz-adv-x="1043" 
d="M1135 710l-11 -58h-76q-7 -7 -16 -15l-23 -21.5l-36.5 -35l-57 -55.5l-83 -82.5l-116.5 -115.5l191 -219q39 -47 70 -63l30 -16l-25 -39h-8q-7 0 -19 2.5t-29.5 11t-39 25.5t-46.5 46l-231 264l-49 -281h93l-10 -58h-255l10 58h93l49 281l-323 -264q-36 -29 -63.5 -46
t-47.5 -25.5t-33 -11t-20 -2.5h-8l-11 39l34 16q19 8 42.5 24t51.5 39l267 219l-105 160.5l-61.5 92.5l-33 47.5t-18.5 24.5h-76l11 58h118l222 -341l71 64l38 219h-93l11 58h255l-11 -58h-93l-38 -219l49 -64l342 341h118z" />
    <glyph glyph-name="afii10025" unicode="&#x417;" horiz-adv-x="605" 
d="M562 531q7 42 -3 66t-33 37t-55 16.5t-68 3.5h-4q-32 0 -76.5 -7t-82.5 -22q-5 -24 -8 -47t-8 -47l-55 -6q5 37 9.5 74l8.5 73q38 11 68.5 19t56 13t47.5 7.5t44 2.5t50 -1.5t56 -7t53.5 -17t43.5 -31t26 -48.5t1 -70l-1 -4q-12 -66 -44 -100.5t-80 -51.5
q57 -17 82.5 -58t11.5 -121l-1 -8q-10 -56 -42.5 -95.5t-77.5 -64t-96.5 -36t-99.5 -11.5q-81 0 -138.5 16.5t-95.5 32.5l33 53q18 -8 39 -16t46.5 -14.5t56 -11t68.5 -4.5q32 0 70.5 8.5t73.5 27.5t61 48.5t34 70.5q7 43 -3 71.5t-33 45.5t-56.5 24t-73.5 7h-59l-3 53h65
q34 0 65.5 5t57 19.5t44 39.5t25.5 66z" />
    <glyph glyph-name="afii10033" unicode="&#x41f;" horiz-adv-x="788" 
d="M504 48h75l106 604h-368l-106 -604h75l-8 -48h-218l8 48h75l106 604h-83l11 58h670l-11 -58h-83l-106 -604h75l-8 -48h-218z" />
    <glyph glyph-name="afii10062" unicode="&#x40e;" horiz-adv-x="678" 
d="M256 714l131 -431l255 431h111l-11 -62h-64l-266 -439l-44 -70.5t-54.5 -69.5t-75.5 -53.5t-106 -21.5l11 60q38 0 66 12.5t49.5 33t40 46.5l38.5 53l-139 449h-64l11 62h111zM471 758q-53 0 -87 33.5t-41 86.5l52 9q5 -37 27 -58.5t58 -21.5q38 0 68 22.5t48 57.5l46 -8
q-12 -26 -30 -48.5t-40.5 -38.5t-48.5 -25t-52 -9z" />
    <glyph glyph-name="afii10028" unicode="&#x41a;" horiz-adv-x="749" 
d="M823 710l-11 -58h-76l-26 -24l-48.5 -46.5l-93.5 -91.5l-161 -160l188 -222q39 -47 70 -63l30 -16l-25 -39h-8q-7 0 -18 2t-26 10.5t-35 25t-45 46.5l-264 311l-40 -239q-14 -77 -31.5 -114.5t-31.5 -52.5l-53 6l16 42q7 18 14 42t12 53l93 530h-93l11 58h161l-42 -238
l77 -97l338 335h118z" />
    <glyph glyph-name="Kappa" unicode="&#x39a;" horiz-adv-x="749" 
d="M823 710l-11 -58h-76l-26 -24l-48.5 -46.5l-93.5 -91.5l-161 -160l188 -222q39 -47 70 -63l30 -16l-25 -39h-8q-7 0 -18 2t-26 10.5t-35 25t-45 46.5l-264 311l-40 -239q-14 -77 -31.5 -114.5t-31.5 -52.5l-53 6l16 42q7 18 14 42t12 53l93 530h-93l11 58h161l-42 -238
l77 -97l338 335h118z" />
    <glyph glyph-name="afii10061" unicode="&#x40c;" horiz-adv-x="749" 
d="M823 710l-11 -58h-76l-26 -24l-48.5 -46.5l-93.5 -91.5l-161 -160l188 -222q39 -47 70 -63l30 -16l-25 -39h-8q-7 0 -18 2t-26 10.5t-35 25t-45 46.5l-264 311l-40 -239q-14 -77 -31.5 -114.5t-31.5 -52.5l-53 6l16 42q7 18 14 42t12 53l93 530h-93l11 58h161l-42 -238
l77 -97l338 335h118zM585 871l-77 -118h-60l72 118h65z" />
    <glyph glyph-name="afii10097" unicode="&#x44f;" horiz-adv-x="639" 
d="M621 493l-76 -436h53l-10 -57h-128l38 220h-130q-114 -117 -182 -171t-99 -58l-17 41q20 11 43 26t55 44l33.5 32l30.5 29.5l29.5 29.5l31.5 32q-27 1 -55 14.5t-49 36t-32 53.5t-4 68q7 44 28.5 74.5t50.5 49.5t63.5 27.5t69.5 8.5h333l-12 -64h-65zM227 397
q-7 -37 4 -58.5t33 -32t53 -13.5t65 -3h129l36 204h-169q-26 0 -51 -3t-45 -13t-34.5 -29.5t-20.5 -51.5z" />
    <glyph glyph-name="afii10100" unicode="&#x453;" horiz-adv-x="589" 
d="M152 415l21 123q62 16 105 20.5t77 4.5q103 0 154 -33.5t37 -113.5q-11 -65 -57.5 -101.5t-146.5 -48.5q-32 -4 -63.5 -9t-58 -14.5t-44.5 -26.5t-23 -45q-4 -23 0.5 -45.5t20.5 -40t43.5 -28.5t69.5 -11q14 0 32 1.5t36.5 4t37.5 6t35 8.5l13 74h66q-5 -32 -10.5 -62.5
t-10.5 -62.5q-60 -17 -115.5 -21.5t-99.5 -4.5q-50 0 -88.5 11.5t-63 34t-34.5 55.5t-2 77q10 56 40 86t68 44.5t77.5 18.5t68.5 9q68 8 102.5 29t42.5 69q4 22 -4.5 38t-27.5 26.5t-46 15t-59 4.5q-24 0 -54.5 -2.5t-60.5 -13.5l-13 -76h-65zM477 712l-77 -118h-60l72 118
h65z" />
    <glyph glyph-name="afii10106" unicode="&#x459;" horiz-adv-x="928" 
d="M719 550l-10 -57h-83l-28 -160q22 1 50 2t57 1q44 0 86 -4.5t72.5 -22.5t45 -53t4.5 -95q-9 -50 -30.5 -81.5t-50.5 -49.5t-62.5 -25t-66.5 -7q-78 0 -151 3l-94 -5l-16 38l6.5 3t14 7l13.5 7.5l6 3.5l77 438h-269l-48 -273q-13 -73 -36 -116.5t-55 -66.5t-72.5 -30
t-88.5 -7l10 55q38 1 66 6t49.5 26t37 64t29.5 120l39 222h-83l10 57h571zM587 274l-18 -107t-19 -106q38 -2 76.5 -3t79.5 -1q54 0 93 25.5t50 82.5q6 34 -2 56t-25.5 34.5t-43 17t-54.5 4.5q-68 0 -137 -3z" />
    <glyph glyph-name="afii10105" unicode="&#x458;" horiz-adv-x="278" 
d="M279 551l-110 -624q-9 -48 -19.5 -79t-21 -50.5t-20.5 -29t-18 -13.5l-37 13q8 13 21.5 46.5t24.5 91.5l103 587h-92l11 58h158zM212 693q4 23 21 36t40 13t36 -13t9 -36q-5 -24 -22 -37t-40 -13t-36 12.5t-8 37.5z" />
    <glyph glyph-name="afii10104" unicode="&#x457;" horiz-adv-x="317" 
d="M224 122q-8 -45 4.5 -59t60.5 -6l-8 -57q-34 -7 -61 -6.5t-44 12t-23.5 35.5t0.5 64l68 388h-91l11 58h158zM116 684q4 22 20 34t36 12t32 -12t8 -34t-20 -34t-36 -12t-32 12t-8 34zM345 684q4 22 20 34t37 12q20 0 32 -12t8 -34t-20 -34t-36 -12q-21 0 -33 12t-8 34z
" />
    <glyph glyph-name="afii10103" unicode="&#x456;" horiz-adv-x="317" 
d="M224 122q-8 -45 4.5 -59t60.5 -6l-8 -57q-34 -7 -61 -6.5t-44 12t-23.5 35.5t0.5 64l68 388h-91l11 58h158zM224 693q4 23 21 36t40 13t35.5 -13t8.5 -36q-5 -24 -21.5 -37t-39.5 -13t-36 12.5t-8 37.5z" />
    <glyph glyph-name="afii10102" unicode="&#x455;" horiz-adv-x="526" 
d="M467 415l13 76q-26 11 -55.5 13.5t-53.5 2.5q-32 0 -60.5 -4.5t-51 -15t-37 -26.5t-18.5 -38q-8 -48 19 -69t92 -29q18 -3 41.5 -5.5t48 -7.5t47 -14t38 -26t22.5 -42.5t1 -62.5q-16 -88 -83 -133t-167 -45q-44 0 -98.5 4.5t-108.5 21.5q8 32 12.5 62.5t10.5 62.5h66
l-13 -74q15 -5 32.5 -8.5t35.5 -6t35.5 -4t31.5 -1.5q42 0 73.5 11t53.5 28.5t34.5 40t16.5 45.5q5 28 -7.5 45t-35.5 26.5t-53.5 14.5t-60.5 9q-48 6 -79.5 18t-49 30.5t-22.5 44t1 57.5q14 80 77 113.5t166 33.5q34 0 74.5 -4t97.5 -21l-21 -123h-65z" />
    <glyph glyph-name="afii10066.small" horiz-adv-x="574" 
d="M412 659q-48 4 -85.5 -5t-66 -35.5t-48 -72t-31.5 -114.5q32 14 79.5 29.5t106.5 15.5q42 0 85 -10t75.5 -37t47.5 -74t2 -121q-12 -71 -42.5 -118.5t-72 -76.5t-91 -41t-101.5 -12q-56 0 -98 9t-67 39t-31.5 86t10.5 150l34 192q13 76 41 126t65.5 78.5t83 40t94.5 11.5
q22 0 37.5 -1.5t30 -2t31 -0.5t41.5 3l10 56q15 2 26.5 2.5t20.5 2.5l-6 -113q-19 -7 -37 -10t-38.5 -3t-46 1.5t-59.5 4.5zM161 319q-18 -99 -17 -154.5t17.5 -82.5t47 -32.5t73.5 -5.5q30 0 65 6.5t67.5 27t58 58t36.5 99.5q10 57 -2.5 93.5t-37 57.5t-56 28.5t-59.5 7.5
q-25 0 -51 -4t-50.5 -9.5t-45.5 -12t-35 -11.5z" />
    <glyph glyph-name="afii10082.small" horiz-adv-x="624" 
d="M72 -212l116 655q6 36 -2 46t-19 10q-28 0 -53 -9l-3 44q28 9 46 14t36 5q45 0 56 -48q13 9 29 18.5t37.5 17t50 12.5t66.5 5q45 0 84.5 -11t65.5 -39.5t35.5 -78t-3.5 -126.5l-13 -73q-13 -75 -40 -122t-62.5 -73.5t-78 -36t-87.5 -9.5q-36 0 -61 2.5t-42 7t-28.5 11
t-21.5 14.5l-38 -214zM189 77l6 -3l22 -10.5t27.5 -9.5t37 -6.5t51.5 -2.5q32 0 63.5 7t59 27.5t48.5 57.5t32 98l12 69q11 61 3 99.5t-28 60.5t-48.5 30.5t-58.5 8.5q-48 0 -90.5 -14t-69.5 -32z" />
    <glyph glyph-name="afii10085.small" horiz-adv-x="639" 
d="M238 551l102 -481l132 240.5l132 240.5h111l-10 -57q-16 0 -32.5 -0.5t-32.5 -0.5l-275 -493q-22 -33 -41 -70t-46 -69t-66.5 -53t-101.5 -21l10 58q38 0 63.5 13.5t43.5 34.5t32.5 47t30.5 50l-110 503h-64l11 58h111z" />
    <glyph glyph-name="afii10099.small" horiz-adv-x="645" 
d="M262 709h67l-23 -125h114l-10 -58h-114l-31 -177q32 37 79 51.5t101 14.5q44 0 79.5 -9.5t58 -35.5t30 -71.5t-5.5 -118.5q-11 -63 -34 -104t-55 -64.5t-72 -33t-85 -10.5l3 55q36 1 65.5 7.5t51.5 24.5t37 49t24 81q10 54 3 88t-24.5 52.5t-42.5 25t-51 6.5t-54 -3.5
t-53 -17.5t-44 -41.5t-28 -75.5l-28 -162h76l-10 -57h-232l9 56h83l83 470h-110l10 58h110z" />
    <glyph glyph-name="afii10105.small" horiz-adv-x="278" 
d="M279 551l-110 -624q-9 -48 -19.5 -79t-21 -50.5t-20.5 -29t-18 -13.5l-37 13q8 13 21.5 46.5t24.5 91.5l103 587h-92l11 58h158zM212 693q4 23 21 36t40 13t36 -13t9 -36q-5 -24 -22 -37t-40 -13t-36 12.5t-8 37.5z" />
    <glyph glyph-name="afii10070.small" horiz-adv-x="569" 
d="M292 -11q-46 0 -86.5 9.5t-68.5 35.5t-39.5 73.5t1.5 122.5l15 85q13 77 41.5 124.5t66.5 74t82.5 35.5t89.5 9t83 -10.5t63.5 -36t35.5 -68t-1 -105.5l-8.5 -41.5t-9.5 -34.5h-388q-13 -72 -8 -114t23.5 -64t48.5 -28.5t68 -6.5q63 0 104.5 6t74.5 16q4 -24 11 -50
q-35 -14 -84 -23t-115 -9zM382 502q-29 0 -60.5 -5t-59.5 -24t-50 -56.5t-34 -102.5h326q5 16 10 39q7 40 -2.5 68.5t-29 46.5t-46 26t-54.5 8z" />
    <glyph glyph-name="afii10071.small" horiz-adv-x="538" 
d="M79 222q8 48 33.5 90.5t62 73.5t82 49t93.5 18t87 -18t65 -49t36.5 -73.5t2.5 -90.5q-9 -48 -34.5 -90.5t-62 -73.5t-82 -49t-93.5 -18t-87 18t-64.5 49t-36.5 73.5t-2 90.5z" />
    <glyph glyph-name="afii10086.small" horiz-adv-x="588" 
d="M447 722l-29 -163q43 -2 79 -13t60 -38t32.5 -74t-4.5 -119l-14 -82q-13 -73 -38.5 -119.5t-59 -73.5t-73.5 -38t-82 -12l-36 -203h-66l36 203q-43 1 -79 12t-60 38t-32.5 73t3.5 117l15 84q13 72 37.5 119t57.5 74.5t73.5 38.5t84.5 13l29 163h66zM147 228
q-10 -56 -3.5 -91t24 -54.5t42.5 -27.5t52 -9l80 457q-27 -1 -55 -9.5t-52 -29t-43 -56t-29 -90.5zM523 317q10 56 3.5 92t-24 56.5t-42.5 28.5t-52 9l-80 -457q25 1 52.5 8.5t52.5 27t44.5 54t29.5 90.5z" />
    <glyph glyph-name="afii10107" unicode="&#x45a;" horiz-adv-x="914" 
d="M364 493h-73l-28 -161h269l28 161h-57l10 57h207l-10 -57h-83l-28 -160q22 1 50 2t57 1q44 0 86 -4.5t72.5 -22.5t45 -53t4.5 -95q-9 -50 -30.5 -81.5t-50.5 -49.5t-62.5 -25t-66.5 -7q-78 0 -151 3l-94 -5l-16 38l6.5 3t14 7l13.5 7.5l6 3.5l39 220h-269l-48 -275h-152
l10 57h83l76 436h-83l10 57h225zM588 274l-18 -107t-19 -106q38 -2 76.5 -3t79.5 -1q54 0 93 25.5t50 82.5q6 34 -2 56t-25.5 34.5t-43 17t-54.5 4.5q-68 0 -137 -3z" />
    <glyph glyph-name="afii10110" unicode="&#x45e;" horiz-adv-x="639" 
d="M238 551l102 -481l132 240.5l132 240.5h111l-10 -57q-16 0 -32.5 -0.5t-32.5 -0.5l-275 -493q-22 -33 -41 -70t-46 -69t-66.5 -53t-101.5 -21l10 58q38 0 63.5 13.5t43.5 34.5t32.5 47t30.5 50l-110 503h-64l11 58h111zM424 599q-53 0 -87 33.5t-41 86.5l52 9
q5 -37 27 -58.5t58 -21.5q38 0 68 22.5t48 57.5l46 -8q-12 -26 -30 -48.5t-40.5 -38.5t-48.5 -25t-52 -9z" />
    <glyph glyph-name="afii10065.small" horiz-adv-x="552" 
d="M485 50q6 -2 12 -2q4 0 12 1.5t26 8.5q1 -11 1.5 -22t0.5 -22q-14 -5 -22.5 -8.5t-15 -5t-12.5 -2t-15 -0.5q-20 0 -30.5 4t-16 12t-6.5 19.5t-1 27.5h-4q-16 -17 -32 -29.5t-36 -21.5t-47.5 -13.5t-66.5 -4.5h-9q-53 1 -85 14t-48.5 36.5t-19.5 55t4 69.5l2 13
q13 72 74.5 114t181.5 42q31 0 61.5 -0.5t60.5 -0.5q7 42 8 72t-8 50t-30.5 29.5t-59.5 9.5t-76 -5.5l-71 -10.5l-5 -31q-11 0 -22 -0.5t-22 -0.5l4 40l4 40q20 5 46 10t53.5 9t54.5 6.5t51 2.5q63 0 95 -20.5t44 -52.5t9 -71.5t-9 -76.5l-18 -100q-5 -30 -11.5 -62.5
t-10 -59.5t-3.5 -45t8 -18zM445 282h-128q-84 0 -125.5 -27t-50.5 -77l-4 -23q-10 -55 17 -80t92 -25h40q23 2 45 8t40.5 20.5t33.5 40t23 66.5z" />
    <glyph glyph-name="afii10103.small" horiz-adv-x="317" 
d="M299 551l-87 -494h75l-10 -57h-215l10 57h73l76 436h-91l11 58h158zM224 693q4 23 21 36t40 13t35.5 -13t8.5 -36q-5 -24 -21.5 -37t-39.5 -13t-36 12.5t-8 37.5z" />
    <glyph glyph-name="afii10108.small" horiz-adv-x="671" 
d="M542 185q10 54 3 88t-24.5 52.5t-42.5 25t-51 6.5t-54 -3.5t-53 -17.5t-44 -41.5t-28 -75.5l-28 -162h76l-10 -57h-232l9 56h83l83 470h-110l10 58h110l33 185h67l-33 -185h114l-10 -58h-114l-31 -177q32 37 79 51.5t101 14.5q43 0 78.5 -9t59 -34t31 -69.5t-4.5 -114.5
l-13 -69q-8 -45 4.5 -59t60.5 -6l-6 -57q-33 -7 -60 -6.5t-44 12t-24 35.5t0 64z" />
    <glyph glyph-name="afii10110.small" horiz-adv-x="538" 
d="M79 222q8 48 33.5 90.5t62 73.5t82 49t93.5 18t87 -18t65 -49t36.5 -73.5t2.5 -90.5q-9 -48 -34.5 -90.5t-62 -73.5t-82 -49t-93.5 -18t-87 18t-64.5 49t-36.5 73.5t-2 90.5z" />
    <glyph glyph-name="fi" unicode="&#xfb01;" horiz-adv-x="671" 
d="M602 120q-8 -45 4.5 -59t60.5 -6l-8 -57q-34 -7 -61 -6.5t-44 12t-23.5 35.5t0.5 64l54 317h-91l11 58h158zM588 621q4 23 21 36t40 13t35.5 -13t8.5 -36q-5 -24 -21.5 -37t-39.5 -13t-36 12.5t-8 37.5zM251 494q13 72 37.5 118.5t60 72.5t81 36t100.5 10l-9 -56
q-44 0 -77 -5t-57 -23.5t-40 -54.5t-27 -98l-73 -419q-13 -72 -33.5 -118.5t-53.5 -72.5t-80.5 -36t-113.5 -10l9 53q44 0 77 5.5t57.5 24.5t41 55.5t27.5 98.5zM109 420l11 58h130h67h132l-11 -58h-329z" />
    <glyph glyph-name="fl" unicode="&#xfb02;" horiz-adv-x="640" 
d="M235 494q13 72 37.5 118.5t60 72.5t81 36t100.5 10l-9 -56q-44 0 -77 -5t-57 -23.5t-40 -54.5t-27 -98l-73 -419q-13 -72 -33.5 -118.5t-53.5 -72.5t-80.5 -36t-113.5 -10l9 53q44 0 77 5.5t57.5 24.5t41 55.5t27.5 98.5zM93 420l11 58h130h67h132l-11 -58h-329zM531 712
l10 58h159l-114 -646q-10 -56 -9 -89.5t6 -47.5q-11 -4 -21 -7l-21 -6q-8 5 -14.5 15.5t-10 29.5t-2.5 49.5t9 76.5l100 567h-92z" />
    <glyph glyph-name="Aogonek" unicode="&#x104;" horiz-adv-x="734" 
d="M17 0l10 57h82l303 595h-46l11 58h163l103 -653h82l-10 -57h-136l-33 205h-289l-53 -103l-51 -102h-136zM285 264h254l-59 388zM582 -224q-56 0 -81 26.5t-17 73.5q4 21 14 43.5t25.5 42.5t36 36.5t44.5 25.5l46 -7q-26 -9 -46 -24t-34 -33t-22.5 -37t-11.5 -37
q-5 -29 9 -47t48 -18q22 0 44.5 6.5t39.5 14.5l3 -37q-16 -11 -43.5 -20t-54.5 -9z" />
    <glyph glyph-name="Aring" unicode="&#xc5;" horiz-adv-x="734" 
d="M17 0l10 57h82l303 595h-46l11 58h163l103 -653h82l-10 -57h-136l-33 205h-289l-53 -103l-51 -102h-136zM285 264h254l-59 388zM499 754q-21 0 -37.5 7.5t-27.5 20.5t-15.5 31t-0.5 39q3 20 14 38t26.5 31.5t35 21t40.5 7.5q42 0 65 -28.5t16 -69.5q-8 -42 -41 -70
t-75 -28zM506 791q26 0 45 17t24 44q5 26 -8.5 43t-39.5 17t-45 -17t-24 -43q-5 -27 8.5 -44t39.5 -17z" />
    <glyph glyph-name="Aacute" unicode="&#xc1;" horiz-adv-x="734" 
d="M17 0l10 57h82l303 595h-46l11 58h163l103 -653h82l-10 -57h-136l-33 205h-289l-53 -103l-51 -102h-136zM285 264h254l-59 388zM578 871l-77 -118h-60l72 118h65z" />
    <glyph glyph-name="Abreve" unicode="&#x102;" horiz-adv-x="734" 
d="M17 0l10 57h82l303 595h-46l11 58h163l103 -653h82l-10 -57h-136l-33 205h-289l-53 -103l-51 -102h-136zM285 264h254l-59 388zM499 758q-53 0 -87 33.5t-41 86.5l52 9q5 -37 27 -58.5t58 -21.5q38 0 68 22.5t48 57.5l46 -8q-12 -26 -30 -48.5t-40.5 -38.5t-48.5 -25
t-52 -9z" />
    <glyph glyph-name="Agrave" unicode="&#xc0;" horiz-adv-x="734" 
d="M17 0l10 57h82l303 595h-46l11 58h163l103 -653h82l-10 -57h-136l-33 205h-289l-53 -103l-51 -102h-136zM285 264h254l-59 388zM497 753l-18 58.5t-17 59.5h65l14.5 -59.5l15.5 -58.5h-60v0z" />
    <glyph glyph-name="Atilde" unicode="&#xc3;" horiz-adv-x="734" 
d="M17 0l10 57h82l303 595h-46l11 58h163l103 -653h82l-10 -57h-136l-33 205h-289l-53 -103l-51 -102h-136zM285 264h254l-59 388zM371 835q18 16 31.5 25.5t24.5 14.5t21.5 6.5t22.5 1.5t24.5 -5t25 -11t26 -11t26.5 -5q11 0 31.5 6.5t42.5 25.5l12 -35
q-18 -16 -31.5 -25.5t-25 -15t-22 -7t-22.5 -1.5q-11 0 -24.5 5t-27 11t-26.5 11t-23 5h-11q-13 -2 -29.5 -9.5t-34.5 -22.5z" />
    <glyph glyph-name="Amacron" unicode="&#x100;" horiz-adv-x="734" 
d="M17 0l10 57h82l303 595h-46l11 58h163l103 -653h82l-10 -57h-136l-33 205h-289l-53 -103l-51 -102h-136zM285 264h254l-59 388zM338 869h364l-9 -50h-364z" />
    <glyph glyph-name="Adieresis" unicode="&#xc4;" horiz-adv-x="734" 
d="M17 0l10 57h82l303 595h-46l11 58h163l103 -653h82l-10 -57h-136l-33 205h-289l-53 -103l-51 -102h-136zM285 264h254l-59 388zM352 843q4 22 20 34t36 12t32 -12t8 -34t-20 -34t-36 -12t-32 12t-8 34zM581 843q4 22 20 34t37 12q20 0 32 -12t8 -34t-20 -34t-36 -12
q-21 0 -33 12t-8 34z" />
    <glyph glyph-name="Acircumflex" unicode="&#xc2;" horiz-adv-x="734" 
d="M17 0l10 57h82l303 595h-46l11 58h163l103 -653h82l-10 -57h-136l-33 205h-289l-53 -103l-51 -102h-136zM285 264h254l-59 388zM655 761h-65l-71 103l-108 -103h-65l154 140h48z" />
    <glyph glyph-name="Cacute" unicode="&#x106;" horiz-adv-x="633" 
d="M654 537h-53l16 96q-36 14 -79 22t-75 8q-42 0 -83 -8t-76 -35t-62.5 -78t-42.5 -137l-18 -102q-14 -78 -7 -127.5t30 -78.5t59.5 -40t83.5 -11q39 0 73 5.5t63.5 13t55 16.5l46.5 16l11 -52l-49 -18t-59 -18.5t-70 -14t-81 -5.5q-57 0 -106.5 12t-82.5 45.5t-45 94
t5 157.5l19 107q16 91 46.5 152t74 97.5t100 51.5t124.5 15q40 0 94.5 -8.5t122.5 -31.5zM527 871l-77 -118h-60l72 118h65z" />
    <glyph glyph-name="Ccaron" unicode="&#x10c;" horiz-adv-x="633" 
d="M654 537h-53l16 96q-36 14 -79 22t-75 8q-42 0 -83 -8t-76 -35t-62.5 -78t-42.5 -137l-18 -102q-14 -78 -7 -127.5t30 -78.5t59.5 -40t83.5 -11q39 0 73 5.5t63.5 13t55 16.5l46.5 16l11 -52l-49 -18t-59 -18.5t-70 -14t-81 -5.5q-57 0 -106.5 12t-82.5 45.5t-45 94
t5 157.5l19 107q16 91 46.5 152t74 97.5t100 51.5t124.5 15q40 0 94.5 -8.5t122.5 -31.5zM320 899h65l72 -103l107 103h65l-77.5 -70l-78.5 -70h-48z" />
    <glyph glyph-name="Ccedilla" unicode="&#xc7;" horiz-adv-x="633" 
d="M654 537h-53l16 96q-36 14 -79 22t-75 8q-42 0 -83 -8t-76 -35t-62.5 -78t-42.5 -137l-18 -102q-14 -78 -7 -127.5t30 -78.5t59.5 -40t83.5 -11q39 0 73 5.5t63.5 13t55 16.5l46.5 16l11 -52l-49 -18t-59 -18.5t-70 -14t-81 -5.5q-57 0 -106.5 12t-82.5 45.5t-45 94
t5 157.5l19 107q16 91 46.5 152t74 97.5t100 51.5t124.5 15q40 0 94.5 -8.5t122.5 -31.5zM397 13l-120 -207h-73l147 207h46z" />
    <glyph glyph-name="Cdotaccent" unicode="&#x10a;" horiz-adv-x="633" 
d="M654 537h-53l16 96q-36 14 -79 22t-75 8q-42 0 -83 -8t-76 -35t-62.5 -78t-42.5 -137l-18 -102q-14 -78 -7 -127.5t30 -78.5t59.5 -40t83.5 -11q39 0 73 5.5t63.5 13t55 16.5l46.5 16l11 -52l-49 -18t-59 -18.5t-70 -14t-81 -5.5q-57 0 -106.5 12t-82.5 45.5t-45 94
t5 157.5l19 107q16 91 46.5 152t74 97.5t100 51.5t124.5 15q40 0 94.5 -8.5t122.5 -31.5zM408 839q5 25 23.5 38.5t41.5 13.5t36.5 -13t8.5 -39q-4 -24 -22.5 -37.5t-41.5 -13.5t-36.5 13t-9.5 38z" />
    <glyph glyph-name="Ccircumflex" unicode="&#x108;" horiz-adv-x="633" 
d="M654 537h-53l16 96q-36 14 -79 22t-75 8q-42 0 -83 -8t-76 -35t-62.5 -78t-42.5 -137l-18 -102q-14 -78 -7 -127.5t30 -78.5t59.5 -40t83.5 -11q39 0 73 5.5t63.5 13t55 16.5l46.5 16l11 -52l-49 -18t-59 -18.5t-70 -14t-81 -5.5q-57 0 -106.5 12t-82.5 45.5t-45 94
t5 157.5l19 107q16 91 46.5 152t74 97.5t100 51.5t124.5 15q40 0 94.5 -8.5t122.5 -31.5zM605 761h-65l-71 103l-108 -103h-65l154 140h48z" />
    <glyph glyph-name="Dcaron" unicode="&#x10e;" horiz-adv-x="704" 
d="M169 652l11 58h298q67 0 119.5 -10t85.5 -42t43.5 -93.5t-7.5 -163.5l-18 -106q-17 -96 -52 -154.5t-81.5 -89.5t-101.5 -41t-112 -10h-292l11 57h75l103 595h-82zM653 412q15 88 2 136.5t-41.5 71.5t-66.5 27.5t-73 4.5h-156l-104 -595h150q43 0 85.5 9t79 35.5t64 75
t41.5 127.5zM355 899h65l72 -103l107 103h65l-77.5 -70l-78.5 -70h-48z" />
    <glyph glyph-name="Emacron" unicode="&#x112;" horiz-adv-x="630" 
d="M169 652l11 58h511l-25 -142h-58l14 84h-303l-46 -261h257l-10 -58h-257l-48 -276h319l14 84h58l-24 -141h-519l10 57h74l104 595h-82zM286 869h364l-9 -50h-364z" />
    <glyph glyph-name="Eogonek" unicode="&#x118;" horiz-adv-x="630" 
d="M169 652l11 58h511l-25 -142h-58l14 84h-303l-46 -261h257l-10 -58h-257l-48 -276h319l14 84h58l-24 -141h-519l10 57h74l104 595h-82zM449 -224q-56 0 -81 26.5t-17 73.5q4 21 14 43.5t25.5 42.5t36 36.5t44.5 25.5l46 -7q-26 -9 -46 -24t-34 -33t-22.5 -37t-11.5 -37
q-5 -29 9 -47t48 -18q22 0 44.5 6.5t39.5 14.5l3 -37q-16 -11 -43.5 -20t-54.5 -9z" />
    <glyph glyph-name="Eacute" unicode="&#xc9;" horiz-adv-x="630" 
d="M169 652l11 58h511l-25 -142h-58l14 84h-303l-46 -261h257l-10 -58h-257l-48 -276h319l14 84h58l-24 -141h-519l10 57h74l104 595h-82zM526 871l-77 -118h-60l72 118h65z" />
    <glyph glyph-name="Ebreve" unicode="&#x114;" horiz-adv-x="630" 
d="M169 652l11 58h511l-25 -142h-58l14 84h-303l-46 -261h257l-10 -58h-257l-48 -276h319l14 84h58l-24 -141h-519l10 57h74l104 595h-82zM447 758q-53 0 -87 33.5t-41 86.5l52 9q5 -37 27 -58.5t58 -21.5q38 0 68 22.5t48 57.5l46 -8q-12 -26 -30 -48.5t-40.5 -38.5
t-48.5 -25t-52 -9z" />
    <glyph glyph-name="Ecaron" unicode="&#x11a;" horiz-adv-x="630" 
d="M169 652l11 58h511l-25 -142h-58l14 84h-303l-46 -261h257l-10 -58h-257l-48 -276h319l14 84h58l-24 -141h-519l10 57h74l104 595h-82zM318 899h65l72 -103l107 103h65l-77.5 -70l-78.5 -70h-48z" />
    <glyph glyph-name="Egrave" unicode="&#xc8;" horiz-adv-x="630" 
d="M169 652l11 58h511l-25 -142h-58l14 84h-303l-46 -261h257l-10 -58h-257l-48 -276h319l14 84h58l-24 -141h-519l10 57h74l104 595h-82zM445 753l-18 58.5t-17 59.5h65l14.5 -59.5l15.5 -58.5h-60v0z" />
    <glyph glyph-name="Edieresis" unicode="&#xcb;" horiz-adv-x="630" 
d="M169 652l11 58h511l-25 -142h-58l14 84h-303l-46 -261h257l-10 -58h-257l-48 -276h319l14 84h58l-24 -141h-519l10 57h74l104 595h-82zM300 843q4 22 20 34t36 12t32 -12t8 -34t-20 -34t-36 -12t-32 12t-8 34zM529 843q4 22 20 34t37 12q20 0 32 -12t8 -34t-20 -34
t-36 -12q-21 0 -33 12t-8 34z" />
    <glyph glyph-name="Edotaccent" unicode="&#x116;" horiz-adv-x="630" 
d="M169 652l11 58h511l-25 -142h-58l14 84h-303l-46 -261h257l-10 -58h-257l-48 -276h319l14 84h58l-24 -141h-519l10 57h74l104 595h-82zM407 839q5 25 23.5 38.5t41.5 13.5t36.5 -13t8.5 -39q-4 -24 -22.5 -37.5t-41.5 -13.5t-36.5 13t-9.5 38z" />
    <glyph glyph-name="Ecircumflex" unicode="&#xca;" horiz-adv-x="630" 
d="M169 652l11 58h511l-25 -142h-58l14 84h-303l-46 -261h257l-10 -58h-257l-48 -276h319l14 84h58l-24 -141h-519l10 57h74l104 595h-82zM603 761h-65l-71 103l-108 -103h-65l154 140h48z" />
    <glyph glyph-name="Gbreve" unicode="&#x11e;" 
d="M598 536q5 25 8.5 48.5l7.5 48.5q-35 14 -77 23t-75 9q-42 0 -83.5 -8.5t-77 -36t-63 -79t-42.5 -136.5l-18 -102q-14 -78 -7 -128t30 -78.5t60 -39.5t84 -11q58 0 105 12t83 23q-1 15 1.5 33.5t6.5 41.5l15 87h-92l10 54h158l-28 -159q-10 -53 -9.5 -88t7.5 -50l-43 -12
q-5 3 -11 11t-9 28q-38 -12 -87.5 -25t-116.5 -13q-59 0 -108.5 12t-82 45.5t-44 93.5t5.5 157l18 105q16 93 46.5 154.5t74 98t100 51.5t125.5 15q39 0 90 -7.5t118 -29.5l-13.5 -74t-14.5 -74h-52zM448 758q-53 0 -87 33.5t-41 86.5l52 9q5 -37 27 -58.5t58 -21.5
q38 0 68 22.5t48 57.5l46 -8q-12 -26 -30 -48.5t-40.5 -38.5t-48.5 -25t-52 -9z" />
    <glyph glyph-name="Gdotaccent" unicode="&#x120;" 
d="M598 536q5 25 8.5 48.5l7.5 48.5q-35 14 -77 23t-75 9q-42 0 -83.5 -8.5t-77 -36t-63 -79t-42.5 -136.5l-18 -102q-14 -78 -7 -128t30 -78.5t60 -39.5t84 -11q58 0 105 12t83 23q-1 15 1.5 33.5t6.5 41.5l15 87h-92l10 54h158l-28 -159q-10 -53 -9.5 -88t7.5 -50l-43 -12
q-5 3 -11 11t-9 28q-38 -12 -87.5 -25t-116.5 -13q-59 0 -108.5 12t-82 45.5t-44 93.5t5.5 157l18 105q16 93 46.5 154.5t74 98t100 51.5t125.5 15q39 0 90 -7.5t118 -29.5l-13.5 -74t-14.5 -74h-52zM408 839q5 25 23.5 38.5t41.5 13.5t36.5 -13t8.5 -39q-4 -24 -22.5 -37.5
t-41.5 -13.5t-36.5 13t-9.5 38z" />
    <glyph glyph-name="Gcircumflex" unicode="&#x11c;" 
d="M598 536q5 25 8.5 48.5l7.5 48.5q-35 14 -77 23t-75 9q-42 0 -83.5 -8.5t-77 -36t-63 -79t-42.5 -136.5l-18 -102q-14 -78 -7 -128t30 -78.5t60 -39.5t84 -11q58 0 105 12t83 23q-1 15 1.5 33.5t6.5 41.5l15 87h-92l10 54h158l-28 -159q-10 -53 -9.5 -88t7.5 -50l-43 -12
q-5 3 -11 11t-9 28q-38 -12 -87.5 -25t-116.5 -13q-59 0 -108.5 12t-82 45.5t-44 93.5t5.5 157l18 105q16 93 46.5 154.5t74 98t100 51.5t125.5 15q39 0 90 -7.5t118 -29.5l-13.5 -74t-14.5 -74h-52zM604 761h-65l-71 103l-108 -103h-65l154 140h48z" />
    <glyph glyph-name="Gcommaaccent" unicode="&#x122;" 
d="M598 536q5 25 8.5 48.5l7.5 48.5q-35 14 -77 23t-75 9q-42 0 -83.5 -8.5t-77 -36t-63 -79t-42.5 -136.5l-18 -102q-14 -78 -7 -128t30 -78.5t60 -39.5t84 -11q58 0 105 12t83 23q-1 15 1.5 33.5t6.5 41.5l15 87h-92l10 54h158l-28 -159q-10 -53 -9.5 -88t7.5 -50l-43 -12
q-5 3 -11 11t-9 28q-38 -12 -87.5 -25t-116.5 -13q-59 0 -108.5 12t-82 45.5t-44 93.5t5.5 157l18 105q16 93 46.5 154.5t74 98t100 51.5t125.5 15q39 0 90 -7.5t118 -29.5l-13.5 -74t-14.5 -74h-52zM251 -128q4 24 19 37t36 13q29 0 36 -27q3 -5 3 -18.5t-2 -21.5
q-8 -45 -34.5 -83.5t-81.5 -64.5l-13 25q18 14 30.5 25.5t20 22t11.5 21t6 21.5q-17 2 -26 15t-5 35z" />
    <glyph glyph-name="Hbar" unicode="&#x126;" horiz-adv-x="784" 
d="M608 652l11 58h235l-11 -58h-83l-104 -595h83l-10 -57h-235l10 57h83l49 278h-371l-49 -278h83l-10 -57h-235l10 57h83l104 595h-83l11 58h235l-11 -58h-83l-45 -260h371l45 260h-83zM363 869h364l-9 -50h-364z" />
    <glyph glyph-name="Kcommaaccent" unicode="&#x136;" horiz-adv-x="749" 
d="M823 710l-11 -58h-76l-26 -24l-48.5 -46.5l-93.5 -91.5l-161 -160l188 -222q39 -47 70 -63l30 -16l-25 -39h-8q-7 0 -18 2t-26 10.5t-35 25t-45 46.5l-264 311l-40 -239q-14 -77 -31.5 -114.5t-31.5 -52.5l-53 6l16 42q7 18 14 42t12 53l93 530h-93l11 58h161l-42 -238
l77 -97l338 335h118zM310 -128q4 24 19 37t36 13q29 0 36 -27q3 -5 3 -18.5t-2 -21.5q-8 -45 -34.5 -83.5t-81.5 -64.5l-13 25q18 14 30.5 25.5t20 22t11.5 21t6 21.5q-17 2 -26 15t-5 35z" />
    <glyph glyph-name="Ncommaaccent" unicode="&#x145;" horiz-adv-x="822" 
d="M168 652l11 58h160l307 -611l97 553h-83l11 58h235l-11 -58h-83l-104 -595h83l-10 -57h-161l-154 305l-154 305l-97 -553h75l-10 -57h-226l10 57h83l104 595h-83zM346 -128q4 24 19 37t36 13q29 0 36 -27q3 -5 3 -18.5t-2 -21.5q-8 -45 -34.5 -83.5t-81.5 -64.5l-13 25
q18 14 30.5 25.5t20 22t11.5 21t6 21.5q-17 2 -26 15t-5 35z" />
    <glyph glyph-name="Ntilde" unicode="&#xd1;" horiz-adv-x="822" 
d="M168 652l11 58h160l307 -611l97 553h-83l11 58h235l-11 -58h-83l-104 -595h83l-10 -57h-161l-154 305l-154 305l-97 -553h75l-10 -57h-226l10 57h83l104 595h-83zM415 835q18 16 31.5 25.5t24.5 14.5t21.5 6.5t22.5 1.5t24.5 -5t25 -11t26 -11t26.5 -5q11 0 31.5 6.5
t42.5 25.5l12 -35q-18 -16 -31.5 -25.5t-25 -15t-22 -7t-22.5 -1.5q-11 0 -24.5 5t-27 11t-26.5 11t-23 5h-11q-13 -2 -29.5 -9.5t-34.5 -22.5z" />
    <glyph glyph-name="Nacute" unicode="&#x143;" horiz-adv-x="822" 
d="M168 652l11 58h160l307 -611l97 553h-83l11 58h235l-11 -58h-83l-104 -595h83l-10 -57h-161l-154 305l-154 305l-97 -553h75l-10 -57h-226l10 57h83l104 595h-83zM622 871l-77 -118h-60l72 118h65z" />
    <glyph glyph-name="Ncaron" unicode="&#x147;" horiz-adv-x="822" 
d="M168 652l11 58h160l307 -611l97 553h-83l11 58h235l-11 -58h-83l-104 -595h83l-10 -57h-161l-154 305l-154 305l-97 -553h75l-10 -57h-226l10 57h83l104 595h-83zM414 899h65l72 -103l107 103h65l-77.5 -70l-78.5 -70h-48z" />
    <glyph glyph-name="Oacute" unicode="&#xd3;" horiz-adv-x="662" 
d="M457 720q53 0 101 -12t81 -45.5t45.5 -95t-5.5 -160.5l-18 -102q-17 -99 -50.5 -160.5t-77.5 -96t-96.5 -47t-107.5 -12.5q-56 0 -104 12.5t-80 47t-43.5 96.5t5.5 160l18 102q18 99 52 160t78.5 95t96.5 46t105 12zM447 663q-43 0 -82.5 -10t-72.5 -39t-58 -81t-40 -136
l-18 -97q-14 -80 -6 -129.5t32 -77.5t59.5 -37.5t77.5 -9.5t81 9.5t72 37.5t58 77.5t39 129.5l18 97q15 84 8 136t-30 81t-59 39t-79 10zM542 871l-77 -118h-60l72 118h65z" />
    <glyph glyph-name="Obreve" unicode="&#x14e;" horiz-adv-x="662" 
d="M457 720q53 0 101 -12t81 -45.5t45.5 -95t-5.5 -160.5l-18 -102q-17 -99 -50.5 -160.5t-77.5 -96t-96.5 -47t-107.5 -12.5q-56 0 -104 12.5t-80 47t-43.5 96.5t5.5 160l18 102q18 99 52 160t78.5 95t96.5 46t105 12zM447 663q-43 0 -82.5 -10t-72.5 -39t-58 -81t-40 -136
l-18 -97q-14 -80 -6 -129.5t32 -77.5t59.5 -37.5t77.5 -9.5t81 9.5t72 37.5t58 77.5t39 129.5l18 97q15 84 8 136t-30 81t-59 39t-79 10zM463 758q-53 0 -87 33.5t-41 86.5l52 9q5 -37 27 -58.5t58 -21.5q38 0 68 22.5t48 57.5l46 -8q-12 -26 -30 -48.5t-40.5 -38.5
t-48.5 -25t-52 -9z" />
    <glyph glyph-name="Ograve" unicode="&#xd2;" horiz-adv-x="662" 
d="M457 720q53 0 101 -12t81 -45.5t45.5 -95t-5.5 -160.5l-18 -102q-17 -99 -50.5 -160.5t-77.5 -96t-96.5 -47t-107.5 -12.5q-56 0 -104 12.5t-80 47t-43.5 96.5t5.5 160l18 102q18 99 52 160t78.5 95t96.5 46t105 12zM447 663q-43 0 -82.5 -10t-72.5 -39t-58 -81t-40 -136
l-18 -97q-14 -80 -6 -129.5t32 -77.5t59.5 -37.5t77.5 -9.5t81 9.5t72 37.5t58 77.5t39 129.5l18 97q15 84 8 136t-30 81t-59 39t-79 10zM461 753l-18 58.5t-17 59.5h65l14.5 -59.5l15.5 -58.5h-60v0z" />
    <glyph glyph-name="Otilde" unicode="&#xd5;" horiz-adv-x="662" 
d="M457 720q53 0 101 -12t81 -45.5t45.5 -95t-5.5 -160.5l-18 -102q-17 -99 -50.5 -160.5t-77.5 -96t-96.5 -47t-107.5 -12.5q-56 0 -104 12.5t-80 47t-43.5 96.5t5.5 160l18 102q18 99 52 160t78.5 95t96.5 46t105 12zM447 663q-43 0 -82.5 -10t-72.5 -39t-58 -81t-40 -136
l-18 -97q-14 -80 -6 -129.5t32 -77.5t59.5 -37.5t77.5 -9.5t81 9.5t72 37.5t58 77.5t39 129.5l18 97q15 84 8 136t-30 81t-59 39t-79 10zM335 835q18 16 31.5 25.5t24.5 14.5t21.5 6.5t22.5 1.5t24.5 -5t25 -11t26 -11t26.5 -5q11 0 31.5 6.5t42.5 25.5l12 -35
q-18 -16 -31.5 -25.5t-25 -15t-22 -7t-22.5 -1.5q-11 0 -24.5 5t-27 11t-26.5 11t-23 5h-11q-13 -2 -29.5 -9.5t-34.5 -22.5z" />
    <glyph glyph-name="Omacron" unicode="&#x14c;" horiz-adv-x="662" 
d="M457 720q53 0 101 -12t81 -45.5t45.5 -95t-5.5 -160.5l-18 -102q-17 -99 -50.5 -160.5t-77.5 -96t-96.5 -47t-107.5 -12.5q-56 0 -104 12.5t-80 47t-43.5 96.5t5.5 160l18 102q18 99 52 160t78.5 95t96.5 46t105 12zM447 663q-43 0 -82.5 -10t-72.5 -39t-58 -81t-40 -136
l-18 -97q-14 -80 -6 -129.5t32 -77.5t59.5 -37.5t77.5 -9.5t81 9.5t72 37.5t58 77.5t39 129.5l18 97q15 84 8 136t-30 81t-59 39t-79 10zM302 869h364l-9 -50h-364z" />
    <glyph glyph-name="Odieresis" unicode="&#xd6;" horiz-adv-x="662" 
d="M457 720q53 0 101 -12t81 -45.5t45.5 -95t-5.5 -160.5l-18 -102q-17 -99 -50.5 -160.5t-77.5 -96t-96.5 -47t-107.5 -12.5q-56 0 -104 12.5t-80 47t-43.5 96.5t5.5 160l18 102q18 99 52 160t78.5 95t96.5 46t105 12zM447 663q-43 0 -82.5 -10t-72.5 -39t-58 -81t-40 -136
l-18 -97q-14 -80 -6 -129.5t32 -77.5t59.5 -37.5t77.5 -9.5t81 9.5t72 37.5t58 77.5t39 129.5l18 97q15 84 8 136t-30 81t-59 39t-79 10zM316 843q4 22 20 34t36 12t32 -12t8 -34t-20 -34t-36 -12t-32 12t-8 34zM545 843q4 22 20 34t37 12q20 0 32 -12t8 -34t-20 -34
t-36 -12q-21 0 -33 12t-8 34z" />
    <glyph glyph-name="Ocircumflex" unicode="&#xd4;" horiz-adv-x="662" 
d="M457 720q53 0 101 -12t81 -45.5t45.5 -95t-5.5 -160.5l-18 -102q-17 -99 -50.5 -160.5t-77.5 -96t-96.5 -47t-107.5 -12.5q-56 0 -104 12.5t-80 47t-43.5 96.5t5.5 160l18 102q18 99 52 160t78.5 95t96.5 46t105 12zM447 663q-43 0 -82.5 -10t-72.5 -39t-58 -81t-40 -136
l-18 -97q-14 -80 -6 -129.5t32 -77.5t59.5 -37.5t77.5 -9.5t81 9.5t72 37.5t58 77.5t39 129.5l18 97q15 84 8 136t-30 81t-59 39t-79 10zM619 761h-65l-71 103l-108 -103h-65l154 140h48z" />
    <glyph glyph-name="Ohungarumlaut" unicode="&#x150;" horiz-adv-x="662" 
d="M457 720q53 0 101 -12t81 -45.5t45.5 -95t-5.5 -160.5l-18 -102q-17 -99 -50.5 -160.5t-77.5 -96t-96.5 -47t-107.5 -12.5q-56 0 -104 12.5t-80 47t-43.5 96.5t5.5 160l18 102q18 99 52 160t78.5 95t96.5 46t105 12zM447 663q-43 0 -82.5 -10t-72.5 -39t-58 -81t-40 -136
l-18 -97q-14 -80 -6 -129.5t32 -77.5t59.5 -37.5t77.5 -9.5t81 9.5t72 37.5t58 77.5t39 129.5l18 97q15 84 8 136t-30 81t-59 39t-79 10zM469 876l-80 -120h-50l76 120h54zM609 876l-80 -120h-50l76 120h54z" />
    <glyph glyph-name="Rcommaaccent" unicode="&#x156;" horiz-adv-x="678" 
d="M70 57h75l104 595h-83l11 58h263q67 0 120.5 -8.5t88.5 -32t49 -65.5t2 -109l-3 -15q-16 -89 -68.5 -133t-137.5 -58l106 -178q32 -54 58 -74l28 -21q-8 -8 -18 -19.5t-18 -16.5q-6 1 -16.5 4.5t-24.5 14.5t-31.5 32t-38.5 56l-114 194q-10 -2 -24.5 -1.5t-24.5 0.5h-123
l-39 -223h75l-10 -57h-216zM630 487q10 56 -2.5 88.5t-40.5 49.5t-69 22t-87 5h-116l-55 -317h116q45 0 86 4t74.5 19.5t58 45.5t35.5 83zM274 -128q4 24 19 37t36 13q29 0 36 -27q3 -5 3 -18.5t-2 -21.5q-8 -45 -34.5 -83.5t-81.5 -64.5l-13 25q18 14 30.5 25.5t20 22
t11.5 21t6 21.5q-17 2 -26 15t-5 35z" />
    <glyph glyph-name="Racute" unicode="&#x154;" horiz-adv-x="678" 
d="M70 57h75l104 595h-83l11 58h263q67 0 120.5 -8.5t88.5 -32t49 -65.5t2 -109l-3 -15q-16 -89 -68.5 -133t-137.5 -58l106 -178q32 -54 58 -74l28 -21q-8 -8 -18 -19.5t-18 -16.5q-6 1 -16.5 4.5t-24.5 14.5t-31.5 32t-38.5 56l-114 194q-10 -2 -24.5 -1.5t-24.5 0.5h-123
l-39 -223h75l-10 -57h-216zM630 487q10 56 -2.5 88.5t-40.5 49.5t-69 22t-87 5h-116l-55 -317h116q45 0 86 4t74.5 19.5t58 45.5t35.5 83zM550 871l-77 -118h-60l72 118h65z" />
    <glyph glyph-name="Rcaron" unicode="&#x158;" horiz-adv-x="678" 
d="M70 57h75l104 595h-83l11 58h263q67 0 120.5 -8.5t88.5 -32t49 -65.5t2 -109l-3 -15q-16 -89 -68.5 -133t-137.5 -58l106 -178q32 -54 58 -74l28 -21q-8 -8 -18 -19.5t-18 -16.5q-6 1 -16.5 4.5t-24.5 14.5t-31.5 32t-38.5 56l-114 194q-10 -2 -24.5 -1.5t-24.5 0.5h-123
l-39 -223h75l-10 -57h-216zM630 487q10 56 -2.5 88.5t-40.5 49.5t-69 22t-87 5h-116l-55 -317h116q45 0 86 4t74.5 19.5t58 45.5t35.5 83zM342 899h65l72 -103l107 103h65l-77.5 -70l-78.5 -70h-48z" />
    <glyph glyph-name="Sacute" unicode="&#x15a;" horiz-adv-x="628" 
d="M634 556q-13 0 -26 0.5t-26 0.5l12 84q-34 11 -71 16.5t-63 5.5q-36 0 -72.5 -5t-67 -18t-52.5 -35t-28 -56q-6 -32 3 -56t30.5 -41t55.5 -29.5t78 -22.5q21 -5 46.5 -10t51 -14t48.5 -23.5t38.5 -37t22 -54.5t-1.5 -77q-8 -46 -35.5 -82t-68.5 -61t-93 -38.5t-109 -13.5
q-48 0 -110 6t-126 27l33 141h56l-16 -90q15 -4 33.5 -7.5t38.5 -6.5t40 -4.5t37 -1.5q34 0 75.5 7t78 23t64 41t33.5 61q7 41 -7 67.5t-40.5 43.5t-61 26.5t-67.5 17.5q-116 23 -163.5 74t-33.5 135q8 46 33 79t63.5 54t89 30.5t109.5 9.5q42 0 90 -6.5t117 -27.5l-38 -132
v0zM525 871l-77 -118h-60l72 118h65z" />
    <glyph glyph-name="Scaron" unicode="&#x160;" horiz-adv-x="628" 
d="M634 556q-13 0 -26 0.5t-26 0.5l12 84q-34 11 -71 16.5t-63 5.5q-36 0 -72.5 -5t-67 -18t-52.5 -35t-28 -56q-6 -32 3 -56t30.5 -41t55.5 -29.5t78 -22.5q21 -5 46.5 -10t51 -14t48.5 -23.5t38.5 -37t22 -54.5t-1.5 -77q-8 -46 -35.5 -82t-68.5 -61t-93 -38.5t-109 -13.5
q-48 0 -110 6t-126 27l33 141h56l-16 -90q15 -4 33.5 -7.5t38.5 -6.5t40 -4.5t37 -1.5q34 0 75.5 7t78 23t64 41t33.5 61q7 41 -7 67.5t-40.5 43.5t-61 26.5t-67.5 17.5q-116 23 -163.5 74t-33.5 135q8 46 33 79t63.5 54t89 30.5t109.5 9.5q42 0 90 -6.5t117 -27.5l-38 -132
v0zM317 899h65l72 -103l107 103h65l-77.5 -70l-78.5 -70h-48z" />
    <glyph glyph-name="Scedilla" unicode="&#x15e;" horiz-adv-x="628" 
d="M634 556q-13 0 -26 0.5t-26 0.5l12 84q-34 11 -71 16.5t-63 5.5q-36 0 -72.5 -5t-67 -18t-52.5 -35t-28 -56q-6 -32 3 -56t30.5 -41t55.5 -29.5t78 -22.5q21 -5 46.5 -10t51 -14t48.5 -23.5t38.5 -37t22 -54.5t-1.5 -77q-8 -46 -35.5 -82t-68.5 -61t-93 -38.5t-109 -13.5
q-48 0 -110 6t-126 27l33 141h56l-16 -90q15 -4 33.5 -7.5t38.5 -6.5t40 -4.5t37 -1.5q34 0 75.5 7t78 23t64 41t33.5 61q7 41 -7 67.5t-40.5 43.5t-61 26.5t-67.5 17.5q-116 23 -163.5 74t-33.5 135q8 46 33 79t63.5 54t89 30.5t109.5 9.5q42 0 90 -6.5t117 -27.5l-38 -132
v0zM352 13l-120 -207h-73l147 207h46z" />
    <glyph glyph-name="Scircumflex" unicode="&#x15c;" horiz-adv-x="628" 
d="M634 556q-13 0 -26 0.5t-26 0.5l12 84q-34 11 -71 16.5t-63 5.5q-36 0 -72.5 -5t-67 -18t-52.5 -35t-28 -56q-6 -32 3 -56t30.5 -41t55.5 -29.5t78 -22.5q21 -5 46.5 -10t51 -14t48.5 -23.5t38.5 -37t22 -54.5t-1.5 -77q-8 -46 -35.5 -82t-68.5 -61t-93 -38.5t-109 -13.5
q-48 0 -110 6t-126 27l33 141h56l-16 -90q15 -4 33.5 -7.5t38.5 -6.5t40 -4.5t37 -1.5q34 0 75.5 7t78 23t64 41t33.5 61q7 41 -7 67.5t-40.5 43.5t-61 26.5t-67.5 17.5q-116 23 -163.5 74t-33.5 135q8 46 33 79t63.5 54t89 30.5t109.5 9.5q42 0 90 -6.5t117 -27.5l-38 -132
v0zM602 761h-65l-71 103l-108 -103h-65l154 140h48z" />
    <glyph glyph-name="Scommaaccent" unicode="&#x218;" horiz-adv-x="628" 
d="M634 556q-13 0 -26 0.5t-26 0.5l12 84q-34 11 -71 16.5t-63 5.5q-36 0 -72.5 -5t-67 -18t-52.5 -35t-28 -56q-6 -32 3 -56t30.5 -41t55.5 -29.5t78 -22.5q21 -5 46.5 -10t51 -14t48.5 -23.5t38.5 -37t22 -54.5t-1.5 -77q-8 -46 -35.5 -82t-68.5 -61t-93 -38.5t-109 -13.5
q-48 0 -110 6t-126 27l33 141h56l-16 -90q15 -4 33.5 -7.5t38.5 -6.5t40 -4.5t37 -1.5q34 0 75.5 7t78 23t64 41t33.5 61q7 41 -7 67.5t-40.5 43.5t-61 26.5t-67.5 17.5q-116 23 -163.5 74t-33.5 135q8 46 33 79t63.5 54t89 30.5t109.5 9.5q42 0 90 -6.5t117 -27.5l-38 -132
v0z" />
    <glyph glyph-name="Tcommaaccent" unicode="&#x162;" horiz-adv-x="694" 
d="M188 534h-56l31 176h620l-31 -176h-57l20 118h-222l-104 -595h91l-10 -57h-249l10 57h91l104 595h-218zM282 -128q4 24 19 37t36 13q29 0 36 -27q3 -5 3 -18.5t-2 -21.5q-8 -45 -34.5 -83.5t-81.5 -64.5l-13 25q18 14 30.5 25.5t20 22t11.5 21t6 21.5q-17 2 -26 15t-5 35
z" />
    <glyph glyph-name="Uogonek" unicode="&#x172;" horiz-adv-x="762" 
d="M842 652h-72l-61 -351q-18 -98 -52.5 -159t-79 -95t-96.5 -46t-104 -12t-99.5 12t-80 46t-45.5 95t5 159l61 351h-72l11 58h213l-10 -57h-72l-63 -356q-14 -81 -5 -130.5t33 -76t59.5 -35t74.5 -8.5q36 0 74 8t73 34t62.5 75.5t42.5 132.5l62 355h-73l11 58h214z
M344 -224q-56 0 -81 26.5t-17 73.5q4 21 14 43.5t25.5 42.5t36 36.5t44.5 25.5l46 -7q-26 -9 -46 -24t-34 -33t-22.5 -37t-11.5 -37q-5 -29 9 -47t48 -18q22 0 44.5 6.5t39.5 14.5l3 -37q-16 -11 -43.5 -20t-54.5 -9z" />
    <glyph glyph-name="Uring" unicode="&#x16e;" horiz-adv-x="762" 
d="M842 652h-72l-61 -351q-18 -98 -52.5 -159t-79 -95t-96.5 -46t-104 -12t-99.5 12t-80 46t-45.5 95t5 159l61 351h-72l11 58h213l-10 -57h-72l-63 -356q-14 -81 -5 -130.5t33 -76t59.5 -35t74.5 -8.5q36 0 74 8t73 34t62.5 75.5t42.5 132.5l62 355h-73l11 58h214zM513 754
q-21 0 -37.5 7.5t-27.5 20.5t-15.5 31t-0.5 39q3 20 14 38t26.5 31.5t35 21t40.5 7.5q42 0 65 -28.5t16 -69.5q-8 -42 -41 -70t-75 -28zM520 791q26 0 45 17t24 44q5 26 -8.5 43t-39.5 17t-45 -17t-24 -43q-5 -27 8.5 -44t39.5 -17z" />
    <glyph glyph-name="Uacute" unicode="&#xda;" horiz-adv-x="762" 
d="M842 652h-72l-61 -351q-18 -98 -52.5 -159t-79 -95t-96.5 -46t-104 -12t-99.5 12t-80 46t-45.5 95t5 159l61 351h-72l11 58h213l-10 -57h-72l-63 -356q-14 -81 -5 -130.5t33 -76t59.5 -35t74.5 -8.5q36 0 74 8t73 34t62.5 75.5t42.5 132.5l62 355h-73l11 58h214zM592 871
l-77 -118h-60l72 118h65z" />
    <glyph glyph-name="Ubreve" unicode="&#x16c;" horiz-adv-x="762" 
d="M842 652h-72l-61 -351q-18 -98 -52.5 -159t-79 -95t-96.5 -46t-104 -12t-99.5 12t-80 46t-45.5 95t5 159l61 351h-72l11 58h213l-10 -57h-72l-63 -356q-14 -81 -5 -130.5t33 -76t59.5 -35t74.5 -8.5q36 0 74 8t73 34t62.5 75.5t42.5 132.5l62 355h-73l11 58h214zM513 758
q-53 0 -87 33.5t-41 86.5l52 9q5 -37 27 -58.5t58 -21.5q38 0 68 22.5t48 57.5l46 -8q-12 -26 -30 -48.5t-40.5 -38.5t-48.5 -25t-52 -9z" />
    <glyph glyph-name="Ugrave" unicode="&#xd9;" horiz-adv-x="762" 
d="M842 652h-72l-61 -351q-18 -98 -52.5 -159t-79 -95t-96.5 -46t-104 -12t-99.5 12t-80 46t-45.5 95t5 159l61 351h-72l11 58h213l-10 -57h-72l-63 -356q-14 -81 -5 -130.5t33 -76t59.5 -35t74.5 -8.5q36 0 74 8t73 34t62.5 75.5t42.5 132.5l62 355h-73l11 58h214zM511 753
l-18 58.5t-17 59.5h65l14.5 -59.5l15.5 -58.5h-60v0z" />
    <glyph glyph-name="Utilde" unicode="&#x168;" horiz-adv-x="762" 
d="M842 652h-72l-61 -351q-18 -98 -52.5 -159t-79 -95t-96.5 -46t-104 -12t-99.5 12t-80 46t-45.5 95t5 159l61 351h-72l11 58h213l-10 -57h-72l-63 -356q-14 -81 -5 -130.5t33 -76t59.5 -35t74.5 -8.5q36 0 74 8t73 34t62.5 75.5t42.5 132.5l62 355h-73l11 58h214zM385 835
q18 16 31.5 25.5t24.5 14.5t21.5 6.5t22.5 1.5t24.5 -5t25 -11t26 -11t26.5 -5q11 0 31.5 6.5t42.5 25.5l12 -35q-18 -16 -31.5 -25.5t-25 -15t-22 -7t-22.5 -1.5q-11 0 -24.5 5t-27 11t-26.5 11t-23 5h-11q-13 -2 -29.5 -9.5t-34.5 -22.5z" />
    <glyph glyph-name="Udieresis" unicode="&#xdc;" horiz-adv-x="762" 
d="M842 652h-72l-61 -351q-18 -98 -52.5 -159t-79 -95t-96.5 -46t-104 -12t-99.5 12t-80 46t-45.5 95t5 159l61 351h-72l11 58h213l-10 -57h-72l-63 -356q-14 -81 -5 -130.5t33 -76t59.5 -35t74.5 -8.5q36 0 74 8t73 34t62.5 75.5t42.5 132.5l62 355h-73l11 58h214zM366 843
q4 22 20 34t36 12t32 -12t8 -34t-20 -34t-36 -12t-32 12t-8 34zM595 843q4 22 20 34t37 12q20 0 32 -12t8 -34t-20 -34t-36 -12q-21 0 -33 12t-8 34z" />
    <glyph glyph-name="Ucircumflex" unicode="&#xdb;" horiz-adv-x="762" 
d="M842 652h-72l-61 -351q-18 -98 -52.5 -159t-79 -95t-96.5 -46t-104 -12t-99.5 12t-80 46t-45.5 95t5 159l61 351h-72l11 58h213l-10 -57h-72l-63 -356q-14 -81 -5 -130.5t33 -76t59.5 -35t74.5 -8.5q36 0 74 8t73 34t62.5 75.5t42.5 132.5l62 355h-73l11 58h214zM669 761
h-65l-71 103l-108 -103h-65l154 140h48z" />
    <glyph glyph-name="Wacute" unicode="&#x1e82;" horiz-adv-x="1061" 
d="M1172 710l-11 -58h-82l-170.5 -326l-171.5 -326h-70l-32 217t-30 217l-228 -434h-71l-93 652h-83l11 58h138l39.5 -308l39.5 -308l116.5 224.5l114.5 224.5l-7.5 54.5t-8.5 54.5h-81l11 58h136l39.5 -308l39.5 -308l318 616h136zM741 871l-77 -118h-60l72 118h65z" />
    <glyph glyph-name="Wgrave" unicode="&#x1e80;" horiz-adv-x="1061" 
d="M1172 710l-11 -58h-82l-170.5 -326l-171.5 -326h-70l-32 217t-30 217l-228 -434h-71l-93 652h-83l11 58h138l39.5 -308l39.5 -308l116.5 224.5l114.5 224.5l-7.5 54.5t-8.5 54.5h-81l11 58h136l39.5 -308l39.5 -308l318 616h136zM660 753l-18 58.5t-17 59.5h65
l14.5 -59.5l15.5 -58.5h-60v0z" />
    <glyph glyph-name="Wdieresis" unicode="&#x1e84;" horiz-adv-x="1061" 
d="M1172 710l-11 -58h-82l-170.5 -326l-171.5 -326h-70l-32 217t-30 217l-228 -434h-71l-93 652h-83l11 58h138l39.5 -308l39.5 -308l116.5 224.5l114.5 224.5l-7.5 54.5t-8.5 54.5h-81l11 58h136l39.5 -308l39.5 -308l318 616h136zM515 843q4 22 20 34t36 12t32 -12t8 -34
t-20 -34t-36 -12t-32 12t-8 34zM744 843q4 22 20 34t37 12q20 0 32 -12t8 -34t-20 -34t-36 -12q-21 0 -33 12t-8 34z" />
    <glyph glyph-name="Wcircumflex" unicode="&#x174;" horiz-adv-x="1061" 
d="M1172 710l-11 -58h-82l-170.5 -326l-171.5 -326h-70l-32 217t-30 217l-228 -434h-71l-93 652h-83l11 58h138l39.5 -308l39.5 -308l116.5 224.5l114.5 224.5l-7.5 54.5t-8.5 54.5h-81l11 58h136l39.5 -308l39.5 -308l318 616h136zM819 761h-65l-71 103l-108 -103h-65
l154 140h48z" />
    <glyph glyph-name="Yacute" unicode="&#xdd;" horiz-adv-x="677" 
d="M132 652l11 58h114l69.5 -159l70.5 -159l273 318h112l-11 -58h-73l-139.5 -162l-138.5 -162l-47 -271h83l-10 -57h-235l10 57h83l47 271l-72 162l-73 162h-74zM549 871l-77 -118h-60l72 118h65z" />
    <glyph glyph-name="Ygrave" unicode="&#x1ef2;" horiz-adv-x="677" 
d="M132 652l11 58h114l69.5 -159l70.5 -159l273 318h112l-11 -58h-73l-139.5 -162l-138.5 -162l-47 -271h83l-10 -57h-235l10 57h83l47 271l-72 162l-73 162h-74zM468 753l-18 58.5t-17 59.5h65l14.5 -59.5l15.5 -58.5h-60v0z" />
    <glyph glyph-name="Ydieresis" unicode="&#x178;" horiz-adv-x="677" 
d="M132 652l11 58h114l69.5 -159l70.5 -159l273 318h112l-11 -58h-73l-139.5 -162l-138.5 -162l-47 -271h83l-10 -57h-235l10 57h83l47 271l-72 162l-73 162h-74zM323 843q4 22 20 34t36 12t32 -12t8 -34t-20 -34t-36 -12t-32 12t-8 34zM552 843q4 22 20 34t37 12
q20 0 32 -12t8 -34t-20 -34t-36 -12q-21 0 -33 12t-8 34z" />
    <glyph glyph-name="Ycircumflex" unicode="&#x176;" horiz-adv-x="677" 
d="M132 652l11 58h114l69.5 -159l70.5 -159l273 318h112l-11 -58h-73l-139.5 -162l-138.5 -162l-47 -271h83l-10 -57h-235l10 57h83l47 271l-72 162l-73 162h-74zM627 761h-65l-71 103l-108 -103h-65l154 140h48z" />
    <glyph glyph-name="Zacute" unicode="&#x179;" horiz-adv-x="648" 
d="M40 59l297.5 297l297.5 297h-420l-19 -103h-58l29 160h561l-10 -56l-297 -298.5l-298 -298.5h440q5 32 9 54l9 50h58l-28 -161h-581zM535 871l-77 -118h-60l72 118h65z" />
    <glyph glyph-name="Zcaron" unicode="&#x17d;" horiz-adv-x="648" 
d="M40 59l297.5 297l297.5 297h-420l-19 -103h-58l29 160h561l-10 -56l-297 -298.5l-298 -298.5h440q5 32 9 54l9 50h58l-28 -161h-581zM327 899h65l72 -103l107 103h65l-77.5 -70l-78.5 -70h-48z" />
    <glyph glyph-name="Zdotaccent" unicode="&#x17b;" horiz-adv-x="648" 
d="M40 59l297.5 297l297.5 297h-420l-19 -103h-58l29 160h561l-10 -56l-297 -298.5l-298 -298.5h440q5 32 9 54l9 50h58l-28 -161h-581zM416 839q5 25 23.5 38.5t41.5 13.5t36.5 -13t8.5 -39q-4 -24 -22.5 -37.5t-41.5 -13.5t-36.5 13t-9.5 38z" />
    <glyph glyph-name="aring" unicode="&#xe5;" horiz-adv-x="565" 
d="M505 96q-5 -32 3 -40t19 -8q8 0 21 1t33 8l2 -44q-29 -10 -46.5 -14t-34.5 -4q-43 0 -56 35q-14 -7 -29.5 -14t-37.5 -13t-53 -9.5t-76 -3.5q-42 0 -79 10.5t-61.5 38t-34 74.5t3.5 119l13 70q13 77 40.5 127t63.5 78.5t79 39.5t88 11q36 0 70.5 -7.5t63 -18.5
t49.5 -22.5t29 -18.5zM503 458q-21 19 -59 31.5t-83 12.5q-30 0 -61.5 -8t-59 -30.5t-49.5 -61.5t-33 -100l-11 -63q-11 -62 -4 -100.5t26.5 -59.5t48 -28.5t61.5 -7.5q31 0 55 3t42 8t32.5 11t27.5 12zM393 595q-21 0 -37.5 7.5t-27.5 20.5t-15.5 31t-0.5 39q3 20 14 38
t26.5 31.5t35 21t40.5 7.5q42 0 65 -28.5t16 -69.5q-8 -42 -41 -70t-75 -28zM400 632q26 0 45 17t24 44q5 26 -8.5 43t-39.5 17t-45 -17t-24 -43q-5 -27 8.5 -44t39.5 -17z" />
    <glyph glyph-name="aacute" unicode="&#xe1;" horiz-adv-x="565" 
d="M505 96q-5 -32 3 -40t19 -8q8 0 21 1t33 8l2 -44q-29 -10 -46.5 -14t-34.5 -4q-43 0 -56 35q-14 -7 -29.5 -14t-37.5 -13t-53 -9.5t-76 -3.5q-42 0 -79 10.5t-61.5 38t-34 74.5t3.5 119l13 70q13 77 40.5 127t63.5 78.5t79 39.5t88 11q36 0 70.5 -7.5t63 -18.5
t49.5 -22.5t29 -18.5zM503 458q-21 19 -59 31.5t-83 12.5q-30 0 -61.5 -8t-59 -30.5t-49.5 -61.5t-33 -100l-11 -63q-11 -62 -4 -100.5t26.5 -59.5t48 -28.5t61.5 -7.5q31 0 55 3t42 8t32.5 11t27.5 12zM472 712l-77 -118h-60l72 118h65z" />
    <glyph glyph-name="abreve" unicode="&#x103;" horiz-adv-x="565" 
d="M505 96q-5 -32 3 -40t19 -8q8 0 21 1t33 8l2 -44q-29 -10 -46.5 -14t-34.5 -4q-43 0 -56 35q-14 -7 -29.5 -14t-37.5 -13t-53 -9.5t-76 -3.5q-42 0 -79 10.5t-61.5 38t-34 74.5t3.5 119l13 70q13 77 40.5 127t63.5 78.5t79 39.5t88 11q36 0 70.5 -7.5t63 -18.5
t49.5 -22.5t29 -18.5zM503 458q-21 19 -59 31.5t-83 12.5q-30 0 -61.5 -8t-59 -30.5t-49.5 -61.5t-33 -100l-11 -63q-11 -62 -4 -100.5t26.5 -59.5t48 -28.5t61.5 -7.5q31 0 55 3t42 8t32.5 11t27.5 12zM393 599q-53 0 -87 33.5t-41 86.5l52 9q5 -37 27 -58.5t58 -21.5
q38 0 68 22.5t48 57.5l46 -8q-12 -26 -30 -48.5t-40.5 -38.5t-48.5 -25t-52 -9z" />
    <glyph glyph-name="agrave" unicode="&#xe0;" horiz-adv-x="565" 
d="M505 96q-5 -32 3 -40t19 -8q8 0 21 1t33 8l2 -44q-29 -10 -46.5 -14t-34.5 -4q-43 0 -56 35q-14 -7 -29.5 -14t-37.5 -13t-53 -9.5t-76 -3.5q-42 0 -79 10.5t-61.5 38t-34 74.5t3.5 119l13 70q13 77 40.5 127t63.5 78.5t79 39.5t88 11q36 0 70.5 -7.5t63 -18.5
t49.5 -22.5t29 -18.5zM503 458q-21 19 -59 31.5t-83 12.5q-30 0 -61.5 -8t-59 -30.5t-49.5 -61.5t-33 -100l-11 -63q-11 -62 -4 -100.5t26.5 -59.5t48 -28.5t61.5 -7.5q31 0 55 3t42 8t32.5 11t27.5 12zM391 594l-18 58.5t-17 59.5h65l14.5 -59.5l15.5 -58.5h-60v0z" />
    <glyph glyph-name="atilde" unicode="&#xe3;" horiz-adv-x="565" 
d="M505 96q-5 -32 3 -40t19 -8q8 0 21 1t33 8l2 -44q-29 -10 -46.5 -14t-34.5 -4q-43 0 -56 35q-14 -7 -29.5 -14t-37.5 -13t-53 -9.5t-76 -3.5q-42 0 -79 10.5t-61.5 38t-34 74.5t3.5 119l13 70q13 77 40.5 127t63.5 78.5t79 39.5t88 11q36 0 70.5 -7.5t63 -18.5
t49.5 -22.5t29 -18.5zM503 458q-21 19 -59 31.5t-83 12.5q-30 0 -61.5 -8t-59 -30.5t-49.5 -61.5t-33 -100l-11 -63q-11 -62 -4 -100.5t26.5 -59.5t48 -28.5t61.5 -7.5q31 0 55 3t42 8t32.5 11t27.5 12zM265 676q18 16 31.5 25.5t24.5 14.5t21.5 6.5t22.5 1.5t24.5 -5
t25 -11t26 -11t26.5 -5q11 0 31.5 6.5t42.5 25.5l12 -35q-18 -16 -31.5 -25.5t-25 -15t-22 -7t-22.5 -1.5q-11 0 -24.5 5t-27 11t-26.5 11t-23 5h-11q-13 -2 -29.5 -9.5t-34.5 -22.5z" />
    <glyph glyph-name="gbreve" unicode="&#x11f;" horiz-adv-x="635" 
d="M268 -155q30 0 60 7.5t56 27.5t46.5 54.5t31.5 89.5q-38 -26 -75.5 -30.5t-79.5 -4.5q-45 0 -85 9.5t-67.5 36t-38.5 73.5t2 122l13 73q13 77 40.5 126.5t63.5 78t79.5 39.5t88.5 11h14q35 0 59 -4.5t41 -12t27.5 -16.5t18.5 -18q26 46 73 46q17 0 33.5 -5t41.5 -14
l-10 -22.5t-9 -22.5q-18 7 -30 8.5t-21 1.5q-11 0 -22 -11.5t-16 -44.5l-73 -410q-14 -80 -42 -128.5t-65 -75t-80 -35.5t-86 -9q-30 0 -58.5 5t-53 15.5t-43.5 27t-31 39.5q13 12 24.5 20t24.5 19q11 -23 27.5 -36t36 -19.5t41 -8.5t43.5 -2zM538 456q-21 19 -57.5 31.5
t-81.5 12.5q-30 0 -61 -8t-59 -29.5t-49.5 -59.5t-32.5 -99l-12 -69q-11 -61 -2.5 -97.5t29 -56t49.5 -26t59 -6.5q60 0 93 7.5t58 18.5zM438 599q-53 0 -87 33.5t-41 86.5l52 9q5 -37 27 -58.5t58 -21.5q38 0 68 22.5t48 57.5l46 -8q-12 -26 -30 -48.5t-40.5 -38.5
t-48.5 -25t-52 -9z" />
    <glyph glyph-name="amacron" unicode="&#x101;" horiz-adv-x="565" 
d="M505 96q-5 -32 3 -40t19 -8q8 0 21 1t33 8l2 -44q-29 -10 -46.5 -14t-34.5 -4q-43 0 -56 35q-14 -7 -29.5 -14t-37.5 -13t-53 -9.5t-76 -3.5q-42 0 -79 10.5t-61.5 38t-34 74.5t3.5 119l13 70q13 77 40.5 127t63.5 78.5t79 39.5t88 11q36 0 70.5 -7.5t63 -18.5
t49.5 -22.5t29 -18.5zM503 458q-21 19 -59 31.5t-83 12.5q-30 0 -61.5 -8t-59 -30.5t-49.5 -61.5t-33 -100l-11 -63q-11 -62 -4 -100.5t26.5 -59.5t48 -28.5t61.5 -7.5q31 0 55 3t42 8t32.5 11t27.5 12zM232 710h364l-9 -50h-364z" />
    <glyph glyph-name="aogonek" unicode="&#x105;" horiz-adv-x="565" 
d="M505 96q-5 -32 3 -40t19 -8q8 0 21 1t33 8l2 -44q-29 -10 -46.5 -14t-34.5 -4q-43 0 -56 35q-14 -7 -29.5 -14t-37.5 -13t-53 -9.5t-76 -3.5q-42 0 -79 10.5t-61.5 38t-34 74.5t3.5 119l13 70q13 77 40.5 127t63.5 78.5t79 39.5t88 11q36 0 70.5 -7.5t63 -18.5
t49.5 -22.5t29 -18.5zM503 458q-21 19 -59 31.5t-83 12.5q-30 0 -61.5 -8t-59 -30.5t-49.5 -61.5t-33 -100l-11 -63q-11 -62 -4 -100.5t26.5 -59.5t48 -28.5t61.5 -7.5q31 0 55 3t42 8t32.5 11t27.5 12zM415 -224q-56 0 -81 26.5t-17 73.5q4 21 14 43.5t25.5 42.5t36 36.5
t44.5 25.5l46 -7q-26 -9 -46 -24t-34 -33t-22.5 -37t-11.5 -37q-5 -29 9 -47t48 -18q22 0 44.5 6.5t39.5 14.5l3 -37q-16 -11 -43.5 -20t-54.5 -9z" />
    <glyph glyph-name="adieresis" unicode="&#xe4;" horiz-adv-x="565" 
d="M505 96q-5 -32 3 -40t19 -8q8 0 21 1t33 8l2 -44q-29 -10 -46.5 -14t-34.5 -4q-43 0 -56 35q-14 -7 -29.5 -14t-37.5 -13t-53 -9.5t-76 -3.5q-42 0 -79 10.5t-61.5 38t-34 74.5t3.5 119l13 70q13 77 40.5 127t63.5 78.5t79 39.5t88 11q36 0 70.5 -7.5t63 -18.5
t49.5 -22.5t29 -18.5zM503 458q-21 19 -59 31.5t-83 12.5q-30 0 -61.5 -8t-59 -30.5t-49.5 -61.5t-33 -100l-11 -63q-11 -62 -4 -100.5t26.5 -59.5t48 -28.5t61.5 -7.5q31 0 55 3t42 8t32.5 11t27.5 12zM246 684q4 22 20 34t36 12t32 -12t8 -34t-20 -34t-36 -12t-32 12
t-8 34zM475 684q4 22 20 34t37 12q20 0 32 -12t8 -34t-20 -34t-36 -12q-21 0 -33 12t-8 34z" />
    <glyph glyph-name="gdotaccent" unicode="&#x121;" horiz-adv-x="635" 
d="M268 -155q30 0 60 7.5t56 27.5t46.5 54.5t31.5 89.5q-38 -26 -75.5 -30.5t-79.5 -4.5q-45 0 -85 9.5t-67.5 36t-38.5 73.5t2 122l13 73q13 77 40.5 126.5t63.5 78t79.5 39.5t88.5 11h14q35 0 59 -4.5t41 -12t27.5 -16.5t18.5 -18q26 46 73 46q17 0 33.5 -5t41.5 -14
l-10 -22.5t-9 -22.5q-18 7 -30 8.5t-21 1.5q-11 0 -22 -11.5t-16 -44.5l-73 -410q-14 -80 -42 -128.5t-65 -75t-80 -35.5t-86 -9q-30 0 -58.5 5t-53 15.5t-43.5 27t-31 39.5q13 12 24.5 20t24.5 19q11 -23 27.5 -36t36 -19.5t41 -8.5t43.5 -2zM538 456q-21 19 -57.5 31.5
t-81.5 12.5q-30 0 -61 -8t-59 -29.5t-49.5 -59.5t-32.5 -99l-12 -69q-11 -61 -2.5 -97.5t29 -56t49.5 -26t59 -6.5q60 0 93 7.5t58 18.5zM398 680q5 25 23.5 38.5t41.5 13.5t36.5 -13t8.5 -39q-4 -24 -22.5 -37.5t-41.5 -13.5t-36.5 13t-9.5 38z" />
    <glyph glyph-name="acircumflex" unicode="&#xe2;" horiz-adv-x="565" 
d="M505 96q-5 -32 3 -40t19 -8q8 0 21 1t33 8l2 -44q-29 -10 -46.5 -14t-34.5 -4q-43 0 -56 35q-14 -7 -29.5 -14t-37.5 -13t-53 -9.5t-76 -3.5q-42 0 -79 10.5t-61.5 38t-34 74.5t3.5 119l13 70q13 77 40.5 127t63.5 78.5t79 39.5t88 11q36 0 70.5 -7.5t63 -18.5
t49.5 -22.5t29 -18.5zM503 458q-21 19 -59 31.5t-83 12.5q-30 0 -61.5 -8t-59 -30.5t-49.5 -61.5t-33 -100l-11 -63q-11 -62 -4 -100.5t26.5 -59.5t48 -28.5t61.5 -7.5q31 0 55 3t42 8t32.5 11t27.5 12zM549 602h-65l-71 103l-108 -103h-65l154 140h48z" />
    <glyph glyph-name="gcircumflex" unicode="&#x11d;" horiz-adv-x="635" 
d="M268 -155q30 0 60 7.5t56 27.5t46.5 54.5t31.5 89.5q-38 -26 -75.5 -30.5t-79.5 -4.5q-45 0 -85 9.5t-67.5 36t-38.5 73.5t2 122l13 73q13 77 40.5 126.5t63.5 78t79.5 39.5t88.5 11h14q35 0 59 -4.5t41 -12t27.5 -16.5t18.5 -18q26 46 73 46q17 0 33.5 -5t41.5 -14
l-10 -22.5t-9 -22.5q-18 7 -30 8.5t-21 1.5q-11 0 -22 -11.5t-16 -44.5l-73 -410q-14 -80 -42 -128.5t-65 -75t-80 -35.5t-86 -9q-30 0 -58.5 5t-53 15.5t-43.5 27t-31 39.5q13 12 24.5 20t24.5 19q11 -23 27.5 -36t36 -19.5t41 -8.5t43.5 -2zM538 456q-21 19 -57.5 31.5
t-81.5 12.5q-30 0 -61 -8t-59 -29.5t-49.5 -59.5t-32.5 -99l-12 -69q-11 -61 -2.5 -97.5t29 -56t49.5 -26t59 -6.5q60 0 93 7.5t58 18.5zM594 602h-65l-71 103l-108 -103h-65l154 140h48z" />
    <glyph glyph-name="gcommaaccent" unicode="&#x123;" horiz-adv-x="635" 
d="M268 -155q30 0 60 7.5t56 27.5t46.5 54.5t31.5 89.5q-38 -26 -75.5 -30.5t-79.5 -4.5q-45 0 -85 9.5t-67.5 36t-38.5 73.5t2 122l13 73q13 77 40.5 126.5t63.5 78t79.5 39.5t88.5 11h14q35 0 59 -4.5t41 -12t27.5 -16.5t18.5 -18q26 46 73 46q17 0 33.5 -5t41.5 -14
l-10 -22.5t-9 -22.5q-18 7 -30 8.5t-21 1.5q-11 0 -22 -11.5t-16 -44.5l-73 -410q-14 -80 -42 -128.5t-65 -75t-80 -35.5t-86 -9q-30 0 -58.5 5t-53 15.5t-43.5 27t-31 39.5q13 12 24.5 20t24.5 19q11 -23 27.5 -36t36 -19.5t41 -8.5t43.5 -2zM538 456q-21 19 -57.5 31.5
t-81.5 12.5q-30 0 -61 -8t-59 -29.5t-49.5 -59.5t-32.5 -99l-12 -69q-11 -61 -2.5 -97.5t29 -56t49.5 -26t59 -6.5q60 0 93 7.5t58 18.5zM503 711q-5 -24 -21 -37.5t-36 -13.5q-31 0 -37 28q-2 9 -2.5 19.5t2.5 22.5q8 44 34.5 81.5t80.5 62.5q1 -3 5.5 -12l6.5 -13
q-36 -27 -48 -46.5t-17 -41.5q17 -2 26.5 -15t5.5 -35z" />
    <glyph glyph-name="cacute" unicode="&#x107;" horiz-adv-x="534" 
d="M482 409l12 75q-26 11 -56.5 14.5t-52.5 3.5q-28 0 -58.5 -6.5t-58.5 -26t-50 -56t-32 -95.5l-16 -88q-12 -66 -1 -103t33.5 -55.5t52.5 -22.5t57 -4q56 0 97 9.5t73 20.5l4 -27t5 -27q-35 -14 -85.5 -22.5t-116.5 -8.5q-46 0 -86 9t-66.5 35t-36.5 72.5t4 121.5l15 86
q13 76 41 123.5t65 74.5t80.5 36.5t89.5 9.5q22 0 39.5 -1t35.5 -3.5t39 -7t48 -12.5q-6 -32 -13 -63t-12 -62h-50zM450 712l-77 -118h-60l72 118h65z" />
    <glyph glyph-name="ccaron" unicode="&#x10d;" horiz-adv-x="534" 
d="M482 409l12 75q-26 11 -56.5 14.5t-52.5 3.5q-28 0 -58.5 -6.5t-58.5 -26t-50 -56t-32 -95.5l-16 -88q-12 -66 -1 -103t33.5 -55.5t52.5 -22.5t57 -4q56 0 97 9.5t73 20.5l4 -27t5 -27q-35 -14 -85.5 -22.5t-116.5 -8.5q-46 0 -86 9t-66.5 35t-36.5 72.5t4 121.5l15 86
q13 76 41 123.5t65 74.5t80.5 36.5t89.5 9.5q22 0 39.5 -1t35.5 -3.5t39 -7t48 -12.5q-6 -32 -13 -63t-12 -62h-50zM242 740h65l72 -103l107 103h65l-77.5 -70l-78.5 -70h-48z" />
    <glyph glyph-name="ccedilla" unicode="&#xe7;" horiz-adv-x="534" 
d="M482 409l12 75q-26 11 -56.5 14.5t-52.5 3.5q-28 0 -58.5 -6.5t-58.5 -26t-50 -56t-32 -95.5l-16 -88q-12 -66 -1 -103t33.5 -55.5t52.5 -22.5t57 -4q56 0 97 9.5t73 20.5l4 -27t5 -27q-35 -14 -85.5 -22.5t-116.5 -8.5q-46 0 -86 9t-66.5 35t-36.5 72.5t4 121.5l15 86
q13 76 41 123.5t65 74.5t80.5 36.5t89.5 9.5q22 0 39.5 -1t35.5 -3.5t39 -7t48 -12.5q-6 -32 -13 -63t-12 -62h-50zM347 13l-120 -207h-73l147 207h46z" />
    <glyph glyph-name="cdotaccent" unicode="&#x10b;" horiz-adv-x="534" 
d="M482 409l12 75q-26 11 -56.5 14.5t-52.5 3.5q-28 0 -58.5 -6.5t-58.5 -26t-50 -56t-32 -95.5l-16 -88q-12 -66 -1 -103t33.5 -55.5t52.5 -22.5t57 -4q56 0 97 9.5t73 20.5l4 -27t5 -27q-35 -14 -85.5 -22.5t-116.5 -8.5q-46 0 -86 9t-66.5 35t-36.5 72.5t4 121.5l15 86
q13 76 41 123.5t65 74.5t80.5 36.5t89.5 9.5q22 0 39.5 -1t35.5 -3.5t39 -7t48 -12.5q-6 -32 -13 -63t-12 -62h-50zM331 680q5 25 23.5 38.5t41.5 13.5t36.5 -13t8.5 -39q-4 -24 -22.5 -37.5t-41.5 -13.5t-36.5 13t-9.5 38z" />
    <glyph glyph-name="ccircumflex" unicode="&#x109;" horiz-adv-x="534" 
d="M482 409l12 75q-26 11 -56.5 14.5t-52.5 3.5q-28 0 -58.5 -6.5t-58.5 -26t-50 -56t-32 -95.5l-16 -88q-12 -66 -1 -103t33.5 -55.5t52.5 -22.5t57 -4q56 0 97 9.5t73 20.5l4 -27t5 -27q-35 -14 -85.5 -22.5t-116.5 -8.5q-46 0 -86 9t-66.5 35t-36.5 72.5t4 121.5l15 86
q13 76 41 123.5t65 74.5t80.5 36.5t89.5 9.5q22 0 39.5 -1t35.5 -3.5t39 -7t48 -12.5q-6 -32 -13 -63t-12 -62h-50zM527 602h-65l-71 103l-108 -103h-65l154 140h48z" />
    <glyph glyph-name="eacute" unicode="&#xe9;" horiz-adv-x="569" 
d="M292 -11q-46 0 -86.5 9.5t-68.5 35.5t-39.5 73.5t1.5 122.5l15 85q13 77 41.5 124.5t66.5 74t82.5 35.5t89.5 9t83.5 -6.5t64.5 -27t36.5 -59t-0.5 -101.5q-5 -33 -26.5 -54.5t-53.5 -34t-72.5 -17.5t-84 -5t-88 3t-84.5 6q-13 -72 -8 -114t23.5 -64t48.5 -28.5t68 -6.5
q63 0 104.5 6t74.5 16q4 -24 11 -50q-35 -14 -84 -23t-115 -9zM382 502q-29 0 -60.5 -5t-59.5 -24t-50 -56.5t-34 -102.5q55 -8 113.5 -10.5t108 4.5t83.5 24.5t40 50.5q7 40 -3.5 64t-32 36t-49.5 15.5t-56 3.5zM467 712l-77 -118h-60l72 118h65z" />
    <glyph glyph-name="ebreve" unicode="&#x115;" horiz-adv-x="569" 
d="M292 -11q-46 0 -86.5 9.5t-68.5 35.5t-39.5 73.5t1.5 122.5l15 85q13 77 41.5 124.5t66.5 74t82.5 35.5t89.5 9t83.5 -6.5t64.5 -27t36.5 -59t-0.5 -101.5q-5 -33 -26.5 -54.5t-53.5 -34t-72.5 -17.5t-84 -5t-88 3t-84.5 6q-13 -72 -8 -114t23.5 -64t48.5 -28.5t68 -6.5
q63 0 104.5 6t74.5 16q4 -24 11 -50q-35 -14 -84 -23t-115 -9zM382 502q-29 0 -60.5 -5t-59.5 -24t-50 -56.5t-34 -102.5q55 -8 113.5 -10.5t108 4.5t83.5 24.5t40 50.5q7 40 -3.5 64t-32 36t-49.5 15.5t-56 3.5zM389 599q-53 0 -87 33.5t-41 86.5l52 9q5 -37 27 -58.5
t58 -21.5q38 0 68 22.5t48 57.5l46 -8q-12 -26 -30 -48.5t-40.5 -38.5t-48.5 -25t-52 -9z" />
    <glyph glyph-name="ecaron" unicode="&#x11b;" horiz-adv-x="569" 
d="M292 -11q-46 0 -86.5 9.5t-68.5 35.5t-39.5 73.5t1.5 122.5l15 85q13 77 41.5 124.5t66.5 74t82.5 35.5t89.5 9t83.5 -6.5t64.5 -27t36.5 -59t-0.5 -101.5q-5 -33 -26.5 -54.5t-53.5 -34t-72.5 -17.5t-84 -5t-88 3t-84.5 6q-13 -72 -8 -114t23.5 -64t48.5 -28.5t68 -6.5
q63 0 104.5 6t74.5 16q4 -24 11 -50q-35 -14 -84 -23t-115 -9zM382 502q-29 0 -60.5 -5t-59.5 -24t-50 -56.5t-34 -102.5q55 -8 113.5 -10.5t108 4.5t83.5 24.5t40 50.5q7 40 -3.5 64t-32 36t-49.5 15.5t-56 3.5zM260 740h65l72 -103l107 103h65l-77.5 -70l-78.5 -70h-48z
" />
    <glyph glyph-name="egrave" unicode="&#xe8;" horiz-adv-x="569" 
d="M292 -11q-46 0 -86.5 9.5t-68.5 35.5t-39.5 73.5t1.5 122.5l15 85q13 77 41.5 124.5t66.5 74t82.5 35.5t89.5 9t83.5 -6.5t64.5 -27t36.5 -59t-0.5 -101.5q-5 -33 -26.5 -54.5t-53.5 -34t-72.5 -17.5t-84 -5t-88 3t-84.5 6q-13 -72 -8 -114t23.5 -64t48.5 -28.5t68 -6.5
q63 0 104.5 6t74.5 16q4 -24 11 -50q-35 -14 -84 -23t-115 -9zM382 502q-29 0 -60.5 -5t-59.5 -24t-50 -56.5t-34 -102.5q55 -8 113.5 -10.5t108 4.5t83.5 24.5t40 50.5q7 40 -3.5 64t-32 36t-49.5 15.5t-56 3.5zM386 594l-18 58.5t-17 59.5h65l14.5 -59.5l15.5 -58.5h-60v0
z" />
    <glyph glyph-name="emacron" unicode="&#x113;" horiz-adv-x="569" 
d="M292 -11q-46 0 -86.5 9.5t-68.5 35.5t-39.5 73.5t1.5 122.5l15 85q13 77 41.5 124.5t66.5 74t82.5 35.5t89.5 9t83.5 -6.5t64.5 -27t36.5 -59t-0.5 -101.5q-5 -33 -26.5 -54.5t-53.5 -34t-72.5 -17.5t-84 -5t-88 3t-84.5 6q-13 -72 -8 -114t23.5 -64t48.5 -28.5t68 -6.5
q63 0 104.5 6t74.5 16q4 -24 11 -50q-35 -14 -84 -23t-115 -9zM382 502q-29 0 -60.5 -5t-59.5 -24t-50 -56.5t-34 -102.5q55 -8 113.5 -10.5t108 4.5t83.5 24.5t40 50.5q7 40 -3.5 64t-32 36t-49.5 15.5t-56 3.5zM227 710h364l-9 -50h-364z" />
    <glyph glyph-name="eogonek" unicode="&#x119;" horiz-adv-x="569" 
d="M292 -11q-46 0 -86.5 9.5t-68.5 35.5t-39.5 73.5t1.5 122.5l15 85q13 77 41.5 124.5t66.5 74t82.5 35.5t89.5 9t83.5 -6.5t64.5 -27t36.5 -59t-0.5 -101.5q-5 -33 -26.5 -54.5t-53.5 -34t-72.5 -17.5t-84 -5t-88 3t-84.5 6q-13 -72 -8 -114t23.5 -64t48.5 -28.5t68 -6.5
q63 0 104.5 6t74.5 16q4 -24 11 -50q-35 -14 -84 -23t-115 -9zM382 502q-29 0 -60.5 -5t-59.5 -24t-50 -56.5t-34 -102.5q55 -8 113.5 -10.5t108 4.5t83.5 24.5t40 50.5q7 40 -3.5 64t-32 36t-49.5 15.5t-56 3.5zM288 -224q-56 0 -81 26.5t-17 73.5q4 21 14 43.5t25.5 42.5
t36 36.5t44.5 25.5l46 -7q-26 -9 -46 -24t-34 -33t-22.5 -37t-11.5 -37q-5 -29 9 -47t48 -18q22 0 44.5 6.5t39.5 14.5l3 -37q-16 -11 -43.5 -20t-54.5 -9z" />
    <glyph glyph-name="edieresis" unicode="&#xeb;" horiz-adv-x="569" 
d="M292 -11q-46 0 -86.5 9.5t-68.5 35.5t-39.5 73.5t1.5 122.5l15 85q13 77 41.5 124.5t66.5 74t82.5 35.5t89.5 9t83.5 -6.5t64.5 -27t36.5 -59t-0.5 -101.5q-5 -33 -26.5 -54.5t-53.5 -34t-72.5 -17.5t-84 -5t-88 3t-84.5 6q-13 -72 -8 -114t23.5 -64t48.5 -28.5t68 -6.5
q63 0 104.5 6t74.5 16q4 -24 11 -50q-35 -14 -84 -23t-115 -9zM382 502q-29 0 -60.5 -5t-59.5 -24t-50 -56.5t-34 -102.5q55 -8 113.5 -10.5t108 4.5t83.5 24.5t40 50.5q7 40 -3.5 64t-32 36t-49.5 15.5t-56 3.5zM241 684q4 22 20 34t36 12t32 -12t8 -34t-20 -34t-36 -12
t-32 12t-8 34zM470 684q4 22 20 34t37 12q20 0 32 -12t8 -34t-20 -34t-36 -12q-21 0 -33 12t-8 34z" />
    <glyph glyph-name="edotaccent" unicode="&#x117;" horiz-adv-x="569" 
d="M292 -11q-46 0 -86.5 9.5t-68.5 35.5t-39.5 73.5t1.5 122.5l15 85q13 77 41.5 124.5t66.5 74t82.5 35.5t89.5 9t83.5 -6.5t64.5 -27t36.5 -59t-0.5 -101.5q-5 -33 -26.5 -54.5t-53.5 -34t-72.5 -17.5t-84 -5t-88 3t-84.5 6q-13 -72 -8 -114t23.5 -64t48.5 -28.5t68 -6.5
q63 0 104.5 6t74.5 16q4 -24 11 -50q-35 -14 -84 -23t-115 -9zM382 502q-29 0 -60.5 -5t-59.5 -24t-50 -56.5t-34 -102.5q55 -8 113.5 -10.5t108 4.5t83.5 24.5t40 50.5q7 40 -3.5 64t-32 36t-49.5 15.5t-56 3.5zM348 680q5 25 23.5 38.5t41.5 13.5t36.5 -13t8.5 -39
q-4 -24 -22.5 -37.5t-41.5 -13.5t-36.5 13t-9.5 38z" />
    <glyph glyph-name="ecircumflex" unicode="&#xea;" horiz-adv-x="569" 
d="M292 -11q-46 0 -86.5 9.5t-68.5 35.5t-39.5 73.5t1.5 122.5l15 85q13 77 41.5 124.5t66.5 74t82.5 35.5t89.5 9t83.5 -6.5t64.5 -27t36.5 -59t-0.5 -101.5q-5 -33 -26.5 -54.5t-53.5 -34t-72.5 -17.5t-84 -5t-88 3t-84.5 6q-13 -72 -8 -114t23.5 -64t48.5 -28.5t68 -6.5
q63 0 104.5 6t74.5 16q4 -24 11 -50q-35 -14 -84 -23t-115 -9zM382 502q-29 0 -60.5 -5t-59.5 -24t-50 -56.5t-34 -102.5q55 -8 113.5 -10.5t108 4.5t83.5 24.5t40 50.5q7 40 -3.5 64t-32 36t-49.5 15.5t-56 3.5zM545 602h-65l-71 103l-108 -103h-65l154 140h48z" />
    <glyph glyph-name="hbar" unicode="&#x127;" horiz-adv-x="649" 
d="M562 122q-6 -36 0 -52t34 -16q11 0 31 3l-6 -57q-30 -6 -55 -6q-42 0 -62.5 24.5t-9.5 86.5l32 184q13 75 8.5 117.5t-21 63t-41 25.5t-51.5 5t-57 -4t-56.5 -19t-46.5 -43.5t-29 -76.5l-62 -357h-67l125 712h-92l10 58h159l-49 -277q35 37 79.5 51t96.5 14
q103 0 145 -55t19 -187l-34 -194v0zM130 654h364l-9 -50h-364z" />
    <glyph glyph-name="nacute" unicode="&#x144;" horiz-adv-x="661" 
d="M548 342q13 79 -17 118t-85 39q-30 0 -60.5 -6t-58 -18t-50.5 -31.5t-38 -46.5l-70 -397h-66l78 443q6 35 -1.5 45.5t-19.5 10.5q-6 0 -10.5 -0.5t-10.5 -1.5v49q9 2 20.5 5.5t20.5 3.5q24 0 35 -6t15.5 -16.5t5 -25t3.5 -32.5q19 20 45 35.5t54.5 26t58.5 16t59 5.5
q52 0 85.5 -18.5t52 -48.5t22.5 -69t-3 -81l-39 -219q-8 -45 4.5 -59t60.5 -6l-6 -57q-34 -7 -61 -6.5t-44 12t-23.5 35.5t0.5 64zM528 712l-77 -118h-60l72 118h65z" />
    <glyph glyph-name="ncaron" unicode="&#x148;" horiz-adv-x="661" 
d="M548 342q13 79 -17 118t-85 39q-30 0 -60.5 -6t-58 -18t-50.5 -31.5t-38 -46.5l-70 -397h-66l78 443q6 35 -1.5 45.5t-19.5 10.5q-6 0 -10.5 -0.5t-10.5 -1.5v49q9 2 20.5 5.5t20.5 3.5q24 0 35 -6t15.5 -16.5t5 -25t3.5 -32.5q19 20 45 35.5t54.5 26t58.5 16t59 5.5
q52 0 85.5 -18.5t52 -48.5t22.5 -69t-3 -81l-39 -219q-8 -45 4.5 -59t60.5 -6l-6 -57q-34 -7 -61 -6.5t-44 12t-23.5 35.5t0.5 64zM320 740h65l72 -103l107 103h65l-77.5 -70l-78.5 -70h-48z" />
    <glyph glyph-name="ntilde" unicode="&#xf1;" horiz-adv-x="661" 
d="M548 342q13 79 -17 118t-85 39q-30 0 -60.5 -6t-58 -18t-50.5 -31.5t-38 -46.5l-70 -397h-66l78 443q6 35 -1.5 45.5t-19.5 10.5q-6 0 -10.5 -0.5t-10.5 -1.5v49q9 2 20.5 5.5t20.5 3.5q24 0 35 -6t15.5 -16.5t5 -25t3.5 -32.5q19 20 45 35.5t54.5 26t58.5 16t59 5.5
q52 0 85.5 -18.5t52 -48.5t22.5 -69t-3 -81l-39 -219q-8 -45 4.5 -59t60.5 -6l-6 -57q-34 -7 -61 -6.5t-44 12t-23.5 35.5t0.5 64zM321 676q18 16 31.5 25.5t24.5 14.5t21.5 6.5t22.5 1.5t24.5 -5t25 -11t26 -11t26.5 -5q11 0 31.5 6.5t42.5 25.5l12 -35
q-18 -16 -31.5 -25.5t-25 -15t-22 -7t-22.5 -1.5q-11 0 -24.5 5t-27 11t-26.5 11t-23 5h-11q-13 -2 -29.5 -9.5t-34.5 -22.5z" />
    <glyph glyph-name="hcircumflex" unicode="&#x125;" horiz-adv-x="649" 
d="M562 122q-6 -36 0 -52t34 -16q11 0 31 3l-6 -57q-30 -6 -55 -6q-42 0 -62.5 24.5t-9.5 86.5l32 184q13 75 8.5 117.5t-21 63t-41 25.5t-51.5 5t-57 -4t-56.5 -19t-46.5 -43.5t-29 -76.5l-62 -357h-67l125 712h-92l10 58h159l-49 -277q35 37 79.5 51t96.5 14
q103 0 145 -55t19 -187l-34 -194v0zM585 602h-65l-71 103l-108 -103h-65l154 140h48z" />
    <glyph glyph-name="napostrophe" unicode="&#x149;" horiz-adv-x="758" 
d="M645 342q13 79 -17 118t-85 39q-30 0 -60.5 -6t-58 -18t-50.5 -31.5t-38 -46.5l-70 -397h-66l78 443q6 35 -1.5 45.5t-19.5 10.5q-6 0 -10.5 -0.5t-10.5 -1.5v49q9 2 20.5 5.5t20.5 3.5q24 0 35 -6t15.5 -16.5t5 -25t3.5 -32.5q19 20 45 35.5t54.5 26t58.5 16t59 5.5
q52 0 85.5 -18.5t52 -48.5t22.5 -69t-3 -81l-39 -219q-8 -45 4.5 -59t60.5 -6l-6 -57q-34 -7 -61 -6.5t-44 12t-23.5 35.5t0.5 64zM140 625q4 24 19 37t36 13q29 0 36 -27q3 -5 3 -18.5t-2 -21.5q-8 -45 -34.5 -83.5t-81.5 -64.5l-13 25q18 14 30.5 25.5t20 22t11.5 21
t6 21.5q-17 2 -26 15t-5 35z" />
    <glyph glyph-name="ncommaaccent" unicode="&#x146;" horiz-adv-x="661" 
d="M548 342q13 79 -17 118t-85 39q-30 0 -60.5 -6t-58 -18t-50.5 -31.5t-38 -46.5l-70 -397h-66l78 443q6 35 -1.5 45.5t-19.5 10.5q-6 0 -10.5 -0.5t-10.5 -1.5v49q9 2 20.5 5.5t20.5 3.5q24 0 35 -6t15.5 -16.5t5 -25t3.5 -32.5q19 20 45 35.5t54.5 26t58.5 16t59 5.5
q52 0 85.5 -18.5t52 -48.5t22.5 -69t-3 -81l-39 -219q-8 -45 4.5 -59t60.5 -6l-6 -57q-34 -7 -61 -6.5t-44 12t-23.5 35.5t0.5 64zM280 -128q4 24 19 37t36 13q29 0 36 -27q3 -5 3 -18.5t-2 -21.5q-8 -45 -34.5 -83.5t-81.5 -64.5l-13 25q18 14 30.5 25.5t20 22t11.5 21
t6 21.5q-17 2 -26 15t-5 35z" />
    <glyph glyph-name="kcommaaccent" unicode="&#x137;" horiz-adv-x="658" 
d="M664 551l-11 -58h-77l-35 -33.5l-37 -35.5l-144 -148l150 -170q41 -46 72 -62l29 -16q-6 -11 -15.5 -25.5t-19.5 -14.5q-8 0 -20.5 2.5t-30 11.5t-38.5 25.5t-45 44.5l-106 121.5l-106 121.5l-30 -170q-8 -45 -18.5 -75.5t-21.5 -50t-21 -30t-16 -15.5l-19.5 6t-19.5 7
q11 15 24 49t22 88l104 587h-92l10 59h158l-65 -371l70 -79l232 231h117zM264 -128q4 24 19 37t36 13q29 0 36 -27q3 -5 3 -18.5t-2 -21.5q-8 -45 -34.5 -83.5t-81.5 -64.5l-13 25q18 14 30.5 25.5t20 22t11.5 21t6 21.5q-17 2 -26 15t-5 35z" />
    <glyph glyph-name="lacute" unicode="&#x13a;" horiz-adv-x="268" 
d="M132 712l10 58h159l-114 -646q-10 -56 -9 -89.5t6 -47.5q-11 -4 -21 -7l-21 -6q-8 5 -14.5 15.5t-10 29.5t-2.5 49.5t9 76.5l100 567h-92zM361 935l-77 -118h-60l72 118h65z" />
    <glyph glyph-name="lcommaaccent" unicode="&#x13c;" horiz-adv-x="268" 
d="M133 712l10 58h159l-114 -646q-10 -56 -9 -89.5t6 -47.5q-11 -4 -21 -7l-21 -6q-8 5 -14.5 15.5t-10 29.5t-2.5 49.5t9 76.5l100 567h-92zM70 -128q4 24 19 37t36 13q29 0 36 -27q3 -5 3 -18.5t-2 -21.5q-8 -45 -34.5 -83.5t-81.5 -64.5l-13 25q18 14 30.5 25.5t20 22
t11.5 21t6 21.5q-17 2 -26 15t-5 35z" />
    <glyph glyph-name="oacute" unicode="&#xf3;" horiz-adv-x="535" 
d="M93 313q13 77 40 125t63 74.5t79 36t89 9.5q45 0 84.5 -9.5t66.5 -36t37.5 -74.5t-2.5 -124l-15 -84q-14 -76 -40.5 -123t-62.5 -73t-79.5 -35t-89.5 -9t-86 9t-66.5 34.5t-36.5 72t4 121.5zM143 226q-11 -60 -2.5 -95.5t28.5 -54.5t48 -24.5t57 -5.5q27 0 56.5 5.5
t56.5 24t48.5 54t32.5 95.5l17 93q10 60 1.5 96.5t-29 56t-48.5 25.5t-55 6q-28 0 -57.5 -6.5t-56.5 -26t-48.5 -55.5t-31.5 -95zM450 712l-77 -118h-60l72 118h65z" />
    <glyph glyph-name="obreve" unicode="&#x14f;" horiz-adv-x="535" 
d="M93 313q13 77 40 125t63 74.5t79 36t89 9.5q45 0 84.5 -9.5t66.5 -36t37.5 -74.5t-2.5 -124l-15 -84q-14 -76 -40.5 -123t-62.5 -73t-79.5 -35t-89.5 -9t-86 9t-66.5 34.5t-36.5 72t4 121.5zM143 226q-11 -60 -2.5 -95.5t28.5 -54.5t48 -24.5t57 -5.5q27 0 56.5 5.5
t56.5 24t48.5 54t32.5 95.5l17 93q10 60 1.5 96.5t-29 56t-48.5 25.5t-55 6q-28 0 -57.5 -6.5t-56.5 -26t-48.5 -55.5t-31.5 -95zM372 599q-53 0 -87 33.5t-41 86.5l52 9q5 -37 27 -58.5t58 -21.5q38 0 68 22.5t48 57.5l46 -8q-12 -26 -30 -48.5t-40.5 -38.5t-48.5 -25
t-52 -9z" />
    <glyph glyph-name="ograve" unicode="&#xf2;" horiz-adv-x="535" 
d="M93 313q13 77 40 125t63 74.5t79 36t89 9.5q45 0 84.5 -9.5t66.5 -36t37.5 -74.5t-2.5 -124l-15 -84q-14 -76 -40.5 -123t-62.5 -73t-79.5 -35t-89.5 -9t-86 9t-66.5 34.5t-36.5 72t4 121.5zM143 226q-11 -60 -2.5 -95.5t28.5 -54.5t48 -24.5t57 -5.5q27 0 56.5 5.5
t56.5 24t48.5 54t32.5 95.5l17 93q10 60 1.5 96.5t-29 56t-48.5 25.5t-55 6q-28 0 -57.5 -6.5t-56.5 -26t-48.5 -55.5t-31.5 -95zM369 594l-18 58.5t-17 59.5h65l14.5 -59.5l15.5 -58.5h-60v0z" />
    <glyph glyph-name="otilde" unicode="&#xf5;" horiz-adv-x="535" 
d="M93 313q13 77 40 125t63 74.5t79 36t89 9.5q45 0 84.5 -9.5t66.5 -36t37.5 -74.5t-2.5 -124l-15 -84q-14 -76 -40.5 -123t-62.5 -73t-79.5 -35t-89.5 -9t-86 9t-66.5 34.5t-36.5 72t4 121.5zM143 226q-11 -60 -2.5 -95.5t28.5 -54.5t48 -24.5t57 -5.5q27 0 56.5 5.5
t56.5 24t48.5 54t32.5 95.5l17 93q10 60 1.5 96.5t-29 56t-48.5 25.5t-55 6q-28 0 -57.5 -6.5t-56.5 -26t-48.5 -55.5t-31.5 -95zM243 676q18 16 31.5 25.5t24.5 14.5t21.5 6.5t22.5 1.5t24.5 -5t25 -11t26 -11t26.5 -5q11 0 31.5 6.5t42.5 25.5l12 -35q-18 -16 -31.5 -25.5
t-25 -15t-22 -7t-22.5 -1.5q-11 0 -24.5 5t-27 11t-26.5 11t-23 5h-11q-13 -2 -29.5 -9.5t-34.5 -22.5z" />
    <glyph glyph-name="omacron" unicode="&#x14d;" horiz-adv-x="535" 
d="M93 313q13 77 40 125t63 74.5t79 36t89 9.5q45 0 84.5 -9.5t66.5 -36t37.5 -74.5t-2.5 -124l-15 -84q-14 -76 -40.5 -123t-62.5 -73t-79.5 -35t-89.5 -9t-86 9t-66.5 34.5t-36.5 72t4 121.5zM143 226q-11 -60 -2.5 -95.5t28.5 -54.5t48 -24.5t57 -5.5q27 0 56.5 5.5
t56.5 24t48.5 54t32.5 95.5l17 93q10 60 1.5 96.5t-29 56t-48.5 25.5t-55 6q-28 0 -57.5 -6.5t-56.5 -26t-48.5 -55.5t-31.5 -95zM210 710h364l-9 -50h-364z" />
    <glyph glyph-name="odieresis" unicode="&#xf6;" horiz-adv-x="535" 
d="M93 313q13 77 40 125t63 74.5t79 36t89 9.5q45 0 84.5 -9.5t66.5 -36t37.5 -74.5t-2.5 -124l-15 -84q-14 -76 -40.5 -123t-62.5 -73t-79.5 -35t-89.5 -9t-86 9t-66.5 34.5t-36.5 72t4 121.5zM143 226q-11 -60 -2.5 -95.5t28.5 -54.5t48 -24.5t57 -5.5q27 0 56.5 5.5
t56.5 24t48.5 54t32.5 95.5l17 93q10 60 1.5 96.5t-29 56t-48.5 25.5t-55 6q-28 0 -57.5 -6.5t-56.5 -26t-48.5 -55.5t-31.5 -95zM224 684q4 22 20 34t36 12t32 -12t8 -34t-20 -34t-36 -12t-32 12t-8 34zM453 684q4 22 20 34t37 12q20 0 32 -12t8 -34t-20 -34t-36 -12
q-21 0 -33 12t-8 34z" />
    <glyph glyph-name="ocircumflex" unicode="&#xf4;" horiz-adv-x="535" 
d="M93 313q13 77 40 125t63 74.5t79 36t89 9.5q45 0 84.5 -9.5t66.5 -36t37.5 -74.5t-2.5 -124l-15 -84q-14 -76 -40.5 -123t-62.5 -73t-79.5 -35t-89.5 -9t-86 9t-66.5 34.5t-36.5 72t4 121.5zM143 226q-11 -60 -2.5 -95.5t28.5 -54.5t48 -24.5t57 -5.5q27 0 56.5 5.5
t56.5 24t48.5 54t32.5 95.5l17 93q10 60 1.5 96.5t-29 56t-48.5 25.5t-55 6q-28 0 -57.5 -6.5t-56.5 -26t-48.5 -55.5t-31.5 -95zM528 602h-65l-71 103l-108 -103h-65l154 140h48z" />
    <glyph glyph-name="ohungarumlaut" unicode="&#x151;" horiz-adv-x="535" 
d="M93 313q13 77 40 125t63 74.5t79 36t89 9.5q45 0 84.5 -9.5t66.5 -36t37.5 -74.5t-2.5 -124l-15 -84q-14 -76 -40.5 -123t-62.5 -73t-79.5 -35t-89.5 -9t-86 9t-66.5 34.5t-36.5 72t4 121.5zM143 226q-11 -60 -2.5 -95.5t28.5 -54.5t48 -24.5t57 -5.5q27 0 56.5 5.5
t56.5 24t48.5 54t32.5 95.5l17 93q10 60 1.5 96.5t-29 56t-48.5 25.5t-55 6q-28 0 -57.5 -6.5t-56.5 -26t-48.5 -55.5t-31.5 -95zM378 717l-80 -120h-50l76 120h54zM518 717l-80 -120h-50l76 120h54z" />
    <glyph glyph-name="racute" unicode="&#x155;" horiz-adv-x="486" 
d="M540 440h-65l10 55q-17 2 -33.5 3.5t-36.5 1.5q-45 0 -86 -23t-65 -79l-70 -398h-66l86 493h-90q3 14 5.5 29t4.5 29h148l-10 -54q27 32 66.5 48.5t87.5 16.5q15 0 28.5 -0.5t29 -2.5t33.5 -6t42 -11zM426 712l-77 -118h-60l72 118h65z" />
    <glyph glyph-name="rcaron" unicode="&#x159;" horiz-adv-x="486" 
d="M540 440h-65l10 55q-17 2 -33.5 3.5t-36.5 1.5q-45 0 -86 -23t-65 -79l-70 -398h-66l86 493h-90q3 14 5.5 29t4.5 29h148l-10 -54q27 32 66.5 48.5t87.5 16.5q15 0 28.5 -0.5t29 -2.5t33.5 -6t42 -11zM218 740h65l72 -103l107 103h65l-77.5 -70l-78.5 -70h-48z" />
    <glyph glyph-name="rcommaaccent" unicode="&#x157;" horiz-adv-x="486" 
d="M540 440h-65l10 55q-17 2 -33.5 3.5t-36.5 1.5q-45 0 -86 -23t-65 -79l-70 -398h-66l86 493h-90q3 14 5.5 29t4.5 29h148l-10 -54q27 32 66.5 48.5t87.5 16.5q15 0 28.5 -0.5t29 -2.5t33.5 -6t42 -11zM178 -128q4 24 19 37t36 13q29 0 36 -27q3 -5 3 -18.5t-2 -21.5
q-8 -45 -34.5 -83.5t-81.5 -64.5l-13 25q18 14 30.5 25.5t20 22t11.5 21t6 21.5q-17 2 -26 15t-5 35z" />
    <glyph glyph-name="sacute" unicode="&#x15b;" horiz-adv-x="526" 
d="M467 415l13 76q-26 11 -55.5 13.5t-53.5 2.5q-32 0 -60.5 -4.5t-51 -15t-37 -26.5t-18.5 -38q-8 -48 19 -69t92 -29q18 -3 41.5 -5.5t48 -7.5t47 -14t38 -26t22.5 -42.5t1 -62.5q-16 -88 -83 -133t-167 -45q-44 0 -98.5 4.5t-108.5 21.5q8 32 12.5 62.5t10.5 62.5h66
l-13 -74q15 -5 32.5 -8.5t35.5 -6t35.5 -4t31.5 -1.5q42 0 73.5 11t53.5 28.5t34.5 40t16.5 45.5q5 28 -7.5 45t-35.5 26.5t-53.5 14.5t-60.5 9q-48 6 -79.5 18t-49 30.5t-22.5 44t1 57.5q14 80 77 113.5t166 33.5q34 0 74.5 -4t97.5 -21l-21 -123h-65zM446 712l-77 -118
h-60l72 118h65z" />
    <glyph glyph-name="scaron" unicode="&#x161;" horiz-adv-x="526" 
d="M467 415l13 76q-26 11 -55.5 13.5t-53.5 2.5q-32 0 -60.5 -4.5t-51 -15t-37 -26.5t-18.5 -38q-8 -48 19 -69t92 -29q18 -3 41.5 -5.5t48 -7.5t47 -14t38 -26t22.5 -42.5t1 -62.5q-16 -88 -83 -133t-167 -45q-44 0 -98.5 4.5t-108.5 21.5q8 32 12.5 62.5t10.5 62.5h66
l-13 -74q15 -5 32.5 -8.5t35.5 -6t35.5 -4t31.5 -1.5q42 0 73.5 11t53.5 28.5t34.5 40t16.5 45.5q5 28 -7.5 45t-35.5 26.5t-53.5 14.5t-60.5 9q-48 6 -79.5 18t-49 30.5t-22.5 44t1 57.5q14 80 77 113.5t166 33.5q34 0 74.5 -4t97.5 -21l-21 -123h-65zM238 740h65l72 -103
l107 103h65l-77.5 -70l-78.5 -70h-48z" />
    <glyph glyph-name="tcommaaccent" unicode="&#x163;" horiz-adv-x="379" 
d="M281 713q16 2 31.5 4.5t31.5 5.5l-30 -169h123l-11 -61h-123l-69 -393q-5 -32 5 -40.5t22 -8.5q11 0 30 2t48 8q0 -14 0.5 -27t1.5 -27q-30 -5 -57 -9t-50 -4q-29 0 -44.5 9.5t-21 28.5t-3 47.5t9.5 67.5l61 346h-102l25 61h65q23 26 36 67.5t21 91.5zM140 -128
q4 24 19 37t36 13q29 0 36 -27q3 -5 3 -18.5t-2 -21.5q-8 -45 -34.5 -83.5t-81.5 -64.5l-13 25q18 14 30.5 25.5t20 22t11.5 21t6 21.5q-17 2 -26 15t-5 35z" />
    <glyph glyph-name="uring" unicode="&#x16f;" 
d="M488 550h145l-77 -440q-11 -58 21 -58q9 0 21 3.5t26 8.5q0 -12 0.5 -26t2.5 -25q-28 -10 -47.5 -13.5t-35.5 -3.5q-26 0 -41 13t-11 50q-33 -39 -83.5 -52.5t-103.5 -13.5q-42 0 -78.5 9t-61.5 35t-34 72.5t4 121.5l46 262h-76l11 58h143l-56 -315q-10 -57 -5.5 -93
t20.5 -56.5t41.5 -28.5t56.5 -8q27 0 57 3.5t56 17.5t46.5 43.5t29.5 80.5l52 298h-79zM420 595q-21 0 -37.5 7.5t-27.5 20.5t-15.5 31t-0.5 39q3 20 14 38t26.5 31.5t35 21t40.5 7.5q42 0 65 -28.5t16 -69.5q-8 -42 -41 -70t-75 -28zM427 632q26 0 45 17t24 44
q5 26 -8.5 43t-39.5 17t-45 -17t-24 -43q-5 -27 8.5 -44t39.5 -17z" />
    <glyph glyph-name="uacute" unicode="&#xfa;" 
d="M488 550h145l-77 -440q-11 -58 21 -58q9 0 21 3.5t26 8.5q0 -12 0.5 -26t2.5 -25q-28 -10 -47.5 -13.5t-35.5 -3.5q-26 0 -41 13t-11 50q-33 -39 -83.5 -52.5t-103.5 -13.5q-42 0 -78.5 9t-61.5 35t-34 72.5t4 121.5l46 262h-76l11 58h143l-56 -315q-10 -57 -5.5 -93
t20.5 -56.5t41.5 -28.5t56.5 -8q27 0 57 3.5t56 17.5t46.5 43.5t29.5 80.5l52 298h-79zM499 712l-77 -118h-60l72 118h65z" />
    <glyph glyph-name="ubreve" unicode="&#x16d;" 
d="M488 550h145l-77 -440q-11 -58 21 -58q9 0 21 3.5t26 8.5q0 -12 0.5 -26t2.5 -25q-28 -10 -47.5 -13.5t-35.5 -3.5q-26 0 -41 13t-11 50q-33 -39 -83.5 -52.5t-103.5 -13.5q-42 0 -78.5 9t-61.5 35t-34 72.5t4 121.5l46 262h-76l11 58h143l-56 -315q-10 -57 -5.5 -93
t20.5 -56.5t41.5 -28.5t56.5 -8q27 0 57 3.5t56 17.5t46.5 43.5t29.5 80.5l52 298h-79zM420 599q-53 0 -87 33.5t-41 86.5l52 9q5 -37 27 -58.5t58 -21.5q38 0 68 22.5t48 57.5l46 -8q-12 -26 -30 -48.5t-40.5 -38.5t-48.5 -25t-52 -9z" />
    <glyph glyph-name="ugrave" unicode="&#xf9;" 
d="M488 550h145l-77 -440q-11 -58 21 -58q9 0 21 3.5t26 8.5q0 -12 0.5 -26t2.5 -25q-28 -10 -47.5 -13.5t-35.5 -3.5q-26 0 -41 13t-11 50q-33 -39 -83.5 -52.5t-103.5 -13.5q-42 0 -78.5 9t-61.5 35t-34 72.5t4 121.5l46 262h-76l11 58h143l-56 -315q-10 -57 -5.5 -93
t20.5 -56.5t41.5 -28.5t56.5 -8q27 0 57 3.5t56 17.5t46.5 43.5t29.5 80.5l52 298h-79zM418 594l-18 58.5t-17 59.5h65l14.5 -59.5l15.5 -58.5h-60v0z" />
    <glyph glyph-name="utilde" unicode="&#x169;" 
d="M488 550h145l-77 -440q-11 -58 21 -58q9 0 21 3.5t26 8.5q0 -12 0.5 -26t2.5 -25q-28 -10 -47.5 -13.5t-35.5 -3.5q-26 0 -41 13t-11 50q-33 -39 -83.5 -52.5t-103.5 -13.5q-42 0 -78.5 9t-61.5 35t-34 72.5t4 121.5l46 262h-76l11 58h143l-56 -315q-10 -57 -5.5 -93
t20.5 -56.5t41.5 -28.5t56.5 -8q27 0 57 3.5t56 17.5t46.5 43.5t29.5 80.5l52 298h-79zM292 676q18 16 31.5 25.5t24.5 14.5t21.5 6.5t22.5 1.5t24.5 -5t25 -11t26 -11t26.5 -5q11 0 31.5 6.5t42.5 25.5l12 -35q-18 -16 -31.5 -25.5t-25 -15t-22 -7t-22.5 -1.5
q-11 0 -24.5 5t-27 11t-26.5 11t-23 5h-11q-13 -2 -29.5 -9.5t-34.5 -22.5z" />
    <glyph glyph-name="yacute" unicode="&#xfd;" horiz-adv-x="649" 
d="M495 56q-33 -36 -78 -49.5t-96 -13.5q-44 0 -79.5 9t-58 35t-30 72.5t5.5 121.5l46 262h-77l11 58h142l-55 -309q-10 -58 -6 -95t19 -58.5t39 -30t54 -8.5q28 0 58 3.5t55.5 18.5t45.5 44.5t29 81.5l52 295h-96l11 58h163l-91 -516q-14 -78 -41 -126.5t-62.5 -76
t-78 -37.5t-87.5 -10q-62 0 -111 16.5t-74 63.5l41 47q11 -23 28 -36t36.5 -20t41.5 -9t43 -2q24 0 53.5 4t57 20.5t49.5 49.5t32 91zM488 712l-77 -118h-60l72 118h65z" />
    </font>
</defs>
</svg>
