<?xml version="1.0" standalone="no"?>
<!DOCTYPE svg PUBLIC "-//W3C//DTD SVG 1.1//EN" "http://www.w3.org/Graphics/SVG/1.1/DTD/svg11.dtd" >
<svg>
<metadata>
Created by FontForge 20090622 at Mon Nov 13 22:06:30 2017
 By deploy user
Copyright (c) 2014 by Zetafonts. All rights reserved.
</metadata>
<defs>
<font id="AmazingGrotesk-DemiBoldItalic" horiz-adv-x="316" >
  <font-face 
    font-family="Amazing Grotesk"
    font-weight="600"
    font-style="italic"
    font-stretch="normal"
    units-per-em="1000"
    panose-1="2 0 7 3 0 0 0 9 0 4"
    ascent="800"
    descent="-200"
    x-height="551"
    cap-height="710"
    bbox="-99 -314 1330.63 966"
    underline-thickness="50"
    underline-position="-50"
    slope="-12"
    unicode-range="U+000D-U+FB06"
  />
<missing-glyph horiz-adv-x="260" 
 />
    <glyph glyph-name=".notdef" horiz-adv-x="260" 
 />
    <glyph glyph-name=".null.001" horiz-adv-x="0" 
 />
    <glyph glyph-name=".null.001" horiz-adv-x="0" 
 />
    <glyph glyph-name="nonmarkingreturn" unicode="&#xd;" horiz-adv-x="285" 
 />
    <glyph glyph-name="space" unicode=" " horiz-adv-x="285" 
 />
    <glyph glyph-name="B" unicode="B" horiz-adv-x="685" 
d="M157 623l16 87h283q39 0 84.5 -3.5t83 -20t58 -51.5t9.5 -97l-5 -30q-9 -51 -37.5 -81.5t-68.5 -46.5q55 -20 81 -58t13 -109l-6 -36q-9 -52 -35 -86t-62 -54.5t-79 -28.5t-87 -8h-335l15 86h46l94 537h-68zM557 206q11 65 -24.5 96t-110.5 31h-132l-43 -247h118
q31 0 62.5 2.5t57.5 14.5t45 36t27 67zM574 521q6 35 -1.5 55t-25 30.5t-43.5 13.5t-57 3h-106l-37 -209h103q28 0 55.5 3.5t50 14.5t39 32t22.5 57z" />
    <glyph glyph-name="D" unicode="D" horiz-adv-x="695" 
d="M157 623l16 87h304q58 0 110 -8t87 -38.5t48.5 -90.5t-4.5 -163l-22 -123q-17 -96 -53.5 -153t-84 -87t-101.5 -38.5t-106 -8.5h-281l15 86h46l94 537h-68zM602 407q13 76 4.5 119.5t-30 65t-51 26.5t-56.5 5h-133l-94 -537h123q33 0 66.5 7.5t63.5 31t53.5 66.5
t35.5 115z" />
    <glyph glyph-name="E" unicode="E" horiz-adv-x="621" 
d="M157 623l16 87h511l-25 -138h-88l9 51h-239l-38 -219h230l-16 -88h-230l-40 -230h249l9 52h88l-24 -138h-498l15 86h46l94 537h-69z" />
    <glyph glyph-name="F" unicode="F" horiz-adv-x="571" 
d="M157 623l16 87h506l-25 -138h-87l9 51h-234l-40 -227h225l-15 -88h-225l-39 -222h78l-15 -86h-263l15 86h69l94 537h-69z" />
    <glyph glyph-name="H" unicode="H" horiz-adv-x="760" 
d="M570 623l16 87h253l-16 -87h-68l-94 -537h68l-15 -86h-253l15 86h69l40 231h-298l-40 -231h68l-15 -86h-252l15 86h68l94 537h-68l16 87h252l-16 -87h-68l-38 -218h298l38 218h-69z" />
    <glyph glyph-name="I" unicode="I" horiz-adv-x="312" 
d="M142 623l16 87h252l-16 -87h-68l-94 -537h68l-15 -86h-252l15 86h68l94 537h-68z" />
    <glyph glyph-name="J" unicode="J" horiz-adv-x="278" 
d="M362 710l-100 -568q-18 -104 -50 -166.5t-75.5 -91.5t-97.5 -28.5t-115 23.5l26.5 46.5t27.5 51.5q11 -7 26 -10.5t27 -3.5q31 0 51 16t32.5 42t20 59t13.5 68l83 475h-74l16 87h189z" />
    <glyph glyph-name="L" unicode="L" horiz-adv-x="595" 
d="M568 0h-498l15 86h46l94 537h-68l16 87h225l-16 -87h-46l-94 -537h252q8 15 13.5 34.5t9.5 43.5h79z" />
    <glyph glyph-name="M" unicode="M" horiz-adv-x="930" 
d="M66 0l15 86h46l105 538h-68l15 86h219l113 -444l283 444h215l-15 -86h-68l-21.5 -136.5l-21 -132.5l-21 -133l-21.5 -136h46l-15 -86h-157l88 555l-269 -426h-92l-111 428l-24 -121.5l-25 -125.5l-27 -141.5l-30 -168.5h-159z" />
    <glyph glyph-name="N" unicode="N" horiz-adv-x="801" 
d="M158 624l15 86h190l250 -540l81 454h-68l15 86h252l-15 -86h-68l-95 -538h68l-15 -86h-189l-252 540l-95 -540h-167l15 86h51l95 538h-68z" />
    <glyph glyph-name="K" unicode="K" horiz-adv-x="740" 
d="M226 623h-74l16 87h190l-43 -243l54 -58l315 301h136l-19 -87q-21 0 -36 -3t-26.5 -9t-21.5 -14.5l-22 -19.5l-261 -238l218 -236q21 -20 34.5 -29.5t23.5 -12.5l-21 -33l-21 -33q-12 -3 -22 -3q-11 0 -24.5 2.5t-30 10.5t-36 23t-42.5 41l-225 246l-30 -169
q-8 -45 -20.5 -76t-26 -51t-26 -30t-19.5 -14l-70 26q8 12 21 44.5t22 83.5z" />
    <glyph glyph-name="V" unicode="V" horiz-adv-x="708" 
d="M128 623l16 87h163l72 -558l138 279l139 279h158l-16 -87h-69l-157 -311.5l-158 -311.5h-121l-47 311.5l-47 311.5h-71z" />
    <glyph glyph-name="X" unicode="X" horiz-adv-x="712" 
d="M800 710l-15 -86q-10 0 -18.5 -1t-18 -4t-21 -9.5t-26.5 -18.5l-109.5 -118.5l-110.5 -117.5l157 -269h52l-15 -86h-123l-153 265l-245 -265h-120l15 86q10 0 18.5 1t19 6.5t25.5 17t38 32.5l99.5 105.5l98.5 106.5l-77.5 134l-77.5 135h-49l15 86h120l152 -266l247 266
h122z" />
    <glyph glyph-name="Y" unicode="Y" horiz-adv-x="686" 
d="M125 623l16 87h148l120 -280l239 280h143l-16 -87h-78l-247 -296l-42 -241h69l-15 -86h-253l15 86h69l42 240l-130 297h-80z" />
    <glyph glyph-name="Z" unicode="Z" horiz-adv-x="673" 
d="M50 92l540 531h-348q-8 -17 -12.5 -35.5t-9.5 -43.5h-76l30 166h585l-15 -86l-541 -532h367q8 17 13 35t10 44h76l-30 -171h-605z" />
    <glyph glyph-name="P" unicode="P" horiz-adv-x="649" 
d="M157 623l16 87h281q65 0 115.5 -10t83.5 -34t45.5 -63.5t2.5 -99.5l-5 -31q-11 -58 -39 -95.5t-69.5 -59t-93.5 -29.5t-110 -8h-103l-34 -194h46l-15 -86h-208l15 86h46l94 537h-68zM583 486q7 42 0 68.5t-25.5 42t-47 21t-64.5 5.5h-105l-46 -262h103q34 0 64.5 4.5
t55 18t41.5 38t24 64.5z" />
    <glyph glyph-name="U" unicode="U" horiz-adv-x="736" 
d="M805 625h-44l-60 -339q-17 -97 -54 -155.5t-84 -90t-99 -41.5t-100 -10t-96.5 10t-84.5 41.5t-52 90t1 155.5l60 339h-44l15 85h160l-73 -411q-13 -74 -5.5 -117.5t27 -66.5t48.5 -30t59 -7q25 0 55.5 5.5t60 27.5t54 66.5t38.5 121.5l73 411h160z" />
    <glyph glyph-name="O" unicode="O" horiz-adv-x="664" 
d="M459 720q51 0 100.5 -10t85.5 -41.5t51.5 -90.5t-1.5 -156l-22 -125q-17 -98 -51.5 -158t-80 -93.5t-99.5 -45t-111 -11.5t-107 11.5t-84 45t-46.5 94t4.5 157.5l22 125q17 97 53.5 156t83 90.5t99.5 41.5t103 10zM444 633q-39 0 -71.5 -11t-59 -38.5t-46.5 -73.5
t-32 -116l-16 -89q-12 -69 -8 -113t21.5 -69.5t46.5 -35.5t67 -10t70.5 10t59 35.5t46.5 69.5t32 113l16 89q12 70 8.5 116t-20.5 73.5t-46 38.5t-68 11z" />
    <glyph glyph-name="Q" unicode="Q" horiz-adv-x="664" 
d="M459 720q51 0 100.5 -10t85.5 -41.5t51.5 -90.5t-1.5 -156l-22 -125q-15 -86 -43.5 -143t-66.5 -91.5t-83 -50.5t-94 -20l-22 -126l-55 10l-55 10l19 107q-47 4 -86 20.5t-63.5 51t-32.5 91t7 141.5l22 125q17 97 53.5 156t83 90.5t99.5 41.5t103 10zM444 633
q-39 0 -71.5 -11t-59 -38.5t-46.5 -73.5t-32 -116l-16 -89q-12 -69 -8 -113t21.5 -69.5t46.5 -35.5t67 -10t70.5 10t59 35.5t46.5 69.5t32 113l16 89q12 70 8.5 116t-20.5 73.5t-46 38.5t-68 11z" />
    <glyph glyph-name="G" unicode="G" horiz-adv-x="638" 
d="M573 525l10 74q-26 14 -59 24.5t-69 10.5q-40 0 -74 -9.5t-61.5 -36t-48 -72t-33.5 -117.5l-16 -92q-12 -68 -8.5 -112.5t21 -70.5t48 -36.5t72.5 -10.5q44 0 79 7.5t63 15.5q0 27 7 59l13 76h-73l15 84h184l-32 -181q-10 -54 -9.5 -84.5t6.5 -43.5q-35 -12 -72 -22
q-6 2 -12.5 9t-10.5 22q-35 -11 -77 -20.5t-96 -9.5q-60 0 -111.5 11t-86.5 43t-48.5 91.5t3.5 157.5l18 102q18 102 51 166t78.5 99.5t101.5 48.5t120 13q50 0 104.5 -8t111.5 -27l-35 -161h-74z" />
    <glyph glyph-name="R" unicode="R" horiz-adv-x="683" 
d="M386 273q-9 -1 -16.5 -1h-15.5h-86l-32 -186h46l-15 -86h-203l15 86h46l94 537h-68l16 87h280q59 0 111.5 -7.5t89.5 -30t54.5 -63t5.5 -105.5l-7 -40q-7 -41 -24 -71.5t-41.5 -52t-56.5 -35.5t-69 -21l90 -153q23 -40 43.5 -58.5t39.5 -28.5l-53 -59h-6q-6 0 -19.5 2
t-31.5 12t-38.5 29.5t-41.5 55.5zM589 482q8 46 -1.5 74t-32 43t-56 19.5t-73.5 4.5h-96l-47 -271h95q34 0 67.5 3.5t62.5 16.5t50.5 39t30.5 71z" />
    <glyph glyph-name="S" unicode="S" horiz-adv-x="604" 
d="M528 550l6 61q-12 4 -27.5 7t-31 5t-30.5 2.5t-25 0.5q-22 0 -49 -3.5t-51 -13t-42 -26t-22 -43.5q-9 -49 29 -77.5t119 -47.5q32 -5 69 -18t66.5 -38.5t45.5 -65.5t6 -99q-9 -50 -39 -88t-73 -64t-96 -39.5t-107 -13.5q-61 0 -121.5 7.5t-113.5 26.5l42 153h82l-13 -71
q11 -4 26 -7t30.5 -5.5t31.5 -3.5t29 -1q81 0 133 29t60 74q6 34 -3 56.5t-29.5 37t-49.5 23.5t-63 17q-208 48 -178 215q9 50 34 84.5t63.5 56.5t89 31.5t110.5 9.5q48 0 99.5 -6.5t114.5 -23.5q-11 -36 -24 -72.5t-22 -72.5z" />
    <glyph glyph-name="b" unicode="b" horiz-adv-x="622" 
d="M348 770l-43 -246q14 11 49.5 23t94.5 12q41 0 79 -10.5t64.5 -38t37.5 -75.5t-2 -122l-15 -82q-14 -76 -41.5 -123.5t-64 -73.5t-78 -35.5t-82.5 -9.5q-32 0 -55.5 2.5t-41.5 7t-32.5 10.5t-26.5 12q-11 -20 -23 -31t-23 -16l-64 23q6 10 19 41t24 87l98 561h-73l15 84
h184zM242 168q-3 -19 -6.5 -34t-7.5 -29l19.5 -10.5t24 -10t31.5 -7t43 -2.5q28 0 53 6.5t46 25.5t37 54t26 91l7 42q10 55 4.5 89.5t-20.5 54t-38.5 26t-49.5 6.5q-35 0 -66.5 -9t-54.5 -22z" />
    <glyph glyph-name="d" unicode="d" horiz-adv-x="624" 
d="M460 685l15 85h184l-113 -643q-5 -28 1 -39t22 -11q8 0 18 1t23 6l-3 -68l-36 -12q-21 -7 -42 -7q-27 0 -44 7t-29 24q-29 -15 -70 -27t-110 -12q-39 0 -78 8.5t-66.5 34.5t-40 73.5t1.5 125.5l10 58q15 83 42 135.5t62.5 82.5t78 41t87.5 11q59 0 90 -12t42 -23l28 161
h-73zM490 439q-17 12 -46.5 21.5t-64.5 9.5q-30 0 -56.5 -7.5t-47.5 -29t-37.5 -60t-27.5 -100.5q-11 -63 -9.5 -102t14 -60.5t36 -28.5t55.5 -7q48 0 76.5 9.5t48.5 19.5z" />
    <glyph glyph-name="e" unicode="e" horiz-adv-x="565" 
d="M304 -11q-44 0 -88 11.5t-76 41t-47.5 79t-1.5 125.5l14 80q13 76 44.5 122t72 71t86.5 32.5t88 7.5q41 0 79 -11t65.5 -32t43 -52t11.5 -71q-4 -45 -26 -75t-55.5 -47.5t-75 -25t-84.5 -9t-84 1.5t-73 6q-9 -47 0 -79t27.5 -51t42.5 -27t46 -8q61 0 101.5 5t74.5 12
l17 -73q-40 -17 -93 -25.5t-109 -8.5zM376 477q-25 0 -49.5 -4.5t-46.5 -21t-40 -48t-28 -84.5q13 -1 38.5 -3.5t56 -4t62 0.5t57.5 11t42.5 26.5t16.5 47.5q0 46 -31 63t-78 17z" />
    <glyph glyph-name="k" unicode="k" horiz-adv-x="679" 
d="M681 551l-16 -87h-52l-198 -188l134 -147q34 -37 60 -53t37 -18l-42 -67q-11 -4 -26 -4q-19 0 -53.5 13.5t-77.5 60.5l-190 211l-22 -127q-8 -45 -20.5 -76t-26 -51t-26 -30t-19.5 -14l-65 22q9 12 21.5 44.5t21.5 83.5l99 559h-74l15 87h184l-62 -352l65 -68l207 201
h126z" />
    <glyph glyph-name="l" unicode="l" horiz-adv-x="280" 
d="M129 683l15 87h184l-114 -646q-9 -54 -8 -87t6 -41l-72 -22q-11 5 -20 15.5t-14.5 30t-6 50t7.5 75.5l95 538h-73z" />
    <glyph glyph-name="m" unicode="m" horiz-adv-x="908" 
d="M766 337q13 73 -4.5 103t-74.5 30q-34 0 -65.5 -16t-54.5 -42q-5 -31 -9.5 -64.5t-10.5 -68.5l-49 -279h-106l51 293q8 43 11 76.5t-2 55.5t-21.5 33.5t-47.5 11.5q-35 0 -66 -14.5t-57 -38.5l-73 -417h-110l73 416q5 27 0 41t-23 14q-8 0 -12 -1t-9 -1q0 -1 0.5 10
t1.5 25q1 16 3 36q11 5 25.5 8.5t30.5 3.5q30 0 49.5 -9.5t23.5 -39.5q36 26 80 41t83 15q43 0 79.5 -14t56.5 -52q39 29 83 48t94 19q60 0 94.5 -19.5t51 -49t18.5 -64.5t-4 -66l-33 -188q-5 -28 -7 -45.5t0 -28t8.5 -14.5t17.5 -4q7 0 15 1t19 3l-3 -80q-21 -6 -40.5 -9.5
t-36.5 -3.5q-26 0 -44.5 8.5t-29.5 28.5t-13 52.5t6 79.5l31 176v0z" />
    <glyph glyph-name="o" unicode="o" horiz-adv-x="545" 
d="M91 320q13 77 42.5 124t68 72.5t82.5 34t87 8.5q42 0 83 -8.5t70 -34t42 -72.5t0 -123l-18 -101q-13 -75 -41 -120.5t-65.5 -69.5t-81.5 -31.5t-90 -7.5q-45 0 -86.5 7.5t-70.5 31t-41 68.5t1 120zM185 231q-9 -53 -3 -83.5t21 -47t37 -21t45 -4.5q22 0 45.5 4.5t45 20.5
t39 46.5t26.5 83.5l15 84q9 52 2.5 84t-22.5 48.5t-37.5 22t-42.5 5.5t-45 -5.5t-45.5 -22.5t-39 -48.5t-26.5 -83.5z" />
    <glyph glyph-name="x" unicode="x" horiz-adv-x="631" 
d="M691 551l-16 -87q-15 0 -31.5 -2.5t-37.5 -13.5l-39 -39l-68.5 -67.5l-68.5 -66.5l127 -189h52l-15 -86h-123l-127 191l-192 -191h-121l15 86q20 0 35 4t37 18l170 167l-126 189h-50l16 87h120l63 -96.5l63 -96.5l195 193h122z" />
    <glyph glyph-name="v" unicode="v" horiz-adv-x="599" 
d="M680 551l-16 -87h-66l-237 -464h-136l-66 464h-65l16 87h157q11 -109 23 -217l24 -217l104.5 217l105.5 217h156z" />
    <glyph glyph-name="u" unicode="u" horiz-adv-x="636" 
d="M641 550l-73 -415q-5 -29 1.5 -44.5t24.5 -15.5q14 0 34 10l4 -70q-18 -8 -44 -16t-49 -8q-26 0 -47 12t-20 38q-14 -16 -34 -26t-43.5 -15t-48.5 -7t-47 -2q-39 0 -75 10t-61.5 36t-35.5 71.5t2 116.5l42 240h-64l16 86h175l-54 -304q-9 -51 -8.5 -83t10 -50t29.5 -24.5
t50 -6.5q20 0 42.5 4.5t42.5 16t35.5 31t20.5 48.5l65 368z" />
    <glyph glyph-name="y" unicode="y" horiz-adv-x="637" 
d="M641 550l-91 -525q-12 -69 -41.5 -115t-67.5 -73.5t-80.5 -39t-82.5 -11.5q-66 0 -118 15t-83 53l52 74q32 -34 70 -42t80 -8q16 0 40.5 6t49.5 20t44.5 36t25.5 54l8 44q-26 -32 -64.5 -39.5t-83.5 -7.5q-39 0 -75 10t-61.5 36t-35.5 71t2 116l42 241h-64l16 86h175
l-55 -309q-8 -47 -7.5 -78t10.5 -49t29.5 -25t49.5 -7q20 0 42.5 4.5t42.5 16t35.5 31t20.5 48.5l65 368z" />
    <glyph glyph-name="w" unicode="w" horiz-adv-x="915" 
d="M995 551l-16 -87h-66l-237 -464h-129l-40 285l-147 -285h-128l-66 464h-65l16 87h157q11 -109 23 -217l24 -217l81 169l82 169l-12 95h108l25 -216.5t23 -216.5l105.5 217l104.5 217h157z" />
    <glyph glyph-name="z" unicode="z" horiz-adv-x="597" 
d="M80 87l197 189l198 189h-245q-8 -16 -12 -33.5t-9 -41.5h-76l29 161h471l-16 -86l-394 -378h250q8 15 12.5 32.5t9.5 41.5h76l-28 -161h-478z" />
    <glyph glyph-name="t" unicode="t" horiz-adv-x="378" 
d="M349 721l-30 -168h116l-16 -89h-117l-59 -334q-9 -52 25 -52q15 0 33 3t44 8l-3 -79l-55 -11.5t-63 -6.5q-60 0 -79 47t-5 127l52 298h-89l24 89h70q13 20 25.5 56t23.5 102z" />
    <glyph glyph-name="f" unicode="f" horiz-adv-x="365" 
d="M168 432h-46l15 88h47l7 35q13 57 34 94t55.5 58.5t85.5 30t123 8.5l-15 -85q-35 0 -63.5 -3t-50.5 -16t-37.5 -39t-25.5 -72l-1 -11h106l-15 -88h-107l-74 -425q-12 -68 -32 -111.5t-55 -69t-88 -35.5t-130 -10l15 85q36 0 64.5 3t51 17t38.5 42.5t25 78.5z" />
    <glyph glyph-name="h" unicode="h" horiz-adv-x="639" 
d="M504 337q13 73 -9.5 103t-79.5 30q-42 0 -84 -17.5t-64 -52.5l-70 -400h-110l120 683h-74l15 87h184l-44 -249q35 20 74.5 29.5t81.5 9.5q60 0 96 -19.5t54.5 -49t22 -64.5t-2.5 -66l-33 -188q-6 -36 -7.5 -55.5t4.5 -28t19.5 -8t36.5 3.5l-3 -80q-42 -12 -76.5 -13
t-56 15.5t-29 53.5t3.5 100l31 176v0z" />
    <glyph glyph-name="j" unicode="j" horiz-adv-x="286" 
d="M309 551l-110 -624q-9 -48 -21 -79.5t-25 -51t-25.5 -28.5t-22.5 -13l-64 22q7 11 20 42t23 87l98 558h-73l16 87h184zM193 690q6 33 30 49t56 16q31 0 49.5 -15t12.5 -50t-30 -50.5t-55 -15.5q-32 0 -50.5 15t-12.5 51z" />
    <glyph glyph-name="s" unicode="s" horiz-adv-x="563" 
d="M461 401l10 57q-18 8 -42 13t-50 5q-58 0 -93 -17t-40 -46q-5 -32 15.5 -48.5t72.5 -25.5q29 -8 69 -14t74.5 -21t54.5 -46t10 -89q-16 -91 -82 -135.5t-173 -44.5q-65 0 -119.5 7t-101.5 20l36 145h85l-10 -57q17 -8 45 -15.5t66 -7.5q45 0 72.5 11t42.5 25.5t20 29
t6 21.5q3 19 -5.5 32t-28 21.5t-47.5 14.5t-64 12q-89 16 -123.5 52t-22.5 103q8 46 29 76.5t54 49.5t76.5 27t96.5 8q38 0 80 -5.5t99 -19.5l-34 -138h-78z" />
    <glyph glyph-name="r" unicode="r" horiz-adv-x="450" 
d="M501 427l-78 -6l2 41q-19 0 -42.5 -2.5t-45 -10t-37 -21t-19.5 -35.5l-69 -393h-111l78 444l-67 -5l11 78q32 11 67.5 18t73.5 12l-9 -52q30 29 69 46.5t95 17.5q24 0 49.5 -2.5t53.5 -8.5z" />
    <glyph glyph-name="g" unicode="g" horiz-adv-x="569" 
d="M508 35q-15 -85 -48 -134.5t-73.5 -75t-83.5 -32.5t-79 -7q-62 0 -109 14t-76 52l44 63q41 -20 76.5 -28.5t77.5 -8.5q24 0 47.5 5t43 17.5t35 35.5t23.5 59q3 5 4.5 10t2.5 10q-14 -8 -48.5 -17t-91.5 -9q-36 0 -69.5 7t-59.5 25.5t-42 51.5t-16 84q0 31 6 69l15 84
q13 77 41.5 125.5t65 76.5t78.5 38t83 10q29 0 62.5 -8t66 -20t59.5 -27t43 -30zM467 436q-17 14 -45.5 24.5t-65.5 10.5q-27 0 -52 -7t-46.5 -26.5t-38 -54.5t-26.5 -91l-7 -42q-3 -19 -5 -34.5t-2 -29.5q0 -34 9 -54.5t24.5 -32t36 -15t42.5 -3.5q44 0 70.5 5.5t46.5 14.5
z" />
    <glyph glyph-name="one" unicode="1" horiz-adv-x="384" 
d="M153 623l16 87h203l-110 -624h68l-15 -86h-252l15 86h68l85 485q1 16 -1 28.5t-11 23.5h-66z" />
    <glyph glyph-name="two" unicode="2" horiz-adv-x="653" 
d="M76 92l353 287l54.5 43.5t37.5 36t23 37t13 45.5q4 22 -4 38.5t-24.5 26.5t-41 15t-53.5 5q-15 0 -35 -2t-41 -6t-41 -10.5t-35 -16.5q-6 -33 -9 -70q-39 -13 -78 -23q-2 38 -3.5 76t-3.5 76q74 29 140.5 48t116.5 19q25 0 53.5 -1.5t56.5 -7t53.5 -17t43 -31t25 -49
t0.5 -70.5l-3 -17q-6 -35 -27.5 -65t-53 -58t-70.5 -56.5l-81 -61.5l-241 -191h335q9 17 13.5 35t9.5 44h76l-30 -171h-545z" />
    <glyph glyph-name="zero" unicode="0" horiz-adv-x="664" 
d="M455 720q52 0 101 -10t83 -41.5t48 -90.5t-3 -156l-22 -125q-17 -98 -50 -158t-77 -93.5t-97.5 -45t-111.5 -11.5q-60 0 -109.5 11.5t-81.5 45t-43 93.5t6 156l22 126q17 98 51.5 157t80 90.5t98 41.5t105.5 10zM440 633q-38 0 -70 -11t-58 -37t-45 -71t-31 -112l-17 -98
q-12 -70 -8.5 -114.5t20.5 -69.5t45.5 -34t65.5 -9q34 0 65 9t57 34t46.5 69t32.5 114l17 98q12 68 8.5 112.5t-20 71t-44.5 37.5t-64 11z" />
    <glyph glyph-name="three" unicode="3" horiz-adv-x="617" 
d="M522 521q6 34 0.5 55t-21 32t-39.5 14.5t-54 3.5h-2q-36 -1 -76.5 -6.5t-65.5 -22.5q-3 -17 -5.5 -33.5t-4.5 -33.5l-80 -15q2 39 3.5 78t2.5 78q66 18 121 30.5t106 12.5h3q36 0 81 -4t82 -21.5t58 -52.5t10 -97l-2 -10q-11 -57 -38.5 -89.5t-76.5 -53.5
q52 -20 76.5 -60t11.5 -112l-3 -21q-9 -53 -38 -91.5t-70.5 -63.5t-93 -37t-106.5 -12q-75 0 -140 17t-108 37l45 75l40 -15.5t43 -13.5t51 -10t64 -4q27 0 59 6.5t61 21.5t51 40.5t29 63.5q11 65 -24.5 96t-110.5 31h-52q-2 20 -2.5 40t-2.5 40h65q26 0 51 4t46 16t35.5 33
t20.5 54z" />
    <glyph glyph-name="four" unicode="4" horiz-adv-x="670" 
d="M562 -20l-107 20l19 109h-396l15 87l422 514h128l-423 -514h269l10 56q10 55 8 86.5t-5 42.5l72 22q9 -5 17.5 -17.5t13 -36.5t4 -61.5t-8.5 -91.5h97l-15 -87h-97z" />
    <glyph glyph-name="five" unicode="5" horiz-adv-x="609" 
d="M187 710h480l-29 -160h-76q5 25 6 42t-4 31h-296l-35 -200l24.5 5.5t25 5t30.5 3.5t41 1q60 0 110 -12.5t84 -39.5t49 -69t5 -101l-4 -21q-10 -54 -42 -93t-77 -64t-99 -37t-107 -12q-78 0 -135 17t-100 40l22.5 37.5l22.5 37.5q21 -8 39 -16t40 -14.5t50 -10.5t68 -4
q24 0 56.5 6.5t63 21.5t54.5 40.5t31 64.5q5 28 0 54.5t-21.5 47.5t-46 33.5t-73.5 12.5q0 -1 -1 -1q-30 0 -53.5 -1.5t-44 -3.5t-39 -5t-37.5 -7h-48z" />
    <glyph glyph-name="seven" unicode="7" horiz-adv-x="613" 
d="M162 0l421 623h-353q-8 -17 -12.5 -35.5t-9.5 -43.5h-76l30 166h552l-16 -87l-421 -623h-115z" />
    <glyph glyph-name="six" unicode="6" horiz-adv-x="659" 
d="M210 263q-11 -62 -7.5 -98.5t19.5 -56.5t44 -26t67 -6q27 0 59 5t60.5 20.5t50.5 44.5t31 78q8 45 -2 72.5t-30.5 42.5t-48.5 20t-56 5q-23 0 -48 -3t-48 -7.5t-43.5 -9.5t-34.5 -9zM450 629q-28 0 -59.5 -8t-60 -26t-50.5 -46.5t-31 -69.5q-5 -20 -8.5 -38.5l-6.5 -34.5
q29 13 67.5 26.5t92.5 13.5q51 0 102.5 -7t90 -30.5t57.5 -67.5t6 -117q-12 -69 -42 -114.5t-72.5 -73t-96 -38.5t-113.5 -11q-68 0 -118 11.5t-80 43t-38.5 86.5t6.5 143l33 185q13 75 43 125.5t73 80.5t97 42.5t115 12.5q36 0 65 -2.5t54.5 -8t50.5 -14t53 -20.5l-22 -60
l-22 -60l-54 9q-1 12 0.5 20.5t1.5 15.5t-2.5 12t-11.5 8q-9 4 -25.5 6t-34 3.5t-34 2t-26.5 0.5z" />
    <glyph glyph-name="eight" unicode="8" horiz-adv-x="654" 
d="M448 713q37 0 81.5 -3.5t81 -19.5t57 -49t10.5 -93l-2 -13q-5 -30 -15 -50.5t-25 -35.5t-34.5 -26.5t-43.5 -22.5q31 -14 51 -28.5t30 -37t10 -56.5t-9 -86q-9 -54 -37 -92.5t-70 -63.5t-96 -37t-117 -12q-60 1 -109 13t-82 37t-47.5 63.5t-5.5 91.5l3 16q9 53 22.5 86
t32.5 53.5t43 32t55 21.5q-22 11 -37.5 22.5t-24.5 27.5t-10.5 39.5t4.5 58.5q10 59 42.5 92t74 49t86.5 19.5t81 3.5zM528 207q6 31 1.5 56t-21 43t-47 27.5t-77.5 9.5q-48 0 -81.5 -9.5t-55.5 -27.5t-34.5 -43t-17.5 -56q-7 -41 2.5 -66.5t30 -40t49 -20t59.5 -5.5
q33 0 64.5 5.5t57.5 20t44.5 40t25.5 66.5zM276 528q-6 -32 1 -52.5t23.5 -31.5t41 -15t52.5 -4h9q28 0 54 4t47 15.5t36 31.5t21 53q6 34 -3.5 53.5t-28 29.5t-44 12.5t-51.5 2.5t-52 -2.5t-47.5 -12.5t-37 -30t-21.5 -54z" />
    <glyph glyph-name="nine" unicode="9" horiz-adv-x="656" 
d="M559 453q10 57 4 92t-23.5 53.5t-44.5 25t-59 6.5q-29 0 -60.5 -5.5t-59.5 -21.5t-49 -44t-29 -73q-8 -46 -2 -75.5t22 -46.5t40 -23.5t52 -6.5h16q50 0 90 8.5t66 16.5l22 6zM422 92q25 11 44 39t32.5 59t21.5 59t10 40q-8 -3 -22.5 -10t-35.5 -13.5t-47 -12t-57 -5.5
h-25q-52 0 -97 9.5t-75.5 36t-43.5 72.5t0 120q11 63 40 107t71 71.5t93.5 39.5t108.5 12q68 0 118.5 -11.5t80.5 -42.5t38 -86t-7 -143l-33 -187q-14 -75 -45.5 -125t-76 -80t-98.5 -42.5t-112 -12.5q-63 0 -117 11t-114 40l46 76q51 -22 96.5 -31t95.5 -9q32 0 61 3.5
t49 15.5z" />
    <glyph glyph-name="colon" unicode=":" horiz-adv-x="235" 
d="M42 60q6 35 32 52t60 17q33 0 54 -15.5t14 -53.5t-33 -54t-59 -16q-34 0 -54.5 15.5t-13.5 54.5zM110 446q7 36 32.5 53t59.5 17q33 0 54 -16t14 -54q-6 -37 -32.5 -53.5t-59.5 -16.5q-34 0 -54.5 16t-13.5 54z" />
    <glyph glyph-name="semicolon" unicode=";" horiz-adv-x="235" 
d="M42 60q6 35 32.5 52t59.5 17q30 0 49.5 -12t16.5 -45q1 -2 0.5 -9.5t-1.5 -17t-2 -17.5t-2 -11q-9 -54 -44.5 -92.5t-85.5 -60.5l-17 38q26 21 38.5 41.5t17.5 46.5q-32 2 -50.5 17t-11.5 53zM111 446q7 36 32.5 53t59.5 17q33 0 54 -16t14 -54q-6 -37 -32.5 -53.5
t-59.5 -16.5q-34 0 -54.5 16t-13.5 54z" />
    <glyph glyph-name="bracketleft" unicode="[" horiz-adv-x="327" 
d="M248 903h219l-15 -84h-109l-165 -933h109l-14 -84h-219z" />
    <glyph glyph-name="bracketright" unicode="]" horiz-adv-x="321" 
d="M201 -198h-218l14 84h108l165 933h-109l15 84h219z" />
    <glyph glyph-name="circumflex" unicode="&#x2c6;" horiz-adv-x="449" 
d="M499 599h-93l-63 97l-98 -97h-93l162 146h73z" />
    <glyph glyph-name="braceleft" unicode="{" horiz-adv-x="370" 
d="M313 352q-16 -90 -22 -171t-2.5 -147t16.5 -114t36 -71l-66 -49q-33 27 -57.5 67.5t-37 101.5t-11 144t19.5 194h-115l15 86h115q21 113 48.5 196.5t60 143.5t71 100.5t82.5 66.5l48 -48q-28 -23 -56.5 -69t-55 -110t-49.5 -144t-39 -171z" />
    <glyph glyph-name="braceright" unicode="}" horiz-adv-x="398" 
d="M182 352q15 83 20 163t1 147t-15.5 116.5t-30.5 73.5l64 48q34 -27 58 -67t36 -100t10 -143.5t-20 -196.5h115l-15 -86h-115q-23 -111 -51 -194t-61.5 -143.5t-72 -101t-81.5 -67.5l-23.5 24l-23.5 25q30 23 59.5 70.5t56.5 113.5t50 147t39 171z" />
    <glyph glyph-name="parenleft" unicode="(" horiz-adv-x="297" 
d="M239 358q-7 -36 -10 -68t-4 -60q-7 -64 -8 -124.5t4 -111t16 -88t29 -56.5l-33 -25l-33 -24q-35 28 -60 71t-36.5 109t-8 157.5t25.5 216.5q22 124 50 214.5t61.5 154.5t73.5 106t85 70l48 -48q-28 -23 -56.5 -69t-55 -110t-49.5 -144t-39 -171z" />
    <glyph glyph-name="parenright" unicode=")" horiz-adv-x="278" 
d="M182 352q15 86 13 148q6 59 6.5 114.5t-4.5 102t-14.5 81.5t-24.5 54l64 48q36 -28 60.5 -70t35.5 -106t7 -154.5t-26 -214.5q-22 -125 -51 -216.5t-63.5 -157.5t-75 -109t-85.5 -71l-46 49q30 23 59.5 70.5t56 113.5t49.5 147t39 171z" />
    <glyph glyph-name="ampersand" unicode="&#x26;" horiz-adv-x="834" 
d="M495 247l23.5 48l22.5 48h144q49 0 81.5 -6.5t52.5 -15.5t29.5 -18.5t12.5 -15.5l-31 -58q-11 1 -21.5 3.5t-24.5 5t-34.5 5t-51.5 3.5q-12 -70 -16.5 -113t-4 -68.5t5 -39t9.5 -24.5l-80 -39q-14 6 -25 22t-14 51q-47 -21 -106.5 -33t-121.5 -12q-57 0 -109 11.5
t-90.5 38t-57 68.5t-7.5 103q13 74 55 115t99 61q-18 9 -33.5 19t-26 26t-15 38t1.5 55q11 62 43 100t73.5 58.5t86.5 27.5t82 7q63 0 115.5 -11t109.5 -37l-52 -156l-73 15q9 38 15 67q-9 10 -25 16.5t-33.5 10.5t-35 5t-29.5 1q-33 0 -60.5 -3.5t-48.5 -15t-35.5 -31.5
t-20.5 -53q-6 -32 3.5 -53.5t27.5 -34.5t41.5 -18.5t46.5 -5.5h70l-38 -81h-50q-32 0 -61.5 -5.5t-54 -19.5t-41.5 -38.5t-24 -62.5q-7 -39 4 -64.5t34.5 -40.5t56 -21t68.5 -6q32 0 65 4t63 10t54 13t38 13q2 25 6.5 60t11.5 72h-100v0z" />
    <glyph glyph-name="bar" unicode="|" horiz-adv-x="245" 
d="M318 781l-150 -853h-111l150 853h111z" />
    <glyph glyph-name="asterisk" unicode="*" horiz-adv-x="485" 
d="M164 414l46 -31l46 -30l21 118h85l-21 -119q29 17 58.5 32.5l58.5 31.5l29 -67l-61 -32l-60 -33l48.5 -32l48.5 -32l-54 -68l-46 31.5l-47 30.5l-21 -120h-85l21 119l-112 -60l-14 34t-15 34l120 62l-97 63z" />
    <glyph glyph-name="less" unicode="&#x3c;" horiz-adv-x="498" 
d="M118 339l398 154l-17 -99l-285 -106l124 -58l123 -58l-18 -100l-171 85l-171 84z" />
    <glyph glyph-name="greater" unicode="&#x3e;" horiz-adv-x="492" 
d="M473 241l-201 -84l-201 -85l18 100l143.5 58l143.5 58l-247 106l17 99l344 -154z" />
    <glyph glyph-name="sterling" unicode="&#xa3;" horiz-adv-x="578" 
d="M652 680l-25 -78l-24 -78l-73 15l7.5 34.5t5.5 32.5q-4 6 -15 10.5t-26 7.5t-31 4.5t-31 1.5q-33 0 -64 -6t-57 -24t-45.5 -50.5t-29.5 -84.5l-17 -101h183l-15 -83h-183l-34 -195h338l9 52h46l-24 -138h-511q4 16 9 30.5l10 30.5l10.5 35t9.5 44l45 255q8 41 17 76.5
t20 67.5l1 11q17 56 50 89t75 50.5t89 23t93 5.5q50 0 95.5 -12.5z" />
    <glyph glyph-name="dagger" unicode="&#x2020;" horiz-adv-x="499" 
d="M134 531h148l32 180h110l-32 -180h145l-15 -88h-145l-116 -655h-110l116 655h-148z" />
    <glyph glyph-name="daggerdbl" unicode="&#x2021;" horiz-adv-x="489" 
d="M56 88h148l63 357h-148l15 86h148l32 180h110l-32 -180h145l-15 -86h-145l-63 -357h145l-15 -86h-145l-38 -214h-110l38 214h-148z" />
    <glyph glyph-name="florin" unicode="&#x192;" horiz-adv-x="423" 
d="M319 431l-82 -469q-8 -42 -20 -72t-27 -51.5t-31.5 -34.5t-32.5 -20q-9 -2 -17.5 -2h-17.5q-20 0 -40 2t-41 5q4 8 10.5 25t11.5 46q14 0 28 2.5t26 11t21.5 25t14.5 44.5l86 488h-47l16 87h47q12 70 32.5 114t55.5 69t87.5 34.5t129.5 9.5l-15 -82q-26 0 -51 -4.5
t-47 -19.5q-32 -11 -51.5 -38t-29.5 -83h107l-16 -87h-107z" />
    <glyph glyph-name="tilde" unicode="&#x2dc;" horiz-adv-x="459" 
d="M192 685q37 31 61 42t48 11q13 0 27.5 -6t28.5 -12.5l27.5 -12.5t25.5 -6q11 0 30 7.5t41 26.5l16 -56q-36 -32 -60 -43t-48 -11q-13 0 -28 6l-30 12.5l-28.5 12.5t-23.5 6h-7q-12 -2 -28.5 -9.5t-36.5 -23.5z" />
    <glyph glyph-name="ellipsis" unicode="&#x2026;" horiz-adv-x="660" 
d="M68 54q5 32 28 47t52 15t46.5 -14.5t11.5 -47.5t-28.5 -48t-51.5 -15t-46.5 14t-11.5 49zM276 54q5 32 28.5 47t52.5 15t46.5 -14.5t11.5 -47.5t-28.5 -48t-51.5 -15t-47 14t-12 49zM485 54q5 32 28.5 47t52.5 15t46.5 -14.5t11.5 -47.5t-28.5 -48t-51.5 -15
q-30 0 -47.5 14t-11.5 49z" />
    <glyph glyph-name="endash" unicode="&#x2013;" horiz-adv-x="568" 
d="M136 316h401l-15 -88h-401z" />
    <glyph glyph-name="emdash" unicode="&#x2014;" horiz-adv-x="777" 
d="M135 316h616l-15 -88h-616z" />
    <glyph glyph-name="plus" unicode="+" horiz-adv-x="485" 
d="M113 330h134l22 125l46.5 10l47.5 10l-25 -145h140l-15 -86h-140l-23 -130l-48.5 -10l-46.5 -10l27 150h-134z" />
    <glyph glyph-name="guillemotleft" unicode="&#xab;" horiz-adv-x="542" 
d="M62 248l17.5 48l16.5 47l134.5 100l135.5 99l-18 -103l-190 -153l135 -158l-18 -104zM291 248q8 24 17 48l17 47l134.5 100l134.5 99l-18 -103l-189 -153l134 -158l-18 -104z" />
    <glyph glyph-name="guillemotright" unicode="&#xbb;" horiz-adv-x="524" 
d="M556 326l-18 -48.5l-19 -49.5l-267 -204l18 104l190 158l-135 153l18 103zM328 326l-17 -47t-17 -48l-271 -207l18 104l191 158l-136 153l18 103z" />
    <glyph glyph-name="dieresis" unicode="&#xa8;" horiz-adv-x="491" 
d="M183 678q5 29 25 42.5t46 13.5t41.5 -13t10.5 -43q-5 -29 -25.5 -42.5t-46.5 -13.5t-41 12.5t-10 43.5zM411 678q5 29 25.5 42.5t46.5 13.5t41.5 -13t10.5 -43q-5 -29 -25.5 -42.5t-46.5 -13.5t-41.5 12.5t-10.5 43.5z" />
    <glyph glyph-name="AE" unicode="&#xc6;" horiz-adv-x="950" 
d="M485 710h546l-25 -138h-85l9 51h-312q2 -54 4.5 -106.5t5.5 -106.5h255l-16 -88h-232q4 -59 6.5 -117.5t4.5 -118.5h207l9 52h78l-24 -138h-429v86h38l-1 98h-224l-112 -184h-154l15 86h67zM518 558l-87 -142.5l-85 -142.5h175q-3 142 -3 285z" />
    <glyph glyph-name="equal" unicode="=" horiz-adv-x="536" 
d="M135 363h391l-16 -86h-391zM123 299h391l-15 -86h-391z" />
    <glyph glyph-name="plusminus" unicode="&#xb1;" horiz-adv-x="463" 
d="M118 403h133l22 125l47.5 10l46.5 10l-25 -145h140l-15 -85h-140l-24 -131l-46.5 -10l-47.5 -10l27 151h-133zM62 88h366l-15 -88h-366z" />
    <glyph glyph-name="periodcentered" unicode="&#xb7;" horiz-adv-x="310" 
d="M186 165q-21 0 -38 5t-29 16t-17 28t-1 41q8 44 41.5 67t74.5 23q42 0 66.5 -22t16.5 -68t-40 -68t-74 -22z" />
    <glyph glyph-name="divide" unicode="&#xf7;" horiz-adv-x="485" 
d="M104 330h381l-16 -88h-381zM169 76q6 36 32.5 53t59.5 17q34 0 54.5 -16t13.5 -54q-7 -37 -32.5 -53.5t-59.5 -16.5q-33 0 -54 16t-14 54zM241 486q6 35 32.5 52t59.5 17q34 0 54.5 -15.5t13.5 -53.5t-32.5 -54t-59.5 -16q-33 0 -54 15.5t-14 54.5z" />
    <glyph glyph-name="multiply" unicode="&#xd7;" horiz-adv-x="496" 
d="M376 103l-45 54l-43 55l-63 -54.5l-62 -54.5l-62 72l129 111l-89 112l85 73l88 -111l127 110l60 -72l-65 -56l-64 -56l89 -111z" />
    <glyph glyph-name="quotedblleft" unicode="&#x201c;" horiz-adv-x="402" 
d="M281 538q-6 -36 -27 -53t-47 -17q-21 0 -35.5 13t-12.5 45q-1 1 -1 7.5t1 13.5l2 13.5t1 8.5q10 54 45.5 92.5t84.5 60.5l17 -38q-28 -23 -40 -40.5t-19 -39.5q19 -5 27.5 -21t3.5 -45zM439 538q-6 -36 -27.5 -53t-47.5 -17q-21 0 -35.5 13t-12.5 45q-1 1 -0.5 7.5
l1 13.5t1.5 13.5t1 8.5q10 54 46 92.5t85 60.5l16 -38q-28 -23 -40 -40.5t-18 -39.5q18 -5 27 -21t4 -45z" />
    <glyph glyph-name="quotedblright" unicode="&#x201d;" horiz-adv-x="376" 
d="M171 653q6 36 27.5 53t47.5 17q21 0 35.5 -13t12.5 -45q1 -2 0.5 -8t-1 -13t-1.5 -13.5t-1 -8.5q-10 -54 -45.5 -92.5t-85.5 -60.5l-16 38q28 23 40 40.5t18 39.5q-18 5 -27 21t-4 45zM328 653q6 36 27 53t47 17q21 0 35.5 -13t12.5 -45q1 -2 1 -8t-1 -13l-2 -13.5
t-1 -8.5q-10 -54 -45.5 -92.5t-84.5 -60.5l-17 38q28 23 40 40.5t19 39.5q-19 5 -27.5 21t-3.5 45z" />
    <glyph glyph-name="bullet" unicode="&#x2022;" horiz-adv-x="320" 
d="M189 166q-42 0 -67 21.5t-17 69.5q8 44 41 67t75 23t66.5 -22t16.5 -68q-8 -47 -41 -69t-74 -22z" />
    <glyph glyph-name="acute" unicode="&#xb4;" horiz-adv-x="233" 
d="M332 712l-88 -121h-91l75 121h104z" />
    <glyph glyph-name="cedilla" unicode="&#xb8;" horiz-adv-x="246" 
d="M188 13l-114 -207h-107l147 207h74z" />
    <glyph glyph-name="degree" unicode="&#xb0;" horiz-adv-x="428" 
d="M176 556q11 68 51.5 108t109.5 40q63 0 93 -36.5t19 -96.5l-2 -14q-11 -60 -53.5 -97t-106.5 -37q-62 0 -92 35.5t-19 97.5zM229 570q-8 -47 7 -72.5t60 -25.5q38 0 65 23.5t34 62.5l1 7q7 38 -10 65t-58 27q-37 0 -64.5 -24t-34.5 -63z" />
    <glyph glyph-name="backslash" unicode="\" horiz-adv-x="402" 
d="M269 710l100 -710h-114l-104 710h118z" />
    <glyph glyph-name="grave" unicode="`" horiz-adv-x="233" 
d="M200 591l-24 60t-23 61h105l33 -121h-91v0z" />
    <glyph glyph-name="underscore" unicode="_" horiz-adv-x="597" 
d="M37 -74h494l-15 -86h-494z" />
    <glyph glyph-name="slash" unicode="/" horiz-adv-x="433" 
d="M561 771l-433 -900h-113l430 900h116z" />
    <glyph glyph-name="period" unicode="." horiz-adv-x="235" 
d="M42 60q6 35 32 52t60 17q33 0 54 -15.5t14 -53.5t-33 -54t-59 -16q-34 0 -54.5 15.5t-13.5 54.5z" />
    <glyph glyph-name="quotedblbase" unicode="&#x201e;" horiz-adv-x="403" 
d="M70 60q7 36 27.5 53t46.5 17q21 0 36 -13t12 -45q1 -2 1 -8t-0.5 -13t-1.5 -13.5t-1 -8.5q-10 -54 -45.5 -92.5t-84.5 -60.5l-18 38q29 23 40.5 40.5t18.5 39.5q-18 5 -27 21t-4 45zM225 60q7 36 28 53t47 17q21 0 36 -13t12 -45q1 -2 1 -8t-0.5 -13t-1.5 -13.5t-1 -8.5
q-10 -54 -45.5 -92.5t-85.5 -60.5l-17 38q29 23 40.5 40.5t17.5 39.5q-17 5 -26.5 21t-4.5 45z" />
    <glyph glyph-name="quotesinglbase" unicode="&#x201a;" horiz-adv-x="241" 
d="M74 65q6 36 27.5 53t47.5 17q21 0 35.5 -13t12.5 -45q1 -2 1 -8t-1 -13t-1.5 -13.5t-1.5 -8.5q-9 -54 -45 -92.5t-85 -60.5l-17 38q29 23 40.5 40.5t17.5 39.5q-18 5 -27 21t-4 45z" />
    <glyph glyph-name="quoteleft" unicode="&#x2018;" horiz-adv-x="238" 
d="M276 538q-6 -36 -27 -53t-47 -17q-21 0 -35.5 13t-12.5 45q-1 1 -1 7.5t1 13.5l2 13.5t1 8.5q10 54 45.5 92.5t84.5 60.5l17 -38q-28 -23 -40 -40.5t-19 -39.5q19 -5 27.5 -21t3.5 -45z" />
    <glyph glyph-name="quoteright" unicode="&#x2019;" horiz-adv-x="246" 
d="M173 651q7 35 27.5 52t46.5 17q21 0 36 -13t12 -45q1 -2 1.5 -7.5t-0.5 -12.5l-2 -13.5t-1 -9.5q-10 -54 -45.5 -92.5t-84.5 -60.5l-18 38q29 23 40.5 40.5t18.5 39.5q-18 5 -27 21t-4 46z" />
    <glyph glyph-name="guilsinglright" unicode="&#x203a;" horiz-adv-x="347" 
d="M366 311l-16.5 -47l-16.5 -48l-272 -207l18 104l191 158l-136 153l18 103l214 -216v0z" />
    <glyph glyph-name="asciitilde" unicode="~" horiz-adv-x="504" 
d="M118 341q32 42 59.5 63t65.5 21q18 0 38.5 -9t41 -20.5t38.5 -20.5t31 -9q-2 0 9 2.5t27 8.5t34 16t31 26l4 -63q-18 -24 -34 -40.5t-31 -26.5t-30 -14.5t-32 -4.5q-18 0 -40 9.5t-43 20.5l-38.5 20.5t-26.5 9.5q1 0 -9.5 -2.5t-26.5 -8t-33.5 -15t-30.5 -24.5z" />
    <glyph glyph-name="registered" unicode="&#xae;" horiz-adv-x="708" 
d="M415 400h-39l-23 -128q-21 0 -42 -0.5t-41 -0.5l7 39l15 16l45 254h-15l6 37h125q25 0 51.5 -3t46.5 -12.5t31 -28.5t5 -51l-6 -32q-7 -37 -31 -56.5t-57 -27.5l38 -63q8 -17 20 -26t20 -14l-34 -38q-2 0 -4 -0.5t-4 -0.5q-4 0 -11 1.5t-16 7t-18.5 15.5t-18.5 25z
M509 504q7 38 -12 49t-49 11h-43l-20 -115h59q21 2 40.5 13.5t24.5 41.5zM112 443q12 66 47 124t86 101.5t113.5 68.5t128.5 25t119.5 -25t89.5 -68.5t51 -101.5t3 -124t-47.5 -124t-86.5 -101.5t-113.5 -68.5t-128.5 -25t-119.5 25t-89 68.5t-50.5 101.5t-3 124zM176 440
q-9 -53 2.5 -99t40 -81t71.5 -55t96 -20q52 0 102 20t91 55t69.5 81t37.5 99t-3 99.5t-40.5 81t-71.5 54.5t-95 20q-53 0 -103 -20t-90.5 -54.5t-69 -81t-37.5 -99.5z" />
    <glyph glyph-name="section" unicode="&#xa7;" horiz-adv-x="574" 
d="M486 526l10 54q-18 8 -42 13t-50 5q-58 0 -93 -17t-40 -46q-6 -32 15 -48.5t73 -25.5q18 -5 42.5 -9t50 -10t49.5 -16t41 -27t25 -43t1 -64q-8 -49 -32.5 -81t-60.5 -52q21 -14 33 -39t4 -70q-16 -91 -82 -133t-173 -42q-65 0 -118.5 6.5t-100.5 20.5l36 144h84l-10 -57
q17 -8 45 -15t66 -7q44 0 71 9.5t42 22.5t20.5 27t6.5 23q3 20 -6 31.5t-28 19t-47.5 12.5t-64.5 12q-88 14 -122.5 53t-23.5 106q8 47 29 79t65 52q-29 18 -37.5 47t-1.5 67q8 46 30 76.5t56 49t77.5 26t93.5 7.5q38 0 79.5 -6t98.5 -20l-33 -138zM458 300q-2 16 -12.5 27
t-26.5 17.5t-35.5 9t-38.5 2.5q-52 0 -87 -13t-41 -48q-6 -33 16.5 -54.5t88.5 -21.5t103.5 18.5t32.5 62.5z" />
    <glyph glyph-name="W" unicode="W" horiz-adv-x="1070" 
d="M1177 710l-16 -87h-68l-161 -311.5l-160 -311.5h-122l-26 184.5t-25 184.5l-191 -369h-122l-87 623h-71l16 87h162l67 -559l100.5 199l100.5 199l-20 161h116l67 -559l282 559h158z" />
    <glyph glyph-name="Eth" unicode="&#xd0;" horiz-adv-x="695" 
d="M113 385h70l43 240h-63l15 85h298q58 0 110.5 -8t87.5 -38t48.5 -90t-4.5 -163l-22 -124q-18 -96 -55 -153t-84 -86.5t-100.5 -38.5t-105.5 -9h-276l9 56h41l44 247h-70zM601 408q13 71 6.5 113.5t-24.5 65.5t-43.5 30t-51.5 8q-2 0 -3.5 -0.5t-3.5 -0.5q-4 0 -7 0.5
t-6 0.5h-131l-43 -240h91l-14 -82h-91l-38 -217h120q33 0 67 7t64 30.5t53.5 67t36.5 115.5z" />
    <glyph glyph-name="exclam" unicode="!" horiz-adv-x="307" 
d="M120 205l100 568h110l-86 -484h37l-14 -84h-147zM241 60q-7 -38 -33 -54t-59 -16q-34 0 -54.5 15.5t-13.5 54.5q6 35 32 52t60 17q33 0 54 -15.5t14 -53.5z" />
    <glyph glyph-name="twosuperior" unicode="&#xb2;" horiz-adv-x="397" 
d="M107 375l97 79.5l97 78.5q30 23 49.5 41t22.5 38q5 27 -13 38t-50 11h-3q-16 0 -38.5 -3.5t-34.5 -14.5q-3 -15 -3 -33q-13 -5 -25 -8.5l-25 -7.5l-8 86q38 14 77.5 26t67.5 12q21 0 46 -2t46 -12t33 -29.5t6 -54.5l-3 -14q-3 -19 -16 -35.5t-32 -32t-41 -31.5l-44 -33
l-125 -99h176q8 13 12 39h49l-17 -98h-312z" />
    <glyph glyph-name="threesuperior" unicode="&#xb3;" horiz-adv-x="371" 
d="M343 604q6 34 -12 43.5t-50 9.5q-21 0 -37 -3t-28 -12q-2 -8 -2.5 -16t-1.5 -16l-49 -12l-1 88q34 10 65 18t65 8q20 0 44.5 -2t44.5 -12t31 -29.5t5 -53.5l-1 -7q-5 -29 -21 -45.5t-42 -29.5q30 -12 43 -34t5 -65l-2 -12q-5 -29 -22 -50t-42 -34.5t-55.5 -20.5t-63.5 -7
q-38 0 -68.5 9.5t-54.5 20.5q8 12 14.5 24t14.5 23l46 -15.5t58 -7.5q14 0 30.5 3t31 10.5t25.5 21t15 33.5q5 30 -11 49t-59 19h-22l-1 50h30q26 0 49 10.5t29 43.5z" />
    <glyph glyph-name="onesuperior" unicode="&#xb9;" horiz-adv-x="235" 
d="M158 656l10 53h113l-60 -337h35l-9 -53h-136l9 53h34l44 247q0 11 -0.5 20t-4.5 17h-35z" />
    <glyph glyph-name="exclamdown" unicode="&#xa1;" horiz-adv-x="228" 
d="M278 439l-15 -84h-37l-85 -483h-110l100 567h147zM304 585q-7 -38 -33.5 -54t-59.5 -16q-34 0 -54 17t-13 53q7 38 32.5 54t59.5 16q33 0 53.5 -16.5t14.5 -53.5z" />
    <glyph glyph-name="quotedbl" unicode="&#x22;" horiz-adv-x="305" 
d="M171 735h87l-31 -175h-67zM301 735h87l-51 -175h-67z" />
    <glyph glyph-name="trademark" unicode="&#x2122;" horiz-adv-x="921" 
d="M183 607h-48l18 106h360l-18 -106h-48l4 24q3 15 0 26h-94l-53 -300h42l-9 -55h-153l9 55h42l53 300h-60q-22 -2 -38 -7zM466 303l8 44h26l60 310h-38l10 55h126q17 -63 36 -124.5t36 -124.5l164 249h124l-10 -55h-39q-13 -78 -24.5 -154.5t-24.5 -154.5h27l-8 -45h-122
l8 44h27l40 262l-74.5 -117l-74.5 -116h-56l-66 235l-52 -264h26l-8 -44h-121z" />
    <glyph glyph-name="comma" unicode="," horiz-adv-x="235" 
d="M42 60q6 35 32.5 52t59.5 17q30 0 49.5 -12t16.5 -45q1 -2 0.5 -9.5t-1.5 -17t-2 -17.5t-2 -11q-9 -54 -44.5 -92.5t-85.5 -60.5l-17 38q26 21 38.5 41.5t17.5 46.5q-32 2 -50.5 17t-11.5 53z" />
    <glyph glyph-name="onehalf" unicode="&#xbd;" horiz-adv-x="704" 
d="M662 710l-531 -710h-69l528 710h72zM158 656l10 53h113l-60 -337h35l-9 -53h-136l9 53h34l44 247q0 11 -0.5 20t-4.5 17h-35zM382 60l97.5 79.5l97.5 78.5q29 23 48.5 41t23.5 38q5 27 -13 38t-50 11h-3q-16 0 -38.5 -3.5t-35.5 -14.5q-1 -8 -1.5 -16t-0.5 -17
q-14 -5 -25.5 -8.5l-24.5 -7.5l-8 86q38 14 77.5 26t67.5 12q21 0 46 -2t46 -12t32.5 -29.5t5.5 -54.5l-2 -14q-4 -19 -17 -35.5t-31.5 -32t-40.5 -31.5l-44 -33l-126 -99h176q5 8 8 16.5t5 22.5h49l-17 -98h-312z" />
    <glyph glyph-name="guilsinglleft" unicode="&#x2039;" horiz-adv-x="344" 
d="M76 233l16.5 48l16.5 47l135 100l135 99l-18 -103l-190 -153l135 -158l-18 -104l-212 224v0z" />
    <glyph glyph-name="germandbls" unicode="&#xdf;" horiz-adv-x="585" 
d="M329 604q-12 -4 -25.5 -16.5t-25.5 -30t-21 -39t-13 -43.5l-85 -484q-8 -46 -19.5 -76.5t-24 -50t-25.5 -30t-23 -15.5l-70 23q8 14 20.5 45.5t21.5 82.5l87 491q6 39 15 71q14 49 40 84t59.5 57.5t72 33t76.5 10.5q43 0 85.5 -7.5t75 -27.5t49 -54.5t7.5 -88.5l-3 -15
q-11 -58 -37.5 -92.5t-71.5 -54.5q28 -14 47 -30.5t29.5 -40t11.5 -56t-7 -77.5q-10 -56 -42.5 -93t-77.5 -59.5t-96 -32t-98 -9.5q-13 0 -26 0.5t-22 0.5l13 76h10q22 0 57.5 5t70.5 20t63 43t36 73q11 64 -27 100.5t-108 36.5h-34l10 79q32 0 62 2.5t55 13.5t42.5 32.5
t23.5 59.5q8 42 -11.5 67t-63.5 25q-23 0 -45 -2t-38 -7z" />
    <glyph glyph-name="question" unicode="?" horiz-adv-x="617" 
d="M173 665l65.5 24t59.5 19.5t58 13t60 4.5q37 0 80 -6.5t78 -26t54.5 -57t8.5 -98.5q-2 -14 -10 -33t-21 -39t-30 -39.5t-38 -32.5l-55 -35t-47 -31.5t-34.5 -32t-17.5 -35.5l-10 -58h-111l14 80q6 32 20 52.5t38 39.5q34 27 65.5 46.5t56.5 37.5t41.5 38t21.5 47
q8 45 -14 66t-78 21h-34t-40.5 -2.5t-44.5 -9t-45 -19.5q-3 -17 -4.5 -34.5t-2.5 -37.5l-39.5 -9.5l-39.5 -9.5zM216 60q6 35 32 52t60 17q33 0 54 -15.5t14 -53.5t-33 -54t-59 -16q-34 0 -54.5 15.5t-13.5 54.5z" />
    <glyph glyph-name="at" unicode="@" horiz-adv-x="825" 
d="M677 181q23 0 44 18.5t29 66.5l3 17q11 63 -0.5 119t-42.5 99t-80 68t-112 25t-121.5 -25.5t-105.5 -68t-79 -99t-42 -117.5q-11 -63 1 -118.5t44 -97.5t81.5 -66.5t112.5 -24.5q32 0 64 9t61 20l61 -47q-46 -25 -96.5 -40t-101.5 -15q-78 0 -140.5 30t-104.5 81.5
t-59 121t-3 148.5q14 78 55.5 148t101.5 122t133 82.5t151 30.5t140 -29.5t103 -81.5t57 -121.5t2 -150.5q-12 -67 -35 -107.5t-51 -63t-57.5 -30t-54.5 -8.5q-37 0 -51.5 9.5t-22.5 20.5q-14 0 -20.5 5t-9.5 7l-23.5 -15t-25.5 -12t-31.5 -8t-41.5 -3q-144 0 -122 128l2 10
q11 62 63.5 89.5t127.5 27.5q17 0 32.5 -0.5t31.5 -0.5q8 43 -1 62t-51 19q-22 0 -47.5 -3l-43.5 -5l-3 -17l-38 -3l1 73q26 9 68.5 17t90.5 8t71.5 -16.5t32 -41t6.5 -52t-6 -48.5l-2 -11l-22 -128q-2 -16 4 -27.5t28 -11.5q11 0 23 7.5t22 24.5zM526 200q3 17 5.5 34.5
t5.5 34.5q-14 0 -29.5 1t-31.5 1q-38 0 -56.5 -10t-25.5 -28q-10 -5 -18.5 -12t-10.5 -20q-6 -32 12 -45t53 -13q15 0 30 1.5t27.5 7t22.5 17t16 31.5z" />
    <glyph glyph-name="copyright" unicode="&#xa9;" horiz-adv-x="708" 
d="M501 513q2 7 2.5 13.5t1.5 13.5q-20 17 -51 17q-33 0 -53 -21.5t-30 -77.5l-7 -40q-10 -56 2.5 -76.5t47.5 -20.5q34 0 53.5 5.5t41.5 12.5l11 -44q-26 -10 -54 -18.5t-61 -8.5h-16q-23 0 -44.5 4.5t-37.5 19.5t-22.5 42.5t1.5 72.5l11 62q8 47 25.5 75t40.5 42.5
t49 18.5t51 4h14q12 0 33 -4l55 -11l-18 -81h-46zM112 443q12 66 47 124t86 101.5t113.5 68.5t128.5 25t119.5 -25t89.5 -68.5t51 -101.5t3 -124t-47.5 -124t-86.5 -101.5t-113.5 -68.5t-128.5 -25t-119.5 25t-89 68.5t-50.5 101.5t-3 124zM176 440q-9 -53 2.5 -99t40 -81
t71.5 -55t96 -20q52 0 102 20t91 55t69.5 81t37.5 99t-3 99.5t-40.5 81t-71.5 54.5t-95 20q-53 0 -103 -20t-90.5 -54.5t-69 -81t-37.5 -99.5z" />
    <glyph glyph-name="questiondown" unicode="&#xbf;" horiz-adv-x="586" 
d="M519 -86l-67.5 -25t-58.5 -19t-56 -12.5t-60 -4.5q-37 0 -80.5 6t-78.5 26t-55 57t-9 99q3 15 11 34t20.5 38.5t30 38t38.5 32.5q28 19 54.5 35t47.5 31.5t35 32t17 36.5l10 57h110l-14 -79q-6 -32 -19.5 -52.5t-38.5 -39.5q-34 -26 -65.5 -46t-56.5 -38.5t-42 -38.5
t-21 -47q-16 -86 93 -86h33.5t39.5 2t44 8.5t46 20.5q3 16 4.5 34t3.5 38l39.5 9.5l39.5 9.5zM476 519q-6 -36 -32.5 -53t-59.5 -17q-34 0 -54.5 16t-13.5 54q7 37 32.5 53.5t59.5 16.5q33 0 54 -16t14 -54z" />
    <glyph glyph-name="asciicircum" unicode="^" horiz-adv-x="455" 
d="M115 482l92.5 120.5l90.5 121.5h113l98 -242h-114l-54 164l-112 -164h-114z" />
    <glyph glyph-name="quotesingle" unicode="'" horiz-adv-x="192" 
d="M170 721h105l-49 -175h-70z" />
    <glyph glyph-name="perthousand" unicode="&#x2030;" horiz-adv-x="1017" 
d="M753 710l-284 -355.5l-284 -354.5h-105l564 710h109zM396 521q-9 -43 -24.5 -68t-35.5 -38t-43 -16.5t-46 -3.5h-4q-23 0 -45 4.5t-38 18t-23 39t1 67.5l12 69q8 43 24 68t37 38t44.5 16t46.5 3t45.5 -4t38.5 -17t23 -39t-1 -69zM332 584q4 24 3 38t-7 21.5t-15.5 9.5
t-22.5 2t-23.5 -2t-19 -9.5t-15 -21t-10.5 -36.5l-10 -56q-5 -24 -3 -38t8.5 -21t17 -8.5t23.5 -1.5t23 2t18 9t14 20.5t10 36.5zM683 121q-9 -43 -24.5 -68t-35.5 -37.5t-43 -16t-46 -3.5h-4q-23 0 -45 4t-38 17.5t-23.5 39t0.5 67.5l13 69q7 43 23.5 68t37.5 38t44.5 16
t46.5 3t45 -4t38 -17t23 -39t0 -69zM620 185q4 24 3 38t-7 21.5t-15.5 9.5t-22.5 2q-26 0 -43.5 -12t-25.5 -57l-9 -56q-5 -25 -3 -39t8 -21t16.5 -8.5t23.5 -1.5t23 2t18 9t14 21t10 37zM985 121q-8 -43 -23.5 -68t-35.5 -37.5t-43 -16t-46 -3.5h-4q-23 0 -45 4t-38 17.5
t-23.5 39t0.5 67.5l13 69q7 43 23 68t37 38t45 16t47 3q22 0 44.5 -4t38 -17t22.5 -39t0 -69zM922 185q4 24 3 38t-6.5 21.5t-15 9.5t-22.5 2q-26 0 -43.5 -12t-25.5 -57l-9 -56q-5 -25 -3.5 -39t8 -21t16.5 -8.5t24 -1.5q13 0 23.5 2.5t18 9.5t13 20.5t9.5 36.5z" />
    <glyph glyph-name="numbersign" unicode="#" horiz-adv-x="771" 
d="M348 0l101 212h-155l-103 -212h-81l51 105.5l51 106.5h-131l11 64h151l41.5 86l42.5 87h-136l11 64h156l96 197h83l-49 -99l-47 -98h154l96 197h83l-96 -197h144l-11 -64h-164l-85 -173h148l-11 -64h-168l-103 -212h-80zM409 449l-42.5 -87l-41.5 -86h156l40.5 86
l42.5 87h-155z" />
    <glyph glyph-name="ring" unicode="&#x2da;" horiz-adv-x="434" 
d="M323 594q-47 0 -73.5 29.5t-18.5 76.5q4 23 16 42.5t29.5 34t39.5 22.5t45 8q46 0 72.5 -30.5t18.5 -76.5q-4 -23 -16 -42.5t-29.5 -33.5t-39 -22t-44.5 -8zM332 644q26 0 45 15t24 41t-9 41.5t-40 15.5t-45 -15.5t-24 -41.5t9 -41t40 -15z" />
    <glyph glyph-name="i" unicode="i" 
d="M199 690q6 33 30 49t56 16q31 0 49.5 -15t12.5 -50t-30 -50.5t-55 -15.5q-32 0 -50.5 15t-12.5 51zM193 464h-73l16 87h184l-78 -444q-1 -11 0.5 -17t7.5 -7.5t16 -0.5t26 3l-3 -80q-42 -12 -74.5 -11t-52.5 17t-27 48t2 82z" />
    <glyph glyph-name="yen" unicode="&#xa5;" horiz-adv-x="678" 
d="M169 216h144l12 70h-144l12 71h125l-57.5 133.5l-57.5 133.5h-80l15 86h148l120 -280l239 280h143l-15 -86h-78l-225 -267h114l-12 -71h-131l-12 -70h131l-13 -71h-131l-16 -93q11 -5 21.5 -8.5l21.5 -7.5l-6 -36h-208l6 36h46l19 109h-144z" />
    <glyph glyph-name="percent" unicode="%" horiz-adv-x="713" 
d="M753 710l-284 -355.5l-284 -354.5h-105l564 710h109zM396 521q-9 -43 -24.5 -68t-35.5 -38t-43 -16.5t-46 -3.5h-4q-23 0 -45 4.5t-38 18t-23 39t1 67.5l12 69q8 43 24 68t37 38t44.5 16t46.5 3t45.5 -4t38.5 -17t23 -39t-1 -69zM332 584q4 24 3 38t-7 21.5t-15.5 9.5
t-22.5 2t-23.5 -2t-19 -9.5t-15 -21t-10.5 -36.5l-10 -56q-5 -24 -3 -38t8.5 -21t17 -8.5t23.5 -1.5t23 2t18 9t14 20.5t10 36.5zM683 121q-9 -43 -24.5 -68t-35.5 -37.5t-43 -16t-46 -3.5h-4q-23 0 -45 4t-38 17.5t-23.5 39t0.5 67.5l13 69q7 43 23.5 68t37.5 38t44.5 16
t46.5 3t45 -4t38 -17t23 -39t0 -69zM620 185q4 24 3 38t-7 21.5t-15.5 9.5t-22.5 2q-26 0 -43.5 -12t-25.5 -57l-9 -56q-5 -25 -3 -39t8 -21t16.5 -8.5t23.5 -1.5t23 2t18 9t14 21t10 37z" />
    <glyph glyph-name="Euro" unicode="&#x20ac;" horiz-adv-x="677" 
d="M89 315h68l12 70h-68l13 71h69q21 87 56.5 139t80.5 80t97.5 37t108.5 9h9q43 0 92.5 -7t105.5 -36l-40 -78q-22 9 -41 15t-39 10t-44.5 6t-56.5 2q-33 0 -64.5 -6t-58.5 -25t-48.5 -54t-33.5 -92h198l-13 -71h-202l-12 -70h202l-12 -71h-199q-5 -50 3.5 -82t27 -51
t47 -26.5t64.5 -7.5q37 0 67 4t56 10.5t49 14.5t46 15l19 -75q-51 -20 -113 -38.5t-140 -18.5h-23q-49 0 -93.5 9.5t-76.5 37t-48 77.5t-7 131h-70z" />
    <glyph glyph-name="A" unicode="A" horiz-adv-x="723" 
d="M18 0l15 86h68l314 624h143l93 -624h68l-15 -86h-158l-28 177h-253l-89 -177h-158zM461 568l-152 -301h200z" />
    <glyph glyph-name="ogonek" unicode="&#x2db;" horiz-adv-x="379" 
d="M299 -205q-23 -17 -52 -26.5t-57 -9.5q-72 0 -104.5 33t-21.5 94q8 40 36 76t65 54l62 -5q-38 -20 -58.5 -49t-26.5 -62q-6 -32 7.5 -53.5t54.5 -21.5q18 0 37.5 6t36.5 14z" />
    <glyph glyph-name="fraction" unicode="&#x2044;" horiz-adv-x="428" 
d="M507 710l-350 -711h-113l346 711h117z" />
    <glyph glyph-name="caron" unicode="&#x2c7;" horiz-adv-x="442" 
d="M286 595l-54.5 73.5l-56.5 72.5h93l64 -97l97 97h93l-81 -72.5l-82 -73.5h-73v0z" />
    <glyph glyph-name="breve" unicode="&#x2d8;" horiz-adv-x="478" 
d="M342 594q-60 0 -98.5 36t-40.5 101l75 6q2 -38 21.5 -56t54.5 -18t62.5 18.5t41.5 55.5l72 -5q-12 -32 -32 -57.5t-44.5 -43.5t-53 -27.5t-58.5 -9.5z" />
    <glyph glyph-name="hyphen" unicode="-" horiz-adv-x="443" 
d="M122 330h312l-16 -88h-312z" />
    <glyph glyph-name="mu" unicode="&#xb5;" horiz-adv-x="592" 
d="M151 551h111l-68 -382q-7 -38 13.5 -63t61.5 -25q43 0 84 17.5t64 48.5l72 404h110l-74 -416q-4 -24 0 -41t26 -17q2 0 5 0.5t5 0.5l11 3l-5 -74q-11 -5 -27.5 -8.5t-30.5 -3.5q-19 0 -31.5 9t-16.5 29q-18 6 -29 18q-14 -17 -36.5 -28.5t-48.5 -18.5t-53 -9.5t-51 -2.5
q-50 0 -76 23l-15 -88q-9 -48 -22 -80t-27 -51.5t-26 -28.5t-18 -12l-64 22q8 17 20 46t22 83z" />
    <glyph glyph-name="thorn" unicode="&#xfe;" horiz-adv-x="576" 
d="M19 -211l170 961l51.5 -16l51.5 -16l-33 -187q13 5 26.5 8.5t30.5 8.5l23 6q13 3 29.5 3t31.5 1q36 0 74.5 -8.5t67 -34.5t42 -74t-0.5 -127l-16 -90q-14 -78 -43.5 -124.5t-67 -71.5t-78.5 -33t-77 -8q-48 0 -82.5 8.5t-49.5 19.5l-34 -192zM185 106q17 -13 46.5 -22
t65.5 -9q26 0 51.5 6.5t48 26t39.5 53.5t27 90l7 42q10 56 6 91t-18 54t-37 25.5t-51 6.5q-49 0 -76.5 -10t-49.5 -19z" />
    <glyph glyph-name="Thorn" unicode="&#xde;" horiz-adv-x="596" 
d="M147 772l15 87h252l-15 -87h-68l-16 -90l109 5q53 2 98 -6t76 -32.5t43.5 -68t0.5 -112.5l-11 -65q-12 -66 -39 -107.5t-66 -65.5t-87 -32.5t-102 -8.5h-109l-18 -103h68l-15 -86h-252l15 86h68l121 686h-68zM393 598q-26 0 -50 -3.5l-45 -6.5l-54 -305q21 -2 44 -3
t46 -1q36 0 66.5 4.5t55 20t42 45.5t28.5 82l1 3q10 56 5 89t-22.5 49.5t-47 21t-69.5 4.5z" />
    <glyph glyph-name="dotaccent" unicode="&#x2d9;" horiz-adv-x="251" 
d="M182 680q5 28 25.5 42t46.5 14t41.5 -13.5t10.5 -42.5t-25.5 -43t-46.5 -14t-41.5 13t-10.5 44z" />
    <glyph glyph-name="hungarumlaut" unicode="&#x2dd;" horiz-adv-x="442" 
d="M363 726l-101 -126h-63l89 126h75zM503 726l-101 -126h-63l89 126h75z" />
    <glyph glyph-name="macron" unicode="&#xaf;" horiz-adv-x="523" 
d="M205 710h364l-13 -73h-364z" />
    <glyph glyph-name="commaaccent" unicode="&#xf6c3;" horiz-adv-x="225" 
d="M29 -129q6 35 27 52t47 17q21 0 35 -10t15 -36q1 -2 0.5 -9.5t-1.5 -17t-2.5 -17.5t-1.5 -11q-9 -54 -45 -92.5t-85 -60.5l-17 38q28 23 40 40.5t18 39.5q-18 5 -26.5 21t-3.5 46z" />
    <glyph glyph-name="s_t" unicode="&#xfb06;" horiz-adv-x="800" 
d="M678 711q25 3 49.5 5.5t50.5 4.5q-6 -32 -12 -68l-15 -89h114l-16 -91h-115q-11 -55 -19 -100.5l-15.5 -85.5l-14 -77.5l-13.5 -77.5q-9 -52 25 -52q6 0 12.5 0.5t15 2l20 3.5t29.5 6l-3 -79q-23 -5 -55 -10.5t-63 -5.5q-63 0 -81.5 41t-4.5 122l55 313h-274
q-69 0 -98.5 -17t-34.5 -46q-6 -32 15 -48.5t73 -25.5q29 -8 69 -13.5t74.5 -20t54.5 -45t10 -88.5q-16 -91 -82 -135.5t-173 -44.5q-65 0 -119.5 7t-101.5 20l36 145h85l-10 -57q17 -8 45 -15.5t66 -7.5q45 0 72.5 11t42.5 25.5t20 29t6 21.5q3 19 -5.5 31.5t-28 20.5
t-47.5 13.5t-64 11.5q-90 16 -124.5 52t-22.5 103q8 46 29.5 77t54.5 50.5t76.5 28t96.5 8.5h244h15t15 2q11 23 21.5 57.5t19.5 87.5z" />
    <glyph glyph-name="s_p" horiz-adv-x="1032" 
d="M597 393q4 23 5.5 37t1 21.5t-4.5 10t-10 2.5h-26t-23 1h-195q-58 0 -92.5 -16.5t-39.5 -45.5q-6 -32 15 -48.5t73 -25.5q19 -6 44 -9t50.5 -8t49.5 -13.5t40.5 -24t24 -41t0.5 -64.5q-16 -91 -82 -135.5t-173 -44.5q-65 0 -119.5 7t-101.5 20l36 145h85l-10 -57
q17 -8 45 -15.5t66 -7.5q45 0 72.5 11t42.5 25.5t20 29t6 21.5q3 19 -6 30t-28.5 18t-48 11.5l-64.5 10.5q-89 16 -123.5 52t-22.5 103q8 46 29 77t54 50t77 27.5t97 8.5h271q12 0 19.5 -4t13.5 -10t12 -14t15 -16q30 19 73 33.5t109 14.5q41 0 79.5 -10t65 -38t37 -76.5
t-2.5 -125.5l-15 -84q-13 -74 -40 -120t-63 -72t-77 -35.5t-82 -9.5q-34 0 -59 4t-41.5 9t-25 9t-9.5 5l-34 -193l-117 -35zM656 102q18 -9 42 -16.5t70 -7.5q28 0 53.5 6t47 24.5t38.5 52t27 89.5l7 42q10 56 5.5 91t-18.5 55t-36.5 27.5t-49.5 7.5q-38 0 -71.5 -12
t-55.5 -26z" />
    <glyph glyph-name="eth" unicode="&#xf0;" horiz-adv-x="654" 
d="M413 516q-2 14 -4.5 28t-4.5 28l63.5 28l63.5 28q-6 10 -16.5 20.5t-23 20t-26 16.5t-25.5 9l30 28.5l29 28.5q19 -2 38 -9.5t35.5 -19t30.5 -24t22 -24.5l56 25l56 24q2 -14 4.5 -28t5.5 -28l-92 -41q15 -38 19 -83t-5 -98l-23 -132q-18 -101 -46 -164.5t-69 -99.5
t-96 -49.5t-127 -13.5q-60 0 -108 12t-79.5 39.5t-44 72.5t-1.5 110q14 79 46.5 127t77 73.5t98 33.5t109.5 8q54 0 87 -12t59 -24q6 34 8.5 76t-8.5 74zM537 350q-29 10 -70.5 19t-101.5 9q-29 0 -57 -7.5t-52 -25.5t-42 -48.5t-26 -75.5q-8 -49 1.5 -78.5t30 -45t48 -20.5
t54.5 -5q30 0 61 5.5t58 24t47.5 53t30.5 93.5z" />
    <glyph glyph-name="currency" unicode="&#xa4;" horiz-adv-x="495" 
d="M219 259q-6 -35 12.5 -57t52.5 -22t60.5 22t32.5 57q6 34 -12.5 56.5t-52.5 22.5t-60.5 -22.5t-32.5 -56.5zM136 259q8 40 31 73l-54 66l80 69l54 -66q37 19 80 19q40 0 72 -18l73 61l54 -67l-72 -61q6 -17 8 -36.5t-2 -39.5q-4 -21 -12.5 -40.5t-20.5 -36.5l49 -60
l-79 -69l-50 62q-20 -10 -39 -14t-38 -4q-20 0 -38.5 4t-33.5 14l-78 -65l-55 68l77 66q-6 17 -8 35.5t2 39.5z" />
    <glyph glyph-name="ordmasculine" unicode="&#xba;" horiz-adv-x="349" 
d="M411 515q-10 -59 -28.5 -93.5t-42 -52.5t-51 -23.5t-55.5 -5.5h-7q-26 0 -51 5.5t-43 22.5t-25.5 48.5t1.5 82.5l10 55q9 53 28.5 83.5t44 46t52 19.5t54.5 4h2q26 0 51 -5.5t42.5 -22.5t25 -49t-1.5 -84zM330 538q6 34 4.5 54t-9 30.5t-18.5 13t-24 2.5t-25 -2.5
t-23.5 -13t-20.5 -32t-16 -58.5l-4 -23q-6 -37 -3.5 -57t10.5 -29.5t20 -11t25 -1.5q12 0 23.5 2.5t22 12.5t19 29t14.5 51z" />
    <glyph glyph-name="brokenbar" unicode="&#xa6;" horiz-adv-x="271" 
d="M318 781l-62 -353h-111l62 353h111zM231 286l-63 -356h-111l63 356h111z" />
    <glyph glyph-name="p" unicode="p" horiz-adv-x="622" 
d="M181 -177l-58 -17.5l-58 -17.5l111 629q5 30 -0.5 42t-22.5 12q-11 0 -22 -2t-20 -5l3 68l41.5 14t38.5 6q28 0 44.5 -9t27.5 -30q31 19 74 33t108 14q41 0 79.5 -10t65.5 -38t37.5 -76.5t-2.5 -125.5l-15 -84q-13 -74 -40 -120t-63 -72t-77.5 -35.5t-82.5 -9.5
q-59 0 -90 8t-45 19zM230 102q18 -9 42 -16t71 -7q27 0 52.5 6t47.5 24t39 51.5t27 89.5l7 42q10 56 5.5 91t-18.5 55t-36.5 27.5t-49.5 7.5q-38 0 -71.5 -11.5t-56.5 -25.5z" />
    <glyph glyph-name="q" unicode="q" horiz-adv-x="624" 
d="M376 -212l40 228q-14 -11 -49 -19t-93 -8q-41 0 -79 9.5t-65 35.5t-38.5 72t1.5 120l15 84q13 77 41.5 125.5t65 76.5t78.5 38t83 10q33 0 58 -4.5t44.5 -11t35 -15t27.5 -16.5q18 20 38.5 29.5t48.5 9.5q18 0 39 -8l32 -12l-21 -68q-21 7 -38 7q-32 0 -41 -51l-106 -597
zM490 436q-16 14 -45.5 25.5t-67.5 11.5q-27 0 -52 -7.5t-46.5 -27.5t-38 -55t-26.5 -91l-7 -42q-10 -56 -5.5 -89.5t20 -51.5t39 -24t50.5 -6q45 0 72.5 5.5t47.5 16.5z" />
    <glyph glyph-name="n" unicode="n" horiz-adv-x="640" 
d="M505 337q13 73 -9.5 103t-79.5 30q-42 0 -84 -17.5t-64 -52.5l-70 -400h-111l73 416q5 27 0 41t-23 14q-8 0 -13 -1t-10 -1l7 71q18 6 39 9t39.5 0t32 -14t16.5 -32q41 33 92 45t105 12q60 0 96 -19.5t54.5 -49t22 -64.5t-2.5 -66l-33 -188q-6 -36 -7.5 -55.5t4.5 -28
t19.5 -8t36.5 3.5l-3 -80q-42 -12 -76 -11t-56 17t-30.5 48t0.5 82l35 196v0z" />
    <glyph glyph-name="c" unicode="c" horiz-adv-x="526" 
d="M457 391l8 61q-17 10 -45.5 14t-50.5 4q-21 0 -44.5 -5t-45 -21.5t-39.5 -48t-27 -83.5l-14 -77q-9 -54 -2.5 -85t22.5 -47t37 -20.5t41 -4.5q59 0 102 8t81 20l12 -82q-40 -18 -97 -26t-114 -8q-45 0 -85.5 8t-69 32.5t-40.5 70t2 121.5l18 102q13 75 42 121t67.5 71.5
t82.5 34t86 8.5q33 0 57 -1.5t45 -4.5t41 -7.5l45 -10.5l-39 -144h-76z" />
    <glyph glyph-name="onedotenleader" unicode="&#x2024;" horiz-adv-x="230" 
d="M44 60q6 35 32 52t60 17q33 0 54 -15.5t14 -53.5t-33 -54t-59 -16q-34 0 -54.5 15.5t-13.5 54.5z" />
    <glyph glyph-name="twodotenleader" unicode="&#x2025;" horiz-adv-x="463" 
d="M44 60q6 35 32 52t60 17q33 0 54 -15.5t14 -53.5t-33 -54t-59 -16q-34 0 -54.5 15.5t-13.5 54.5zM261 60q6 35 32.5 52t59.5 17q34 0 54.5 -15.5t13.5 -53.5t-32.5 -54t-59.5 -16q-33 0 -54 15.5t-14 54.5z" />
    <glyph glyph-name="uni2215" unicode="&#x2215;" horiz-adv-x="382" 
d="M482 710l-350 -711h-113l346 711h117z" />
    <glyph glyph-name="uni2219" unicode="&#x2219;" horiz-adv-x="833" 
 />
    <glyph glyph-name="radical" unicode="&#x221a;" horiz-adv-x="702" 
d="M101 464l15 86h163l61 -446l270 536q31 66 64 105t62.5 61t54 29.5t39.5 10.5l-2 -74q-23 -6 -42 -27t-39 -59l-198 -391.5l-198 -390.5h-89l-45 279.5l-45 280.5h-71z" />
    <glyph glyph-name="infinity" unicode="&#x221e;" horiz-adv-x="597" 
d="M585 258q-7 -39 -24.5 -65t-40 -42t-48 -22.5t-48.5 -6.5h-4q-35 0 -55.5 11.5t-37.5 31.5q-24 -20 -48 -31.5t-62 -11.5h-4q-23 0 -46 7.5t-40.5 23.5t-25.5 41.5t-2 61.5v3q7 39 25 64.5t41 41t48.5 21.5t48.5 6q37 0 57.5 -11.5t37.5 -30.5q24 20 51 31t62 11
q23 0 46.5 -7.5t40.5 -23.5t25.5 -41.5t2.5 -61.5zM453 309q-18 0 -32 -11.5t-19 -39.5t5.5 -39.5t28.5 -11.5q17 0 31 12t19 39q5 28 -6 39.5t-27 11.5zM280 258q5 28 -6 39.5t-28 11.5t-31.5 -11.5t-19.5 -39.5t5.5 -39.5t28.5 -11.5q17 0 31.5 12t19.5 39z" />
    <glyph glyph-name="lozenge" unicode="&#x25ca;" horiz-adv-x="461" 
d="M89 355l204 355h122l86 -355l-211 -355h-122zM197 355l26 -117.5l27 -117.5l141 235l-59 234z" />
    <glyph glyph-name="uni037E" unicode="&#x37e;" horiz-adv-x="236" 
d="M47 60q6 35 32.5 52t59.5 17q30 0 49.5 -12t16.5 -45q1 -2 0.5 -9.5t-1.5 -17t-2 -17.5t-2 -11q-9 -54 -44.5 -92.5t-85.5 -60.5l-17 38q26 21 38.5 41.5t17.5 46.5q-32 2 -50.5 17t-11.5 53zM116 448q7 36 33 53t60 17q33 0 53.5 -16t13.5 -54q-6 -37 -32.5 -53.5
t-59.5 -16.5q-34 0 -54 16t-14 54z" />
    <glyph glyph-name="litre" unicode="&#x2113;" horiz-adv-x="551" 
d="M84 222q8 48 33.5 90.5t62 73.5t82 49t93.5 18t87 -18t65 -49t36.5 -73.5t2.5 -90.5q-9 -48 -34.5 -90.5t-62 -73.5t-82 -49t-93.5 -18t-87 18t-64.5 49t-36.5 73.5t-2 90.5z" />
    <glyph glyph-name="tonos" unicode="&#x384;" horiz-adv-x="205" 
d="M161 711h103l-23 -130h-70z" />
    <glyph glyph-name="anoteleia" unicode="&#x387;" horiz-adv-x="262" 
d="M161 165q-21 0 -38 5t-29 16t-17 28t-1 41q8 44 41.5 67t74.5 23q42 0 66.5 -22t16.5 -68t-40 -68t-74 -22z" />
    <glyph glyph-name="Alpha" unicode="&#x391;" horiz-adv-x="706" 
d="M19 0l15 86h68l158 312l158 312h125l93 -624h68l-15 -86h-158l-30 184h-231l-47 -92l-46 -92h-158zM311 271h181l-37 287z" />
    <glyph glyph-name="Alphatonos" unicode="&#x386;" horiz-adv-x="706" 
d="M19 0l15 86h68l158 312l158 312h125l93 -624h68l-15 -86h-158l-30 184h-231l-47 -92l-46 -92h-158zM311 271h181l-37 287zM180 711h103l-23 -129h-70z" />
    <glyph glyph-name="Xi" unicode="&#x39e;" horiz-adv-x="641" 
d="M219 406h359l-15 -86h-359zM206 534h-74l31 176h570l-31 -176h-74l5 31q3 17 3.5 31t-0.5 27h-353q-17 -1 -33 -4t-31 -8zM137 144q-6 -32 -3 -58h408q5 13 9.5 27t7.5 31l6 32h74l-31 -176h-570l31 176h74z" />
    <glyph glyph-name="Omicron" unicode="&#x39f;" horiz-adv-x="668" 
d="M459 720q51 0 100.5 -10t85.5 -41.5t51.5 -90.5t-1.5 -156l-22 -125q-17 -98 -51.5 -158t-80 -93.5t-99.5 -45t-111 -11.5t-107 11.5t-84 45t-46.5 94t4.5 157.5l22 125q17 97 53.5 156t83 90.5t99.5 41.5t103 10zM444 633q-39 0 -71.5 -11t-59 -38.5t-46.5 -73.5
t-32 -116l-16 -89q-12 -69 -8 -113t21.5 -69.5t46.5 -35.5t67 -10t70.5 10t59 35.5t46.5 69.5t32 113l16 89q12 70 8.5 116t-20.5 73.5t-46 38.5t-68 11z" />
    <glyph glyph-name="Omicrontonos" unicode="&#x38c;" horiz-adv-x="729" 
d="M518 720q51 0 100.5 -10t85 -41.5t51 -90.5t-1.5 -156l-22 -125q-17 -98 -51.5 -158t-80 -93.5t-99 -45t-110.5 -11.5t-107 11.5t-84 45t-47 94t4 157.5l22 125q17 97 53.5 156t83 90.5t99.5 41.5t104 10zM503 633q-39 0 -72 -11t-59.5 -38.5t-46.5 -73.5t-32 -116
l-16 -89q-12 -69 -8 -113t21.5 -69.5t47 -35.5t67.5 -10q37 0 70 10t59 35.5t46 69.5t32 113l16 89q12 70 8.5 116t-20 73.5t-45.5 38.5t-68 11zM112 711h103l-23 -129h-70z" />
    <glyph glyph-name="Pi" unicode="&#x3a0;" horiz-adv-x="720" 
d="M494 86h46l94 537h-293l-94 -537h46l-15 -86h-208l15 86h46l94 537h-68l16 87h661l-16 -87h-68l-95 -538h46l-14 -85h-208z" />
    <glyph glyph-name="Phi" unicode="&#x3a6;" horiz-adv-x="696" 
d="M530 710l-18 -101q67 0 111 -16t68 -47.5t29 -79.5t-6 -112q-12 -71 -35.5 -117.5t-59 -74.5t-84.5 -41.5t-113 -18.5l-17 -102h-110l17 102q-65 5 -109 19t-68.5 43t-30.5 75.5t6 115.5q22 129 91.5 191.5t200.5 62.5l18 101h110zM613 350q7 40 5.5 72.5t-15 55
t-39.5 34.5t-67 12l-59 -336q45 0 75.5 12t50.5 33.5t31.5 51t17.5 65.5zM209 350q-6 -36 -5.5 -65.5t13.5 -51t39.5 -33.5t71.5 -12l59 336q-41 0 -71.5 -12t-51.5 -34.5t-34.5 -55t-20.5 -72.5z" />
    <glyph glyph-name="Psi" unicode="&#x3a8;" horiz-adv-x="766" 
d="M532 578l-49 -281q20 1 43.5 7.5t44.5 21t37.5 39t22.5 60.5l24 131q5 31 14 55.5t18.5 43.5t19.5 33l18 25l114 -18q-5 -10 -11.5 -28t-12.5 -49h-45l-35 -202q-10 -57 -37.5 -95.5t-65 -62.5t-80.5 -35t-84 -12l-29 -163h46l-8 -48h-203l8 48h46l29 163q-41 1 -80 12
t-68 35t-42.5 62.5t-3.5 95.5l35 202h-47q6 31 6 49t-2 28l122 18l9 -25t8.5 -33t3.5 -43.5t-5 -55.5l-24 -131q-6 -36 1.5 -60t23.5 -39t37 -21.5t41 -7.5l49 281h111z" />
    <glyph glyph-name="Omega" unicode="&#x3a9;" horiz-adv-x="669" 
d="M427 171q51 6 89.5 60.5t57.5 161.5q12 71 8.5 118t-20 74.5t-45.5 38.5t-68 11q-45 0 -79 -13t-59.5 -41.5t-42.5 -74t-29 -111.5q-19 -108 -0.5 -163t68.5 -60l-14 -86.5t-15 -85.5h-205l15 86h115l7 39l-22 5q-24 11 -42 29.5t-28 48t-11 71.5t9 100l8 46
q17 97 53.5 155.5t83.5 90t100 41.5t104 10q50 0 99.5 -10t85 -41.5t51 -90t-1.5 -155.5l-8 -46q-10 -59 -26 -101.5t-36 -71.5t-45 -47.5t-53 -28.5l-23 -7l-6 -37h115l-15 -86h-205z" />
    <glyph glyph-name="Omega" unicode="&#x2126;" horiz-adv-x="669" 
d="M427 171q51 6 89.5 60.5t57.5 161.5q12 71 8.5 118t-20 74.5t-45.5 38.5t-68 11q-45 0 -79 -13t-59.5 -41.5t-42.5 -74t-29 -111.5q-19 -108 -0.5 -163t68.5 -60l-14 -86.5t-15 -85.5h-205l15 86h115l7 39l-22 5q-24 11 -42 29.5t-28 48t-11 71.5t9 100l8 46
q17 97 53.5 155.5t83.5 90t100 41.5t104 10q50 0 99.5 -10t85 -41.5t51 -90t-1.5 -155.5l-8 -46q-10 -59 -26 -101.5t-36 -71.5t-45 -47.5t-53 -28.5l-23 -7l-6 -37h115l-15 -86h-205z" />
    <glyph glyph-name="Omegatonos" unicode="&#x38f;" horiz-adv-x="708" 
d="M477 171q51 6 89.5 60.5t57.5 161.5q12 71 8.5 118t-20 74.5t-45.5 38.5t-68 11q-45 0 -79 -13t-59.5 -41.5t-42.5 -74t-29 -111.5q-19 -108 -0.5 -163t68.5 -60l-14 -86.5t-15 -85.5h-205l15 86h115l7 39l-22 5q-24 11 -42 29.5t-28 48t-11 71.5t9 100l8 46
q17 97 53.5 155.5t83.5 90t100 41.5t104 10q50 0 99.5 -10t85 -41.5t51 -90t-1.5 -155.5l-8 -46q-10 -59 -26 -101.5t-36 -71.5t-45 -47.5t-53 -28.5l-23 -7l-6 -37h115l-15 -86h-205zM116 711h103l-23 -130h-70z" />
    <glyph glyph-name="beta" unicode="&#x3b2;" horiz-adv-x="601" 
d="M128 -189q-27 1 -53.5 1.5t-53.5 2.5l18 64.5t18 80.5l91 516q11 63 39 109t66.5 76t83.5 45t91 15q41 0 80 -11.5t68 -34.5t43.5 -57t6.5 -79l-3 -15q-11 -58 -37.5 -92.5t-71.5 -54.5q24 -11 43 -25t31 -34.5t15.5 -47t-2.5 -61.5l-6 -36q-8 -44 -29 -75.5t-50.5 -53
t-65.5 -34.5t-73.5 -19.5t-74.5 -8.5t-69 -2l13 76h10q22 0 57.5 5t70.5 20t63 43t36 73q11 64 -27 100.5t-108 36.5h-38q8 16 16.5 40t16.5 39q29 0 56 4t49 15.5t37.5 32.5t21.5 56q5 27 -2.5 46.5t-22.5 33t-35 20t-40 6.5q-48 0 -88 -35.5t-53 -105.5l-80 -452
q-4 -23 -8.5 -43.5t-11 -45.5t-16 -57z" />
    <glyph glyph-name="gamma" unicode="&#x3b3;" horiz-adv-x="634" 
d="M699 551l-16 -87h-66l-248 -451l-40 -225l-110 -1l39 223l-40 227l-40 227h-66l16 87h157l48 -429l104.5 214.5l104.5 214.5h157z" />
    <glyph glyph-name="epsilon" unicode="&#x3b5;" horiz-adv-x="609" 
d="M85 163q9 52 38 80.5t77 45.5q-31 15 -46.5 43t-7.5 73q8 47 36.5 77.5t67.5 48.5t83.5 25.5t86.5 7.5q56 0 105.5 -10.5t110.5 -32.5l-22 -61.5l-22 -61.5l-104 15l9 50q-21 7 -45 10.5t-39 3.5q-24 0 -48 -3t-45 -11.5t-35.5 -23t-18.5 -37.5q-8 -44 18 -60.5t76 -16.5
h72l-36 -82h-52q-62 0 -93.5 -16t-37.5 -51q-5 -26 4 -45t26.5 -31t41 -18t48.5 -6q37 0 66.5 4t54.5 10.5t47 14t45 13.5l18 -77l-53.5 -18.5t-58 -17t-65 -12t-73.5 -4.5q-46 0 -90.5 9.5t-78 30.5t-51 54t-9.5 80z" />
    <glyph glyph-name="zeta" unicode="&#x3b6;" horiz-adv-x="633" 
d="M443 -72q6 36 -11 54t-54 18h-36q-25 0 -53.5 1.5t-56.5 7.5t-53 17.5t-42.5 31t-25 48.5t-0.5 70l3 17q6 33 27 62.5t52 59.5t70 61.5l81 66.5l218 182h-311q-8 -17 -13 -35t-10 -44h-76l30 171h525l-16 -92l-107.5 -93l-92.5 -79.5l-80 -68.5l-70 -60l-49 -43
t-33.5 -33t-21 -29t-10.5 -31q-6 -36 6 -55.5t36.5 -29.5t57 -13.5t66.5 -6.5t66 -9.5t55 -23t33.5 -46.5t1.5 -79q-5 -27 -25 -50.5t-49 -41.5t-64.5 -28.5t-70.5 -10.5l-7 62q18 0 36 3.5t33 11.5t25.5 22t15.5 35z" />
    <glyph glyph-name="theta" unicode="&#x3b8;" horiz-adv-x="523" 
d="M560 409q-14 -78 -31.5 -153.5t-49.5 -135t-84 -95.5t-135 -36q-75 0 -114.5 30.5t-54 84t-9.5 124.5t20 152q13 77 37 140t59 108t82.5 69.5t108.5 24.5q39 0 76 -16t63.5 -52.5t36.5 -96.5t-5 -148zM274 73q25 0 48.5 10t43.5 37t37.5 73.5t30.5 119.5h-234
q-14 -77 -13.5 -124t11 -72.5t30.5 -34.5t46 -9zM374 638q-26 0 -49 -9t-43 -34.5t-37 -73t-30 -123.5h234q13 73 12 119.5t-12 73.5t-30.5 37t-44.5 10z" />
    <glyph glyph-name="lambda" unicode="&#x3bb;" horiz-adv-x="665" 
d="M36 0l15 87h56l262 427q-11 35 -20 56.5t-22 33.5t-32 16t-50 4l15 86q62 0 101 -15.5t63.5 -43t38.5 -65.5t25 -84l34 -122.5l28 -107l25 -96l24 -89.5h54l-15 -87h-142l-90 400l-229 -400h-141z" />
    <glyph glyph-name="uni03BC" unicode="&#x3bc;" horiz-adv-x="637" 
d="M148 -229q-26 2 -51 2.5t-51 1.5l14 46q5 23 11.5 49t11.5 55l95 539h-62l16 87h173l-68 -382q-7 -42 13.5 -65t62.5 -23q52 0 94 18.5t63 47.5l72 404h110l-74 -416q-5 -27 0.5 -42t20.5 -15q10 0 15 1l11 3l-5 -75q-11 -5 -27.5 -8.5t-30.5 -3.5q-17 0 -28.5 4
t-19.5 11.5t-14.5 18l-14.5 22.5q-13 -17 -34.5 -28.5t-46 -18t-50.5 -9.5t-48 -3q-32 0 -55 8.5t-39 22.5l-15 -84q-8 -43 -16 -72.5t-16 -52.5l-17 -43v0z" />
    <glyph glyph-name="xi" unicode="&#x3be;" horiz-adv-x="576" 
d="M315 -8q-129 0 -180.5 50.5t-31.5 164.5q12 70 48.5 109.5t92.5 60.5q-33 17 -50.5 46.5t-7.5 81.5q8 47 27.5 75t49.5 43h-119l16 87h507l-31 -176h-74l5 31q3 17 2 31l-2 27h-131q-48 0 -86 -24t-48 -78q-5 -30 6 -45q4 -23 17.5 -35.5t32.5 -18.5t42 -7.5t47 -1.5
l-13.5 -39.5l-13.5 -39.5h-31q-149 0 -171 -125q-6 -35 -4 -58.5t12 -38.5t29 -22t46 -10q39 -3 79.5 -7.5t72.5 -18.5t49.5 -42t8.5 -78l-3 -17q-3 -14 -17 -30q-26 -45 -79 -72.5t-113 -27.5l-7 61q21 1 36 6.5t26 15.5q14 7 27 18t17 31q4 25 -1.5 39.5t-17.5 22t-29 9.5
t-35 2z" />
    <glyph glyph-name="pi" unicode="&#x3c0;" horiz-adv-x="715" 
d="M489 0l81 464h-262l-81 -464h-116l81 464h-69l16 87h631l-16 -87h-68l-81 -464h-116z" />
    <glyph glyph-name="rho" unicode="&#x3c1;" horiz-adv-x="605" 
d="M589 218q-14 -75 -42 -120t-65 -69.5t-81 -32t-90 -7.5q-49 0 -76 7.5t-47 20.5l-39 -222l-111 -7l95 538q13 77 42.5 123t68 70t82.5 31.5t86 7.5t82.5 -8.5t70 -34.5t42.5 -73t0 -123zM496 312q9 52 2.5 84t-22.5 49t-37 22.5t-42 5.5t-44.5 -5t-45.5 -21.5t-39.5 -48
t-26.5 -83.5l-18 -100q-12 -74 -9 -116q17 -12 40.5 -19.5t68.5 -7.5q24 0 48.5 6t45.5 23t38 48t26 82z" />
    <glyph glyph-name="uni03C2" unicode="&#x3c2;" horiz-adv-x="504" 
d="M362 -80q7 37 -11 55t-53 18h-27q-45 0 -86 7.5t-70 31.5t-41 69t2 121l18 102q13 75 42.5 121t68 71.5t82.5 34t86 8.5q33 0 55.5 -1t42 -4t38.5 -7t44 -10q-4 -11 -5 -19l-30 -127h-73l9 61q-9 5 -21 8.5t-25 5.5t-26.5 3t-24.5 1q-21 0 -44.5 -5t-45 -21.5t-39 -48
t-26.5 -83.5l-14 -77q-9 -54 -2 -84.5t22 -46t33.5 -19.5t32.5 -5l34 -2q32 -2 62.5 -8t53.5 -19.5t36.5 -36.5t11.5 -60l-3 -17q0 -7 -2 -17q-5 -28 -23.5 -52.5t-45.5 -42.5t-60.5 -28t-67.5 -10h-11q-4 29 -6 61q16 0 33.5 4t32.5 12.5t26.5 22t16.5 33.5z" />
    <glyph glyph-name="sigma" unicode="&#x3c3;" horiz-adv-x="617" 
d="M572 220q-14 -76 -42.5 -121.5t-66 -70t-81 -32t-88.5 -7.5q-46 0 -87.5 7t-70.5 31t-40.5 70.5t2.5 124.5l18 104q13 77 42.5 123t68 70t82 31.5t85.5 7.5h292l-15 -84h-106q17 -23 26 -60.5t-1 -94.5zM478 312q9 51 3 82.5t-21.5 49t-36.5 23.5t-42 6t-45 -5t-46 -21.5
t-40 -48t-27 -83.5l-15 -84q-9 -54 -3.5 -85t21.5 -47t38 -20.5t46 -4.5q21 0 44.5 5t44.5 21.5t38 47t26 81.5z" />
    <glyph glyph-name="tau" unicode="&#x3c4;" horiz-adv-x="579" 
d="M175 374h-74l31 176h501l-31 -176h-74l6 32q6 33 3 58h-115l-66 -378h73l-15 -86h-258l15 86h74l66 378h-71q-30 -3 -51 -13z" />
    <glyph glyph-name="phi" unicode="&#x3c6;" horiz-adv-x="625" 
d="M495 741l-31 -179q42 -1 79.5 -11.5t63 -37.5t35.5 -72.5t-3 -117.5l-16 -95q-13 -72 -40 -118t-62.5 -72t-76.5 -36.5t-81 -11.5l-36 -203h-108l36 203q-41 1 -78 11.5t-63 36.5t-36.5 71t1.5 117l17 96q13 72 39 118t60.5 72.5t75.5 37.5t85 12l31 179h108zM181 234
q-9 -50 -4 -80.5t19 -47.5t33.5 -23.5t40.5 -7.5l71 403q-23 -1 -45 -8.5t-42 -26.5t-35.5 -51t-24.5 -81zM537 310q9 50 4 82.5t-18.5 51t-33 26t-40.5 8.5l-71 -403q19 1 41 7.5t42.5 23.5t37 47t25.5 80z" />
    <glyph glyph-name="psi" unicode="&#x3c8;" horiz-adv-x="670" 
d="M503 630l-98 -555q21 1 43 7t42 23t36 47.5t25 80.5l16 94q6 31 15 54.5t19.5 40.5t21 28.5t19.5 19.5l66 -25q-8 -14 -17 -38t-16 -64l-21 -118q-13 -72 -40.5 -117t-63.5 -71t-77.5 -36t-82.5 -11l-36 -202h-110l36 202q-41 1 -78.5 11.5t-64.5 36.5t-38.5 71.5
t1.5 117.5l20 116q7 40 6.5 64t-4.5 38l75 25q7 -8 13.5 -19.5t11 -28.5t5.5 -40.5t-5 -54.5l-17 -95q-9 -49 -3 -79.5t20 -47.5t33.5 -23t39.5 -7l98 555h110z" />
    <glyph glyph-name="omega" unicode="&#x3c9;" horiz-adv-x="746" 
d="M134 412q8 46 19.5 76.5t24.5 50t25.5 30t22.5 15.5q16 -5 30.5 -11t30.5 -11q-9 -17 -21.5 -46t-22.5 -83l-47 -263q-7 -39 7 -64t56 -25q33 0 51.5 11t28 28.5t14 40t8.5 45.5l38 218l103 16l-41 -231q-6 -34 -8 -58t3.5 -39.5t20.5 -23t42 -7.5q42 0 64.5 25.5
t28.5 63.5l47 265q10 54 7.5 83t-5.5 46q17 5 34 11t34 11q8 -5 17 -15.5t15 -30t6.5 -50t-7.5 -76.5l-40 -231q-17 -97 -72.5 -143.5t-132.5 -46.5q-29 0 -49.5 4.5t-35 13.5t-25 23t-19.5 33q-19 -20 -35.5 -34t-34 -23t-38 -13t-47.5 -4q-83 0 -118.5 48t-18.5 142z" />
    <glyph glyph-name="uni03D1" unicode="&#x3d1;" horiz-adv-x="635" 
d="M694 351l-36 -85h-69q-19 -86 -49.5 -139t-71 -82t-90 -39t-106.5 -10t-110.5 13.5t-111.5 42.5q11 19 22.5 37t22.5 37q45 -22 92.5 -32t98.5 -10q39 0 70.5 8t55.5 28.5t41 55.5t26 90h-148q-45 0 -87.5 7t-73 30.5t-43.5 68t0 119.5q14 78 45 124.5t71 71.5t86 32.5
t90 7.5t86 -5t73 -24.5t46.5 -58.5t8.5 -106q-3 -37 -12 -86l-17 -96h90zM515 462q11 63 6 98.5t-21.5 53.5t-41.5 22.5t-54 4.5q-23 0 -48 -2.5t-48 -16.5t-41.5 -43.5t-27.5 -83.5q-6 -32 0 -52q1 -30 11 -48t25 -28t34 -13t39 -3h147z" />
    <glyph glyph-name="afii10018" unicode="&#x411;" horiz-adv-x="677" 
d="M172 710h524l-29 -160h-76l7 35q3 24 -1 38h-256l-37 -212h112q50 0 100 -5t88 -24t57.5 -56t8.5 -100l-4 -25q-3 -18 -7.5 -34t-9.5 -30q-17 -50 -52 -78t-79.5 -41t-93.5 -15.5t-93 -2.5h-261l15 86h46l94 537h-69zM557 206q11 65 -25 96t-110 31h-132l-43 -247h118
q31 0 62 2.5t57.5 14.5t45.5 36t27 67z" />
    <glyph glyph-name="afii10020" unicode="&#x413;" horiz-adv-x="582" 
d="M173 710h512l-29 -160h-77l7 35q2 12 2 21t-3 17h-243l-94 -537h68l-15 -86h-253l15 86h69l94 537h-69z" />
    <glyph glyph-name="afii10033" unicode="&#x41f;" horiz-adv-x="758" 
d="M494 86h46l94 537h-293l-94 -537h46l-15 -86h-208l15 86h46l94 537h-68l16 87h661l-16 -87h-68l-95 -538h46l-14 -85h-208z" />
    <glyph glyph-name="afii10040" unicode="&#x426;" horiz-adv-x="757" 
d="M681 -125h-116l23 125h1h-541l15 86h68l94 537h-68l16 87h230l-16 -87h-46l-94 -537h288l94 537h-46l16 87h230l-16 -87h-68l-94 -537h68z" />
    <glyph glyph-name="afii10041" unicode="&#x427;" horiz-adv-x="703" 
d="M229 623h-78l16 87h189l-35 -195q-9 -54 -6 -87.5t17 -52.5t37.5 -26t54.5 -7q15 0 36 1.5t42 9t39 23t26 44.5l51 290h163l-16 -87h-47l-94 -537h46l-15 -86h-208l15 86h46l38 215q-30 -21 -66.5 -30t-74.5 -9q-47 0 -88.5 8.5t-70.5 32t-42 65.5t-1 108z" />
    <glyph glyph-name="afii10042" unicode="&#x428;" horiz-adv-x="1019" 
d="M564 624h-46l15 86h209l-15 -86h-46l-95 -538h222l95 538h-46l15 86h230l-16 -87h-68l-94 -537h68l-15 -86h-930l15 86h69l94 537h-69l16 87h231l-15 -86h-46l-95 -538h222z" />
    <glyph glyph-name="afii10043" unicode="&#x429;" horiz-adv-x="1022" 
d="M954 -125h-115l23 125h-815l15 86h69l94 537h-69l16 87h231l-15 -86h-46l-95 -538h222l95 538h-46l15 86h209l-15 -86h-46l-95 -538h222l95 538h-46l15 86h230l-16 -87h-68l-94 -537h68z" />
    <glyph glyph-name="afii10048" unicode="&#x42e;" horiz-adv-x="993" 
d="M148 623l16 87h252l-16 -87h-68l-40 -227h153l5 26q17 97 53.5 156t83 90.5t99.5 41.5t103 10q51 0 100.5 -10t85.5 -41.5t51.5 -90.5t-1.5 -156l-22 -125q-17 -98 -51.5 -158t-80 -93.5t-99.5 -45t-111 -11.5q-61 0 -111 15.5t-82 52t-43.5 97.5t4.5 152h-153l-38 -220
h68l-15 -86h-252l15 86h68l94 537h-68zM774 633q-39 0 -71.5 -11t-59 -38.5t-46.5 -73.5t-32 -116l-16 -89q-12 -69 -8 -113t21.5 -69.5t46.5 -35.5t67 -10t70.5 10t59 35.5t46.5 69.5t32 113l16 89q12 70 8.5 116t-20.5 73.5t-46 38.5t-68 11z" />
    <glyph glyph-name="afii10050" unicode="&#x490;" horiz-adv-x="582" 
d="M248 86h68l-15 -86h-253l15 86h69l94 537h-69l16 87h414l20 118h95l-36 -205h-324z" />
    <glyph glyph-name="afii10051" unicode="&#x402;" horiz-adv-x="753" 
d="M193 534h-74l31 176h591l-31 -176h-74l15 89h-167l-39 -225q20 24 62.5 35t89.5 11q40 0 76 -9.5t60.5 -34.5t34 -69t-2.5 -113q-12 -68 -37 -111.5t-58 -68.5t-72.5 -35t-80.5 -11l-4 85q30 1 53.5 7.5t41 22t29.5 42t19 67.5q7 43 1 70t-20.5 42t-35 20.5t-41.5 5.5
q-50 0 -88.5 -26t-50.5 -65l-46 -263h-185l15 86h74l94 537h-165z" />
    <glyph glyph-name="afii10052" unicode="&#x403;" horiz-adv-x="562" 
d="M166 710h512l-29 -160h-77l7 35q2 12 2 21t-3 17h-243l-94 -537h68l-15 -86h-253l15 86h69l94 537h-69zM550 882l-44 -61l-44 -60h-91l75 121h104z" />
    <glyph glyph-name="afii10053" unicode="&#x404;" horiz-adv-x="609" 
d="M493 313h-264q-13 -72 -10 -117.5t20.5 -72t48 -36.5t73.5 -10q37 0 67.5 4t56.5 10.5t49 14.5t46 15l18 -74q-51 -20 -120.5 -39t-148.5 -19q-50 0 -98 11t-82.5 43t-48.5 91.5t3 157.5l18 102q18 104 51.5 168t79.5 99.5t102 47.5t120 12q28 0 78.5 -6.5t136.5 -28.5
l-35 -161h-75l10 74q-26 14 -59 24t-70 10q-42 0 -75 -9t-59 -34t-46 -71t-36 -119h264z" />
    <glyph glyph-name="Lje.alt" horiz-adv-x="554" 
d="M84 222q8 48 33.5 90.5t62 73.5t82 49t93.5 18t87 -18t65 -49t36.5 -73.5t2.5 -90.5q-9 -48 -34.5 -90.5t-62 -73.5t-82 -49t-93.5 -18t-87 18t-64.5 49t-36.5 73.5t-2 90.5z" />
    <glyph glyph-name="afii10066" unicode="&#x431;" horiz-adv-x="577" 
d="M606 671q-35 -17 -71.5 -20t-71.5 -1.5t-68 1.5t-61 -11.5t-50.5 -39.5t-37.5 -83q31 17 68 28t72 11q43 0 80.5 -7.5t65.5 -26.5t44 -52.5t16 -85.5q0 -37 -6 -76l-6.5 -30t-4 -20t-2 -13t-1.5 -9q-14 -77 -42 -125t-65.5 -74.5t-82.5 -36t-93 -9.5q-42 0 -79.5 7
t-66 26t-45 52.5t-16.5 86.5q0 17 2 36.5t5 39.5l46 261q14 76 42.5 121.5t65.5 70t80.5 32.5t88.5 8q22 -1 36.5 -1.5t25.5 -1t21 0.5t23 3l7 51q23 1 46 6t41 4zM479 313q3 16 4 30.5t1 23.5q0 36 -10 57.5t-25.5 32.5t-35.5 14.5t-40 3.5q-21 0 -44.5 -6.5t-46 -23.5
t-41.5 -46t-31 -74l-8 -47.5t-4.5 -27t-2.5 -13t-1 -6.5q-3 -21 -4 -31.5t-1 -21.5q0 -36 10 -58t26 -33t35.5 -14.5t38.5 -3.5q23 0 48 6t48 24t41.5 50t28.5 85z" />
    <glyph glyph-name="afii10069" unicode="&#x434;" horiz-adv-x="551" 
d="M220 794q20 -2 32 -3.5t21 -2.5t16 -2t16 -3l-13 -52q11 -1 29 -1t35.5 0.5t29 1t10.5 0.5q39 0 75.5 -5t65 -21.5t46 -48t17.5 -85.5q0 -17 -2 -36.5t-5 -39.5l-46 -261q-14 -77 -42 -124.5t-66 -74.5t-83 -36.5t-93 -9.5q-42 0 -79.5 7t-65.5 26.5t-44.5 52.5t-16.5 86
l21 150q13 75 40.5 123t65 75t82.5 37.5t93 10.5q40 0 72 -11.5t58 -28.5q2 11 2.5 21.5t0.5 18.5q0 31 -9 50t-24 28.5t-34.5 12.5t-40.5 3q-30 0 -54.5 -2t-48.5 -1.5t-49 5.5t-55 18zM163 177q0 -35 10 -56.5t25.5 -32.5t35 -14.5t39.5 -3.5q23 0 48 6t48 24t42 50t29 85
l19 106q3 43 -6.5 70t-26 41.5t-37 19.5t-40.5 5q-25 0 -50 -5.5t-47.5 -23t-40.5 -51t-27 -88.5z" />
    <glyph glyph-name="de.alt" horiz-adv-x="705" 
d="M650 -125h-115l23 125h-413l-23 -125h-115l38 211h26q27 2 51.5 9t45.5 26.5t37.5 54t26.5 91.5l34 196h-68l15 87h541l-15 -87h-68l-66 -377h83zM555 463h-172l-39 -222q-9 -51 -31 -93t-52 -62h228z" />
    <glyph glyph-name="afii10072" unicode="&#x436;" horiz-adv-x="1117" 
d="M1066 391l8 61q-17 10 -45.5 14t-50.5 4q-21 0 -44.5 -5t-45 -21.5t-39.5 -48t-27 -83.5l-14 -77q-9 -54 -2.5 -85t22.5 -47t37 -20.5t41 -4.5q59 0 102 8t81 20l12 -82q-40 -18 -97 -26t-114 -8q-45 0 -85.5 8t-69 32.5t-40.5 70t2 121.5l1 8h-51l-40 -230h-111l40 230
h-40l-1 -5q-13 -75 -42.5 -121t-67.5 -71.5t-82 -34t-86 -8.5q-33 0 -57 1.5t-45 4.5t-41 7.5l-45 10.5l39 144h76l-8 -61q9 -5 20.5 -8.5t24.5 -5.5t26.5 -3t24.5 -1q21 0 44.5 5t45 21.5t39.5 47.5t27 84l14 77q9 54 2.5 85t-22.5 47t-37.5 20.5t-40.5 4.5q-59 0 -102 -8
t-81 -20l-12 82q40 18 97 26t114 8q45 0 85.5 -8t69 -32.5t40 -70t-1.5 -121.5l-2 -10h41l41 234h111l-41 -234h51l1 7q13 75 42 121t67.5 71.5t82.5 34t86 8.5q33 0 57 -1.5t45 -4.5t41 -7.5l45 -10.5l-39 -144h-76z" />
    <glyph glyph-name="afii10073" unicode="&#x437;" horiz-adv-x="579" 
d="M565 163q-8 -47 -37 -80t-69.5 -54t-88.5 -30.5t-94 -9.5q-39 0 -72 4.5t-61 12t-52.5 17l-46.5 18.5l44 77q20 -6 40 -13.5t43 -14t51 -10.5t65 -4q25 0 50.5 6t47.5 18t37.5 31t20.5 45q12 67 -109 67h-52l-6 82h72q51 0 81.5 16t38.5 61q4 23 -5 37.5t-26.5 23
t-40.5 11.5t-47 3q-15 0 -40.5 -3.5t-49.5 -10.5l-9 -50l-108 -15q0 31 -0.5 61.5t-1.5 61.5q68 22 122 32.5t110 10.5q42 0 84 -7.5t74.5 -25.5t50 -48.5t9.5 -77.5q-8 -45 -33.5 -73t-62.5 -43q43 -17 61.5 -45.5t9.5 -80.5z" />
    <glyph glyph-name="afii10074" unicode="&#x438;" horiz-adv-x="608" 
d="M194 196q-13 -73 9.5 -103t79.5 -30q42 0 84 17.5t64 52.5l70 400h111l-73 -416q-5 -27 0 -41t23 -14q8 0 13 1t10 1l-7 -71q-18 -6 -39 -9t-39.5 0t-32 14t-16.5 32q-41 -33 -92 -45t-105 -12q-60 0 -96 19.5t-54.5 49t-22 64.5t2.5 66l33 188q6 36 7.5 55.5t-4.5 28
t-19.5 8t-36.5 -3.5l3 80q42 12 76 11t56 -17t30.5 -48t-0.5 -82z" />
    <glyph glyph-name="afii10078" unicode="&#x43c;" horiz-adv-x="807" 
d="M862 551l-16 -87h-68l-66 -378h46l-15 -86h-156l73 416l-178 -254h-101l-85 251l-72 -413h-157l15 86h46l66 378h-68l16 87h214l97 -278l97.5 138.5l97.5 139.5h214z" />
    <glyph glyph-name="afii10079" unicode="&#x43d;" horiz-adv-x="726" 
d="M588 550h110l-83 -475h79l-12 -75h-190l42 244h-272l-42 -244h-107l83 475h-81l14 75h187l-40 -232h272z" />
    <glyph glyph-name="afii10086" unicode="&#x444;" horiz-adv-x="640" 
d="M498 741l-31 -179q42 -1 79 -11.5t62.5 -37.5t35.5 -72.5t-3 -117.5l-16 -95q-13 -72 -40 -118t-62 -72t-76 -36.5t-81 -11.5l-36 -203h-111l36 203q-41 1 -78 11.5t-63 36.5t-36.5 71t1.5 117l17 96q13 72 39 118t60.5 72.5t75.5 37.5t85 12l31 179h111zM181 234
q-9 -50 -4 -80.5t19 -47.5t34 -23.5t40 -7.5l71 403q-22 -1 -44.5 -8.5t-42 -26.5t-35.5 -51t-25 -81zM539 310q9 50 4.5 82.5t-18 51t-33 26t-40.5 8.5l-71 -403q19 1 40.5 7.5t42 23.5t37 47t25.5 80z" />
    <glyph glyph-name="afii10095" unicode="&#x44d;" horiz-adv-x="536" 
d="M175 241q0 19 1 37.5l2 37.5h266q7 54 -3.5 84.5t-30 46.5t-44 20t-44.5 4q-51 0 -91 -12.5t-74 -37.5q-7 17 -13.5 34.5l-12.5 34.5q42 39 94.5 54.5t105.5 15.5q45 0 90.5 -9t78.5 -35t48.5 -72.5t2.5 -122.5l-17 -96q-13 -76 -46 -122t-75 -71.5t-89 -34t-89 -8.5
q-57 0 -106.5 9t-83.5 26l42 73q31 -7 70 -12.5t98 -5.5q21 0 47 4.5t51.5 21t46.5 48.5t31 88h-256v0z" />
    <glyph glyph-name="afii10098" unicode="&#x491;" horiz-adv-x="568" 
d="M248 86h68l-15 -86h-253l15 86h69l66 378h-69l16 87h394l20 118h95l-36 -205h-304z" />
    <glyph glyph-name="afii10101" unicode="&#x454;" horiz-adv-x="540" 
d="M189 241q-10 -56 -0.5 -88t29 -48.5t44 -21t45.5 -4.5q59 0 100.5 5.5t75.5 12.5l16 -73q-40 -17 -92.5 -26t-109.5 -9q-42 0 -86 8.5t-77.5 34t-50 71.5t-3.5 122l17 96q13 76 45.5 122.5t74.5 72.5t90.5 35t93.5 9q53 0 100 -15.5t76 -54.5l-24.5 -34.5l-25.5 -34.5
q-25 25 -60.5 37.5t-86.5 12.5q-20 0 -46.5 -4t-52 -20t-47 -46.5t-32.5 -84.5h266q-5 -19 -11 -37.5l-12 -37.5h-256z" />
    <glyph glyph-name="afii10106" unicode="&#x459;" horiz-adv-x="933" 
d="M742 550l-15 -86h-68l-16 -95q21 2 55 4.5t72 2.5t74 -9t61.5 -32t37 -63t0.5 -101q-10 -57 -41 -91.5t-70 -53.5t-81 -25.5t-74 -6.5q-18 0 -30 0.5t-22.5 1.5t-21.5 3t-28 4q-26 0 -53 -6t-56 -10l-31 49q15 5 28 12.5t18 33.5l67 382h-194l-43 -244
q-14 -80 -45.5 -124.5t-72 -66.5t-85.5 -26.5t-86 -4.5l15 87q22 1 46.5 3.5t46.5 15t39.5 40t26.5 77.5l43 243h-68l15 86h556zM753 286q-30 0 -64.5 -2t-61.5 -6l-33 -182q13 -2 21.5 -4t16 -3.5t17.5 -2.5t27 -1q77 0 115 21t46 65q10 56 -7 85.5t-77 29.5z" />
    <glyph glyph-name="lje.alt" horiz-adv-x="557" 
d="M84 222q8 48 33.5 90.5t62 73.5t82 49t93.5 18t87 -18t65 -49t36.5 -73.5t2.5 -90.5q-9 -48 -34.5 -90.5t-62 -73.5t-82 -49t-93.5 -18t-87 18t-64.5 49t-36.5 73.5t-2 90.5z" />
    <glyph glyph-name="afii10108" unicode="&#x45b;" horiz-adv-x="649" 
d="M243 710h110l-18 -99h100l-15 -86h-99l-27 -152q21 24 62.5 35t89.5 11q39 0 75.5 -7.5t61.5 -31t35 -66t-2 -112.5l-6 -36q-6 -32 -7 -50t4.5 -26t18 -8t35.5 3l-3 -80q-42 -12 -76 -11t-56 17t-30.5 48t0.5 82l7 35q9 51 3 81t-20.5 46t-34.5 21t-41 5
q-36 0 -61.5 -8.5t-43 -23.5t-27.5 -36t-14 -46l-37 -215h-160l15 86h51l77 439h-96l15 86h96z" />
    <glyph glyph-name="afii10145" unicode="&#x40f;" horiz-adv-x="728" 
d="M399 -135h-116l24 135h-241l15 86h46l94 537h-68l16 87h184l-110 -624h273l110 624h184l-16 -87h-68l-94 -537h46l-15 -86h-240z" />
    <glyph glyph-name="afii10146" unicode="&#x462;" horiz-adv-x="779" 
d="M189 534h-74l31 176h591l-31 -176h-74l15 89h-167l-37 -212h70q54 0 110 -3t99.5 -20.5t66.5 -55t11 -106.5l-8 -49q-12 -66 -48.5 -102t-85.5 -52.5t-104 -19.5t-103 -3h-255l15 86h64l94 537h-165zM686 206q11 65 -25.5 92t-110.5 27h-122l-42 -239h108q31 0 62 2.5
t57.5 14.5t45.5 36t27 67z" />
    <glyph glyph-name="afii10193" unicode="&#x45f;" horiz-adv-x="711" 
d="M394 -135h-116l24 135h-241l14 85h46l67 378h-46l16 88h162l-82 -465h273l82 465h162l-16 -88h-46l-67 -378h46l-14 -85h-240z" />
    <glyph glyph-name="afii10194" unicode="&#x463;" horiz-adv-x="594" 
d="M128 611h92l18 99h111l-18 -99h101l-15 -88h-100l-27 -154q17 2 48.5 4.5t63.5 2.5q40 0 78.5 -7t67 -28t41.5 -60.5t2 -104.5q-11 -59 -35 -94.5t-56 -55t-67.5 -26t-68.5 -6.5q-43 0 -82 5t-77 5q-22 0 -45.5 -7t-46.5 -10q-25 21 -50 38q15 5 32 18t33 39l78 441h-93z
M273 278l-16 -91.5l-16 -90.5q27 -5 57.5 -8t64.5 -3q49 0 81.5 26.5t40.5 70.5q10 55 -19 79.5t-81 24.5q-30 0 -57 -2t-55 -6z" />
    <glyph glyph-name="Lambda" unicode="&#x39b;" horiz-adv-x="708" 
d="M105 87l156 311.5l157 311.5h121l48 -311.5l48 -311.5h69l-15 -87h-3h-155l-40.5 279l-39.5 279l-269 -558h-163l15 87h71z" />
    <glyph glyph-name="Iota" unicode="&#x399;" horiz-adv-x="312" 
d="M142 623l16 87h252l-16 -87h-68l-94 -537h68l-15 -86h-252l15 86h68l94 537h-68z" />
    <glyph glyph-name="Iotadieresis" unicode="&#x3aa;" horiz-adv-x="312" 
d="M142 623l16 87h252l-16 -87h-68l-94 -537h68l-15 -86h-252l15 86h68l94 537h-68zM131 856q5 28 25 42t46 14t41 -13.5t10 -42.5t-25 -43t-46 -14t-41 13t-10 44zM359 856q5 28 25.5 42t46.5 14t41 -13.5t10 -42.5t-25 -43t-46 -14t-41.5 13t-10.5 44z" />
    <glyph glyph-name="Upsilon" unicode="&#x3a5;" horiz-adv-x="686" 
d="M130 623l16 87h147l121 -280l238 280h143l-16 -87h-77l-247 -296l-42 -241h68l-15 -86h-252l15 86h68l42 240l-130 297h-79z" />
    <glyph glyph-name="Upsilondieresis" unicode="&#x3ab;" horiz-adv-x="686" 
d="M130 623l16 87h147l121 -280l238 280h143l-16 -87h-77l-247 -296l-42 -241h68l-15 -86h-252l15 86h68l42 240l-130 297h-79zM314 837q5 29 25 42.5t46 13.5t41.5 -13t10.5 -43q-5 -29 -25.5 -42.5t-46.5 -13.5t-41 12.5t-10 43.5zM542 837q5 29 25.5 42.5t46.5 13.5
t41.5 -13t10.5 -43q-5 -29 -25.5 -42.5t-46.5 -13.5t-41.5 12.5t-10.5 43.5z" />
    <glyph glyph-name="Chi" unicode="&#x3a7;" horiz-adv-x="712" 
d="M800 710q-4 -22 -8.5 -43.5t-7.5 -42.5q-13 0 -27 -1t-34 -10l-22 -22l-109.5 -118.5l-110.5 -117.5l157 -269h52l-15 -86h-123l-153 265l-245 -265h-120l15 86h34q66 54 134 127l131 142l-77.5 134l-77.5 135h-49l15 86h120l152 -266l247 266h122z" />
    <glyph glyph-name="alpha" unicode="&#x3b1;" horiz-adv-x="631" 
d="M490 436q-16 14 -45.5 25.5t-67.5 11.5q-27 0 -52 -7.5t-46.5 -27.5t-38 -55t-26.5 -91l-7 -42q-10 -56 -5.5 -89.5t20 -51.5t39 -24t50.5 -6h17q36 0 60.5 7.5t42.5 14.5zM109 314q13 75 41 123t64.5 75.5t78.5 37.5t83 10q35 0 61 -4.5t45.5 -11t33.5 -15t25 -16.5
q17 21 36 29.5t44 8.5q12 0 25 -1.5t27 -6.5l26 -11l-21 -68q-21 7 -38 7q-32 0 -41 -47l-46 -263q-9 -51 -6 -67.5t23 -16.5q8 0 18 1t23 6l-3 -69q-31 -9 -49 -13.5t-40 -4.5q-23 0 -38.5 6.5t-23.5 23.5q-31 -14 -73 -26.5t-110 -12.5q-40 0 -78.5 9t-65.5 35t-38.5 72.5
t1.5 121.5z" />
    <glyph glyph-name="afii10068" unicode="&#x433;" horiz-adv-x="541" 
d="M128 401l24 133q69 20 114.5 24.5t81.5 4.5q99 0 154 -28.5t55 -93.5q0 -8 -0.5 -17t-2.5 -14q-14 -63 -64.5 -101.5t-150.5 -52.5q-27 -3 -54.5 -7.5t-50.5 -13t-39 -23t-20 -39.5q-3 -20 0.5 -39.5t16 -35t35 -25t56.5 -9.5q21 0 53.5 4t62.5 12l12 74h106l-5 -35.5
t-6 -35.5l-11 -64q-68 -19 -126 -24.5t-102 -5.5q-96 0 -150.5 37t-54.5 110q0 17 3 37q9 49 34 78.5t58.5 45.5t70 22t68.5 10q8 1 16 1.5t16 2.5q56 8 85 25.5t37 60.5q3 19 -4 32t-22.5 21.5t-37.5 12.5t-47 4q-20 0 -43 -2t-49 -10l-12 -76h-107z" />
    <glyph glyph-name="afii10029" unicode="&#x41b;" horiz-adv-x="829" 
d="M390 623l-66 -373q-16 -86 -50.5 -135.5t-77.5 -75.5t-90 -33t-88 -7l16 87q48 0 78.5 13.5t50.5 40.5t32 68t22 96l56 319h-68l16 87h651l-16 -87h-68l-94 -537h68l-15 -86h-230l9 56h46l100 567h-282z" />
    <glyph glyph-name="El.alt" horiz-adv-x="714" 
d="M105 86l313 624h121l96 -624h69l-15 -86h-158l-40.5 278.5l-39.5 278.5l-269 -557h-163l15 86h71z" />
    <glyph glyph-name="eta" unicode="&#x3b7;" horiz-adv-x="605" 
d="M492 337q13 73 -9.5 103t-79.5 30q-42 0 -84 -17.5t-64 -52.5l-70 -400h-111l73 416q5 27 0 41t-23 14q-8 0 -13 -1t-10 -1l7 71q18 6 39 9t39.5 0t32 -14t16.5 -32q41 33 92 45t105 12q60 0 96 -19.5t54.5 -49t22 -64.5t-2.5 -66l-73 -414q-6 -36 -7.5 -55.5t4.5 -28
t19.5 -8t37.5 3.5l-3 -80q-43 -12 -77 -11t-56 17t-30 48t1 82l74 422v0z" />
    <glyph glyph-name="etatonos" unicode="&#x3ae;" horiz-adv-x="598" 
d="M492 337q13 73 -9.5 103t-79.5 30q-42 0 -84 -17.5t-64 -52.5l-70 -400h-111l73 416q5 27 0 41t-23 14q-8 0 -13 -1t-10 -1l7 71q18 6 39 9t39.5 0t32 -14t16.5 -32q41 33 92 45t105 12q60 0 96 -19.5t54.5 -49t22 -64.5t-2.5 -66l-73 -414q-6 -36 -7.5 -55.5t4.5 -28
t19.5 -8t37.5 3.5l-3 -80q-43 -12 -77 -11t-56 17t-30 48t1 82zM393 721h103l-23 -130h-70z" />
    <glyph glyph-name="nu" unicode="&#x3bd;" horiz-adv-x="599" 
d="M682 551l-16 -87h-66l-237 -464h-137l-32.5 232l-32.5 232h-66l16 87h157l24 -217t23 -217l105.5 217l104.5 217h157z" />
    <glyph glyph-name="chi" unicode="&#x3c7;" horiz-adv-x="639" 
d="M694 551l-16 -87q-14 0 -30 -1.5t-38 -14.5l-39 -39l-68.5 -67l-68.5 -67l126 -188h52l-15 -87h-122l-64 95.5l-64 95.5l-192 -190v-1h-120l15 87h34q16 9 34.5 23.5t42.5 37.5l130 127l-126 189h-49l16 87h120l125 -192l195 192h122z" />
    <glyph glyph-name="afii10037" unicode="&#x423;" horiz-adv-x="674" 
d="M302 710l88 -400l231 400h142l-16 -87h-54l-55.5 -90l-58.5 -96l-66 -106.5l-77 -122.5q-27 -46 -54.5 -84t-61.5 -65.5t-78.5 -43t-106.5 -15.5l15 86q31 0 51.5 4t37.5 16t34 33.5t40 56.5l-112 427h-56l16 87h141z" />
    <glyph glyph-name="integral" unicode="&#x222b;" horiz-adv-x="422" 
d="M257 612q12 67 33.5 108.5t57 65t87.5 31.5t124 8l-14 -82q-43 0 -73.5 -6t-52.5 -25t-36 -54.5t-24 -94.5l-94 -532q-13 -75 -34.5 -121t-56 -71t-83 -33.5t-115.5 -8.5l14 81q27 0 53 4t47.5 17.5t37 38.5t22.5 67z" />
    <glyph glyph-name="afii10148" unicode="&#x474;" horiz-adv-x="703" 
d="M133 623l16 87h163l72 -558l180 363q31 63 63 101.5t60.5 60t53 29.5t42.5 11l-3 -74q-23 -6 -41 -26t-38 -60l-282 -557h-121l-47 311.5l-47 311.5h-71z" />
    <glyph glyph-name="afii10085" unicode="&#x443;" horiz-adv-x="646" 
d="M255 551l71 -435l114 217.5l114 217.5h142l-15 -84q-14 -1 -27.5 -1.5t-27.5 -0.5l-245 -464l-41.5 -75.5t-51 -70t-69 -52t-94.5 -20.5h-38l16 90h34q24 0 44 9.5t34 26.5t20.5 40.5t3.5 50.5l-86 465h-56l16 86h142z" />
    <glyph glyph-name="afii10044" unicode="&#x42a;" horiz-adv-x="735" 
d="M478 411q45 0 91.5 -4t83.5 -19t59.5 -44.5t20.5 -80.5q-2 -20 -3.5 -41.5t-5.5 -44.5q-9 -52 -35.5 -86t-63.5 -54.5t-80 -28.5t-85 -8h-329l15 86h46l94 537h-85q-5 -9 -8.5 -18.5t-5.5 -22.5l-7 -38h-76l30 166h369l-16 -87h-85l-37 -212h113zM618 206q11 65 -25.5 92
t-110.5 27h-132l-42 -239h118q31 0 62 2.5t57.5 14.5t45.5 36t27 67z" />
    <glyph glyph-name="afii10045" unicode="&#x42b;" horiz-adv-x="931" 
d="M295 411h79q54 0 110 -3t99.5 -20.5t66.5 -55t11 -106.5l-8 -49q-12 -66 -48.5 -102t-85.5 -52.5t-104 -19.5t-103 -3h-252l15 86h46l94 537h-68l16 87h253l-16 -87h-69zM547 206q11 65 -25.5 92t-110.5 27h-132l-42 -239h118q31 0 62 2.5t57.5 14.5t45.5 36t27 67z
M752 622l16 87h252l-16 -87h-68l-94 -537h68l-15 -86h-252l15 86h68l94 537h-68z" />
    <glyph glyph-name="afii10046" unicode="&#x42c;" horiz-adv-x="669" 
d="M295 411h79q54 0 110 -3t99.5 -20.5t66.5 -55t11 -106.5l-8 -49q-12 -66 -48.5 -102t-85.5 -52.5t-104 -19.5t-103 -3h-252l15 86h46l94 537h-68l16 87h253l-16 -87h-69zM547 206q11 65 -25.5 92t-110.5 27h-132l-42 -239h118q31 0 62 2.5t57.5 14.5t45.5 36t27 67z" />
    <glyph glyph-name="afii10047" unicode="&#x42d;" horiz-adv-x="642" 
d="M274 400h264q10 76 5 122t-22.5 70.5t-47.5 32.5t-69 8q-37 0 -74 -10t-67 -24l-16 -74h-75l21 161q48 11 84.5 18t64 10.5t47 5t33.5 1.5q63 0 115 -12.5t85.5 -46t45.5 -92t-4 -149.5l-23 -129q-17 -98 -52.5 -157.5t-80.5 -91.5t-97 -43t-102 -11q-79 0 -142 19
t-107 39l44 74q20 -7 40 -15t44 -14.5t53 -10.5t66 -4q42 0 76.5 10t61 36.5t46 72t32.5 117.5h-264z" />
    <glyph glyph-name="Gamma" unicode="&#x393;" horiz-adv-x="595" 
d="M255 86h68l-15 -86h-252l15 86h68l94 537h-68l16 87h508l-25 -138h-75l9 51h-249z" />
    <glyph glyph-name="Delta" horiz-adv-x="748" 
d="M91 86l82 151.5l86.5 160.5l86.5 160.5l82 151.5h121l132 -624l29 1l-15 -87h-650l15 87zM462 565l-129 -239.5l-130 -239.5h366z" />
    <glyph glyph-name="Theta" unicode="&#x398;" horiz-adv-x="672" 
d="M270 392h256l-16 -88h-256zM459 720q51 0 100.5 -10t85.5 -41.5t51.5 -90.5t-1.5 -156l-22 -125q-17 -98 -51.5 -158t-80 -93.5t-99.5 -45t-111 -11.5t-107 11.5t-84 45t-46.5 94t4.5 157.5l22 125q17 97 53.5 156t83 90.5t99.5 41.5t103 10zM444 633q-39 0 -71.5 -11
t-59 -38.5t-46.5 -73.5t-32 -116l-16 -89q-12 -69 -8 -113t21.5 -69.5t46.5 -35.5t67 -10t70.5 10t59 35.5t46.5 69.5t32 113l16 89q12 70 8.5 116t-20.5 73.5t-46 38.5t-68 11z" />
    <glyph glyph-name="Sigma" unicode="&#x3a3;" horiz-adv-x="657" 
d="M188 92h367q3 1 6.5 11t6.5 23.5l6 26t4 18.5h76l-30 -171h-590l16 92l267 263l-175 263l17 92h590l-30 -171h-76q1 5 2.5 17.5l3 26t1.5 24t-3 11.5h-367l189 -263z" />
    <glyph glyph-name="afii10021" unicode="&#x414;" horiz-adv-x="764" 
d="M704 -125h-115l23 125h-458l-23 -125h-115l38 211h31q26 2 50.5 9t45.5 26t37.5 52.5t26.5 88.5l63 361h-68l16 87h581l-16 -87h-68l-94 -537h83zM424 623l-65 -373q-11 -59 -30 -98.5t-45 -65.5h259l94 537h-213z" />
    <glyph glyph-name="De.alt" horiz-adv-x="789" 
d="M135 -125h-116l38 212h87l312 623h122l47 -311.5l49 -311.5h86l-38 -212h-115l23 125h-472zM260 86h297l-34 236l-34 236z" />
    <glyph glyph-name="uni2206" unicode="&#x2206;" horiz-adv-x="751" 
d="M106 135l161 288l161 287h121l141 -624l15 -86h-672zM462 565l-134 -239.5l-135 -239.5h386z" />
    <glyph glyph-name="product" unicode="&#x220f;" horiz-adv-x="755" 
d="M535 61l99 562h-293l-99 -562h46l-10 -61h-230l15 86h68l94 537h-68l16 87h661l-16 -87h-68l-94 -537h68l-15 -86h-230l3 20z" />
    <glyph glyph-name="summation" unicode="&#x2211;" horiz-adv-x="679" 
d="M203 92h352q3 1 6.5 11t6.5 23.5l6 26t4 18.5h76l-30 -171h-590l16 92l267 263l-175 263l17 92h590l-30 -171h-76q1 5 2.5 17.5l3 26t1.5 24t-3 11.5h-352l174 -263z" />
    <glyph glyph-name="afii10064" unicode="&#xf6c5;" horiz-adv-x="552" 
d="M84 222q8 48 33.5 90.5t62 73.5t82 49t93.5 18t87 -18t65 -49t36.5 -73.5t2.5 -90.5q-9 -48 -34.5 -90.5t-62 -73.5t-82 -49t-93.5 -18t-87 18t-64.5 49t-36.5 73.5t-2 90.5z" />
    <glyph glyph-name="T" unicode="T" horiz-adv-x="687" 
d="M203 534h-74l31 176h621l-31 -176h-74l15 89h-182l-94 -537h73l-15 -86h-258l15 86h74l94 537h-180z" />
    <glyph glyph-name="Phi.alt" horiz-adv-x="696" 
d="M527 710l-18 -101q67 0 111 -16t68 -47.5t29 -79.5t-6 -112q-12 -71 -35.5 -117.5t-59 -74.5t-84.5 -41.5t-113 -18.5l-17 -102h-110l17 102q-65 5 -109 19t-68.5 43t-30.5 75.5t6 115.5q22 129 91.5 191.5t200.5 62.5l18 101h110zM610 350q7 40 5.5 72.5t-15 55
t-39.5 34.5t-67 12l-59 -336q45 0 75.5 12t50.5 33.5t31.5 51t17.5 65.5zM206 350q-6 -36 -5.5 -65.5t13.5 -51t39.5 -33.5t71.5 -12l59 336q-41 0 -71.5 -12t-51.5 -34.5t-34.5 -55t-20.5 -72.5z" />
    <glyph glyph-name="afii10088" unicode="&#x446;" horiz-adv-x="650" 
d="M201 216q-13 -73 9.5 -103t79.5 -30q42 0 84 17.5t64 52.5l70 400h111l-72 -412q-5 -26 -1 -39.5t20 -15.5h65l-38 -211h-116l23 125q-17 7 -28.5 19t-13.5 31q-41 -33 -92 -45t-105 -12q-60 0 -96 19.5t-54.5 49t-22 64.5t2.5 66l33 188q6 36 7.5 55.5t-4.5 28t-19.5 8
t-36.5 -3.5l3 80q42 12 76 11t56 -17t30.5 -48t-0.5 -82z" />
    <glyph glyph-name="afii10090" unicode="&#x448;" horiz-adv-x="931" 
d="M238 215q-13 -73 4.5 -103t74.5 -30q34 0 65.5 16t54.5 42q5 31 9.5 64.5t10.5 68.5l49 279h106l-51 -293q-8 -44 -11 -77t2 -55t21.5 -33.5t47.5 -11.5q35 0 66 14.5t57 38.5l73 417h110l-73 -416q-5 -27 0 -41t23 -14q8 0 12 1t9 1q0 1 -1 -10t-2 -25l-2 -36
q-11 -5 -25.5 -8.5t-30.5 -3.5q-30 0 -49.5 9.5t-23.5 39.5q-36 -26 -80 -41t-83 -15q-43 0 -79.5 14t-56.5 52q-39 -29 -83 -48t-94 -19q-60 0 -94.5 19.5t-51 49t-18.5 64.5t4 66l33 188q10 55 6.5 73.5t-25.5 18.5q-7 0 -15 -1t-19 -3l3 80q21 6 40.5 9.5t36.5 3.5
q25 0 44 -8.5t30 -28.5t13 -52.5t-6 -79.5z" />
    <glyph glyph-name="afii10091" unicode="&#x449;" horiz-adv-x="949" 
d="M218 215q-13 -73 4.5 -103t74.5 -30q34 0 65.5 16t54.5 42q5 31 9.5 64.5t10.5 68.5l49 279h106l-51 -293q-8 -44 -11 -77t2 -55t21.5 -33.5t47.5 -11.5q35 0 66 14.5t57 38.5l73 417h110l-73 -416q-1 -4 -2 -12.5t0 -16.5t5.5 -14.5t15.5 -6.5h65l-38 -211h-116l23 125
q-12 5 -23 18t-17 28l-3 3q-36 -26 -80 -41t-83 -15q-43 0 -79.5 14t-56.5 52q-39 -29 -83 -48t-94 -19q-60 0 -94.5 19.5t-51 49t-18.5 64.5t4 66l33 188q10 55 6.5 73.5t-25.5 18.5q-7 0 -15 -1t-19 -3l3 80q21 6 40.5 9.5t36.5 3.5q25 0 44 -8.5t30 -28.5t13 -52.5
t-6 -79.5z" />
    <glyph glyph-name="afii10093" unicode="&#x44b;" horiz-adv-x="886" 
d="M315 551l-32 -182q21 2 57 4.5t74 2.5t73.5 -9t60 -32t35.5 -63t0 -101q-10 -57 -34.5 -91.5t-56.5 -53.5t-67.5 -25.5t-67.5 -6.5q-75 0 -142 9q-26 0 -53 -6t-56 -10l-31 49q15 5 28 12.5t18 33.5l67 382h-46l16 87h157zM266 278l-16 -91.5l-16 -90.5q27 -5 57.5 -8
t64.5 -3q49 0 81.5 26.5t40.5 70.5q10 55 -19 79.5t-81 24.5q-30 0 -57 -2t-55 -6zM749 464h-73l16 87h184l-78 -444q-1 -11 0.5 -17t7.5 -7.5t16 -0.5t26 3l-3 -80q-42 -12 -74.5 -11t-52.5 17t-27 48t2 82z" />
    <glyph glyph-name="afii10094" unicode="&#x44c;" horiz-adv-x="599" 
d="M315 551l-32 -182q21 2 57 4.5t74 2.5t73.5 -9t60 -32t35.5 -63t0 -101q-10 -57 -34.5 -91.5t-56.5 -53.5t-67.5 -25.5t-67.5 -6.5q-75 0 -142 9q-26 0 -53 -6t-56 -10l-31 49q15 5 28 12.5t18 33.5l67 382h-46l16 87h157zM266 278l-16 -91.5l-16 -90.5q27 -5 57.5 -8
t64.5 -3q49 0 81.5 26.5t40.5 70.5q10 55 -19 79.5t-81 24.5q-30 0 -57 -2t-55 -6z" />
    <glyph glyph-name="afii10085.small" horiz-adv-x="598" 
d="M268 521l72 -435l113.5 217.5l113.5 217.5h142l-15 -85q-14 0 -27 -0.5t-27 -1.5l-96.5 -174l-95.5 -173l-35 -62q-43 -81 -93.5 -143.5t-123.5 -98.5h-90l16 87h34q26 0 44 8t37 36l21 86l-45.5 217l-45.5 217h-56l15 87h142z" />
    <glyph glyph-name="commainferior" unicode="&#xf6e1;" horiz-adv-x="240" 
d="M42 60q6 35 32.5 52t59.5 17q30 0 49.5 -12t16.5 -45q1 -2 0.5 -9.5t-1.5 -17t-2 -17.5t-2 -11q-9 -54 -44.5 -92.5t-85.5 -60.5l-17 38q26 21 38.5 41.5t17.5 46.5q-32 2 -50.5 17t-11.5 53z" />
    <glyph glyph-name="afii10061" unicode="&#x40c;" horiz-adv-x="743" 
d="M822 710l-16 -87h-48q-18 -14 -41 -29t-46 -37l-233 -218l182 -204q9 -12 18.5 -19.5t17.5 -12.5q21 -20 34.5 -29.5t23.5 -12.5q-5 -7 -11.5 -18.5t-13.5 -22t-14 -18.5t-13 -8q-4 0 -7 0.5t-7 1.5q-10 -2 -19 -2q-21 4 -49 19.5t-63 55.5l-216 248l-33 -136
q-8 -49 -17 -85.5t-19 -66.5l-17 -42q-27 1 -53.5 1.5t-53.5 2.5l14 48q5 17 9.5 37l9.5 43l89 504h-74l16 87h190l-40 -225l42 -79l324 304h134zM599 871l-44 -60l-44 -61h-91l75 121h104z" />
    <glyph glyph-name="afii10058" unicode="&#x409;" horiz-adv-x="972" 
d="M361 623l-60 -342q-17 -94 -47 -149.5t-69.5 -85t-85.5 -38.5t-95 -9l16 87q37 0 62 13q19 6 34 17.5t27.5 33.5t23 58t20.5 91l57 324h-68l16 87h611l-16 -87h-77l-37 -212h19q54 0 110 -3t99.5 -20.5t66.5 -55t11 -106.5l-8 -49q-12 -66 -39 -102t-65 -52.5
t-83.5 -19.5t-93.5 -3h-206l23 133q-1 3 1 12l84 478h-231zM865 206q11 65 -25.5 92t-110.5 27h-72l-42 -239h58q31 0 62 2.5t57.5 14.5t45.5 36t27 67z" />
    <glyph glyph-name="afii10059" unicode="&#x40a;" horiz-adv-x="972" 
d="M663 411q54 0 110 -3t99.5 -20.5t66.5 -55t11 -106.5l-8 -49q-12 -66 -39 -102t-65 -52.5t-83.5 -19.5t-93.5 -3h-187l56 321h-245l-56 -321h-185l15 86h69l94 537h-69l16 87h185l-53 -301h245l53 301h194l-16 -87h-77zM836 206q11 65 -25.5 92t-110.5 27h-52l-42 -239
h38q31 0 62 2.5t57.5 14.5t45.5 36t27 67z" />
    <glyph glyph-name="afii10038" unicode="&#x424;" horiz-adv-x="681" 
d="M517 710l-18 -101q67 0 111 -16t68 -47.5t29 -79.5t-6 -112q-12 -71 -35.5 -117.5t-59 -74.5t-84.5 -41.5t-113 -18.5l-17 -102h-110l17 102q-65 5 -109 19t-68.5 43t-30.5 75.5t6 115.5q22 129 91.5 191.5t200.5 62.5l18 101h110zM600 350q7 40 5.5 72.5t-15 55
t-39.5 34.5t-67 12l-59 -336q45 0 75.5 12t50.5 33.5t31.5 51t17.5 65.5zM196 350q-6 -36 -5.5 -65.5t13.5 -51t39.5 -33.5t71.5 -12l59 336q-41 0 -71.5 -12t-51.5 -34.5t-34.5 -55t-20.5 -72.5z" />
    <glyph glyph-name="afii10100" unicode="&#x453;" horiz-adv-x="572" 
d="M141 550h497l-28 -159h-75l7 35q2 12 1.5 21t-2.5 17h-231l-66 -377h46l-15 -87h-208l15 86h46l66 378h-68zM506 712l-89 -121h-91l75 121h105z" />
    <glyph glyph-name="afii10089" unicode="&#x447;" horiz-adv-x="613" 
d="M404 0l34 197q-28 -24 -71 -34.5t-86 -10.5t-77 9t-55.5 33.5t-27.5 68t6 113.5l15 88h-78l15 86h189l-22 -126q-8 -45 -12.5 -79.5t0 -57.5t19.5 -34.5t46 -11.5q18 0 41 2t46.5 10.5t43.5 26t32 49.5l38 220h157l-15 -85h-47l-73 -414h46l-8 -50h-156z" />
    <glyph glyph-name="afii10099" unicode="&#x452;" horiz-adv-x="641" 
d="M245 710h110l-18 -99h100l-15 -86h-99l-27 -152q21 24 62.5 35t89.5 11q39 0 75 -9t61 -34t35 -69t-2 -114l-6 -31q-12 -68 -37 -111t-58 -67.5t-72.5 -34t-80.5 -10.5l-4 83q30 1 53.5 6.5t41 22t30 46.5t21.5 79q9 51 3 81t-20.5 46t-34.5 21t-41 5q-36 0 -61.5 -8.5
t-43 -23.5t-27.5 -36t-14 -46l-37 -215h-160l15 86h51l77 439h-96l15 86h96z" />
    <glyph glyph-name="afii10067" unicode="&#x432;" horiz-adv-x="606" 
d="M327 -11q-44 0 -88 7.5t-79.5 27t-57.5 54.5t-22 91q0 17 2 36t5 37q3 20 7 40.5t6 40.5q13 74 42 120t68 72.5t84.5 36.5t91.5 11h21q32 0 69 -5.5t68 -19.5t51.5 -39t20.5 -64q0 -8 -0.5 -16t-2.5 -13q-8 -40 -28.5 -69t-53.5 -44q32 -14 51.5 -36t19.5 -59
q0 -19 -4 -38q-10 -44 -39 -76t-67.5 -53t-82 -31.5t-82.5 -10.5zM254 76q18 -5 38.5 -8t42.5 -3t47 6t47 18.5t38.5 31.5t20.5 45q5 27 -1 44t-19.5 26t-34.5 12t-46 3h-56q-35 0 -69 2t-65 5q-4 -21 -5.5 -39.5t-1.5 -32.5q0 -51 16.5 -76t47.5 -33v-1zM388 489
q-25 0 -51.5 -3t-51 -18t-44.5 -46.5t-31 -88.5q38 -5 76.5 -8t72.5 -1l36 1q15 0 31.5 4t31.5 13.5t27 26t18 40.5q3 22 -5.5 37t-24 24.5t-36 14t-42.5 4.5h-7z" />
    <glyph glyph-name="epsilontonos" unicode="&#x3ad;" horiz-adv-x="609" 
d="M408 730h95l-47 -124h-74zM85 163q9 52 38 80.5t77 45.5q-31 15 -46.5 43t-7.5 73q8 47 36.5 77.5t67.5 48.5t83.5 25.5t86.5 7.5q56 0 105.5 -10.5t110.5 -32.5l-22 -61.5l-22 -61.5l-104 15l9 50q-21 7 -45 10.5t-39 3.5q-24 0 -48 -3t-45 -11.5t-35.5 -23t-18.5 -37.5
q-8 -44 18 -60.5t76 -16.5h72l-36 -82h-52q-62 0 -93.5 -16t-37.5 -51q-5 -26 4 -45t26.5 -31t41 -18t48.5 -6q37 0 66.5 4t54.5 10.5t47 14t45 13.5l18 -77l-53.5 -18.5t-58 -17t-65 -12t-73.5 -4.5q-46 0 -90.5 9.5t-78 30.5t-51 54t-9.5 80z" />
    <glyph glyph-name="afii10196" unicode="&#x475;" horiz-adv-x="596" 
d="M108 465l16 86h162l27 -199.5l26 -199.5l107 211q32 66 62.5 104t58 57.5t51.5 25.5t42 8l-3 -74q-23 -6 -41 -25.5t-38 -60.5l-102 -199l-101 -199h-122l-37 232.5l-37 232.5h-71z" />
    <glyph glyph-name="afii10096" unicode="&#x44e;" horiz-adv-x="840" 
d="M318 551l-42 -235h109q6 31 18 56q18 59 46.5 95.5t63.5 57t74 27.5t78 7q42 0 83 -8.5t70.5 -34t42.5 -72.5t0 -123l-18 -101q-13 -75 -41 -120.5t-65.5 -69.5t-82 -31.5t-89.5 -7.5q-41 0 -78.5 6.5t-65 25t-42.5 53t-12 91.5q-2 13 -1.5 28t4.5 33h-109l-40 -228h-110
l81 464h-74l16 87h184zM480 231q-9 -53 -3 -83.5t21 -47t37 -21t45 -4.5q22 0 45.5 4.5t44.5 20.5t38.5 46.5t26.5 83.5l15 84q9 52 2.5 84t-22 48.5t-37.5 22t-43 5.5t-44.5 -5.5t-45 -22.5t-39 -48.5t-26.5 -83.5z" />
    <glyph glyph-name="afii10092" unicode="&#x44a;" horiz-adv-x="659" 
d="M389 551l-32 -182q21 2 57 4.5t74 2.5q37 0 72 -8t60.5 -29.5t36.5 -60.5t0 -101q-11 -59 -34.5 -94.5t-55 -55.5t-67 -26.5t-69.5 -6.5q-37 0 -65 9q-2 0 -2.5 0.5t-2.5 0.5q-45 0 -90 -7t-92 -10q-25 21 -50 38q15 5 32 18t34 39l67 382h-90q-5 -11 -9 -23t-7 -28
l-5 -28h-77l30 166h285zM340 278l-16 -91.5l-16 -90.5q27 -5 57 -8t64 -3q50 0 82 26.5t40 70.5q10 55 -19 79.5t-80 24.5q-31 0 -58 -2t-54 -6z" />
    <glyph glyph-name="afii10107" unicode="&#x45a;" horiz-adv-x="888" 
d="M682 550l-15 -86h-68l-16 -95q21 2 55 4.5t72 2.5t74 -9t61.5 -32t37 -63t0.5 -101q-10 -57 -41 -91.5t-70 -53.5t-81 -25.5t-74 -6.5q-18 0 -30 0.5t-22.5 1.5t-21.5 3t-28 4q-26 0 -53 -6t-56 -10l-17 28.5t-8 15t-2 5.5v1q8 2 18 9.5t24 35.5l27 156h-199l-41 -238
h-162l15 86h46l66 378h-68l16 87h184l-40 -225h199l40 225zM693 286q-30 0 -64.5 -2t-61.5 -6l-33 -182q13 -2 21.5 -4t16 -3.5t17.5 -2.5t27 -1q77 0 115 21t46 65q10 56 -7 85.5t-77 29.5z" />
    <glyph glyph-name="afii10097" unicode="&#x44f;" horiz-adv-x="610" 
d="M594 464l-81 -464h-109l35 203h-46l-118 -109q-38 -34 -70.5 -54t-58.5 -30.5t-45 -14t-29 -3.5l-20 61q7 3 16.5 6.5t22 10.5t27.5 17.5t34 27.5l109 98q-32 3 -59 15.5t-46 34.5t-27 52t-1 68l3 14q9 55 39 88t70.5 50.5t86 23t87.5 5.5h257l-18 -100h-59zM242 381
q-5 -24 1.5 -39t24 -22.5t45.5 -10t66 -2.5h81l27 157h-86q-36 0 -63 -1.5t-46.5 -9t-32 -24.5t-17.5 -48z" />
    <glyph glyph-name="uni03F0" unicode="&#x3f0;" horiz-adv-x="644" 
d="M695 550l-15 -86q-15 0 -31.5 -2.5t-37.5 -13.5l-39 -39l-68.5 -67.5l-68.5 -66.5l127 -189h52l-15 -86h-123l-127 191l-192 -190v-1h-121l15 86q20 0 35 4t37 18l170 167l-126 189h-50l15 86h120l63.5 -96l63.5 -96l96.5 96l97.5 96h122z" />
    <glyph glyph-name="omegatonos" unicode="&#x3ce;" horiz-adv-x="759" 
d="M134 412q8 46 19.5 76.5t24.5 50t25.5 30t22.5 15.5q16 -5 30.5 -11t30.5 -11q-8 -11 -21 -43t-23 -86l-47 -263q-7 -39 7 -64t56 -25q33 0 51.5 11t28 28.5t14 40t8.5 45.5l38 218l103 16l-41 -231q-6 -34 -8 -58t3.5 -39.5t20.5 -23t42 -7.5q42 0 64.5 25.5t28.5 63.5
l47 265q10 54 7.5 86t-5.5 43q17 5 34 11t34 11q8 -5 17 -15.5t15 -30t6.5 -50t-7.5 -76.5l-40 -231q-17 -97 -72.5 -143.5t-132.5 -46.5q-29 0 -49.5 4.5t-35 13.5t-25 23t-19.5 33q-19 -20 -35.5 -34t-34 -23t-38 -13t-47.5 -4q-83 0 -118.5 48t-18.5 142zM434 711h103
l-23 -130h-70z" />
    <glyph glyph-name="afii10195" unicode="&#x473;" horiz-adv-x="552" 
d="M547 220q-14 -76 -42 -121.5t-65 -70t-81 -32t-89 -7.5q-46 0 -87.5 7t-70 31t-40.5 70.5t2 124.5l18 104q13 77 42.5 123t68 70t82.5 31.5t86 7.5q28 0 55.5 -3.5t52 -13t44.5 -26.5t32.5 -43.5t15.5 -64t-6 -88.5zM285 72q20 0 42 4.5t42.5 18.5t37.5 40t27 69l-123 24
l-122 23q-11 -60 -7.5 -95.5t17.5 -54t36.5 -24t49.5 -5.5zM356 474q-20 0 -42.5 -4.5t-43 -19t-37.5 -41t-27 -69.5l122.5 -24l121.5 -23q10 59 5.5 94.5t-18.5 55t-35.5 25.5t-45.5 6z" />
    <glyph glyph-name="afii10147" unicode="&#x472;" horiz-adv-x="525" 
d="M558 425q-10 -58 -20.5 -112t-23.5 -106q-17 -69 -45.5 -111.5t-63 -66t-73 -32t-76.5 -8.5q-39 0 -75 7.5t-62.5 31t-39.5 67.5t-5 116q7 80 24 172q13 77 36.5 139.5t59 107t82.5 68.5t109 24q39 0 76.5 -13.5t64.5 -47t37.5 -91t-5.5 -145.5zM270 73q23 0 46 9
t43 33.5t37 67t29 108.5l-226 42l-5 -30q-13 -73 -12 -118t12 -70t30.5 -33.5t45.5 -8.5zM447 410q9 66 7 110t-12.5 69.5t-29 36t-42.5 10.5q-23 0 -44.5 -9t-41.5 -33t-37.5 -66t-31.5 -107l227 -41z" />
    <glyph glyph-name="delta" unicode="&#x3b4;" horiz-adv-x="573" 
d="M92 252q12 67 34.5 108.5t53.5 65.5t68 35t79 19l-69 64l-76 71l17 97h434l-29 -165h-78q9 50 4 76h-199l185 -166q34 -25 50 -73t1 -131l-6 -33q-13 -75 -41 -120.5t-65.5 -69.5t-81.5 -31.5t-90 -7.5q-45 0 -86.5 7.5t-70.5 31t-41 68.5t1 120zM197 226q-9 -52 -3 -82
t21.5 -45.5t37.5 -19.5t45 -4q22 0 46 4.5t45 20t38 45.5t26 80l5 25q9 53 2 84t-23 47t-37.5 20.5t-42.5 4.5t-44.5 -4.5t-45 -21t-39 -47.5t-26.5 -83z" />
    <glyph glyph-name="uni02C9" unicode="&#x2c9;" horiz-adv-x="466" 
d="M176 710h366l-16 -88h-366z" />
    <glyph glyph-name="figuredash" unicode="&#x2012;" horiz-adv-x="532" 
d="M136 328h367l-15 -86h-367z" />
    <glyph glyph-name="minus" unicode="&#x2212;" horiz-adv-x="584" 
d="M141 328h412l-15 -86h-412z" />
    <glyph glyph-name="afii61352" unicode="&#x2116;" horiz-adv-x="1286" 
d="M158 624l15 86h190l220 -540l81 454h-68l15 86h252l-15 -86h-68l-95 -538h68l-15 -86h-189l-222 540l-86 -484h46l-9 -56h-213l9 52l28 16l28 16l96 540h-68zM864 487q13 74 41.5 119.5t65.5 70.5t79.5 33.5t84.5 8.5q41 0 80.5 -8.5t68 -33.5t41 -70.5t-0.5 -119.5
l-17 -96q-13 -74 -40 -118t-63.5 -67.5t-79.5 -31t-87 -7.5t-84 7t-67.5 30.5t-39.5 67t1 116.5zM954 401q-9 -51 -3.5 -81.5t20.5 -46.5t36.5 -20.5t44.5 -4.5q21 0 44.5 4.5t44.5 20t38 46t26 81.5l14 82q9 51 2.5 81.5t-22 47t-36.5 22t-42 5.5t-44 -5.5t-44.5 -22
t-38.5 -47t-26 -81.5zM803 86h446l-15 -86h-446z" />
    <glyph glyph-name="dieresistonos" unicode="&#x385;" horiz-adv-x="491" 
d="M275 696q-11 17 -17.5 39t-6.5 48q20 8 45 14t52 6q6 -17 8 -39t-3 -48q-15 -8 -35 -14t-43 -6zM254 732q11 20 32 28t45 8q14 -16 22 -39t1 -60q-7 -20 -24.5 -28t-38.5 -8q-17 16 -28.5 38.5t-8.5 60.5zM411 678q5 29 25.5 42.5t46.5 13.5t41.5 -13t10.5 -43
q-5 -29 -25.5 -42.5t-46.5 -13.5t-41.5 12.5t-10.5 43.5z" />
    <glyph glyph-name="eng" unicode="&#x14b;" horiz-adv-x="595" 
d="M403 470q-42 0 -83.5 -17.5t-64.5 -52.5l-70 -400h-111l73 416q5 27 0 41t-23 14q-8 0 -12 -1t-9 -1q2 18 2.5 35.5t2.5 35.5q11 5 26 8.5t31 3.5q15 0 24.5 -5t17.5 -13t14.5 -18.5t15.5 -20.5q41 33 91 49t104 16q65 0 101.5 -21t53 -54t17 -73t-6.5 -79l-71 -404
q-8 -44 -18.5 -73t-22.5 -47t-23.5 -27.5t-21.5 -14.5l-63 21q7 11 19 40t22 82l73 417q7 41 4.5 68.5t-14.5 44t-32 23.5t-46 7z" />
    <glyph glyph-name="Eng" unicode="&#x14a;" horiz-adv-x="801" 
d="M158 624l15 86h190l250 -539l46 263h1l34 190h-68l15 86h251l-15 -86h-68l-123 -694q-8 -44 -20 -74.5t-24.5 -50.5t-25.5 -31t-22 -16l-35.5 11.5t-34.5 11.5q6 10 19.5 41.5t22.5 86.5l15 85l-254 546l-86 -484h46l-9 -56h-213l9 56h51l101 568h-68z" />
    <glyph glyph-name="y.alt" horiz-adv-x="626" 
d="M255 551l71 -435l114 217.5l114 217.5h142l-15 -84q-14 -1 -27.5 -1.5t-27.5 -0.5l-245 -464l-41.5 -75.5t-51 -70t-69 -52t-94.5 -20.5h-38l16 89h34q24 0 44 9.5t34 27t20.5 41t3.5 50.5l-86 465h-56l16 86h142z" />
    <glyph glyph-name="paragraph" unicode="&#xb6;" horiz-adv-x="728" 
d="M616 623h-92l-110 -623h-90l50 284q-72 0 -122 9t-79 32t-38 62.5t2 99.5q10 60 32 102t58.5 69t91 39.5t129.5 12.5h365l-15 -87h-92l-110 -623h-90z" />
    <glyph glyph-name="oe" unicode="&#x153;" horiz-adv-x="921" 
d="M660 -11q-28 0 -55 3.5t-51 12t-44.5 23.5t-33.5 38q-42 -45 -97.5 -60t-110.5 -15q-46 0 -87 7.5t-69 31.5t-39 68.5t2 119.5l18 102q13 76 42 123t66.5 73t82 34.5t89.5 8.5q24 0 48.5 -4t47 -13t42 -24t32.5 -37q44 48 99 63t111 15q43 0 81.5 -9.5t65.5 -34.5
t38.5 -68.5t-0.5 -111.5l-10 -48t-12 -41h-360l-5 -29q-8 -46 1.5 -73t29 -41.5t43.5 -19t45 -4.5q60 0 101 5t74 12l17 -73q-40 -17 -92.5 -25.5t-109.5 -8.5zM187 231q-9 -53 -3 -83.5t21 -47t37 -21t45 -4.5q22 0 45.5 4.5t45 20.5t39 46.5t26.5 83.5l15 84q9 52 2.5 84
t-22.5 48.5t-37.5 22t-42.5 5.5t-45 -5.5t-45.5 -22.5t-39 -48.5t-26.5 -83.5zM732 477q-23 0 -48 -4.5t-47.5 -18.5t-40 -42t-25.5 -74l-3 -19h254q5 7 8 15t5 22q5 33 -1.5 56t-21.5 37.5t-35.5 21t-44.5 6.5z" />
    <glyph glyph-name="lslash" unicode="&#x142;" horiz-adv-x="280" 
d="M9 323l139 55l54 305h-73l15 87h184l-61 -347l102 40l8 -34.5l8 -35.5l-132 -52l-35 -195q-11 -65 -12.5 -100.5t6.5 -49.5l-72 -22q-8 4 -17 14.5t-15 30.5t-7.5 51t6.5 75l27 150l-108 -42z" />
    <glyph glyph-name="jcircumflex" unicode="&#x135;" horiz-adv-x="286" 
d="M309 551l-110 -624q-9 -48 -21 -79.5t-25 -51t-25.5 -28.5t-22.5 -13l-64 22q7 11 20 42t23 87l98 558h-73l16 87h184zM421 605h-93l-63 97l-98 -97h-92l161 146h73z" />
    <glyph glyph-name="foursuperior" unicode="&#x2074;" horiz-adv-x="407" 
d="M371 289q-2 0 -11 2.5t-19.5 4.5t-19.5 4.5t-12 2.5l11 63h-213l10 56l228 286h77l-229 -286h137l4 26q6 30 5 48t-3 23l44 15q11 -7 17.5 -31.5t-2.5 -80.5h49l-10 -56h-49z" />
    <glyph glyph-name="onethird" unicode="&#x2153;" horiz-adv-x="699" 
d="M662 710l-531 -710h-69l528 710h72zM158 656l10 53h113l-60 -337h35l-9 -53h-136l9 53h34l44 247q0 11 -0.5 20t-4.5 17h-35zM637 281q6 34 -12 43.5t-50 9.5q-21 0 -37 -3t-28 -12q-2 -8 -2.5 -16t-1.5 -16l-49 -12v88q33 10 64 18t65 8q20 0 44.5 -2t44.5 -12t31 -29.5
t5 -53.5l-1 -7q-5 -29 -20.5 -45.5t-41.5 -29.5q29 -12 42 -34t5 -65l-2 -12q-5 -29 -22 -50t-42 -34.5t-55.5 -20.5t-63.5 -7q-38 0 -68.5 9.5t-54.5 20.5q8 12 14.5 24t14.5 23l46 -15.5t58 -7.5q14 0 30.5 3t31 10.5t25.5 21t15 33.5q5 30 -11 49t-59 19h-22v50h30
q26 0 48.5 10.5t28.5 43.5z" />
    <glyph glyph-name="onequarter" unicode="&#xbc;" horiz-adv-x="680" 
d="M672 710l-531 -710h-69l528 710h72zM158 656l10 53h113l-60 -337h35l-9 -53h-136l9 53h34l44 247q0 11 -0.5 20t-4.5 17h-35zM579 -21q-16 5 -31 8t-32 7l11 62h-213l10 56l114 143l115 143h77l-230 -286h137l5 26q5 30 4 48t-3 23l44 15q11 -7 17.5 -31.5t-2.5 -80.5h49
l-10 -56h-49z" />
    <glyph glyph-name="twothirds" unicode="&#x2154;" horiz-adv-x="815" 
d="M788 710l-531 -710h-69l528 710h72zM753 281q6 34 -12 43.5t-50 9.5q-21 0 -37 -3t-28 -12q-2 -8 -2.5 -16t-1.5 -16l-49 -12v88q33 10 64 18t65 8q20 0 44.5 -2t44.5 -12t31 -29.5t5 -53.5l-1 -7q-5 -29 -20.5 -45.5t-41.5 -29.5q29 -12 42 -34t5 -65l-2 -12
q-5 -29 -22 -50t-42 -34.5t-55.5 -20.5t-63.5 -7q-38 0 -68.5 9.5t-54.5 20.5q8 12 14.5 24t14.5 23l46 -15.5t58 -7.5q14 0 30.5 3t31 10.5t25.5 21t15 33.5q5 30 -11 49t-59 19h-22v50h30q26 0 48.5 10.5t28.5 43.5zM92 383l196 158q28 23 47.5 41t23.5 38
q5 26 -13.5 37.5t-50.5 11.5h-3q-16 0 -38 -4t-35 -14l-2 -16.5t-1 -17.5l-24 -8l-25 -8l-8 87q38 14 77 25.5t67 11.5q21 0 46.5 -2t46.5 -12t33 -29.5t6 -53.5l-2 -14q-3 -18 -16.5 -34.5t-32 -32t-41.5 -31.5t-45 -34l-124 -99h175q6 8 8.5 16.5t4.5 22.5h49l-17 -98
h-312z" />
    <glyph glyph-name="threequarters" unicode="&#xbe;" horiz-adv-x="727" 
d="M750 710l-531 -710h-69l528 710h72zM647 -21q-16 5 -31.5 8t-32.5 7l11 62h-213l10 56l229 286h77l-114.5 -143l-114.5 -143h136l5 26q5 30 4.5 48t-2.5 23l44 15q5 -3 9.5 -10.5t7 -20.5t2.5 -33t-4 -48h48l-10 -56h-48zM336 608q6 34 -12 43t-50 9q-21 0 -36.5 -2.5
t-28.5 -11.5q-3 -17 -3 -32l-49 -12q-1 22 -1.5 44t-0.5 44q34 8 65 16.5t66 8.5q19 0 43.5 -2t44.5 -11.5t31.5 -28.5t5.5 -53l-2 -9q-5 -29 -20.5 -45t-41.5 -29q29 -13 42.5 -34.5t5.5 -65.5l-2 -11q-5 -29 -22.5 -50t-42 -35t-55.5 -21t-63 -7q-38 0 -69 10t-55 21
l29 47l45.5 -15.5t58.5 -7.5q14 0 30.5 3t31 10.5t25.5 20.5t14 34q5 30 -10.5 48.5t-58.5 18.5h-22l-1 50h30q13 1 26 3t23.5 8t18 16.5t10.5 27.5z" />
    <glyph glyph-name="oneeighth" unicode="&#x215b;" horiz-adv-x="704" 
d="M590 394q21 0 45 -2t43.5 -11.5t30.5 -28.5t5 -53l-1 -7q-5 -29 -20.5 -45t-42.5 -29q34 -17 43.5 -43t1.5 -71q-5 -28 -20.5 -49t-38.5 -34.5t-53 -20.5t-64 -7h-4q-33 1 -60.5 8t-46.5 20.5t-28 34.5t-4 50l2 11q8 46 30 68t54 33q-24 14 -33 30.5t-3 51.5
q6 32 23.5 51t41 28.5t49 12t46.5 2.5h4zM662 710l-531 -710h-69l528 710h72zM624 115q5 29 -12.5 49.5t-61.5 20.5h-3q-47 0 -68.5 -20.5t-26.5 -49.5q-4 -21 1.5 -34.5t16 -21t25.5 -10t30 -2.5q16 0 32 2.5t29.5 10t23.5 21t14 34.5zM497 288q-5 -32 14 -42.5t48 -10.5
q28 0 51.5 10.5t28.5 42.5q6 34 -12.5 42.5t-49.5 8.5q-28 0 -51 -8.5t-29 -42.5zM158 656l10 53h113l-60 -337h35l-9 -53h-136l9 53h34l44 247q0 11 -0.5 20t-4.5 17h-35z" />
    <glyph glyph-name="threeeighths" unicode="&#x215c;" horiz-adv-x="773" 
d="M661 394q21 0 45 -2t43.5 -11.5t30 -28.5t4.5 -53l-1 -7q-5 -30 -20.5 -45.5t-42.5 -28.5q35 -17 44.5 -43t1.5 -71q-10 -56 -59.5 -83t-116.5 -28h-4q-33 1 -60.5 8t-46.5 20.5t-28 34.5t-4 50l2 11q8 46 29.5 68t53.5 33q-24 14 -32.5 30.5t-2.5 51.5q6 32 23.5 51
t40.5 28.5t48.5 12t47.5 2.5h4zM738 710l-531 -710h-69l528 710h72zM694 115q5 29 -12 49.5t-61 20.5h-3q-48 0 -69 -20.5t-26 -49.5q-4 -21 1 -34.5t15.5 -21t25.5 -10t30 -2.5q16 0 32 2.5t29.5 10t23.5 21t14 34.5zM568 288q-5 -32 14 -42.5t47 -10.5t51.5 10.5
t28.5 42.5q6 34 -12.5 42.5t-49.5 8.5q-14 0 -26.5 -1.5t-23.5 -7t-18.5 -15.5t-10.5 -27zM324 608q6 34 -12 43.5t-50 9.5q-21 0 -36.5 -3t-28.5 -12l-2 -16t-1 -16l-49 -12q-1 22 -1.5 44t-0.5 44q34 10 65 18t66 8q19 0 43.5 -2t45 -12t31.5 -29.5t5 -53.5l-2 -7
q-5 -29 -20.5 -45.5t-41.5 -29.5q29 -12 42.5 -34t5.5 -65l-2 -12q-5 -29 -22.5 -50t-42 -34.5t-55.5 -20.5t-63 -7q-38 0 -69 9.5t-55 20.5l29 47l45.5 -15.5t58.5 -7.5q14 0 30.5 3t31 10.5t25.5 21t14 33.5q5 30 -10.5 49t-58.5 19h-22l-1 50h30q26 0 49 10.5t29 43.5z
" />
    <glyph glyph-name="uni021A" unicode="&#x21a;" horiz-adv-x="687" 
d="M203 534h-74l31 176h621l-31 -176h-74l5 31q6 34 3 58h-175l-94 -537h73l-15 -86h-258l15 86h74l94 537h-111q-19 -1 -36.5 -4t-34.5 -8zM262 -129q6 36 27.5 53t47.5 17q25 0 40 -15t12 -48q-7 -41 -18 -71t-27.5 -52.5t-39.5 -38.5t-53 -29q-3 10 -7.5 19t-8.5 19
q28 23 39.5 40.5t18.5 39.5q-18 5 -27 21t-4 45z" />
    <glyph glyph-name="uni021B" unicode="&#x21b;" horiz-adv-x="391" 
d="M250 711q25 3 49.5 5.5t49.5 4.5l-30 -168h116l-15 -86h-117l-60 -337q-9 -52 25 -52q15 0 33 3t44 8l-3 -79l-55 -11.5t-63 -6.5q-30 0 -49.5 13.5t-29 37.5t-10.5 57.5t6 73.5l52 293h-86l10 42.5l10 43.5h72q13 20 26.5 56t24.5 102zM113 -129q6 36 27 53t47 17
q23 0 39.5 -14t12.5 -49q-2 -16 -6 -32t-7 -32q-12 -47 -48 -78.5t-76 -48.5l-17 38q28 23 40 40.5t18 39.5q-18 5 -26.5 21t-3.5 45z" />
    <glyph glyph-name="afii10065.small" horiz-adv-x="584" 
d="M509 111q-4 -26 0.5 -30.5t13.5 -4.5q14 0 19.5 2l19.5 7l-3 -71q-22 -9 -35 -13t-32 -4q-20 0 -33 3t-20.5 8.5t-11.5 14t-7 20.5h-3l-36.5 -21.5t-35.5 -16t-43.5 -10.5t-60.5 -4h-16q-83 3 -124 45.5t-25 131.5l3 15q7 43 29.5 74t57 51t79 29t96.5 9q26 0 50 -0.5
t47 -1.5q6 32 6.5 55t-7.5 38t-26.5 22.5t-51.5 7.5t-67.5 -4.5t-64.5 -9.5l-3 -19l-48 -4l-1 95q38 11 97 23.5t126 12.5t100 -23.5t45.5 -58t9.5 -73t-8 -68.5l-10 -55l-16 -94.5t-10 -77.5zM427 269q-17 0 -34.5 1t-35.5 1q-81 0 -122 -19.5t-50 -70.5l-2 -14
q-9 -50 18.5 -68.5t83.5 -18.5q18 0 37 3t35.5 12t30 25.5t21.5 44.5z" />
    <glyph glyph-name="afii10071.small" horiz-adv-x="557" 
d="M84 222q8 48 33.5 90.5t62 73.5t82 49t93.5 18t87 -18t65 -49t36.5 -73.5t2.5 -90.5q-9 -48 -34.5 -90.5t-62 -73.5t-82 -49t-93.5 -18t-87 18t-64.5 49t-36.5 73.5t-2 90.5z" />
    <glyph glyph-name="afii10082.small" horiz-adv-x="618" 
d="M72 -212l111 629q5 30 -0.5 42t-21.5 12q-11 0 -22.5 -2t-20.5 -5l4 68q22 8 41 14t38 6q28 0 45 -9t28 -30q30 19 73 33t109 14q41 0 79.5 -10t65 -38t37 -76.5t-2.5 -125.5l-15 -84q-13 -74 -40 -120t-63 -72t-77 -35.5t-82 -9.5q-59 0 -90 8t-45 19l-34 -193zM238 102
q18 -9 42 -16t70 -7q28 0 53.5 6t47 24t38.5 51.5t27 89.5l7 42q10 56 5.5 91t-18.5 55t-36.5 27.5t-49.5 7.5q-38 0 -71.5 -11.5t-55.5 -25.5z" />
    <glyph glyph-name="afii10110.small" horiz-adv-x="557" 
d="M84 222q8 48 33.5 90.5t62 73.5t82 49t93.5 18t87 -18t65 -49t36.5 -73.5t2.5 -90.5q-9 -48 -34.5 -90.5t-62 -73.5t-82 -49t-93.5 -18t-87 18t-64.5 49t-36.5 73.5t-2 90.5z" />
    <glyph glyph-name="Lslash" unicode="&#x141;" horiz-adv-x="595" 
d="M79 253l-17 70l360 140l17 -70zM568 0h-498l15 86h46l94 537h-68l16 87h225l-16 -87h-46l-94 -537h252q8 15 13.5 34.5t9.5 43.5h79z" />
    <glyph glyph-name="OE" unicode="&#x152;" horiz-adv-x="957" 
d="M459 720q27 0 54.5 -2.5t53.5 -7.5h471l-25 -138h-88l9 51h-254q17 -34 22 -83t-7 -118l-3 -18h195l-16 -88h-195l-3 -19q-13 -73 -35.5 -124.5t-52.5 -86.5h265l9 52h88l-24 -138h-458q-32 -5 -65.5 -8t-68.5 -3q-57 0 -107 11.5t-84 45t-46.5 94t4.5 157.5l22 125
q17 97 53.5 156t83 90.5t99.5 41.5t103 10zM444 633q-39 0 -71.5 -11t-59 -38.5t-46.5 -73.5t-32 -116l-16 -89q-12 -69 -8 -113t21.5 -69.5t46.5 -35.5t67 -10t70.5 10t59 35.5t46.5 69.5t32 113l16 89q12 70 8.5 116t-20.5 73.5t-46 38.5t-68 11z" />
    <glyph glyph-name="ae" unicode="&#xe6;" horiz-adv-x="888" 
d="M629 -7q-26 0 -52.5 4t-51.5 13.5t-46 24.5t-37 37q-37 -35 -88.5 -58t-122.5 -23h-16q-83 3 -124 45.5t-25 131.5l3 15q7 43 29.5 74t57 51t79 29t96.5 9q26 0 50 -0.5t47 -1.5q6 32 6.5 55t-7.5 38t-26.5 22.5t-51.5 7.5q-17 0 -27.5 -0.5t-19.5 -1t-19 -2t-25 -3.5
l-7 -37l-89 -3l3 106q38 11 97 23t126 12q54 0 85.5 -16t47.5 -41q45 37 98 48t103 11q41 0 80 -8t66.5 -32t39.5 -67t0 -113l-10.5 -49t-12.5 -42h-362q-8 -47 1 -79.5t27 -52.5t42 -28.5t46 -8.5q61 0 101.5 5t74.5 12l16 -73q-40 -17 -93 -25.5t-109 -8.5zM417 269
q-17 0 -34.5 1t-35.5 1q-81 0 -122 -19.5t-50 -70.5l-2 -14q-9 -50 18.5 -68.5t83.5 -18.5q18 0 37 3t35.5 12t30 25.5t21.5 44.5zM701 481q-25 0 -49.5 -4t-46.5 -19.5t-39.5 -46.5t-27.5 -84h254q6 7 9 15t5 22q4 33 -2.5 55.5t-21.5 36t-36 19.5t-45 6zM465 61
q-1 -5 0.5 -8.5t3 -5t2.5 0.5t0 9z" />
    <glyph glyph-name="aeacute" unicode="&#x1fd;" horiz-adv-x="836" 
d="M576 -7q-26 0 -52.5 4t-51.5 13.5t-46 24.5t-37 37q-37 -35 -88.5 -58t-122.5 -23h-16q-83 3 -124 45.5t-25 131.5l3 15q7 43 29.5 74t57 51t79 29t96.5 9q26 0 50 -0.5t47 -1.5q6 32 6.5 55t-7.5 38t-26.5 22.5t-51.5 7.5q-17 0 -27.5 -0.5t-19.5 -1t-19 -2t-25 -3.5
l-7 -37l-89 -3l3 106q38 11 97 23t126 12q54 0 85.5 -16t47.5 -41q45 37 98 48t103 11q41 0 80 -8t66.5 -32t39.5 -67t0 -113l-10.5 -49t-12.5 -42h-362q-8 -47 1 -79.5t27 -52.5t42 -28.5t46 -8.5q61 0 101.5 5t74.5 12l16 -73q-40 -17 -93 -25.5t-109 -8.5zM364 269
q-17 0 -34.5 1t-35.5 1q-81 0 -122 -19.5t-50 -70.5l-2 -14q-9 -50 18.5 -68.5t83.5 -18.5q18 0 37 3t35.5 12t30 25.5t21.5 44.5zM648 481q-25 0 -49.5 -4t-46.5 -19.5t-39.5 -46.5t-27.5 -84h254q6 7 9 15t5 22q4 33 -2.5 55.5t-21.5 36t-36 19.5t-45 6zM412 61
q-1 -5 0.5 -8.5t3 -5t2.5 0.5t0 9zM595 712l-88 -121h-91l75 121h104z" />
    <glyph glyph-name="dotlessi" unicode="&#x131;" 
d="M193 464h-73l16 87h184l-78 -444q-1 -11 0.5 -17t7.5 -7.5t16 -0.5t26 3l-3 -80q-42 -12 -74.5 -11t-52.5 17t-27 48t2 82z" />
    <glyph glyph-name="racute" unicode="&#x155;" horiz-adv-x="450" 
d="M501 427l-78 -6l2 41q-19 0 -42.5 -2.5t-45 -10t-37 -21t-19.5 -35.5l-69 -393h-111l78 444l-67 -5l11 78q32 11 67.5 18t73.5 12l-9 -52q30 29 69 46.5t95 17.5q24 0 49.5 -2.5t53.5 -8.5zM429 712l-88 -121h-91l75 121h104z" />
    <glyph glyph-name="iota" unicode="&#x3b9;" 
d="M193 464h-73l16 87h184l-78 -444q-1 -11 0.5 -17t7.5 -7.5t16 -0.5t26 3l-3 -80q-42 -12 -74.5 -11t-52.5 17t-27 48t2 82z" />
    <glyph glyph-name="alphatonos" unicode="&#x3ac;" horiz-adv-x="631" 
d="M490 436q-16 14 -45.5 25.5t-67.5 11.5q-27 0 -52 -7.5t-46.5 -27.5t-38 -55t-26.5 -91l-7 -42q-10 -56 -5.5 -89.5t20 -51.5t39 -24t50.5 -6h17q36 0 60.5 7.5t42.5 14.5zM109 314q13 75 41 123t64.5 75.5t78.5 37.5t83 10q35 0 61 -4.5t45.5 -11t33.5 -15t25 -16.5
q17 21 36 29.5t44 8.5q12 0 25 -1.5t27 -6.5l26 -11l-21 -68q-21 7 -38 7q-32 0 -41 -47l-46 -263q-9 -51 -6 -67.5t23 -16.5q8 0 18 1t23 6l-3 -69q-31 -9 -49 -13.5t-40 -4.5q-23 0 -38.5 6.5t-23.5 23.5q-31 -14 -73 -26.5t-110 -12.5q-40 0 -78.5 9t-65.5 35t-38.5 72.5
t1.5 121.5zM347 721h103l-23 -130h-70z" />
    <glyph glyph-name="afii10019" unicode="&#x412;" horiz-adv-x="685" 
d="M157 623l16 87h283q39 0 84.5 -3.5t83 -20t58 -51.5t9.5 -97l-5 -30q-9 -51 -37.5 -81.5t-68.5 -46.5q55 -20 81 -58t13 -109l-6 -36q-9 -52 -35 -86t-62 -54.5t-79 -28.5t-87 -8h-335l15 86h46l94 537h-68zM557 206q11 65 -24.5 96t-110.5 31h-132l-43 -247h118
q31 0 62.5 2.5t57.5 14.5t45 36t27 67zM574 521q6 35 -1.5 55t-25 30.5t-43.5 13.5t-57 3h-106l-37 -209h103q28 0 55.5 3.5t50 14.5t39 32t22.5 57z" />
    <glyph glyph-name="afii10017" unicode="&#x410;" horiz-adv-x="723" 
d="M18 0l15 86h68l314 624h143l93 -624h68l-15 -86h-158l-28 177h-253l-89 -177h-158zM461 568l-152 -301h200z" />
    <glyph glyph-name="afii10022" unicode="&#x415;" horiz-adv-x="621" 
d="M157 623l16 87h511l-25 -138h-88l9 51h-239l-38 -219h230l-16 -88h-230l-40 -230h249l9 52h88l-24 -138h-498l15 86h46l94 537h-69z" />
    <glyph glyph-name="afii10023" unicode="&#x401;" horiz-adv-x="621" 
d="M157 623l16 87h511l-25 -138h-88l9 51h-239l-38 -219h230l-16 -88h-230l-40 -230h249l9 52h88l-24 -138h-498l15 86h46l94 537h-69zM281 837q5 29 25 42.5t46 13.5t41.5 -13t10.5 -43q-5 -29 -25.5 -42.5t-46.5 -13.5t-41 12.5t-10 43.5zM509 837q5 29 25.5 42.5
t46.5 13.5t41.5 -13t10.5 -43q-5 -29 -25.5 -42.5t-46.5 -13.5t-41.5 12.5t-10.5 43.5z" />
    <glyph glyph-name="afii10030" unicode="&#x41c;" horiz-adv-x="930" 
d="M66 0l15 86h46l105 538h-68l15 86h219l113 -444l283 444h215l-15 -86h-68l-21.5 -136.5l-21 -132.5l-21 -133l-21.5 -136h46l-15 -86h-157l88 555l-269 -426h-92l-111 428l-24 -121.5l-25 -125.5l-27 -141.5l-30 -168.5h-159z" />
    <glyph glyph-name="afii10031" unicode="&#x41d;" horiz-adv-x="760" 
d="M570 623l16 87h253l-16 -87h-68l-94 -537h68l-15 -86h-253l15 86h69l40 231h-298l-40 -231h68l-15 -86h-252l15 86h68l94 537h-68l16 87h252l-16 -87h-68l-38 -218h298l38 218h-69z" />
    <glyph glyph-name="afii10032" unicode="&#x41e;" horiz-adv-x="664" 
d="M459 720q51 0 100.5 -10t85.5 -41.5t51.5 -90.5t-1.5 -156l-22 -125q-17 -98 -51.5 -158t-80 -93.5t-99.5 -45t-111 -11.5t-107 11.5t-84 45t-46.5 94t4.5 157.5l22 125q17 97 53.5 156t83 90.5t99.5 41.5t103 10zM444 633q-39 0 -71.5 -11t-59 -38.5t-46.5 -73.5
t-32 -116l-16 -89q-12 -69 -8 -113t21.5 -69.5t46.5 -35.5t67 -10t70.5 10t59 35.5t46.5 69.5t32 113l16 89q12 70 8.5 116t-20.5 73.5t-46 38.5t-68 11z" />
    <glyph glyph-name="afii10034" unicode="&#x420;" horiz-adv-x="649" 
d="M157 623l16 87h281q65 0 115.5 -10t83.5 -34t45.5 -63.5t2.5 -99.5l-5 -31q-11 -58 -39 -95.5t-69.5 -59t-93.5 -29.5t-110 -8h-103l-34 -194h46l-15 -86h-208l15 86h46l94 537h-68zM583 486q7 42 0 68.5t-25.5 42t-47 21t-64.5 5.5h-105l-46 -262h103q34 0 64.5 4.5
t55 18t41.5 38t24 64.5z" />
    <glyph glyph-name="afii10035" unicode="&#x421;" horiz-adv-x="629" 
d="M654 525h-75l10 74q-26 14 -59 24t-70 10q-38 0 -72 -9.5t-61.5 -35.5t-48.5 -71.5t-34 -117.5l-16 -92q-12 -68 -8.5 -112.5t21 -70.5t48 -36.5t72.5 -10.5q37 0 67.5 4t56.5 10.5t49 14.5t46 15l18 -74q-51 -20 -113 -39t-139 -19q-59 0 -110.5 11t-87 43t-49 91.5
t3.5 157.5l23 129q16 92 50 150.5t79.5 91.5t101 45.5t115.5 12.5q50 0 107.5 -9.5t115.5 -28.5z" />
    <glyph glyph-name="afii10036" unicode="&#x422;" horiz-adv-x="687" 
d="M203 534h-74l31 176h621l-31 -176h-74l15 89h-182l-94 -537h73l-15 -86h-258l15 86h74l94 537h-180z" />
    <glyph glyph-name="afii10039" unicode="&#x425;" horiz-adv-x="712" 
d="M800 710l-15 -86q-10 0 -18.5 -1t-18 -4t-21 -9.5t-26.5 -18.5l-109.5 -118.5l-110.5 -117.5l157 -269h52l-15 -86h-123l-153 265l-245 -265h-120l15 86q10 0 18.5 1t19 6.5t25.5 17t38 32.5l99.5 105.5l98.5 106.5l-77.5 134l-77.5 135h-49l15 86h120l152 -266l247 266
h122z" />
    <glyph glyph-name="afii10080" unicode="&#x43e;" horiz-adv-x="545" 
d="M91 320q13 77 42.5 124t68 72.5t82.5 34t87 8.5q42 0 83 -8.5t70 -34t42 -72.5t0 -123l-18 -101q-13 -75 -41 -120.5t-65.5 -69.5t-81.5 -31.5t-90 -7.5q-45 0 -86.5 7.5t-70.5 31t-41 68.5t1 120zM185 231q-9 -53 -3 -83.5t21 -47t37 -21t45 -4.5q22 0 45.5 4.5t45 20.5
t39 46.5t26.5 83.5l15 84q9 52 2.5 84t-22.5 48.5t-37.5 22t-42.5 5.5t-45 -5.5t-45.5 -22.5t-39 -48.5t-26.5 -83.5z" />
    <glyph glyph-name="afii10082" unicode="&#x440;" horiz-adv-x="622" 
d="M179 -177l-58 -17.5l-58 -17.5l111 629q5 30 -0.5 42t-22.5 12q-11 0 -22 -2t-20 -5l3 68l41.5 14t38.5 6q28 0 44.5 -9t27.5 -30q31 19 74 33t108 14q41 0 79.5 -10t65.5 -38t37.5 -76.5t-2.5 -125.5l-15 -84q-13 -74 -40 -120t-63 -72t-77.5 -35.5t-82.5 -9.5
q-59 0 -90 8t-45 19zM228 102q18 -9 42 -16t71 -7q27 0 52.5 6t47.5 24t39 51.5t27 89.5l7 42q10 56 5.5 91t-18.5 55t-36.5 27.5t-49.5 7.5q-38 0 -71.5 -11.5t-56.5 -25.5z" />
    <glyph glyph-name="afii10083" unicode="&#x441;" horiz-adv-x="526" 
d="M457 391l8 61q-17 10 -45.5 14t-50.5 4q-21 0 -44.5 -5t-45 -21.5t-39.5 -48t-27 -83.5l-14 -77q-9 -54 -2.5 -85t22.5 -47t37 -20.5t41 -4.5q59 0 102 8t81 20l12 -82q-40 -18 -97 -26t-114 -8q-45 0 -85.5 8t-69 32.5t-40.5 70t2 121.5l18 102q13 75 42 121t67.5 71.5
t82.5 34t86 8.5q33 0 57 -1.5t45 -4.5t41 -7.5l45 -10.5l-39 -144h-76z" />
    <glyph glyph-name="afii10087" unicode="&#x445;" horiz-adv-x="631" 
d="M691 551l-16 -87q-15 0 -31.5 -2.5t-37.5 -13.5l-39 -39l-68.5 -67.5l-68.5 -66.5l127 -189h52l-15 -86h-123l-127 191l-192 -191h-121l15 86q20 0 35 4t37 18l170 167l-126 189h-50l16 87h120l63 -96.5l63 -96.5l195 193h122z" />
    <glyph glyph-name="afii10102" unicode="&#x455;" horiz-adv-x="563" 
d="M461 401l10 57q-18 8 -42 13t-50 5q-58 0 -93 -17t-40 -46q-5 -32 15.5 -48.5t72.5 -25.5q29 -8 69 -14t74.5 -21t54.5 -46t10 -89q-16 -91 -82 -135.5t-173 -44.5q-65 0 -119.5 7t-101.5 20l36 145h85l-10 -57q17 -8 45 -15.5t66 -7.5q45 0 72.5 11t42.5 25.5t20 29
t6 21.5q3 19 -5.5 32t-28 21.5t-47.5 14.5t-64 12q-89 16 -123.5 52t-22.5 103q8 46 29 76.5t54 49.5t76.5 27t96.5 8q38 0 80 -5.5t99 -19.5l-34 -138h-78z" />
    <glyph glyph-name="afii10103" unicode="&#x456;" 
d="M320 551l-82 -465h46l-15 -86h-202l15 86h45l66 378h-73l16 87h184zM199 690q6 33 30 49t56 16q31 0 49.5 -15t12.5 -50t-30 -50.5t-55 -15.5q-32 0 -50.5 15t-12.5 51z" />
    <glyph glyph-name="afii10104" unicode="&#x457;" 
d="M101 678q5 29 25 42.5t46 13.5t41.5 -13t10.5 -43q-5 -29 -25.5 -42.5t-46.5 -13.5t-41 12.5t-10 43.5zM329 678q5 29 25.5 42.5t46.5 13.5t41.5 -13t10.5 -43q-5 -29 -25.5 -42.5t-46.5 -13.5t-41.5 12.5t-10.5 43.5zM193 464h-73l16 87h184l-78 -444q-1 -11 0.5 -17
t7.5 -7.5t16 -0.5t26 3l-3 -80q-42 -12 -74.5 -11t-52.5 17t-27 48t2 82z" />
    <glyph glyph-name="afii10105" unicode="&#x458;" horiz-adv-x="286" 
d="M309 551l-110 -624q-9 -48 -21 -79.5t-25 -51t-25.5 -28.5t-22.5 -13l-64 22q7 11 20 42t23 87l98 558h-73l16 87h184zM193 690q6 33 30 49t56 16q31 0 49.5 -15t12.5 -50t-30 -50.5t-55 -15.5q-32 0 -50.5 15t-12.5 51z" />
    <glyph glyph-name="omicron" unicode="&#x3bf;" horiz-adv-x="545" 
d="M91 320q13 77 42.5 124t68 72.5t82.5 34t87 8.5q42 0 83 -8.5t70 -34t42 -72.5t0 -123l-18 -101q-13 -75 -41 -120.5t-65.5 -69.5t-81.5 -31.5t-90 -7.5q-45 0 -86.5 7.5t-70.5 31t-41 68.5t1 120zM185 231q-9 -53 -3 -83.5t21 -47t37 -21t45 -4.5q22 0 45.5 4.5t45 20.5
t39 46.5t26.5 83.5l15 84q9 52 2.5 84t-22.5 48.5t-37.5 22t-42.5 5.5t-45 -5.5t-45.5 -22.5t-39 -48.5t-26.5 -83.5z" />
    <glyph glyph-name="omicrontonos" unicode="&#x3cc;" horiz-adv-x="545" 
d="M338 736h103l-23 -130h-70zM91 320q13 77 42.5 124t68 72.5t82.5 34t87 8.5q42 0 83 -8.5t70 -34t42 -72.5t0 -123l-18 -101q-13 -75 -41 -120.5t-65.5 -69.5t-81.5 -31.5t-90 -7.5q-45 0 -86.5 7.5t-70.5 31t-41 68.5t1 120zM185 231q-9 -53 -3 -83.5t21 -47t37 -21
t45 -4.5q22 0 45.5 4.5t45 20.5t39 46.5t26.5 83.5l15 84q9 52 2.5 84t-22.5 48.5t-37.5 22t-42.5 5.5t-45 -5.5t-45.5 -22.5t-39 -48.5t-26.5 -83.5z" />
    <glyph glyph-name="iotadieresis" unicode="&#x3ca;" 
d="M193 464h-73l16 87h184l-78 -444q-1 -11 0.5 -17t7.5 -7.5t16 -0.5t26 3l-3 -80q-42 -12 -74.5 -11t-52.5 17t-27 48t2 82zM101 678q5 29 25 42.5t46 13.5t41.5 -13t10.5 -43q-5 -29 -25.5 -42.5t-46.5 -13.5t-41 12.5t-10 43.5zM329 678q5 29 25.5 42.5t46.5 13.5
t41.5 -13t10.5 -43q-5 -29 -25.5 -42.5t-46.5 -13.5t-41.5 12.5t-10.5 43.5z" />
    <glyph glyph-name="iotadieresistonos" unicode="&#x390;" 
d="M193 464h-73l16 87h184l-78 -444q-1 -11 0.5 -17t7.5 -7.5t16 -0.5t26 3l-3 -80q-42 -12 -74.5 -11t-52.5 17t-27 48t2 82zM101 678q5 29 25 42.5t46 13.5t41.5 -13t10.5 -43q-5 -29 -25.5 -42.5t-46.5 -13.5t-41 12.5t-10 43.5zM329 678q5 29 25.5 42.5t46.5 13.5
t41.5 -13t10.5 -43q-5 -29 -25.5 -42.5t-46.5 -13.5t-41.5 12.5t-10.5 43.5zM237 828h103l-23 -130h-70z" />
    <glyph glyph-name="iotatonos" unicode="&#x3af;" 
d="M193 464h-73l16 87h184l-78 -444q-1 -11 0.5 -17t7.5 -7.5t16 -0.5t26 3l-3 -80q-42 -12 -74.5 -11t-52.5 17t-27 48t2 82zM220 732h103l-23 -130h-70z" />
    <glyph glyph-name="Aogonek" unicode="&#x104;" horiz-adv-x="723" 
d="M18 0l15 86h68l314 624h143l93 -624h68l-15 -86h-158l-28 177h-253l-89 -177h-158zM461 568l-152 -301h200zM667 -205q-23 -17 -52 -26.5t-57 -9.5q-72 0 -104.5 33t-21.5 94q8 40 36 76t65 54l62 -5q-38 -20 -58.5 -49t-26.5 -62q-6 -32 7.5 -53.5t54.5 -21.5
q18 0 37.5 6t36.5 14z" />
    <glyph glyph-name="Aring" unicode="&#xc5;" horiz-adv-x="723" 
d="M18 0l15 86h68l314 624h143l93 -624h68l-15 -86h-158l-28 177h-253l-89 -177h-158zM461 568l-152 -301h200zM494 753q-47 0 -73.5 29.5t-18.5 76.5q4 23 16 42.5t29.5 34t39.5 22.5t45 8q46 0 72.5 -30.5t18.5 -76.5q-4 -23 -16 -42.5t-29.5 -33.5t-39 -22t-44.5 -8z
M503 803q26 0 45 15t24 41t-9 41.5t-40 15.5t-45 -15.5t-24 -41.5t9 -41t40 -15z" />
    <glyph glyph-name="Aacute" unicode="&#xc1;" horiz-adv-x="723" 
d="M18 0l15 86h68l314 624h143l93 -624h68l-15 -86h-158l-28 177h-253l-89 -177h-158zM461 568l-152 -301h200zM593 871l-88 -121h-91l75 121h104z" />
    <glyph glyph-name="Abreve" unicode="&#x102;" horiz-adv-x="723" 
d="M18 0l15 86h68l314 624h143l93 -624h68l-15 -86h-158l-28 177h-253l-89 -177h-158zM461 568l-152 -301h200zM493 753q-60 0 -98.5 36t-40.5 101l75 6q2 -38 21.5 -56t54.5 -18t62.5 18.5t41.5 55.5l72 -5q-12 -32 -32 -57.5t-44.5 -43.5t-53 -27.5t-58.5 -9.5z" />
    <glyph glyph-name="Agrave" unicode="&#xc0;" horiz-adv-x="723" 
d="M18 0l15 86h68l314 624h143l93 -624h68l-15 -86h-158l-28 177h-253l-89 -177h-158zM461 568l-152 -301h200zM482 750l-24 60t-23 61h105l33 -121h-91v0z" />
    <glyph glyph-name="Atilde" unicode="&#xc3;" horiz-adv-x="723" 
d="M18 0l15 86h68l314 624h143l93 -624h68l-15 -86h-158l-28 177h-253l-89 -177h-158zM461 568l-152 -301h200zM356 844q37 31 61 42t48 11q13 0 27.5 -6t28.5 -12.5l27.5 -12.5t25.5 -6q11 0 30 7.5t41 26.5l16 -56q-36 -32 -60 -43t-48 -11q-13 0 -28 6l-30 12.5
l-28.5 12.5t-23.5 6h-7q-12 -2 -28.5 -9.5t-36.5 -23.5z" />
    <glyph glyph-name="Amacron" unicode="&#x100;" horiz-adv-x="723" 
d="M18 0l15 86h68l314 624h143l93 -624h68l-15 -86h-158l-28 177h-253l-89 -177h-158zM461 568l-152 -301h200zM332 869h364l-13 -73h-364z" />
    <glyph glyph-name="Adieresis" unicode="&#xc4;" horiz-adv-x="723" 
d="M18 0l15 86h68l314 624h143l93 -624h68l-15 -86h-158l-28 177h-253l-89 -177h-158zM461 568l-152 -301h200zM332 837q5 29 25 42.5t46 13.5t41.5 -13t10.5 -43q-5 -29 -25.5 -42.5t-46.5 -13.5t-41 12.5t-10 43.5zM560 837q5 29 25.5 42.5t46.5 13.5t41.5 -13t10.5 -43
q-5 -29 -25.5 -42.5t-46.5 -13.5t-41.5 12.5t-10.5 43.5z" />
    <glyph glyph-name="Acircumflex" unicode="&#xc2;" horiz-adv-x="723" 
d="M18 0l15 86h68l314 624h143l93 -624h68l-15 -86h-158l-28 177h-253l-89 -177h-158zM461 568l-152 -301h200zM668 758h-93l-63 97l-98 -97h-93l162 146h73z" />
    <glyph glyph-name="Cacute" unicode="&#x106;" horiz-adv-x="629" 
d="M654 525h-75l10 74q-26 14 -59 24t-70 10q-38 0 -72 -9.5t-61.5 -35.5t-48.5 -71.5t-34 -117.5l-16 -92q-12 -68 -8.5 -112.5t21 -70.5t48 -36.5t72.5 -10.5q37 0 67.5 4t56.5 10.5t49 14.5t46 15l18 -74q-51 -20 -113 -39t-139 -19q-59 0 -110.5 11t-87 43t-49 91.5
t3.5 157.5l23 129q16 92 50 150.5t79.5 91.5t101 45.5t115.5 12.5q50 0 106.5 -9.5t114.5 -28.5zM546 871l-88 -121h-91l75 121h104z" />
    <glyph glyph-name="Ccaron" unicode="&#x10c;" horiz-adv-x="629" 
d="M654 525h-75l10 74q-26 14 -59 24t-70 10q-38 0 -72 -9.5t-61.5 -35.5t-48.5 -71.5t-34 -117.5l-16 -92q-12 -68 -8.5 -112.5t21 -70.5t48 -36.5t72.5 -10.5q37 0 67.5 4t56.5 10.5t49 14.5t46 15l18 -74q-51 -20 -113 -39t-139 -19q-59 0 -110.5 11t-87 43t-49 91.5
t3.5 157.5l23 129q16 92 50 150.5t79.5 91.5t101 45.5t115.5 12.5q50 0 106.5 -9.5t114.5 -28.5zM410 754l-54.5 73.5l-56.5 72.5h93l64 -97l97 97h93l-81 -72.5l-82 -73.5h-73v0z" />
    <glyph glyph-name="Ccedilla" unicode="&#xc7;" horiz-adv-x="629" 
d="M654 525h-75l10 74q-26 14 -59 24t-70 10q-38 0 -72 -9.5t-61.5 -35.5t-48.5 -71.5t-34 -117.5l-16 -92q-12 -68 -8.5 -112.5t21 -70.5t48 -36.5t72.5 -10.5q37 0 67.5 4t56.5 10.5t49 14.5t46 15l18 -74q-51 -20 -113 -39t-139 -19q-59 0 -110.5 11t-87 43t-49 91.5
t3.5 157.5l23 129q16 92 50 150.5t79.5 91.5t101 45.5t115.5 12.5q50 0 106.5 -9.5t114.5 -28.5zM409 13l-114 -207h-107l147 207h74z" />
    <glyph glyph-name="Cdotaccent" unicode="&#x10a;" horiz-adv-x="629" 
d="M654 525h-75l10 74q-26 14 -59 24t-70 10q-38 0 -72 -9.5t-61.5 -35.5t-48.5 -71.5t-34 -117.5l-16 -92q-12 -68 -8.5 -112.5t21 -70.5t48 -36.5t72.5 -10.5q37 0 67.5 4t56.5 10.5t49 14.5t46 15l18 -74q-51 -20 -113 -39t-139 -19q-59 0 -110.5 11t-87 43t-49 91.5
t3.5 157.5l23 129q16 92 50 150.5t79.5 91.5t101 45.5t115.5 12.5q50 0 106.5 -9.5t114.5 -28.5zM399 839q5 28 25.5 42t46.5 14t41.5 -13.5t10.5 -42.5t-25.5 -43t-46.5 -14t-41.5 13t-10.5 44z" />
    <glyph glyph-name="Ccircumflex" unicode="&#x108;" horiz-adv-x="629" 
d="M654 525h-75l10 74q-26 14 -59 24t-70 10q-38 0 -72 -9.5t-61.5 -35.5t-48.5 -71.5t-34 -117.5l-16 -92q-12 -68 -8.5 -112.5t21 -70.5t48 -36.5t72.5 -10.5q37 0 67.5 4t56.5 10.5t49 14.5t46 15l18 -74q-51 -20 -113 -39t-139 -19q-59 0 -110.5 11t-87 43t-49 91.5
t3.5 157.5l23 129q16 92 50 150.5t79.5 91.5t101 45.5t115.5 12.5q50 0 106.5 -9.5t114.5 -28.5zM621 758h-93l-63 97l-98 -97h-93l162 146h73z" />
    <glyph glyph-name="Dcaron" unicode="&#x10e;" horiz-adv-x="695" 
d="M157 623l16 87h304q58 0 110 -8t87 -38.5t48.5 -90.5t-4.5 -163l-22 -123q-17 -96 -53.5 -153t-84 -87t-101.5 -38.5t-106 -8.5h-281l15 86h46l94 537h-68zM602 407q13 76 4.5 119.5t-30 65t-51 26.5t-56.5 5h-133l-94 -537h123q33 0 66.5 7.5t63.5 31t53.5 66.5
t35.5 115zM443 754l-54.5 73.5l-56.5 72.5h93l64 -97l97 97h93l-81 -72.5l-82 -73.5h-73v0z" />
    <glyph glyph-name="Emacron" unicode="&#x112;" horiz-adv-x="621" 
d="M157 623l16 87h511l-25 -138h-88l9 51h-239l-38 -219h230l-16 -88h-230l-40 -230h249l9 52h88l-24 -138h-498l15 86h46l94 537h-69zM281 869h364l-13 -73h-364z" />
    <glyph glyph-name="Eogonek" unicode="&#x118;" horiz-adv-x="621" 
d="M157 623l16 87h511l-25 -138h-88l9 51h-239l-38 -219h230l-16 -88h-230l-40 -230h249l9 52h88l-24 -138h-498l15 86h46l94 537h-69zM532 -205q-23 -17 -52 -26.5t-57 -9.5q-72 0 -104.5 33t-21.5 94q8 40 36 76t65 54l62 -5q-38 -20 -58.5 -49t-26.5 -62
q-6 -32 7.5 -53.5t54.5 -21.5q18 0 37.5 6t36.5 14z" />
    <glyph glyph-name="Eacute" unicode="&#xc9;" horiz-adv-x="621" 
d="M157 623l16 87h511l-25 -138h-88l9 51h-239l-38 -219h230l-16 -88h-230l-40 -230h249l9 52h88l-24 -138h-498l15 86h46l94 537h-69zM542 871l-88 -121h-91l75 121h104z" />
    <glyph glyph-name="Ebreve" unicode="&#x114;" horiz-adv-x="621" 
d="M157 623l16 87h511l-25 -138h-88l9 51h-239l-38 -219h230l-16 -88h-230l-40 -230h249l9 52h88l-24 -138h-498l15 86h46l94 537h-69zM442 753q-60 0 -98.5 36t-40.5 101l75 6q2 -38 21.5 -56t54.5 -18t62.5 18.5t41.5 55.5l72 -5q-12 -32 -32 -57.5t-44.5 -43.5t-53 -27.5
t-58.5 -9.5z" />
    <glyph glyph-name="Ecaron" unicode="&#x11a;" horiz-adv-x="621" 
d="M157 623l16 87h511l-25 -138h-88l9 51h-239l-38 -219h230l-16 -88h-230l-40 -230h249l9 52h88l-24 -138h-498l15 86h46l94 537h-69zM406 754l-54.5 73.5l-56.5 72.5h93l64 -97l97 97h93l-81 -72.5l-82 -73.5h-73v0z" />
    <glyph glyph-name="Egrave" unicode="&#xc8;" horiz-adv-x="621" 
d="M157 623l16 87h511l-25 -138h-88l9 51h-239l-38 -219h230l-16 -88h-230l-40 -230h249l9 52h88l-24 -138h-498l15 86h46l94 537h-69zM431 750l-24 60t-23 61h105l33 -121h-91v0z" />
    <glyph glyph-name="Edieresis" unicode="&#xcb;" horiz-adv-x="621" 
d="M157 623l16 87h511l-25 -138h-88l9 51h-239l-38 -219h230l-16 -88h-230l-40 -230h249l9 52h88l-24 -138h-498l15 86h46l94 537h-69zM281 837q5 29 25 42.5t46 13.5t41.5 -13t10.5 -43q-5 -29 -25.5 -42.5t-46.5 -13.5t-41 12.5t-10 43.5zM509 837q5 29 25.5 42.5
t46.5 13.5t41.5 -13t10.5 -43q-5 -29 -25.5 -42.5t-46.5 -13.5t-41.5 12.5t-10.5 43.5z" />
    <glyph glyph-name="Edotaccent" unicode="&#x116;" horiz-adv-x="621" 
d="M157 623l16 87h511l-25 -138h-88l9 51h-239l-38 -219h230l-16 -88h-230l-40 -230h249l9 52h88l-24 -138h-498l15 86h46l94 537h-69zM395 839q5 28 25.5 42t46.5 14t41.5 -13.5t10.5 -42.5t-25.5 -43t-46.5 -14t-41.5 13t-10.5 44z" />
    <glyph glyph-name="Ecircumflex" unicode="&#xca;" horiz-adv-x="621" 
d="M157 623l16 87h511l-25 -138h-88l9 51h-239l-38 -219h230l-16 -88h-230l-40 -230h249l9 52h88l-24 -138h-498l15 86h46l94 537h-69zM617 758h-93l-63 97l-98 -97h-93l162 146h73z" />
    <glyph glyph-name="Gbreve" unicode="&#x11e;" horiz-adv-x="638" 
d="M573 525l10 74q-26 14 -59 24.5t-69 10.5q-40 0 -74 -9.5t-61.5 -36t-48 -72t-33.5 -117.5l-16 -92q-12 -68 -8.5 -112.5t21 -70.5t48 -36.5t72.5 -10.5q44 0 79 7.5t63 15.5q0 27 7 59l13 76h-73l15 84h184l-32 -181q-10 -54 -9.5 -84.5t6.5 -43.5q-35 -12 -72 -22
q-6 2 -12.5 9t-10.5 22q-35 -11 -77 -20.5t-96 -9.5q-60 0 -111.5 11t-86.5 43t-48.5 91.5t3.5 157.5l18 102q18 102 51 166t78.5 99.5t101.5 48.5t120 13q50 0 104.5 -8t111.5 -27l-35 -161h-74zM451 753q-60 0 -98.5 36t-40.5 101l75 6q2 -38 21.5 -56t54.5 -18t62.5 18.5
t41.5 55.5l72 -5q-12 -32 -32 -57.5t-44.5 -43.5t-53 -27.5t-58.5 -9.5z" />
    <glyph glyph-name="Gdotaccent" unicode="&#x120;" horiz-adv-x="638" 
d="M573 525l10 74q-26 14 -59 24.5t-69 10.5q-40 0 -74 -9.5t-61.5 -36t-48 -72t-33.5 -117.5l-16 -92q-12 -68 -8.5 -112.5t21 -70.5t48 -36.5t72.5 -10.5q44 0 79 7.5t63 15.5q0 27 7 59l13 76h-73l15 84h184l-32 -181q-10 -54 -9.5 -84.5t6.5 -43.5q-35 -12 -72 -22
q-6 2 -12.5 9t-10.5 22q-35 -11 -77 -20.5t-96 -9.5q-60 0 -111.5 11t-86.5 43t-48.5 91.5t3.5 157.5l18 102q18 102 51 166t78.5 99.5t101.5 48.5t120 13q50 0 104.5 -8t111.5 -27l-35 -161h-74zM404 839q5 28 25.5 42t46.5 14t41.5 -13.5t10.5 -42.5t-25.5 -43t-46.5 -14
t-41.5 13t-10.5 44z" />
    <glyph glyph-name="Gcircumflex" unicode="&#x11c;" horiz-adv-x="638" 
d="M573 525l10 74q-26 14 -59 24.5t-69 10.5q-40 0 -74 -9.5t-61.5 -36t-48 -72t-33.5 -117.5l-16 -92q-12 -68 -8.5 -112.5t21 -70.5t48 -36.5t72.5 -10.5q44 0 79 7.5t63 15.5q0 27 7 59l13 76h-73l15 84h184l-32 -181q-10 -54 -9.5 -84.5t6.5 -43.5q-35 -12 -72 -22
q-6 2 -12.5 9t-10.5 22q-35 -11 -77 -20.5t-96 -9.5q-60 0 -111.5 11t-86.5 43t-48.5 91.5t3.5 157.5l18 102q18 102 51 166t78.5 99.5t101.5 48.5t120 13q50 0 104.5 -8t111.5 -27l-35 -161h-74zM625 758h-93l-63 97l-98 -97h-93l162 146h73z" />
    <glyph glyph-name="Gcommaaccent" unicode="&#x122;" horiz-adv-x="638" 
d="M573 525l10 74q-26 14 -59 24.5t-69 10.5q-40 0 -74 -9.5t-61.5 -36t-48 -72t-33.5 -117.5l-16 -92q-12 -68 -8.5 -112.5t21 -70.5t48 -36.5t72.5 -10.5q44 0 79 7.5t63 15.5q0 27 7 59l13 76h-73l15 84h184l-32 -181q-10 -54 -9.5 -84.5t6.5 -43.5q-35 -12 -72 -22
q-6 2 -12.5 9t-10.5 22q-35 -11 -77 -20.5t-96 -9.5q-60 0 -111.5 11t-86.5 43t-48.5 91.5t3.5 157.5l18 102q18 102 51 166t78.5 99.5t101.5 48.5t120 13q50 0 104.5 -8t111.5 -27l-35 -161h-74zM234 -129q6 35 27 52t47 17q21 0 35 -10t15 -36q1 -2 0.5 -9.5t-1.5 -17
t-2.5 -17.5t-1.5 -11q-9 -54 -45 -92.5t-85 -60.5l-17 38q28 23 40 40.5t18 39.5q-18 5 -26.5 21t-3.5 46z" />
    <glyph glyph-name="Hbar" unicode="&#x126;" horiz-adv-x="760" 
d="M570 623l16 87h253l-16 -87h-68l-94 -537h68l-15 -86h-253l15 86h69l40 231h-298l-40 -231h68l-15 -86h-252l15 86h68l94 537h-68l16 87h252l-16 -87h-68l-38 -218h298l38 218h-69zM295 553h364l-13 -73h-364z" />
    <glyph glyph-name="Kcommaaccent" unicode="&#x136;" horiz-adv-x="740" 
d="M226 623h-74l16 87h190l-43 -243l54 -58l315 301h136l-19 -87q-21 0 -36 -3t-26.5 -9t-21.5 -14.5l-22 -19.5l-261 -238l218 -236q21 -20 34.5 -29.5t23.5 -12.5l-21 -33l-21 -33q-12 -3 -22 -3q-11 0 -24.5 2.5t-30 10.5t-36 23t-42.5 41l-225 246l-30 -169
q-8 -45 -20.5 -76t-26 -51t-26 -30t-19.5 -14l-70 26q8 12 21 44.5t22 83.5zM285 -129q6 35 27 52t47 17q21 0 35 -10t15 -36q1 -2 0.5 -9.5t-1.5 -17t-2.5 -17.5t-1.5 -11q-9 -54 -45 -92.5t-85 -60.5l-17 38q28 23 40 40.5t18 39.5q-18 5 -26.5 21t-3.5 46z" />
    <glyph glyph-name="Lacute" unicode="&#x139;" horiz-adv-x="595" 
d="M568 0h-498l15 86h46l94 537h-68l16 87h225l-16 -87h-46l-94 -537h252q8 15 13.5 34.5t9.5 43.5h79zM529 871l-88 -121h-91l75 121h104z" />
    <glyph glyph-name="Ncommaaccent" unicode="&#x145;" horiz-adv-x="801" 
d="M158 624l15 86h190l250 -540l81 454h-68l15 86h252l-15 -86h-68l-95 -538h68l-15 -86h-189l-252 540l-95 -540h-167l15 86h51l95 538h-68zM316 -129q6 35 27 52t47 17q21 0 35 -10t15 -36q1 -2 0.5 -9.5t-1.5 -17t-2.5 -17.5t-1.5 -11q-9 -54 -45 -92.5t-85 -60.5l-17 38
q28 23 40 40.5t18 39.5q-18 5 -26.5 21t-3.5 46z" />
    <glyph glyph-name="Ntilde" unicode="&#xd1;" horiz-adv-x="801" 
d="M158 624l15 86h190l250 -540l81 454h-68l15 86h252l-15 -86h-68l-95 -538h68l-15 -86h-189l-252 540l-95 -540h-167l15 86h51l95 538h-68zM395 844q37 31 61 42t48 11q13 0 27.5 -6t28.5 -12.5l27.5 -12.5t25.5 -6q11 0 30 7.5t41 26.5l16 -56q-36 -32 -60 -43t-48 -11
q-13 0 -28 6l-30 12.5l-28.5 12.5t-23.5 6h-7q-12 -2 -28.5 -9.5t-36.5 -23.5z" />
    <glyph glyph-name="Nacute" unicode="&#x143;" horiz-adv-x="801" 
d="M158 624l15 86h190l250 -540l81 454h-68l15 86h252l-15 -86h-68l-95 -538h68l-15 -86h-189l-252 540l-95 -540h-167l15 86h51l95 538h-68zM632 871l-88 -121h-91l75 121h104z" />
    <glyph glyph-name="Ncaron" unicode="&#x147;" horiz-adv-x="801" 
d="M158 624l15 86h190l250 -540l81 454h-68l15 86h252l-15 -86h-68l-95 -538h68l-15 -86h-189l-252 540l-95 -540h-167l15 86h51l95 538h-68zM496 754l-54.5 73.5l-56.5 72.5h93l64 -97l97 97h93l-81 -72.5l-82 -73.5h-73v0z" />
    <glyph glyph-name="Oacute" unicode="&#xd3;" horiz-adv-x="664" 
d="M459 720q51 0 100.5 -10t85.5 -41.5t51.5 -90.5t-1.5 -156l-22 -125q-17 -98 -51.5 -158t-80 -93.5t-99.5 -45t-111 -11.5t-107 11.5t-84 45t-46.5 94t4.5 157.5l22 125q17 97 53.5 156t83 90.5t99.5 41.5t103 10zM444 633q-39 0 -71.5 -11t-59 -38.5t-46.5 -73.5
t-32 -116l-16 -89q-12 -69 -8 -113t21.5 -69.5t46.5 -35.5t67 -10t70.5 10t59 35.5t46.5 69.5t32 113l16 89q12 70 8.5 116t-20.5 73.5t-46 38.5t-68 11zM564 871l-88 -121h-91l75 121h104z" />
    <glyph glyph-name="Obreve" unicode="&#x14e;" horiz-adv-x="664" 
d="M459 720q51 0 100.5 -10t85.5 -41.5t51.5 -90.5t-1.5 -156l-22 -125q-17 -98 -51.5 -158t-80 -93.5t-99.5 -45t-111 -11.5t-107 11.5t-84 45t-46.5 94t4.5 157.5l22 125q17 97 53.5 156t83 90.5t99.5 41.5t103 10zM444 633q-39 0 -71.5 -11t-59 -38.5t-46.5 -73.5
t-32 -116l-16 -89q-12 -69 -8 -113t21.5 -69.5t46.5 -35.5t67 -10t70.5 10t59 35.5t46.5 69.5t32 113l16 89q12 70 8.5 116t-20.5 73.5t-46 38.5t-68 11zM464 753q-60 0 -98.5 36t-40.5 101l75 6q2 -38 21.5 -56t54.5 -18t62.5 18.5t41.5 55.5l72 -5q-12 -32 -32 -57.5
t-44.5 -43.5t-53 -27.5t-58.5 -9.5z" />
    <glyph glyph-name="Ograve" unicode="&#xd2;" horiz-adv-x="664" 
d="M459 720q51 0 100.5 -10t85.5 -41.5t51.5 -90.5t-1.5 -156l-22 -125q-17 -98 -51.5 -158t-80 -93.5t-99.5 -45t-111 -11.5t-107 11.5t-84 45t-46.5 94t4.5 157.5l22 125q17 97 53.5 156t83 90.5t99.5 41.5t103 10zM444 633q-39 0 -71.5 -11t-59 -38.5t-46.5 -73.5
t-32 -116l-16 -89q-12 -69 -8 -113t21.5 -69.5t46.5 -35.5t67 -10t70.5 10t59 35.5t46.5 69.5t32 113l16 89q12 70 8.5 116t-20.5 73.5t-46 38.5t-68 11zM452 750l-24 60t-23 61h105l33 -121h-91v0z" />
    <glyph glyph-name="Otilde" unicode="&#xd5;" horiz-adv-x="664" 
d="M459 720q51 0 100.5 -10t85.5 -41.5t51.5 -90.5t-1.5 -156l-22 -125q-17 -98 -51.5 -158t-80 -93.5t-99.5 -45t-111 -11.5t-107 11.5t-84 45t-46.5 94t4.5 157.5l22 125q17 97 53.5 156t83 90.5t99.5 41.5t103 10zM444 633q-39 0 -71.5 -11t-59 -38.5t-46.5 -73.5
t-32 -116l-16 -89q-12 -69 -8 -113t21.5 -69.5t46.5 -35.5t67 -10t70.5 10t59 35.5t46.5 69.5t32 113l16 89q12 70 8.5 116t-20.5 73.5t-46 38.5t-68 11zM327 844q37 31 61 42t48 11q13 0 27.5 -6t28.5 -12.5l27.5 -12.5t25.5 -6q11 0 30 7.5t41 26.5l16 -56
q-36 -32 -60 -43t-48 -11q-13 0 -28 6l-30 12.5l-28.5 12.5t-23.5 6h-7q-12 -2 -28.5 -9.5t-36.5 -23.5z" />
    <glyph glyph-name="Omacron" unicode="&#x14c;" horiz-adv-x="664" 
d="M459 720q51 0 100.5 -10t85.5 -41.5t51.5 -90.5t-1.5 -156l-22 -125q-17 -98 -51.5 -158t-80 -93.5t-99.5 -45t-111 -11.5t-107 11.5t-84 45t-46.5 94t4.5 157.5l22 125q17 97 53.5 156t83 90.5t99.5 41.5t103 10zM444 633q-39 0 -71.5 -11t-59 -38.5t-46.5 -73.5
t-32 -116l-16 -89q-12 -69 -8 -113t21.5 -69.5t46.5 -35.5t67 -10t70.5 10t59 35.5t46.5 69.5t32 113l16 89q12 70 8.5 116t-20.5 73.5t-46 38.5t-68 11zM303 869h364l-13 -73h-364z" />
    <glyph glyph-name="Odieresis" unicode="&#xd6;" horiz-adv-x="664" 
d="M459 720q51 0 100.5 -10t85.5 -41.5t51.5 -90.5t-1.5 -156l-22 -125q-17 -98 -51.5 -158t-80 -93.5t-99.5 -45t-111 -11.5t-107 11.5t-84 45t-46.5 94t4.5 157.5l22 125q17 97 53.5 156t83 90.5t99.5 41.5t103 10zM444 633q-39 0 -71.5 -11t-59 -38.5t-46.5 -73.5
t-32 -116l-16 -89q-12 -69 -8 -113t21.5 -69.5t46.5 -35.5t67 -10t70.5 10t59 35.5t46.5 69.5t32 113l16 89q12 70 8.5 116t-20.5 73.5t-46 38.5t-68 11zM303 837q5 29 25 42.5t46 13.5t41.5 -13t10.5 -43q-5 -29 -25.5 -42.5t-46.5 -13.5t-41 12.5t-10 43.5zM531 837
q5 29 25.5 42.5t46.5 13.5t41.5 -13t10.5 -43q-5 -29 -25.5 -42.5t-46.5 -13.5t-41.5 12.5t-10.5 43.5z" />
    <glyph glyph-name="Ocircumflex" unicode="&#xd4;" horiz-adv-x="664" 
d="M459 720q51 0 100.5 -10t85.5 -41.5t51.5 -90.5t-1.5 -156l-22 -125q-17 -98 -51.5 -158t-80 -93.5t-99.5 -45t-111 -11.5t-107 11.5t-84 45t-46.5 94t4.5 157.5l22 125q17 97 53.5 156t83 90.5t99.5 41.5t103 10zM444 633q-39 0 -71.5 -11t-59 -38.5t-46.5 -73.5
t-32 -116l-16 -89q-12 -69 -8 -113t21.5 -69.5t46.5 -35.5t67 -10t70.5 10t59 35.5t46.5 69.5t32 113l16 89q12 70 8.5 116t-20.5 73.5t-46 38.5t-68 11zM638 758h-93l-63 97l-98 -97h-93l162 146h73z" />
    <glyph glyph-name="Ohungarumlaut" unicode="&#x150;" horiz-adv-x="664" 
d="M459 720q51 0 100.5 -10t85.5 -41.5t51.5 -90.5t-1.5 -156l-22 -125q-17 -98 -51.5 -158t-80 -93.5t-99.5 -45t-111 -11.5t-107 11.5t-84 45t-46.5 94t4.5 157.5l22 125q17 97 53.5 156t83 90.5t99.5 41.5t103 10zM444 633q-39 0 -71.5 -11t-59 -38.5t-46.5 -73.5
t-32 -116l-16 -89q-12 -69 -8 -113t21.5 -69.5t46.5 -35.5t67 -10t70.5 10t59 35.5t46.5 69.5t32 113l16 89q12 70 8.5 116t-20.5 73.5t-46 38.5t-68 11zM488 885l-101 -126h-63l89 126h75zM628 885l-101 -126h-63l89 126h75z" />
    <glyph glyph-name="Rcommaaccent" unicode="&#x156;" horiz-adv-x="683" 
d="M386 273q-9 -1 -16.5 -1h-15.5h-86l-32 -186h46l-15 -86h-203l15 86h46l94 537h-68l16 87h280q59 0 111.5 -7.5t89.5 -30t54.5 -63t5.5 -105.5l-7 -40q-7 -41 -24 -71.5t-41.5 -52t-56.5 -35.5t-69 -21l90 -153q23 -40 43.5 -58.5t39.5 -28.5l-53 -59h-6q-6 0 -19.5 2
t-31.5 12t-38.5 29.5t-41.5 55.5zM589 482q8 46 -1.5 74t-32 43t-56 19.5t-73.5 4.5h-96l-47 -271h95q34 0 67.5 3.5t62.5 16.5t50.5 39t30.5 71zM257 -129q6 35 27 52t47 17q21 0 35 -10t15 -36q1 -2 0.5 -9.5t-1.5 -17t-2.5 -17.5t-1.5 -11q-9 -54 -45 -92.5t-85 -60.5
l-17 38q28 23 40 40.5t18 39.5q-18 5 -26.5 21t-3.5 46z" />
    <glyph glyph-name="Racute" unicode="&#x154;" horiz-adv-x="683" 
d="M386 273q-9 -1 -16.5 -1h-15.5h-86l-32 -186h46l-15 -86h-203l15 86h46l94 537h-68l16 87h280q59 0 111.5 -7.5t89.5 -30t54.5 -63t5.5 -105.5l-7 -40q-7 -41 -24 -71.5t-41.5 -52t-56.5 -35.5t-69 -21l90 -153q23 -40 43.5 -58.5t39.5 -28.5l-53 -59h-6q-6 0 -19.5 2
t-31.5 12t-38.5 29.5t-41.5 55.5zM589 482q8 46 -1.5 74t-32 43t-56 19.5t-73.5 4.5h-96l-47 -271h95q34 0 67.5 3.5t62.5 16.5t50.5 39t30.5 71zM573 871l-88 -121h-91l75 121h104z" />
    <glyph glyph-name="Rcaron" unicode="&#x158;" horiz-adv-x="683" 
d="M386 273q-9 -1 -16.5 -1h-15.5h-86l-32 -186h46l-15 -86h-203l15 86h46l94 537h-68l16 87h280q59 0 111.5 -7.5t89.5 -30t54.5 -63t5.5 -105.5l-7 -40q-7 -41 -24 -71.5t-41.5 -52t-56.5 -35.5t-69 -21l90 -153q23 -40 43.5 -58.5t39.5 -28.5l-53 -59h-6q-6 0 -19.5 2
t-31.5 12t-38.5 29.5t-41.5 55.5zM589 482q8 46 -1.5 74t-32 43t-56 19.5t-73.5 4.5h-96l-47 -271h95q34 0 67.5 3.5t62.5 16.5t50.5 39t30.5 71zM437 754l-54.5 73.5l-56.5 72.5h93l64 -97l97 97h93l-81 -72.5l-82 -73.5h-73v0z" />
    <glyph glyph-name="Sacute" unicode="&#x15a;" horiz-adv-x="604" 
d="M528 550l6 61q-12 4 -27.5 7t-31 5t-30.5 2.5t-25 0.5q-22 0 -49 -3.5t-51 -13t-42 -26t-22 -43.5q-9 -49 29 -77.5t119 -47.5q32 -5 69 -18t66.5 -38.5t45.5 -65.5t6 -99q-9 -50 -39 -88t-73 -64t-96 -39.5t-107 -13.5q-61 0 -121.5 7.5t-113.5 26.5l42 153h82l-13 -71
q11 -4 26 -7t30.5 -5.5t31.5 -3.5t29 -1q81 0 133 29t60 74q6 34 -3 56.5t-29.5 37t-49.5 23.5t-63 17q-208 48 -178 215q9 50 34 84.5t63.5 56.5t89 31.5t110.5 9.5q48 0 99.5 -6.5t114.5 -23.5q-11 -36 -24 -72.5t-22 -72.5zM534 871l-88 -121h-91l75 121h104z" />
    <glyph glyph-name="Scaron" unicode="&#x160;" horiz-adv-x="604" 
d="M528 550l6 61q-12 4 -27.5 7t-31 5t-30.5 2.5t-25 0.5q-22 0 -49 -3.5t-51 -13t-42 -26t-22 -43.5q-9 -49 29 -77.5t119 -47.5q32 -5 69 -18t66.5 -38.5t45.5 -65.5t6 -99q-9 -50 -39 -88t-73 -64t-96 -39.5t-107 -13.5q-61 0 -121.5 7.5t-113.5 26.5l42 153h82l-13 -71
q11 -4 26 -7t30.5 -5.5t31.5 -3.5t29 -1q81 0 133 29t60 74q6 34 -3 56.5t-29.5 37t-49.5 23.5t-63 17q-208 48 -178 215q9 50 34 84.5t63.5 56.5t89 31.5t110.5 9.5q48 0 99.5 -6.5t114.5 -23.5q-11 -36 -24 -72.5t-22 -72.5zM397 754l-54.5 73.5l-56.5 72.5h93l64 -97
l97 97h93l-81 -72.5l-82 -73.5h-73v0z" />
    <glyph glyph-name="Scedilla" unicode="&#x15e;" horiz-adv-x="604" 
d="M528 550l6 61q-12 4 -27.5 7t-31 5t-30.5 2.5t-25 0.5q-22 0 -49 -3.5t-51 -13t-42 -26t-22 -43.5q-9 -49 29 -77.5t119 -47.5q32 -5 69 -18t66.5 -38.5t45.5 -65.5t6 -99q-9 -50 -39 -88t-73 -64t-96 -39.5t-107 -13.5q-61 0 -121.5 7.5t-113.5 26.5l42 153h82l-13 -71
q11 -4 26 -7t30.5 -5.5t31.5 -3.5t29 -1q81 0 133 29t60 74q6 34 -3 56.5t-29.5 37t-49.5 23.5t-63 17q-208 48 -178 215q9 50 34 84.5t63.5 56.5t89 31.5t110.5 9.5q48 0 99.5 -6.5t114.5 -23.5q-11 -36 -24 -72.5t-22 -72.5zM396 13l-114 -207h-107l147 207h74z" />
    <glyph glyph-name="Scircumflex" unicode="&#x15c;" horiz-adv-x="604" 
d="M528 550l6 61q-12 4 -27.5 7t-31 5t-30.5 2.5t-25 0.5q-22 0 -49 -3.5t-51 -13t-42 -26t-22 -43.5q-9 -49 29 -77.5t119 -47.5q32 -5 69 -18t66.5 -38.5t45.5 -65.5t6 -99q-9 -50 -39 -88t-73 -64t-96 -39.5t-107 -13.5q-61 0 -121.5 7.5t-113.5 26.5l42 153h82l-13 -71
q11 -4 26 -7t30.5 -5.5t31.5 -3.5t29 -1q81 0 133 29t60 74q6 34 -3 56.5t-29.5 37t-49.5 23.5t-63 17q-208 48 -178 215q9 50 34 84.5t63.5 56.5t89 31.5t110.5 9.5q48 0 99.5 -6.5t114.5 -23.5q-11 -36 -24 -72.5t-22 -72.5zM608 758h-93l-63 97l-98 -97h-93l162 146h73z
" />
    <glyph glyph-name="Scommaaccent" unicode="&#x218;" horiz-adv-x="604" 
d="M528 550l6 61q-12 4 -27.5 7t-31 5t-30.5 2.5t-25 0.5q-22 0 -49 -3.5t-51 -13t-42 -26t-22 -43.5q-9 -49 29 -77.5t119 -47.5q32 -5 69 -18t66.5 -38.5t45.5 -65.5t6 -99q-9 -50 -39 -88t-73 -64t-96 -39.5t-107 -13.5q-61 0 -121.5 7.5t-113.5 26.5l42 153h82l-13 -71
q11 -4 26 -7t30.5 -5.5t31.5 -3.5t29 -1q81 0 133 29t60 74q6 34 -3 56.5t-29.5 37t-49.5 23.5t-63 17q-208 48 -178 215q9 50 34 84.5t63.5 56.5t89 31.5t110.5 9.5q48 0 99.5 -6.5t114.5 -23.5q-11 -36 -24 -72.5t-22 -72.5z" />
    <glyph glyph-name="Tcommaaccent" unicode="&#x162;" horiz-adv-x="687" 
d="M203 534h-74l31 176h621l-31 -176h-74l15 89h-182l-94 -537h73l-15 -86h-258l15 86h74l94 537h-180zM259 -129q6 35 27 52t47 17q21 0 35 -10t15 -36q1 -2 0.5 -9.5t-1.5 -17t-2.5 -17.5t-1.5 -11q-9 -54 -45 -92.5t-85 -60.5l-17 38q28 23 40 40.5t18 39.5
q-18 5 -26.5 21t-3.5 46z" />
    <glyph glyph-name="Uogonek" unicode="&#x172;" horiz-adv-x="736" 
d="M805 625h-44l-60 -339q-17 -97 -54 -155.5t-84 -90t-99 -41.5t-100 -10t-96.5 10t-84.5 41.5t-52 90t1 155.5l60 339h-44l15 85h160l-73 -411q-13 -74 -5.5 -117.5t27 -66.5t48.5 -30t59 -7q25 0 55.5 5.5t60 27.5t54 66.5t38.5 121.5l73 411h160zM474 -205
q-23 -17 -52 -26.5t-57 -9.5q-72 0 -104.5 33t-21.5 94q8 40 36 76t65 54l62 -5q-38 -20 -58.5 -49t-26.5 -62q-6 -32 7.5 -53.5t54.5 -21.5q18 0 37.5 6t36.5 14z" />
    <glyph glyph-name="Uring" unicode="&#x16e;" horiz-adv-x="736" 
d="M805 625h-44l-60 -339q-17 -97 -54 -155.5t-84 -90t-99 -41.5t-100 -10t-96.5 10t-84.5 41.5t-52 90t1 155.5l60 339h-44l15 85h160l-73 -411q-13 -74 -5.5 -117.5t27 -66.5t48.5 -30t59 -7q25 0 55.5 5.5t60 27.5t54 66.5t38.5 121.5l73 411h160zM500 753
q-47 0 -73.5 29.5t-18.5 76.5q4 23 16 42.5t29.5 34t39.5 22.5t45 8q46 0 72.5 -30.5t18.5 -76.5q-4 -23 -16 -42.5t-29.5 -33.5t-39 -22t-44.5 -8zM509 803q26 0 45 15t24 41t-9 41.5t-40 15.5t-45 -15.5t-24 -41.5t9 -41t40 -15z" />
    <glyph glyph-name="Uacute" unicode="&#xda;" horiz-adv-x="736" 
d="M805 625h-44l-60 -339q-17 -97 -54 -155.5t-84 -90t-99 -41.5t-100 -10t-96.5 10t-84.5 41.5t-52 90t1 155.5l60 339h-44l15 85h160l-73 -411q-13 -74 -5.5 -117.5t27 -66.5t48.5 -30t59 -7q25 0 55.5 5.5t60 27.5t54 66.5t38.5 121.5l73 411h160zM600 871l-88 -121h-91
l75 121h104z" />
    <glyph glyph-name="Ubreve" unicode="&#x16c;" horiz-adv-x="736" 
d="M805 625h-44l-60 -339q-17 -97 -54 -155.5t-84 -90t-99 -41.5t-100 -10t-96.5 10t-84.5 41.5t-52 90t1 155.5l60 339h-44l15 85h160l-73 -411q-13 -74 -5.5 -117.5t27 -66.5t48.5 -30t59 -7q25 0 55.5 5.5t60 27.5t54 66.5t38.5 121.5l73 411h160zM500 753
q-60 0 -98.5 36t-40.5 101l75 6q2 -38 21.5 -56t54.5 -18t62.5 18.5t41.5 55.5l72 -5q-12 -32 -32 -57.5t-44.5 -43.5t-53 -27.5t-58.5 -9.5z" />
    <glyph glyph-name="Ugrave" unicode="&#xd9;" horiz-adv-x="736" 
d="M805 625h-44l-60 -339q-17 -97 -54 -155.5t-84 -90t-99 -41.5t-100 -10t-96.5 10t-84.5 41.5t-52 90t1 155.5l60 339h-44l15 85h160l-73 -411q-13 -74 -5.5 -117.5t27 -66.5t48.5 -30t59 -7q25 0 55.5 5.5t60 27.5t54 66.5t38.5 121.5l73 411h160zM488 750l-24 60t-23 61
h105l33 -121h-91v0z" />
    <glyph glyph-name="Utilde" unicode="&#x168;" horiz-adv-x="736" 
d="M805 625h-44l-60 -339q-17 -97 -54 -155.5t-84 -90t-99 -41.5t-100 -10t-96.5 10t-84.5 41.5t-52 90t1 155.5l60 339h-44l15 85h160l-73 -411q-13 -74 -5.5 -117.5t27 -66.5t48.5 -30t59 -7q25 0 55.5 5.5t60 27.5t54 66.5t38.5 121.5l73 411h160zM363 844q37 31 61 42
t48 11q13 0 27.5 -6t28.5 -12.5l27.5 -12.5t25.5 -6q11 0 30 7.5t41 26.5l16 -56q-36 -32 -60 -43t-48 -11q-13 0 -28 6l-30 12.5l-28.5 12.5t-23.5 6h-7q-12 -2 -28.5 -9.5t-36.5 -23.5z" />
    <glyph glyph-name="Udieresis" unicode="&#xdc;" horiz-adv-x="736" 
d="M805 625h-44l-60 -339q-17 -97 -54 -155.5t-84 -90t-99 -41.5t-100 -10t-96.5 10t-84.5 41.5t-52 90t1 155.5l60 339h-44l15 85h160l-73 -411q-13 -74 -5.5 -117.5t27 -66.5t48.5 -30t59 -7q25 0 55.5 5.5t60 27.5t54 66.5t38.5 121.5l73 411h160zM339 837q5 29 25 42.5
t46 13.5t41.5 -13t10.5 -43q-5 -29 -25.5 -42.5t-46.5 -13.5t-41 12.5t-10 43.5zM567 837q5 29 25.5 42.5t46.5 13.5t41.5 -13t10.5 -43q-5 -29 -25.5 -42.5t-46.5 -13.5t-41.5 12.5t-10.5 43.5z" />
    <glyph glyph-name="Ucircumflex" unicode="&#xdb;" horiz-adv-x="736" 
d="M805 625h-44l-60 -339q-17 -97 -54 -155.5t-84 -90t-99 -41.5t-100 -10t-96.5 10t-84.5 41.5t-52 90t1 155.5l60 339h-44l15 85h160l-73 -411q-13 -74 -5.5 -117.5t27 -66.5t48.5 -30t59 -7q25 0 55.5 5.5t60 27.5t54 66.5t38.5 121.5l73 411h160zM674 758h-93l-63 97
l-98 -97h-93l162 146h73z" />
    <glyph glyph-name="Wacute" unicode="&#x1e82;" horiz-adv-x="1070" 
d="M1177 710l-16 -87h-68l-161 -311.5l-160 -311.5h-122l-26 184.5t-25 184.5l-191 -369h-122l-87 623h-71l16 87h162l67 -559l100.5 199l100.5 199l-20 161h116l67 -559l282 559h158zM767 871l-88 -121h-91l75 121h104z" />
    <glyph glyph-name="Wgrave" unicode="&#x1e80;" horiz-adv-x="1070" 
d="M1177 710l-16 -87h-68l-161 -311.5l-160 -311.5h-122l-26 184.5t-25 184.5l-191 -369h-122l-87 623h-71l16 87h162l67 -559l100.5 199l100.5 199l-20 161h116l67 -559l282 559h158zM655 750l-24 60t-23 61h105l33 -121h-91v0z" />
    <glyph glyph-name="Wdieresis" unicode="&#x1e84;" horiz-adv-x="1070" 
d="M1177 710l-16 -87h-68l-161 -311.5l-160 -311.5h-122l-26 184.5t-25 184.5l-191 -369h-122l-87 623h-71l16 87h162l67 -559l100.5 199l100.5 199l-20 161h116l67 -559l282 559h158zM506 837q5 29 25 42.5t46 13.5t41.5 -13t10.5 -43q-5 -29 -25.5 -42.5t-46.5 -13.5
t-41 12.5t-10 43.5zM734 837q5 29 25.5 42.5t46.5 13.5t41.5 -13t10.5 -43q-5 -29 -25.5 -42.5t-46.5 -13.5t-41.5 12.5t-10.5 43.5z" />
    <glyph glyph-name="Wcircumflex" unicode="&#x174;" horiz-adv-x="1070" 
d="M1177 710l-16 -87h-68l-161 -311.5l-160 -311.5h-122l-26 184.5t-25 184.5l-191 -369h-122l-87 623h-71l16 87h162l67 -559l100.5 199l100.5 199l-20 161h116l67 -559l282 559h158zM841 758h-93l-63 97l-98 -97h-93l162 146h73z" />
    <glyph glyph-name="Yacute" unicode="&#xdd;" horiz-adv-x="686" 
d="M125 623l16 87h148l120 -280l239 280h143l-16 -87h-78l-247 -296l-42 -241h69l-15 -86h-253l15 86h69l42 240l-130 297h-80zM575 871l-88 -121h-91l75 121h104z" />
    <glyph glyph-name="Ygrave" unicode="&#x1ef2;" horiz-adv-x="686" 
d="M125 623l16 87h148l120 -280l239 280h143l-16 -87h-78l-247 -296l-42 -241h69l-15 -86h-253l15 86h69l42 240l-130 297h-80zM463 750l-24 60t-23 61h105l33 -121h-91v0z" />
    <glyph glyph-name="Ydieresis" unicode="&#x178;" horiz-adv-x="686" 
d="M125 623l16 87h148l120 -280l239 280h143l-16 -87h-78l-247 -296l-42 -241h69l-15 -86h-253l15 86h69l42 240l-130 297h-80zM314 837q5 29 25 42.5t46 13.5t41.5 -13t10.5 -43q-5 -29 -25.5 -42.5t-46.5 -13.5t-41 12.5t-10 43.5zM542 837q5 29 25.5 42.5t46.5 13.5
t41.5 -13t10.5 -43q-5 -29 -25.5 -42.5t-46.5 -13.5t-41.5 12.5t-10.5 43.5z" />
    <glyph glyph-name="Ycircumflex" unicode="&#x176;" horiz-adv-x="686" 
d="M125 623l16 87h148l120 -280l239 280h143l-16 -87h-78l-247 -296l-42 -241h69l-15 -86h-253l15 86h69l42 240l-130 297h-80zM649 758h-93l-63 97l-98 -97h-93l162 146h73z" />
    <glyph glyph-name="Zacute" unicode="&#x179;" horiz-adv-x="673" 
d="M50 92l540 531h-348q-8 -17 -12.5 -35.5t-9.5 -43.5h-76l30 166h585l-15 -86l-541 -532h367q8 17 13 35t10 44h76l-30 -171h-605zM568 871l-88 -121h-91l75 121h104z" />
    <glyph glyph-name="Zcaron" unicode="&#x17d;" horiz-adv-x="673" 
d="M50 92l540 531h-348q-8 -17 -12.5 -35.5t-9.5 -43.5h-76l30 166h585l-15 -86l-541 -532h367q8 17 13 35t10 44h76l-30 -171h-605zM432 754l-54.5 73.5l-56.5 72.5h93l64 -97l97 97h93l-81 -72.5l-82 -73.5h-73v0z" />
    <glyph glyph-name="Zdotaccent" unicode="&#x17b;" horiz-adv-x="673" 
d="M50 92l540 531h-348q-8 -17 -12.5 -35.5t-9.5 -43.5h-76l30 166h585l-15 -86l-541 -532h367q8 17 13 35t10 44h76l-30 -171h-605zM421 839q5 28 25.5 42t46.5 14t41.5 -13.5t10.5 -42.5t-25.5 -43t-46.5 -14t-41.5 13t-10.5 44z" />
    <glyph glyph-name="aring" unicode="&#xe5;" horiz-adv-x="591" 
d="M526 127q-5 -28 1 -39t22 -11q8 0 18 1t23 6l-3 -68l-36 -12q-21 -7 -42 -7q-27 0 -44 7t-29 24q-29 -15 -70 -27t-110 -12q-39 0 -78 8.5t-66.5 34.5t-40 73.5t1.5 125.5l10 58q15 83 42 135.5t62.5 82.5t78 41t87.5 11q29 0 63.5 -8t67 -20t60.5 -27t44 -30zM470 439
q-17 12 -46.5 21.5t-64.5 9.5q-30 0 -56.5 -7.5t-47.5 -29t-37.5 -60t-27.5 -100.5q-11 -63 -9.5 -102t14 -60.5t36 -28.5t55.5 -7q48 0 76.5 9.5t48.5 19.5zM413 594q-47 0 -73.5 29.5t-18.5 76.5q4 23 16 42.5t29.5 34t39.5 22.5t45 8q46 0 72.5 -30.5t18.5 -76.5
q-4 -23 -16 -42.5t-29.5 -33.5t-39 -22t-44.5 -8zM422 644q26 0 45 15t24 41t-9 41.5t-40 15.5t-45 -15.5t-24 -41.5t9 -41t40 -15z" />
    <glyph glyph-name="aacute" unicode="&#xe1;" horiz-adv-x="591" 
d="M526 127q-5 -28 1 -39t22 -11q8 0 18 1t23 6l-3 -68l-36 -12q-21 -7 -42 -7q-27 0 -44 7t-29 24q-29 -15 -70 -27t-110 -12q-39 0 -78 8.5t-66.5 34.5t-40 73.5t1.5 125.5l10 58q15 83 42 135.5t62.5 82.5t78 41t87.5 11q29 0 63.5 -8t67 -20t60.5 -27t44 -30zM470 439
q-17 12 -46.5 21.5t-64.5 9.5q-30 0 -56.5 -7.5t-47.5 -29t-37.5 -60t-27.5 -100.5q-11 -63 -9.5 -102t14 -60.5t36 -28.5t55.5 -7q48 0 76.5 9.5t48.5 19.5zM512 712l-88 -121h-91l75 121h104z" />
    <glyph glyph-name="abreve" unicode="&#x103;" horiz-adv-x="591" 
d="M526 127q-5 -28 1 -39t22 -11q8 0 18 1t23 6l-3 -68l-36 -12q-21 -7 -42 -7q-27 0 -44 7t-29 24q-29 -15 -70 -27t-110 -12q-39 0 -78 8.5t-66.5 34.5t-40 73.5t1.5 125.5l10 58q15 83 42 135.5t62.5 82.5t78 41t87.5 11q29 0 63.5 -8t67 -20t60.5 -27t44 -30zM470 439
q-17 12 -46.5 21.5t-64.5 9.5q-30 0 -56.5 -7.5t-47.5 -29t-37.5 -60t-27.5 -100.5q-11 -63 -9.5 -102t14 -60.5t36 -28.5t55.5 -7q48 0 76.5 9.5t48.5 19.5zM412 594q-60 0 -98.5 36t-40.5 101l75 6q2 -38 21.5 -56t54.5 -18t62.5 18.5t41.5 55.5l72 -5q-12 -32 -32 -57.5
t-44.5 -43.5t-53 -27.5t-58.5 -9.5z" />
    <glyph glyph-name="agrave" unicode="&#xe0;" horiz-adv-x="591" 
d="M526 127q-5 -28 1 -39t22 -11q8 0 18 1t23 6l-3 -68l-36 -12q-21 -7 -42 -7q-27 0 -44 7t-29 24q-29 -15 -70 -27t-110 -12q-39 0 -78 8.5t-66.5 34.5t-40 73.5t1.5 125.5l10 58q15 83 42 135.5t62.5 82.5t78 41t87.5 11q29 0 63.5 -8t67 -20t60.5 -27t44 -30zM470 439
q-17 12 -46.5 21.5t-64.5 9.5q-30 0 -56.5 -7.5t-47.5 -29t-37.5 -60t-27.5 -100.5q-11 -63 -9.5 -102t14 -60.5t36 -28.5t55.5 -7q48 0 76.5 9.5t48.5 19.5zM401 591l-24 60t-23 61h105l33 -121h-91v0z" />
    <glyph glyph-name="atilde" unicode="&#xe3;" horiz-adv-x="591" 
d="M526 127q-5 -28 1 -39t22 -11q8 0 18 1t23 6l-3 -68l-36 -12q-21 -7 -42 -7q-27 0 -44 7t-29 24q-29 -15 -70 -27t-110 -12q-39 0 -78 8.5t-66.5 34.5t-40 73.5t1.5 125.5l10 58q15 83 42 135.5t62.5 82.5t78 41t87.5 11q29 0 63.5 -8t67 -20t60.5 -27t44 -30zM470 439
q-17 12 -46.5 21.5t-64.5 9.5q-30 0 -56.5 -7.5t-47.5 -29t-37.5 -60t-27.5 -100.5q-11 -63 -9.5 -102t14 -60.5t36 -28.5t55.5 -7q48 0 76.5 9.5t48.5 19.5zM275 685q37 31 61 42t48 11q13 0 27.5 -6t28.5 -12.5l27.5 -12.5t25.5 -6q11 0 30 7.5t41 26.5l16 -56
q-36 -32 -60 -43t-48 -11q-13 0 -28 6l-30 12.5l-28.5 12.5t-23.5 6h-7q-12 -2 -28.5 -9.5t-36.5 -23.5z" />
    <glyph glyph-name="gbreve" unicode="&#x11f;" horiz-adv-x="578" 
d="M508 35q-15 -85 -48 -134.5t-73.5 -75t-83.5 -32.5t-79 -7q-62 0 -109 14t-76 52l44 63q41 -20 76.5 -28.5t77.5 -8.5q24 0 47.5 5t43 17.5t35 35.5t23.5 59q3 5 4.5 10t2.5 10q-14 -8 -48.5 -17t-91.5 -9q-36 0 -69.5 7t-59.5 25.5t-42 51.5t-16 84q0 31 6 69l15 84
q13 77 41.5 125.5t65 76.5t78.5 38t83 10q29 0 62.5 -8t66 -20t59.5 -27t43 -30zM467 436q-17 14 -45.5 24.5t-65.5 10.5q-27 0 -52 -7t-46.5 -26.5t-38 -54.5t-26.5 -91l-7 -42q-3 -19 -5 -34.5t-2 -29.5q0 -34 9 -54.5t24.5 -32t36 -15t42.5 -3.5q44 0 70.5 5.5t46.5 14.5
zM380 594q-60 0 -98.5 36t-40.5 101l75 6q2 -38 21.5 -56t54.5 -18t62.5 18.5t41.5 55.5l72 -5q-12 -32 -32 -57.5t-44.5 -43.5t-53 -27.5t-58.5 -9.5z" />
    <glyph glyph-name="amacron" unicode="&#x101;" horiz-adv-x="591" 
d="M526 127q-5 -28 1 -39t22 -11q8 0 18 1t23 6l-3 -68l-36 -12q-21 -7 -42 -7q-27 0 -44 7t-29 24q-29 -15 -70 -27t-110 -12q-39 0 -78 8.5t-66.5 34.5t-40 73.5t1.5 125.5l10 58q15 83 42 135.5t62.5 82.5t78 41t87.5 11q29 0 63.5 -8t67 -20t60.5 -27t44 -30zM470 439
q-17 12 -46.5 21.5t-64.5 9.5q-30 0 -56.5 -7.5t-47.5 -29t-37.5 -60t-27.5 -100.5q-11 -63 -9.5 -102t14 -60.5t36 -28.5t55.5 -7q48 0 76.5 9.5t48.5 19.5zM251 710h364l-13 -73h-364z" />
    <glyph glyph-name="aogonek" unicode="&#x105;" horiz-adv-x="591" 
d="M526 127q-5 -28 1 -39t22 -11q8 0 18 1t23 6l-3 -68l-36 -12q-21 -7 -42 -7q-27 0 -44 7t-29 24q-29 -15 -70 -27t-110 -12q-39 0 -78 8.5t-66.5 34.5t-40 73.5t1.5 125.5l10 58q15 83 42 135.5t62.5 82.5t78 41t87.5 11q29 0 63.5 -8t67 -20t60.5 -27t44 -30zM470 439
q-17 12 -46.5 21.5t-64.5 9.5q-30 0 -56.5 -7.5t-47.5 -29t-37.5 -60t-27.5 -100.5q-11 -63 -9.5 -102t14 -60.5t36 -28.5t55.5 -7q48 0 76.5 9.5t48.5 19.5zM610 -205q-23 -17 -52 -26.5t-57 -9.5q-72 0 -104.5 33t-21.5 94q8 40 36 76t65 54l62 -5q-38 -20 -58.5 -49
t-26.5 -62q-6 -32 7.5 -53.5t54.5 -21.5q18 0 37.5 6t36.5 14z" />
    <glyph glyph-name="adieresis" unicode="&#xe4;" horiz-adv-x="591" 
d="M526 127q-5 -28 1 -39t22 -11q8 0 18 1t23 6l-3 -68l-36 -12q-21 -7 -42 -7q-27 0 -44 7t-29 24q-29 -15 -70 -27t-110 -12q-39 0 -78 8.5t-66.5 34.5t-40 73.5t1.5 125.5l10 58q15 83 42 135.5t62.5 82.5t78 41t87.5 11q29 0 63.5 -8t67 -20t60.5 -27t44 -30zM470 439
q-17 12 -46.5 21.5t-64.5 9.5q-30 0 -56.5 -7.5t-47.5 -29t-37.5 -60t-27.5 -100.5q-11 -63 -9.5 -102t14 -60.5t36 -28.5t55.5 -7q48 0 76.5 9.5t48.5 19.5zM251 678q5 29 25 42.5t46 13.5t41.5 -13t10.5 -43q-5 -29 -25.5 -42.5t-46.5 -13.5t-41 12.5t-10 43.5zM479 678
q5 29 25.5 42.5t46.5 13.5t41.5 -13t10.5 -43q-5 -29 -25.5 -42.5t-46.5 -13.5t-41.5 12.5t-10.5 43.5z" />
    <glyph glyph-name="gdotaccent" unicode="&#x121;" horiz-adv-x="578" 
d="M508 35q-15 -85 -48 -134.5t-73.5 -75t-83.5 -32.5t-79 -7q-62 0 -109 14t-76 52l44 63q41 -20 76.5 -28.5t77.5 -8.5q24 0 47.5 5t43 17.5t35 35.5t23.5 59q3 5 4.5 10t2.5 10q-14 -8 -48.5 -17t-91.5 -9q-36 0 -69.5 7t-59.5 25.5t-42 51.5t-16 84q0 31 6 69l15 84
q13 77 41.5 125.5t65 76.5t78.5 38t83 10q29 0 62.5 -8t66 -20t59.5 -27t43 -30zM467 436q-17 14 -45.5 24.5t-65.5 10.5q-27 0 -52 -7t-46.5 -26.5t-38 -54.5t-26.5 -91l-7 -42q-3 -19 -5 -34.5t-2 -29.5q0 -34 9 -54.5t24.5 -32t36 -15t42.5 -3.5q44 0 70.5 5.5t46.5 14.5
zM333 680q5 28 25.5 42t46.5 14t41.5 -13.5t10.5 -42.5t-25.5 -43t-46.5 -14t-41.5 13t-10.5 44z" />
    <glyph glyph-name="acircumflex" unicode="&#xe2;" horiz-adv-x="591" 
d="M526 127q-5 -28 1 -39t22 -11q8 0 18 1t23 6l-3 -68l-36 -12q-21 -7 -42 -7q-27 0 -44 7t-29 24q-29 -15 -70 -27t-110 -12q-39 0 -78 8.5t-66.5 34.5t-40 73.5t1.5 125.5l10 58q15 83 42 135.5t62.5 82.5t78 41t87.5 11q29 0 63.5 -8t67 -20t60.5 -27t44 -30zM470 439
q-17 12 -46.5 21.5t-64.5 9.5q-30 0 -56.5 -7.5t-47.5 -29t-37.5 -60t-27.5 -100.5q-11 -63 -9.5 -102t14 -60.5t36 -28.5t55.5 -7q48 0 76.5 9.5t48.5 19.5zM587 599h-93l-63 97l-98 -97h-93l162 146h73z" />
    <glyph glyph-name="gcircumflex" unicode="&#x11d;" horiz-adv-x="578" 
d="M508 35q-15 -85 -48 -134.5t-73.5 -75t-83.5 -32.5t-79 -7q-62 0 -109 14t-76 52l44 63q41 -20 76.5 -28.5t77.5 -8.5q24 0 47.5 5t43 17.5t35 35.5t23.5 59q3 5 4.5 10t2.5 10q-14 -8 -48.5 -17t-91.5 -9q-36 0 -69.5 7t-59.5 25.5t-42 51.5t-16 84q0 31 6 69l15 84
q13 77 41.5 125.5t65 76.5t78.5 38t83 10q29 0 62.5 -8t66 -20t59.5 -27t43 -30zM467 436q-17 14 -45.5 24.5t-65.5 10.5q-27 0 -52 -7t-46.5 -26.5t-38 -54.5t-26.5 -91l-7 -42q-3 -19 -5 -34.5t-2 -29.5q0 -34 9 -54.5t24.5 -32t36 -15t42.5 -3.5q44 0 70.5 5.5t46.5 14.5
zM555 599h-93l-63 97l-98 -97h-93l162 146h73z" />
    <glyph glyph-name="gcommaaccent" unicode="&#x123;" horiz-adv-x="578" 
d="M508 35q-15 -85 -48 -134.5t-73.5 -75t-83.5 -32.5t-79 -7q-62 0 -109 14t-76 52l44 63q41 -20 76.5 -28.5t77.5 -8.5q24 0 47.5 5t43 17.5t35 35.5t23.5 59q3 5 4.5 10t2.5 10q-14 -8 -48.5 -17t-91.5 -9q-36 0 -69.5 7t-59.5 25.5t-42 51.5t-16 84q0 31 6 69l15 84
q13 77 41.5 125.5t65 76.5t78.5 38t83 10q29 0 62.5 -8t66 -20t59.5 -27t43 -30zM467 436q-17 14 -45.5 24.5t-65.5 10.5q-27 0 -52 -7t-46.5 -26.5t-38 -54.5t-26.5 -91l-7 -42q-3 -19 -5 -34.5t-2 -29.5q0 -34 9 -54.5t24.5 -32t36 -15t42.5 -3.5q44 0 70.5 5.5t46.5 14.5
zM460 697q-6 -36 -27 -53t-47 -17q-21 0 -35.5 13t-12.5 45q-1 1 -1 7.5t1 13.5l2 13.5t1 8.5q10 54 45.5 92.5t84.5 60.5l17 -38q-28 -23 -40 -40.5t-19 -39.5q19 -5 27.5 -21t3.5 -45z" />
    <glyph glyph-name="cacute" unicode="&#x107;" horiz-adv-x="526" 
d="M457 391l8 61q-17 10 -45.5 14t-50.5 4q-21 0 -44.5 -5t-45 -21.5t-39.5 -48t-27 -83.5l-14 -77q-9 -54 -2.5 -85t22.5 -47t37 -20.5t41 -4.5q59 0 102 8t81 20l12 -82q-40 -18 -97 -26t-114 -8q-45 0 -85.5 8t-69 32.5t-40.5 70t2 121.5l18 102q13 75 42 121t67.5 71.5
t82.5 34t86 8.5q33 0 57 -1.5t45 -4.5t41 -7.5l45 -10.5l-39 -144h-76zM467 712l-88 -121h-91l75 121h104z" />
    <glyph glyph-name="ccaron" unicode="&#x10d;" horiz-adv-x="526" 
d="M457 391l8 61q-17 10 -45.5 14t-50.5 4q-21 0 -44.5 -5t-45 -21.5t-39.5 -48t-27 -83.5l-14 -77q-9 -54 -2.5 -85t22.5 -47t37 -20.5t41 -4.5q59 0 102 8t81 20l12 -82q-40 -18 -97 -26t-114 -8q-45 0 -85.5 8t-69 32.5t-40.5 70t2 121.5l18 102q13 75 42 121t67.5 71.5
t82.5 34t86 8.5q33 0 57 -1.5t45 -4.5t41 -7.5l45 -10.5l-39 -144h-76zM330 595l-54.5 73.5l-56.5 72.5h93l64 -97l97 97h93l-81 -72.5l-82 -73.5h-73v0z" />
    <glyph glyph-name="ccedilla" unicode="&#xe7;" horiz-adv-x="526" 
d="M457 391l8 61q-17 10 -45.5 14t-50.5 4q-21 0 -44.5 -5t-45 -21.5t-39.5 -48t-27 -83.5l-14 -77q-9 -54 -2.5 -85t22.5 -47t37 -20.5t41 -4.5q59 0 102 8t81 20l12 -82q-40 -18 -97 -26t-114 -8q-45 0 -85.5 8t-69 32.5t-40.5 70t2 121.5l18 102q13 75 42 121t67.5 71.5
t82.5 34t86 8.5q33 0 57 -1.5t45 -4.5t41 -7.5l45 -10.5l-39 -144h-76zM357 13l-114 -207h-107l147 207h74z" />
    <glyph glyph-name="cdotaccent" unicode="&#x10b;" horiz-adv-x="526" 
d="M457 391l8 61q-17 10 -45.5 14t-50.5 4q-21 0 -44.5 -5t-45 -21.5t-39.5 -48t-27 -83.5l-14 -77q-9 -54 -2.5 -85t22.5 -47t37 -20.5t41 -4.5q59 0 102 8t81 20l12 -82q-40 -18 -97 -26t-114 -8q-45 0 -85.5 8t-69 32.5t-40.5 70t2 121.5l18 102q13 75 42 121t67.5 71.5
t82.5 34t86 8.5q33 0 57 -1.5t45 -4.5t41 -7.5l45 -10.5l-39 -144h-76zM320 680q5 28 25.5 42t46.5 14t41.5 -13.5t10.5 -42.5t-25.5 -43t-46.5 -14t-41.5 13t-10.5 44z" />
    <glyph glyph-name="ccircumflex" unicode="&#x109;" horiz-adv-x="526" 
d="M457 391l8 61q-17 10 -45.5 14t-50.5 4q-21 0 -44.5 -5t-45 -21.5t-39.5 -48t-27 -83.5l-14 -77q-9 -54 -2.5 -85t22.5 -47t37 -20.5t41 -4.5q59 0 102 8t81 20l12 -82q-40 -18 -97 -26t-114 -8q-45 0 -85.5 8t-69 32.5t-40.5 70t2 121.5l18 102q13 75 42 121t67.5 71.5
t82.5 34t86 8.5q33 0 57 -1.5t45 -4.5t41 -7.5l45 -10.5l-39 -144h-76zM541 599h-93l-63 97l-98 -97h-93l162 146h73z" />
    <glyph glyph-name="eacute" unicode="&#xe9;" horiz-adv-x="565" 
d="M304 -11q-44 0 -88 11.5t-76 41t-47.5 79t-1.5 125.5l14 80q13 76 44.5 122t72 71t86.5 32.5t88 7.5q41 0 79 -11t65.5 -32t43 -52t11.5 -71q-4 -45 -26 -75t-55.5 -47.5t-75 -25t-84.5 -9t-84 1.5t-73 6q-9 -47 0 -79t27.5 -51t42.5 -27t46 -8q61 0 101.5 5t74.5 12
l17 -73q-40 -17 -93 -25.5t-109 -8.5zM376 477q-25 0 -49.5 -4.5t-46.5 -21t-40 -48t-28 -84.5q13 -1 38.5 -3.5t56 -4t62 0.5t57.5 11t42.5 26.5t16.5 47.5q0 46 -31 63t-78 17zM486 712l-88 -121h-91l75 121h104z" />
    <glyph glyph-name="ebreve" unicode="&#x115;" horiz-adv-x="565" 
d="M304 -11q-44 0 -88 11.5t-76 41t-47.5 79t-1.5 125.5l14 80q13 76 44.5 122t72 71t86.5 32.5t88 7.5q41 0 79 -11t65.5 -32t43 -52t11.5 -71q-4 -45 -26 -75t-55.5 -47.5t-75 -25t-84.5 -9t-84 1.5t-73 6q-9 -47 0 -79t27.5 -51t42.5 -27t46 -8q61 0 101.5 5t74.5 12
l17 -73q-40 -17 -93 -25.5t-109 -8.5zM376 477q-25 0 -49.5 -4.5t-46.5 -21t-40 -48t-28 -84.5q13 -1 38.5 -3.5t56 -4t62 0.5t57.5 11t42.5 26.5t16.5 47.5q0 46 -31 63t-78 17zM386 594q-60 0 -98.5 36t-40.5 101l75 6q2 -38 21.5 -56t54.5 -18t62.5 18.5t41.5 55.5l72 -5
q-12 -32 -32 -57.5t-44.5 -43.5t-53 -27.5t-58.5 -9.5z" />
    <glyph glyph-name="ecaron" unicode="&#x11b;" horiz-adv-x="565" 
d="M304 -11q-44 0 -88 11.5t-76 41t-47.5 79t-1.5 125.5l14 80q13 76 44.5 122t72 71t86.5 32.5t88 7.5q41 0 79 -11t65.5 -32t43 -52t11.5 -71q-4 -45 -26 -75t-55.5 -47.5t-75 -25t-84.5 -9t-84 1.5t-73 6q-9 -47 0 -79t27.5 -51t42.5 -27t46 -8q61 0 101.5 5t74.5 12
l17 -73q-40 -17 -93 -25.5t-109 -8.5zM376 477q-25 0 -49.5 -4.5t-46.5 -21t-40 -48t-28 -84.5q13 -1 38.5 -3.5t56 -4t62 0.5t57.5 11t42.5 26.5t16.5 47.5q0 46 -31 63t-78 17zM350 595l-54.5 73.5l-56.5 72.5h93l64 -97l97 97h93l-81 -72.5l-82 -73.5h-73v0z" />
    <glyph glyph-name="egrave" unicode="&#xe8;" horiz-adv-x="565" 
d="M304 -11q-44 0 -88 11.5t-76 41t-47.5 79t-1.5 125.5l14 80q13 76 44.5 122t72 71t86.5 32.5t88 7.5q41 0 79 -11t65.5 -32t43 -52t11.5 -71q-4 -45 -26 -75t-55.5 -47.5t-75 -25t-84.5 -9t-84 1.5t-73 6q-9 -47 0 -79t27.5 -51t42.5 -27t46 -8q61 0 101.5 5t74.5 12
l17 -73q-40 -17 -93 -25.5t-109 -8.5zM376 477q-25 0 -49.5 -4.5t-46.5 -21t-40 -48t-28 -84.5q13 -1 38.5 -3.5t56 -4t62 0.5t57.5 11t42.5 26.5t16.5 47.5q0 46 -31 63t-78 17zM375 591l-24 60t-23 61h105l33 -121h-91v0z" />
    <glyph glyph-name="emacron" unicode="&#x113;" horiz-adv-x="565" 
d="M304 -11q-44 0 -88 11.5t-76 41t-47.5 79t-1.5 125.5l14 80q13 76 44.5 122t72 71t86.5 32.5t88 7.5q41 0 79 -11t65.5 -32t43 -52t11.5 -71q-4 -45 -26 -75t-55.5 -47.5t-75 -25t-84.5 -9t-84 1.5t-73 6q-9 -47 0 -79t27.5 -51t42.5 -27t46 -8q61 0 101.5 5t74.5 12
l17 -73q-40 -17 -93 -25.5t-109 -8.5zM376 477q-25 0 -49.5 -4.5t-46.5 -21t-40 -48t-28 -84.5q13 -1 38.5 -3.5t56 -4t62 0.5t57.5 11t42.5 26.5t16.5 47.5q0 46 -31 63t-78 17zM225 710h364l-13 -73h-364z" />
    <glyph glyph-name="eogonek" unicode="&#x119;" horiz-adv-x="565" 
d="M304 -11q-44 0 -88 11.5t-76 41t-47.5 79t-1.5 125.5l14 80q13 76 44.5 122t72 71t86.5 32.5t88 7.5q41 0 79 -11t65.5 -32t43 -52t11.5 -71q-4 -45 -26 -75t-55.5 -47.5t-75 -25t-84.5 -9t-84 1.5t-73 6q-9 -47 0 -79t27.5 -51t42.5 -27t46 -8q61 0 101.5 5t74.5 12
l17 -73q-40 -17 -93 -25.5t-109 -8.5zM376 477q-25 0 -49.5 -4.5t-46.5 -21t-40 -48t-28 -84.5q13 -1 38.5 -3.5t56 -4t62 0.5t57.5 11t42.5 26.5t16.5 47.5q0 46 -31 63t-78 17zM423 -205q-23 -17 -52 -26.5t-57 -9.5q-72 0 -104.5 33t-21.5 94q8 40 36 76t65 54l62 -5
q-38 -20 -58.5 -49t-26.5 -62q-6 -32 7.5 -53.5t54.5 -21.5q18 0 37.5 6t36.5 14z" />
    <glyph glyph-name="edieresis" unicode="&#xeb;" horiz-adv-x="565" 
d="M304 -11q-44 0 -88 11.5t-76 41t-47.5 79t-1.5 125.5l14 80q13 76 44.5 122t72 71t86.5 32.5t88 7.5q41 0 79 -11t65.5 -32t43 -52t11.5 -71q-4 -45 -26 -75t-55.5 -47.5t-75 -25t-84.5 -9t-84 1.5t-73 6q-9 -47 0 -79t27.5 -51t42.5 -27t46 -8q61 0 101.5 5t74.5 12
l17 -73q-40 -17 -93 -25.5t-109 -8.5zM376 477q-25 0 -49.5 -4.5t-46.5 -21t-40 -48t-28 -84.5q13 -1 38.5 -3.5t56 -4t62 0.5t57.5 11t42.5 26.5t16.5 47.5q0 46 -31 63t-78 17zM225 678q5 29 25 42.5t46 13.5t41.5 -13t10.5 -43q-5 -29 -25.5 -42.5t-46.5 -13.5t-41 12.5
t-10 43.5zM453 678q5 29 25.5 42.5t46.5 13.5t41.5 -13t10.5 -43q-5 -29 -25.5 -42.5t-46.5 -13.5t-41.5 12.5t-10.5 43.5z" />
    <glyph glyph-name="edotaccent" unicode="&#x117;" horiz-adv-x="565" 
d="M304 -11q-44 0 -88 11.5t-76 41t-47.5 79t-1.5 125.5l14 80q13 76 44.5 122t72 71t86.5 32.5t88 7.5q41 0 79 -11t65.5 -32t43 -52t11.5 -71q-4 -45 -26 -75t-55.5 -47.5t-75 -25t-84.5 -9t-84 1.5t-73 6q-9 -47 0 -79t27.5 -51t42.5 -27t46 -8q61 0 101.5 5t74.5 12
l17 -73q-40 -17 -93 -25.5t-109 -8.5zM376 477q-25 0 -49.5 -4.5t-46.5 -21t-40 -48t-28 -84.5q13 -1 38.5 -3.5t56 -4t62 0.5t57.5 11t42.5 26.5t16.5 47.5q0 46 -31 63t-78 17zM339 680q5 28 25.5 42t46.5 14t41.5 -13.5t10.5 -42.5t-25.5 -43t-46.5 -14t-41.5 13
t-10.5 44z" />
    <glyph glyph-name="ecircumflex" unicode="&#xea;" horiz-adv-x="565" 
d="M304 -11q-44 0 -88 11.5t-76 41t-47.5 79t-1.5 125.5l14 80q13 76 44.5 122t72 71t86.5 32.5t88 7.5q41 0 79 -11t65.5 -32t43 -52t11.5 -71q-4 -45 -26 -75t-55.5 -47.5t-75 -25t-84.5 -9t-84 1.5t-73 6q-9 -47 0 -79t27.5 -51t42.5 -27t46 -8q61 0 101.5 5t74.5 12
l17 -73q-40 -17 -93 -25.5t-109 -8.5zM376 477q-25 0 -49.5 -4.5t-46.5 -21t-40 -48t-28 -84.5q13 -1 38.5 -3.5t56 -4t62 0.5t57.5 11t42.5 26.5t16.5 47.5q0 46 -31 63t-78 17zM561 599h-93l-63 97l-98 -97h-93l162 146h73z" />
    <glyph glyph-name="hbar" unicode="&#x127;" horiz-adv-x="639" 
d="M504 337q13 73 -9.5 103t-79.5 30q-42 0 -84 -17.5t-64 -52.5l-70 -400h-110l135 770h110l-44 -249q35 20 74.5 29.5t81.5 9.5q60 0 96 -19.5t54.5 -49t22 -64.5t-2.5 -66l-33 -188q-6 -36 -7.5 -55.5t4.5 -28t19.5 -8t36.5 3.5l-3 -80q-42 -12 -76.5 -13t-56 15.5
t-29 53.5t3.5 100zM140 699h364l-13 -73h-364z" />
    <glyph glyph-name="nacute" unicode="&#x144;" horiz-adv-x="640" 
d="M505 337q13 73 -9.5 103t-79.5 30q-42 0 -84 -17.5t-64 -52.5l-70 -400h-111l73 416q5 27 0 41t-23 14q-8 0 -13 -1t-10 -1l7 71q18 6 39 9t39.5 0t32 -14t16.5 -32q41 33 92 45t105 12q60 0 96 -19.5t54.5 -49t22 -64.5t-2.5 -66l-33 -188q-6 -36 -7.5 -55.5t4.5 -28
t19.5 -8t36.5 3.5l-3 -80q-42 -12 -76 -11t-56 17t-30.5 48t0.5 82l35 196v0zM534 712l-88 -121h-91l75 121h104z" />
    <glyph glyph-name="ncaron" unicode="&#x148;" horiz-adv-x="640" 
d="M505 337q13 73 -9.5 103t-79.5 30q-42 0 -84 -17.5t-64 -52.5l-70 -400h-111l73 416q5 27 0 41t-23 14q-8 0 -13 -1t-10 -1l7 71q18 6 39 9t39.5 0t32 -14t16.5 -32q41 33 92 45t105 12q60 0 96 -19.5t54.5 -49t22 -64.5t-2.5 -66l-33 -188q-6 -36 -7.5 -55.5t4.5 -28
t19.5 -8t36.5 3.5l-3 -80q-42 -12 -76 -11t-56 17t-30.5 48t0.5 82l35 196v0zM398 595l-54.5 73.5l-56.5 72.5h93l64 -97l97 97h93l-81 -72.5l-82 -73.5h-73v0z" />
    <glyph glyph-name="ntilde" unicode="&#xf1;" horiz-adv-x="640" 
d="M505 337q13 73 -9.5 103t-79.5 30q-42 0 -84 -17.5t-64 -52.5l-70 -400h-111l73 416q5 27 0 41t-23 14q-8 0 -13 -1t-10 -1l7 71q18 6 39 9t39.5 0t32 -14t16.5 -32q41 33 92 45t105 12q60 0 96 -19.5t54.5 -49t22 -64.5t-2.5 -66l-33 -188q-6 -36 -7.5 -55.5t4.5 -28
t19.5 -8t36.5 3.5l-3 -80q-42 -12 -76 -11t-56 17t-30.5 48t0.5 82l35 196v0zM297 685q37 31 61 42t48 11q13 0 27.5 -6t28.5 -12.5l27.5 -12.5t25.5 -6q11 0 30 7.5t41 26.5l16 -56q-36 -32 -60 -43t-48 -11q-13 0 -28 6l-30 12.5l-28.5 12.5t-23.5 6h-7q-12 -2 -28.5 -9.5
t-36.5 -23.5z" />
    <glyph glyph-name="hcircumflex" unicode="&#x125;" horiz-adv-x="639" 
d="M504 337q13 73 -9.5 103t-79.5 30q-42 0 -84 -17.5t-64 -52.5l-70 -400h-110l120 683h-74l15 87h184l-44 -249q35 20 74.5 29.5t81.5 9.5q60 0 96 -19.5t54.5 -49t22 -64.5t-2.5 -66l-33 -188q-6 -36 -7.5 -55.5t4.5 -28t19.5 -8t36.5 3.5l-3 -80q-42 -12 -76.5 -13
t-56 15.5t-29 53.5t3.5 100l31 176v0zM442 797h-93l-63 97l-98 -97h-93l162 146h73z" />
    <glyph glyph-name="napostrophe" unicode="&#x149;" horiz-adv-x="640" 
d="M505 337q13 73 -9.5 103t-79.5 30q-42 0 -84 -17.5t-64 -52.5l-70 -400h-111l73 416q5 27 0 41t-23 14q-8 0 -13 -1t-10 -1l7 71q18 6 39 9t39.5 0t32 -14t16.5 -32q41 33 92 45t105 12q60 0 96 -19.5t54.5 -49t22 -64.5t-2.5 -66l-33 -188q-6 -36 -7.5 -55.5t4.5 -28
t19.5 -8t36.5 3.5l-3 -80q-42 -12 -76 -11t-56 17t-30.5 48t0.5 82l35 196v0zM10 652q6 35 27 52t47 17q21 0 35 -10t15 -36q1 -2 0.5 -9.5t-1.5 -17t-2.5 -17.5t-1.5 -11q-9 -54 -45 -92.5t-85 -60.5l-17 38q28 23 40 40.5t18 39.5q-18 5 -26.5 21t-3.5 46z" />
    <glyph glyph-name="ncommaaccent" unicode="&#x146;" horiz-adv-x="640" 
d="M505 337q13 73 -9.5 103t-79.5 30q-42 0 -84 -17.5t-64 -52.5l-70 -400h-111l73 416q5 27 0 41t-23 14q-8 0 -13 -1t-10 -1l7 71q18 6 39 9t39.5 0t32 -14t16.5 -32q41 33 92 45t105 12q60 0 96 -19.5t54.5 -49t22 -64.5t-2.5 -66l-33 -188q-6 -36 -7.5 -55.5t4.5 -28
t19.5 -8t36.5 3.5l-3 -80q-42 -12 -76 -11t-56 17t-30.5 48t0.5 82l35 196v0zM246 -129q6 35 27 52t47 17q21 0 35 -10t15 -36q1 -2 0.5 -9.5t-1.5 -17t-2.5 -17.5t-1.5 -11q-9 -54 -45 -92.5t-85 -60.5l-17 38q28 23 40 40.5t18 39.5q-18 5 -26.5 21t-3.5 46z" />
    <glyph glyph-name="kcommaaccent" unicode="&#x137;" horiz-adv-x="679" 
d="M681 551l-16 -87h-52l-198 -188l134 -147q34 -37 60 -53t37 -18l-42 -67q-11 -4 -26 -4q-19 0 -53.5 13.5t-77.5 60.5l-190 211l-22 -127q-8 -45 -20.5 -76t-26 -51t-26 -30t-19.5 -14l-65 22q9 12 21.5 44.5t21.5 83.5l99 559h-74l15 87h184l-62 -352l65 -68l207 201
h126zM255 -129q6 35 27 52t47 17q21 0 35 -10t15 -36q1 -2 0.5 -9.5t-1.5 -17t-2.5 -17.5t-1.5 -11q-9 -54 -45 -92.5t-85 -60.5l-17 38q28 23 40 40.5t18 39.5q-18 5 -26.5 21t-3.5 46z" />
    <glyph glyph-name="kgreenlandic" unicode="&#x138;" horiz-adv-x="679" 
d="M681 551l-16 -87h-52l-198 -188l134 -147q34 -37 60 -53t37 -18l-42 -67q-11 -4 -26 -4q-19 0 -53.5 13.5t-77.5 60.5l-190 211l-22 -127q-8 -45 -20.5 -76t-26 -51t-26 -30t-19.5 -14l-65 22q9 12 21.5 44.5t21.5 83.5l60 340h-74l16 87h184l-24 -133l65 -68l207 201
h126z" />
    <glyph glyph-name="lacute" unicode="&#x13a;" horiz-adv-x="280" 
d="M129 683l15 87h184l-114 -646q-9 -54 -8 -87t6 -41l-72 -22q-11 5 -20 15.5t-14.5 30t-6 50t7.5 75.5l95 538h-73zM405 943l-88 -121h-91l75 121h104z" />
    <glyph glyph-name="lcommaaccent" unicode="&#x13c;" horiz-adv-x="280" 
d="M129 683l15 87h184l-114 -646q-9 -54 -8 -87t6 -41l-72 -22q-11 5 -20 15.5t-14.5 30t-6 50t7.5 75.5l95 538h-73zM55 -129q6 35 27 52t47 17q21 0 35 -10t15 -36q1 -2 0.5 -9.5t-1.5 -17t-2.5 -17.5t-1.5 -11q-9 -54 -45 -92.5t-85 -60.5l-17 38q28 23 40 40.5t18 39.5
q-18 5 -26.5 21t-3.5 46z" />
    <glyph glyph-name="oacute" unicode="&#xf3;" horiz-adv-x="545" 
d="M91 320q13 77 42.5 124t68 72.5t82.5 34t87 8.5q42 0 83 -8.5t70 -34t42 -72.5t0 -123l-18 -101q-13 -75 -41 -120.5t-65.5 -69.5t-81.5 -31.5t-90 -7.5q-45 0 -86.5 7.5t-70.5 31t-41 68.5t1 120zM185 231q-9 -53 -3 -83.5t21 -47t37 -21t45 -4.5q22 0 45.5 4.5t45 20.5
t39 46.5t26.5 83.5l15 84q9 52 2.5 84t-22.5 48.5t-37.5 22t-42.5 5.5t-45 -5.5t-45.5 -22.5t-39 -48.5t-26.5 -83.5zM476 712l-88 -121h-91l75 121h104z" />
    <glyph glyph-name="obreve" unicode="&#x14f;" horiz-adv-x="545" 
d="M91 320q13 77 42.5 124t68 72.5t82.5 34t87 8.5q42 0 83 -8.5t70 -34t42 -72.5t0 -123l-18 -101q-13 -75 -41 -120.5t-65.5 -69.5t-81.5 -31.5t-90 -7.5q-45 0 -86.5 7.5t-70.5 31t-41 68.5t1 120zM185 231q-9 -53 -3 -83.5t21 -47t37 -21t45 -4.5q22 0 45.5 4.5t45 20.5
t39 46.5t26.5 83.5l15 84q9 52 2.5 84t-22.5 48.5t-37.5 22t-42.5 5.5t-45 -5.5t-45.5 -22.5t-39 -48.5t-26.5 -83.5zM376 594q-60 0 -98.5 36t-40.5 101l75 6q2 -38 21.5 -56t54.5 -18t62.5 18.5t41.5 55.5l72 -5q-12 -32 -32 -57.5t-44.5 -43.5t-53 -27.5t-58.5 -9.5z" />
    <glyph glyph-name="ograve" unicode="&#xf2;" horiz-adv-x="545" 
d="M91 320q13 77 42.5 124t68 72.5t82.5 34t87 8.5q42 0 83 -8.5t70 -34t42 -72.5t0 -123l-18 -101q-13 -75 -41 -120.5t-65.5 -69.5t-81.5 -31.5t-90 -7.5q-45 0 -86.5 7.5t-70.5 31t-41 68.5t1 120zM185 231q-9 -53 -3 -83.5t21 -47t37 -21t45 -4.5q22 0 45.5 4.5t45 20.5
t39 46.5t26.5 83.5l15 84q9 52 2.5 84t-22.5 48.5t-37.5 22t-42.5 5.5t-45 -5.5t-45.5 -22.5t-39 -48.5t-26.5 -83.5zM365 591l-24 60t-23 61h105l33 -121h-91v0z" />
    <glyph glyph-name="otilde" unicode="&#xf5;" horiz-adv-x="545" 
d="M91 320q13 77 42.5 124t68 72.5t82.5 34t87 8.5q42 0 83 -8.5t70 -34t42 -72.5t0 -123l-18 -101q-13 -75 -41 -120.5t-65.5 -69.5t-81.5 -31.5t-90 -7.5q-45 0 -86.5 7.5t-70.5 31t-41 68.5t1 120zM185 231q-9 -53 -3 -83.5t21 -47t37 -21t45 -4.5q22 0 45.5 4.5t45 20.5
t39 46.5t26.5 83.5l15 84q9 52 2.5 84t-22.5 48.5t-37.5 22t-42.5 5.5t-45 -5.5t-45.5 -22.5t-39 -48.5t-26.5 -83.5zM239 685q37 31 61 42t48 11q13 0 27.5 -6t28.5 -12.5l27.5 -12.5t25.5 -6q11 0 30 7.5t41 26.5l16 -56q-36 -32 -60 -43t-48 -11q-13 0 -28 6l-30 12.5
l-28.5 12.5t-23.5 6h-7q-12 -2 -28.5 -9.5t-36.5 -23.5z" />
    <glyph glyph-name="omacron" unicode="&#x14d;" horiz-adv-x="545" 
d="M91 320q13 77 42.5 124t68 72.5t82.5 34t87 8.5q42 0 83 -8.5t70 -34t42 -72.5t0 -123l-18 -101q-13 -75 -41 -120.5t-65.5 -69.5t-81.5 -31.5t-90 -7.5q-45 0 -86.5 7.5t-70.5 31t-41 68.5t1 120zM185 231q-9 -53 -3 -83.5t21 -47t37 -21t45 -4.5q22 0 45.5 4.5t45 20.5
t39 46.5t26.5 83.5l15 84q9 52 2.5 84t-22.5 48.5t-37.5 22t-42.5 5.5t-45 -5.5t-45.5 -22.5t-39 -48.5t-26.5 -83.5zM215 710h364l-13 -73h-364z" />
    <glyph glyph-name="odieresis" unicode="&#xf6;" horiz-adv-x="545" 
d="M91 320q13 77 42.5 124t68 72.5t82.5 34t87 8.5q42 0 83 -8.5t70 -34t42 -72.5t0 -123l-18 -101q-13 -75 -41 -120.5t-65.5 -69.5t-81.5 -31.5t-90 -7.5q-45 0 -86.5 7.5t-70.5 31t-41 68.5t1 120zM185 231q-9 -53 -3 -83.5t21 -47t37 -21t45 -4.5q22 0 45.5 4.5t45 20.5
t39 46.5t26.5 83.5l15 84q9 52 2.5 84t-22.5 48.5t-37.5 22t-42.5 5.5t-45 -5.5t-45.5 -22.5t-39 -48.5t-26.5 -83.5zM215 678q5 29 25 42.5t46 13.5t41.5 -13t10.5 -43q-5 -29 -25.5 -42.5t-46.5 -13.5t-41 12.5t-10 43.5zM443 678q5 29 25.5 42.5t46.5 13.5t41.5 -13
t10.5 -43q-5 -29 -25.5 -42.5t-46.5 -13.5t-41.5 12.5t-10.5 43.5z" />
    <glyph glyph-name="ocircumflex" unicode="&#xf4;" horiz-adv-x="545" 
d="M91 320q13 77 42.5 124t68 72.5t82.5 34t87 8.5q42 0 83 -8.5t70 -34t42 -72.5t0 -123l-18 -101q-13 -75 -41 -120.5t-65.5 -69.5t-81.5 -31.5t-90 -7.5q-45 0 -86.5 7.5t-70.5 31t-41 68.5t1 120zM185 231q-9 -53 -3 -83.5t21 -47t37 -21t45 -4.5q22 0 45.5 4.5t45 20.5
t39 46.5t26.5 83.5l15 84q9 52 2.5 84t-22.5 48.5t-37.5 22t-42.5 5.5t-45 -5.5t-45.5 -22.5t-39 -48.5t-26.5 -83.5zM551 599h-93l-63 97l-98 -97h-93l162 146h73z" />
    <glyph glyph-name="ohungarumlaut" unicode="&#x151;" horiz-adv-x="545" 
d="M91 320q13 77 42.5 124t68 72.5t82.5 34t87 8.5q42 0 83 -8.5t70 -34t42 -72.5t0 -123l-18 -101q-13 -75 -41 -120.5t-65.5 -69.5t-81.5 -31.5t-90 -7.5q-45 0 -86.5 7.5t-70.5 31t-41 68.5t1 120zM185 231q-9 -53 -3 -83.5t21 -47t37 -21t45 -4.5q22 0 45.5 4.5t45 20.5
t39 46.5t26.5 83.5l15 84q9 52 2.5 84t-22.5 48.5t-37.5 22t-42.5 5.5t-45 -5.5t-45.5 -22.5t-39 -48.5t-26.5 -83.5zM401 726l-101 -126h-63l89 126h75zM541 726l-101 -126h-63l89 126h75z" />
    <glyph glyph-name="rcaron" unicode="&#x159;" horiz-adv-x="450" 
d="M501 427l-78 -6l2 41q-19 0 -42.5 -2.5t-45 -10t-37 -21t-19.5 -35.5l-69 -393h-111l78 444l-67 -5l11 78q32 11 67.5 18t73.5 12l-9 -52q30 29 69 46.5t95 17.5q24 0 49.5 -2.5t53.5 -8.5zM292 595l-54.5 73.5l-56.5 72.5h93l64 -97l97 97h93l-81 -72.5l-82 -73.5h-73v0
z" />
    <glyph glyph-name="rcommaaccent" unicode="&#x157;" horiz-adv-x="450" 
d="M501 427l-78 -6l2 41q-19 0 -42.5 -2.5t-45 -10t-37 -21t-19.5 -35.5l-69 -393h-111l78 444l-67 -5l11 78q32 11 67.5 18t73.5 12l-9 -52q30 29 69 46.5t95 17.5q24 0 49.5 -2.5t53.5 -8.5zM140 -129q6 35 27 52t47 17q21 0 35 -10t15 -36q1 -2 0.5 -9.5t-1.5 -17
t-2.5 -17.5t-1.5 -11q-9 -54 -45 -92.5t-85 -60.5l-17 38q28 23 40 40.5t18 39.5q-18 5 -26.5 21t-3.5 46z" />
    <glyph glyph-name="sacute" unicode="&#x15b;" horiz-adv-x="563" 
d="M461 401l10 57q-18 8 -42 13t-50 5q-58 0 -93 -17t-40 -46q-5 -32 15.5 -48.5t72.5 -25.5q29 -8 69 -14t74.5 -21t54.5 -46t10 -89q-16 -91 -82 -135.5t-173 -44.5q-65 0 -119.5 7t-101.5 20l36 145h85l-10 -57q17 -8 45 -15.5t66 -7.5q45 0 72.5 11t42.5 25.5t20 29
t6 21.5q3 19 -5.5 32t-28 21.5t-47.5 14.5t-64 12q-89 16 -123.5 52t-22.5 103q8 46 29 76.5t54 49.5t76.5 27t96.5 8q38 0 80 -5.5t99 -19.5l-34 -138h-78zM485 712l-88 -121h-91l75 121h104z" />
    <glyph glyph-name="scaron" unicode="&#x161;" horiz-adv-x="563" 
d="M461 401l10 57q-18 8 -42 13t-50 5q-58 0 -93 -17t-40 -46q-5 -32 15.5 -48.5t72.5 -25.5q29 -8 69 -14t74.5 -21t54.5 -46t10 -89q-16 -91 -82 -135.5t-173 -44.5q-65 0 -119.5 7t-101.5 20l36 145h85l-10 -57q17 -8 45 -15.5t66 -7.5q45 0 72.5 11t42.5 25.5t20 29
t6 21.5q3 19 -5.5 32t-28 21.5t-47.5 14.5t-64 12q-89 16 -123.5 52t-22.5 103q8 46 29 76.5t54 49.5t76.5 27t96.5 8q38 0 80 -5.5t99 -19.5l-34 -138h-78zM349 595l-54.5 73.5l-56.5 72.5h93l64 -97l97 97h93l-81 -72.5l-82 -73.5h-73v0z" />
    <glyph glyph-name="tcommaaccent" unicode="&#x163;" horiz-adv-x="378" 
d="M349 721l-30 -168h116l-16 -89h-117l-59 -334q-9 -52 25 -52q15 0 33 3t44 8l-3 -79l-55 -11.5t-63 -6.5q-60 0 -79 47t-5 127l52 298h-89l24 89h70q13 20 25.5 56t23.5 102zM104 -129q6 35 27 52t47 17q21 0 35 -10t15 -36q1 -2 0.5 -9.5t-1.5 -17t-2.5 -17.5t-1.5 -11
q-9 -54 -45 -92.5t-85 -60.5l-17 38q28 23 40 40.5t18 39.5q-18 5 -26.5 21t-3.5 46z" />
    <glyph glyph-name="uring" unicode="&#x16f;" horiz-adv-x="636" 
d="M641 550l-73 -415q-5 -29 1.5 -44.5t24.5 -15.5q14 0 34 10l4 -70q-18 -8 -44 -16t-49 -8q-26 0 -47 12t-20 38q-14 -16 -34 -26t-43.5 -15t-48.5 -7t-47 -2q-39 0 -75 10t-61.5 36t-35.5 71.5t2 116.5l42 240h-64l16 86h175l-54 -304q-9 -51 -8.5 -83t10 -50t29.5 -24.5
t50 -6.5q20 0 42.5 4.5t42.5 16t35.5 31t20.5 48.5l65 368zM422 594q-47 0 -73.5 29.5t-18.5 76.5q4 23 16 42.5t29.5 34t39.5 22.5t45 8q46 0 72.5 -30.5t18.5 -76.5q-4 -23 -16 -42.5t-29.5 -33.5t-39 -22t-44.5 -8zM431 644q26 0 45 15t24 41t-9 41.5t-40 15.5t-45 -15.5
t-24 -41.5t9 -41t40 -15z" />
    <glyph glyph-name="uacute" unicode="&#xfa;" horiz-adv-x="636" 
d="M641 550l-73 -415q-5 -29 1.5 -44.5t24.5 -15.5q14 0 34 10l4 -70q-18 -8 -44 -16t-49 -8q-26 0 -47 12t-20 38q-14 -16 -34 -26t-43.5 -15t-48.5 -7t-47 -2q-39 0 -75 10t-61.5 36t-35.5 71.5t2 116.5l42 240h-64l16 86h175l-54 -304q-9 -51 -8.5 -83t10 -50t29.5 -24.5
t50 -6.5q20 0 42.5 4.5t42.5 16t35.5 31t20.5 48.5l65 368zM522 712l-88 -121h-91l75 121h104z" />
    <glyph glyph-name="ubreve" unicode="&#x16d;" horiz-adv-x="636" 
d="M641 550l-73 -415q-5 -29 1.5 -44.5t24.5 -15.5q14 0 34 10l4 -70q-18 -8 -44 -16t-49 -8q-26 0 -47 12t-20 38q-14 -16 -34 -26t-43.5 -15t-48.5 -7t-47 -2q-39 0 -75 10t-61.5 36t-35.5 71.5t2 116.5l42 240h-64l16 86h175l-54 -304q-9 -51 -8.5 -83t10 -50t29.5 -24.5
t50 -6.5q20 0 42.5 4.5t42.5 16t35.5 31t20.5 48.5l65 368zM422 594q-60 0 -98.5 36t-40.5 101l75 6q2 -38 21.5 -56t54.5 -18t62.5 18.5t41.5 55.5l72 -5q-12 -32 -32 -57.5t-44.5 -43.5t-53 -27.5t-58.5 -9.5z" />
    <glyph glyph-name="ugrave" unicode="&#xf9;" horiz-adv-x="636" 
d="M641 550l-73 -415q-5 -29 1.5 -44.5t24.5 -15.5q14 0 34 10l4 -70q-18 -8 -44 -16t-49 -8q-26 0 -47 12t-20 38q-14 -16 -34 -26t-43.5 -15t-48.5 -7t-47 -2q-39 0 -75 10t-61.5 36t-35.5 71.5t2 116.5l42 240h-64l16 86h175l-54 -304q-9 -51 -8.5 -83t10 -50t29.5 -24.5
t50 -6.5q20 0 42.5 4.5t42.5 16t35.5 31t20.5 48.5l65 368zM410 591l-24 60t-23 61h105l33 -121h-91v0z" />
    <glyph glyph-name="utilde" unicode="&#x169;" horiz-adv-x="636" 
d="M641 550l-73 -415q-5 -29 1.5 -44.5t24.5 -15.5q14 0 34 10l4 -70q-18 -8 -44 -16t-49 -8q-26 0 -47 12t-20 38q-14 -16 -34 -26t-43.5 -15t-48.5 -7t-47 -2q-39 0 -75 10t-61.5 36t-35.5 71.5t2 116.5l42 240h-64l16 86h175l-54 -304q-9 -51 -8.5 -83t10 -50t29.5 -24.5
t50 -6.5q20 0 42.5 4.5t42.5 16t35.5 31t20.5 48.5l65 368zM285 685q37 31 61 42t48 11q13 0 27.5 -6t28.5 -12.5l27.5 -12.5t25.5 -6q11 0 30 7.5t41 26.5l16 -56q-36 -32 -60 -43t-48 -11q-13 0 -28 6l-30 12.5l-28.5 12.5t-23.5 6h-7q-12 -2 -28.5 -9.5t-36.5 -23.5z" />
    <glyph glyph-name="yacute" unicode="&#xfd;" horiz-adv-x="637" 
d="M641 550l-91 -525q-12 -69 -41.5 -115t-67.5 -73.5t-80.5 -39t-82.5 -11.5q-66 0 -118 15t-83 53l52 74q32 -34 70 -42t80 -8q16 0 40.5 6t49.5 20t44.5 36t25.5 54l8 44q-26 -32 -64.5 -39.5t-83.5 -7.5q-39 0 -75 10t-61.5 36t-35.5 71t2 116l42 241h-64l16 86h175
l-55 -309q-8 -47 -7.5 -78t10.5 -49t29.5 -25t49.5 -7q20 0 42.5 4.5t42.5 16t35.5 31t20.5 48.5l65 368zM497 712l-88 -121h-91l75 121h104z" />
    <glyph glyph-name="ygrave" unicode="&#x1ef3;" horiz-adv-x="637" 
d="M641 550l-91 -525q-12 -69 -41.5 -115t-67.5 -73.5t-80.5 -39t-82.5 -11.5q-66 0 -118 15t-83 53l52 74q32 -34 70 -42t80 -8q16 0 40.5 6t49.5 20t44.5 36t25.5 54l8 44q-26 -32 -64.5 -39.5t-83.5 -7.5q-39 0 -75 10t-61.5 36t-35.5 71t2 116l42 241h-64l16 86h175
l-55 -309q-8 -47 -7.5 -78t10.5 -49t29.5 -25t49.5 -7q20 0 42.5 4.5t42.5 16t35.5 31t20.5 48.5l65 368zM385 591l-24 60t-23 61h105l33 -121h-91v0z" />
    <glyph glyph-name="umacron" unicode="&#x16b;" horiz-adv-x="636" 
d="M641 550l-73 -415q-5 -29 1.5 -44.5t24.5 -15.5q14 0 34 10l4 -70q-18 -8 -44 -16t-49 -8q-26 0 -47 12t-20 38q-14 -16 -34 -26t-43.5 -15t-48.5 -7t-47 -2q-39 0 -75 10t-61.5 36t-35.5 71.5t2 116.5l42 240h-64l16 86h175l-54 -304q-9 -51 -8.5 -83t10 -50t29.5 -24.5
t50 -6.5q20 0 42.5 4.5t42.5 16t35.5 31t20.5 48.5l65 368zM261 710h364l-13 -73h-364z" />
    <glyph glyph-name="uogonek" unicode="&#x173;" horiz-adv-x="636" 
d="M641 550l-73 -415q-5 -29 1.5 -44.5t24.5 -15.5q14 0 34 10l4 -70q-18 -8 -44 -16t-49 -8q-26 0 -47 12t-20 38q-14 -16 -34 -26t-43.5 -15t-48.5 -7t-47 -2q-39 0 -75 10t-61.5 36t-35.5 71.5t2 116.5l42 240h-64l16 86h175l-54 -304q-9 -51 -8.5 -83t10 -50t29.5 -24.5
t50 -6.5q20 0 42.5 4.5t42.5 16t35.5 31t20.5 48.5l65 368zM593 -205q-23 -17 -52 -26.5t-57 -9.5q-72 0 -104.5 33t-21.5 94q8 40 36 76t65 54l62 -5q-38 -20 -58.5 -49t-26.5 -62q-6 -32 7.5 -53.5t54.5 -21.5q18 0 37.5 6t36.5 14z" />
    <glyph glyph-name="udieresis" unicode="&#xfc;" horiz-adv-x="636" 
d="M641 550l-73 -415q-5 -29 1.5 -44.5t24.5 -15.5q14 0 34 10l4 -70q-18 -8 -44 -16t-49 -8q-26 0 -47 12t-20 38q-14 -16 -34 -26t-43.5 -15t-48.5 -7t-47 -2q-39 0 -75 10t-61.5 36t-35.5 71.5t2 116.5l42 240h-64l16 86h175l-54 -304q-9 -51 -8.5 -83t10 -50t29.5 -24.5
t50 -6.5q20 0 42.5 4.5t42.5 16t35.5 31t20.5 48.5l65 368zM261 678q5 29 25 42.5t46 13.5t41.5 -13t10.5 -43q-5 -29 -25.5 -42.5t-46.5 -13.5t-41 12.5t-10 43.5zM489 678q5 29 25.5 42.5t46.5 13.5t41.5 -13t10.5 -43q-5 -29 -25.5 -42.5t-46.5 -13.5t-41.5 12.5
t-10.5 43.5z" />
    <glyph glyph-name="ydieresis" unicode="&#xff;" horiz-adv-x="637" 
d="M641 550l-91 -525q-12 -69 -41.5 -115t-67.5 -73.5t-80.5 -39t-82.5 -11.5q-66 0 -118 15t-83 53l52 74q32 -34 70 -42t80 -8q16 0 40.5 6t49.5 20t44.5 36t25.5 54l8 44q-26 -32 -64.5 -39.5t-83.5 -7.5q-39 0 -75 10t-61.5 36t-35.5 71t2 116l42 241h-64l16 86h175
l-55 -309q-8 -47 -7.5 -78t10.5 -49t29.5 -25t49.5 -7q20 0 42.5 4.5t42.5 16t35.5 31t20.5 48.5l65 368zM236 678q5 29 25 42.5t46 13.5t41.5 -13t10.5 -43q-5 -29 -25.5 -42.5t-46.5 -13.5t-41 12.5t-10 43.5zM464 678q5 29 25.5 42.5t46.5 13.5t41.5 -13t10.5 -43
q-5 -29 -25.5 -42.5t-46.5 -13.5t-41.5 12.5t-10.5 43.5z" />
    <glyph glyph-name="ucircumflex" unicode="&#xfb;" horiz-adv-x="636" 
d="M641 550l-73 -415q-5 -29 1.5 -44.5t24.5 -15.5q14 0 34 10l4 -70q-18 -8 -44 -16t-49 -8q-26 0 -47 12t-20 38q-14 -16 -34 -26t-43.5 -15t-48.5 -7t-47 -2q-39 0 -75 10t-61.5 36t-35.5 71.5t2 116.5l42 240h-64l16 86h175l-54 -304q-9 -51 -8.5 -83t10 -50t29.5 -24.5
t50 -6.5q20 0 42.5 4.5t42.5 16t35.5 31t20.5 48.5l65 368zM596 599h-93l-63 97l-98 -97h-93l162 146h73z" />
    <glyph glyph-name="ycircumflex" unicode="&#x177;" horiz-adv-x="637" 
d="M641 550l-91 -525q-12 -69 -41.5 -115t-67.5 -73.5t-80.5 -39t-82.5 -11.5q-66 0 -118 15t-83 53l52 74q32 -34 70 -42t80 -8q16 0 40.5 6t49.5 20t44.5 36t25.5 54l8 44q-26 -32 -64.5 -39.5t-83.5 -7.5q-39 0 -75 10t-61.5 36t-35.5 71t2 116l42 241h-64l16 86h175
l-55 -309q-8 -47 -7.5 -78t10.5 -49t29.5 -25t49.5 -7q20 0 42.5 4.5t42.5 16t35.5 31t20.5 48.5l65 368zM571 599h-93l-63 97l-98 -97h-93l162 146h73z" />
    <glyph glyph-name="uhungarumlaut" unicode="&#x171;" horiz-adv-x="636" 
d="M641 550l-73 -415q-5 -29 1.5 -44.5t24.5 -15.5q14 0 34 10l4 -70q-18 -8 -44 -16t-49 -8q-26 0 -47 12t-20 38q-14 -16 -34 -26t-43.5 -15t-48.5 -7t-47 -2q-39 0 -75 10t-61.5 36t-35.5 71.5t2 116.5l42 240h-64l16 86h175l-54 -304q-9 -51 -8.5 -83t10 -50t29.5 -24.5
t50 -6.5q20 0 42.5 4.5t42.5 16t35.5 31t20.5 48.5l65 368zM446 726l-101 -126h-63l89 126h75zM586 726l-101 -126h-63l89 126h75z" />
    <glyph glyph-name="wacute" unicode="&#x1e83;" horiz-adv-x="915" 
d="M995 551l-16 -87h-66l-237 -464h-129l-40 285l-147 -285h-128l-66 464h-65l16 87h157q11 -109 23 -217l24 -217l81 169l82 169l-12 95h108l25 -216.5t23 -216.5l105.5 217l104.5 217h157zM661 712l-88 -121h-91l75 121h104z" />
    <glyph glyph-name="wgrave" unicode="&#x1e81;" horiz-adv-x="915" 
d="M995 551l-16 -87h-66l-237 -464h-129l-40 285l-147 -285h-128l-66 464h-65l16 87h157q11 -109 23 -217l24 -217l81 169l82 169l-12 95h108l25 -216.5t23 -216.5l105.5 217l104.5 217h157zM550 591l-24 60t-23 61h105l33 -121h-91v0z" />
    <glyph glyph-name="wdieresis" unicode="&#x1e85;" horiz-adv-x="915" 
d="M995 551l-16 -87h-66l-237 -464h-129l-40 285l-147 -285h-128l-66 464h-65l16 87h157q11 -109 23 -217l24 -217l81 169l82 169l-12 95h108l25 -216.5t23 -216.5l105.5 217l104.5 217h157zM400 678q5 29 25 42.5t46 13.5t41.5 -13t10.5 -43q-5 -29 -25.5 -42.5
t-46.5 -13.5t-41 12.5t-10 43.5zM628 678q5 29 25.5 42.5t46.5 13.5t41.5 -13t10.5 -43q-5 -29 -25.5 -42.5t-46.5 -13.5t-41.5 12.5t-10.5 43.5z" />
    <glyph glyph-name="wcircumflex" unicode="&#x175;" horiz-adv-x="915" 
d="M995 551l-16 -87h-66l-237 -464h-129l-40 285l-147 -285h-128l-66 464h-65l16 87h157q11 -109 23 -217l24 -217l81 169l82 169l-12 95h108l25 -216.5t23 -216.5l105.5 217l104.5 217h157zM736 599h-93l-63 97l-98 -97h-93l162 146h73z" />
    <glyph glyph-name="zacute" unicode="&#x17a;" horiz-adv-x="597" 
d="M80 87l197 189l198 189h-245q-8 -16 -12 -33.5t-9 -41.5h-76l29 161h471l-16 -86l-394 -378h250q8 15 12.5 32.5t9.5 41.5h76l-28 -161h-478zM502 712l-88 -121h-91l75 121h104z" />
    <glyph glyph-name="zcaron" unicode="&#x17e;" horiz-adv-x="597" 
d="M80 87l197 189l198 189h-245q-8 -16 -12 -33.5t-9 -41.5h-76l29 161h471l-16 -86l-394 -378h250q8 15 12.5 32.5t9.5 41.5h76l-28 -161h-478zM366 595l-54.5 73.5l-56.5 72.5h93l64 -97l97 97h93l-81 -72.5l-82 -73.5h-73v0z" />
    <glyph glyph-name="zdotaccent" unicode="&#x17c;" horiz-adv-x="597" 
d="M80 87l197 189l198 189h-245q-8 -16 -12 -33.5t-9 -41.5h-76l29 161h471l-16 -86l-394 -378h250q8 15 12.5 32.5t9.5 41.5h76l-28 -161h-478zM355 680q5 28 25.5 42t46.5 14t41.5 -13.5t10.5 -42.5t-25.5 -43t-46.5 -14t-41.5 13t-10.5 44z" />
    <glyph glyph-name="Lcaron" unicode="&#x13d;" horiz-adv-x="595" 
d="M568 0h-498l15 86h46l94 537h-68l16 87h225l-16 -87h-46l-94 -537h252q8 15 13.5 34.5t9.5 43.5h79zM530 648q7 35 27.5 52t46.5 17q21 0 36 -13t12 -45q1 -2 1.5 -7.5t-0.5 -12.5l-2 -13.5t-1 -9.5q-10 -54 -45.5 -92.5t-84.5 -60.5l-18 38q29 23 40.5 40.5t18.5 39.5
q-18 5 -27 21t-4 46z" />
    <glyph glyph-name="Idotaccent" unicode="&#x130;" horiz-adv-x="312" 
d="M142 623l16 87h252l-16 -87h-68l-94 -537h68l-15 -86h-252l15 86h68l94 537h-68zM241 839q5 28 25.5 42t46.5 14t41.5 -13.5t10.5 -42.5t-25.5 -43t-46.5 -14t-41.5 13t-10.5 44z" />
    <glyph glyph-name="Hcircumflex" unicode="&#x124;" horiz-adv-x="760" 
d="M570 623l16 87h253l-16 -87h-68l-94 -537h68l-15 -86h-253l15 86h69l40 231h-298l-40 -231h68l-15 -86h-252l15 86h68l94 537h-68l16 87h252l-16 -87h-68l-38 -218h298l38 218h-69zM686 758h-93l-63 97l-98 -97h-93l162 146h73z" />
    <glyph glyph-name="Icircumflex" unicode="&#xce;" horiz-adv-x="312" 
d="M142 623l16 87h252l-16 -87h-68l-94 -537h68l-15 -86h-252l15 86h68l94 537h-68zM464 758h-93l-63 97l-98 -97h-93l162 146h73z" />
    <glyph glyph-name="Imacron" unicode="&#x12a;" horiz-adv-x="312" 
d="M142 623l16 87h252l-16 -87h-68l-94 -537h68l-15 -86h-252l15 86h68l94 537h-68zM128 869h364l-13 -73h-364z" />
    <glyph glyph-name="Iogonek" unicode="&#x12e;" horiz-adv-x="312" 
d="M142 623l16 87h252l-16 -87h-68l-94 -537h68l-15 -86h-252l15 86h68l94 537h-68zM248 -205q-23 -17 -52 -26.5t-57 -9.5q-72 0 -104.5 33t-21.5 94q8 40 36 76t65 54l62 -5q-38 -20 -58.5 -49t-26.5 -62q-6 -32 7.5 -53.5t54.5 -21.5q18 0 37.5 6t36.5 14z" />
    <glyph glyph-name="Iacute" unicode="&#xcd;" horiz-adv-x="312" 
d="M142 623l16 87h252l-16 -87h-68l-94 -537h68l-15 -86h-252l15 86h68l94 537h-68zM388 871l-88 -121h-91l75 121h104z" />
    <glyph glyph-name="Ibreve" unicode="&#x12c;" horiz-adv-x="312" 
d="M142 623l16 87h252l-16 -87h-68l-94 -537h68l-15 -86h-252l15 86h68l94 537h-68zM289 753q-60 0 -98.5 36t-40.5 101l75 6q2 -38 21.5 -56t54.5 -18t62.5 18.5t41.5 55.5l72 -5q-12 -32 -32 -57.5t-44.5 -43.5t-53 -27.5t-58.5 -9.5z" />
    <glyph glyph-name="Igrave" unicode="&#xcc;" horiz-adv-x="312" 
d="M142 623l16 87h252l-16 -87h-68l-94 -537h68l-15 -86h-252l15 86h68l94 537h-68zM276 750l-24 60t-23 61h105l33 -121h-91v0z" />
    <glyph glyph-name="Itilde" unicode="&#x128;" horiz-adv-x="312" 
d="M142 623l16 87h252l-16 -87h-68l-94 -537h68l-15 -86h-252l15 86h68l94 537h-68zM152 844q37 31 61 42t48 11q13 0 27.5 -6t28.5 -12.5l27.5 -12.5t25.5 -6q11 0 30 7.5t41 26.5l16 -56q-36 -32 -60 -43t-48 -11q-13 0 -28 6l-30 12.5l-28.5 12.5t-23.5 6h-7
q-12 -2 -28.5 -9.5t-36.5 -23.5z" />
    <glyph glyph-name="Idieresis" unicode="&#xcf;" horiz-adv-x="312" 
d="M142 623l16 87h252l-16 -87h-68l-94 -537h68l-15 -86h-252l15 86h68l94 537h-68zM128 837q5 29 25 42.5t46 13.5t41.5 -13t10.5 -43q-5 -29 -25.5 -42.5t-46.5 -13.5t-41 12.5t-10 43.5zM356 837q5 29 25.5 42.5t46.5 13.5t41.5 -13t10.5 -43q-5 -29 -25.5 -42.5
t-46.5 -13.5t-41.5 12.5t-10.5 43.5z" />
    <glyph glyph-name="Oslash" unicode="&#xd8;" horiz-adv-x="664" 
d="M459 720q51 0 100.5 -10t85.5 -41.5t51.5 -90.5t-1.5 -156l-22 -125q-17 -98 -51.5 -158t-80 -93.5t-99.5 -45t-111 -11.5t-107 11.5t-84 45t-46.5 94t4.5 157.5l22 125q17 97 53.5 156t83 90.5t99.5 41.5t103 10zM444 633q-39 0 -71.5 -11t-59 -38.5t-46.5 -73.5
t-32 -116l-16 -89q-12 -69 -8 -113t21.5 -69.5t46.5 -35.5t67 -10t70.5 10t59 35.5t46.5 69.5t32 113l16 89q12 70 8.5 116t-20.5 73.5t-46 38.5t-68 11zM678 802l-433 -900h-113l430 900h116z" />
    <glyph glyph-name="Oslashacute" unicode="&#x1fe;" horiz-adv-x="664" 
d="M564 871l-88 -121h-91l75 121h104zM459 720q51 0 100.5 -10t85.5 -41.5t51.5 -90.5t-1.5 -156l-22 -125q-17 -98 -51.5 -158t-80 -93.5t-99.5 -45t-111 -11.5t-107 11.5t-84 45t-46.5 94t4.5 157.5l22 125q17 97 53.5 156t83 90.5t99.5 41.5t103 10zM444 633
q-39 0 -71.5 -11t-59 -38.5t-46.5 -73.5t-32 -116l-16 -89q-12 -69 -8 -113t21.5 -69.5t46.5 -35.5t67 -10t70.5 10t59 35.5t46.5 69.5t32 113l16 89q12 70 8.5 116t-20.5 73.5t-46 38.5t-68 11zM678 802l-433 -900h-113l430 900h116z" />
    <glyph glyph-name="Dcroat" unicode="&#x110;" horiz-adv-x="695" 
d="M157 623l16 87h304q58 0 110 -8t87 -38.5t48.5 -90.5t-4.5 -163l-22 -123q-17 -96 -53.5 -153t-84 -87t-101.5 -38.5t-106 -8.5h-281l15 86h46l94 537h-68zM602 407q13 76 4.5 119.5t-30 65t-51 26.5t-56.5 5h-133l-94 -537h123q33 0 66.5 7.5t63.5 31t53.5 66.5
t35.5 115zM128 409h364l-13 -73h-364z" />
    <glyph glyph-name="dcaron" unicode="&#x10f;" horiz-adv-x="870" 
d="M460 685l15 85h184l-113 -643q-5 -28 1 -39t22 -11q8 0 18 1t23 6l-3 -68l-36 -12q-21 -7 -42 -7q-27 0 -44 7t-29 24q-29 -15 -70 -27t-110 -12q-39 0 -78 8.5t-66.5 34.5t-40 73.5t1.5 125.5l10 58q15 83 42 135.5t62.5 82.5t78 41t87.5 11q59 0 90 -12t42 -23l28 161
h-73zM490 439q-17 12 -46.5 21.5t-64.5 9.5q-30 0 -56.5 -7.5t-47.5 -29t-37.5 -60t-27.5 -100.5q-11 -63 -9.5 -102t14 -60.5t36 -28.5t55.5 -7q48 0 76.5 9.5t48.5 19.5zM797 651q7 35 27.5 52t46.5 17q21 0 36 -13t12 -45q1 -2 1.5 -7.5t-0.5 -12.5l-2 -13.5t-1 -9.5
q-10 -54 -45.5 -92.5t-84.5 -60.5l-18 38q29 23 40.5 40.5t18.5 39.5q-18 5 -27 21t-4 46z" />
    <glyph glyph-name="dcroat" unicode="&#x111;" horiz-adv-x="624" 
d="M460 685l15 85h184l-113 -643q-5 -28 1 -39t22 -11q8 0 18 1t23 6l-3 -68l-36 -12q-21 -7 -42 -7q-27 0 -44 7t-29 24q-29 -15 -70 -27t-110 -12q-39 0 -78 8.5t-66.5 34.5t-40 73.5t1.5 125.5l10 58q15 83 42 135.5t62.5 82.5t78 41t87.5 11q59 0 90 -12t42 -23l28 161
h-73zM490 439q-17 12 -46.5 21.5t-64.5 9.5q-30 0 -56.5 -7.5t-47.5 -29t-37.5 -60t-27.5 -100.5q-11 -63 -9.5 -102t14 -60.5t36 -28.5t55.5 -7q48 0 76.5 9.5t48.5 19.5zM363 330h312l-16 -88h-312z" />
    <glyph glyph-name="AEacute" unicode="&#x1fc;" horiz-adv-x="950" 
d="M485 710h546l-25 -138h-85l9 51h-312q2 -54 4.5 -106.5t5.5 -106.5h255l-16 -88h-232q4 -59 6.5 -117.5t4.5 -118.5h207l9 52h78l-24 -138h-429v86h38l-1 98h-224l-112 -184h-154l15 86h67zM518 558l-87 -142.5l-85 -142.5h175q-3 142 -3 285zM707 871l-88 -121h-91
l75 121h104z" />
    <glyph glyph-name="IJ" unicode="&#x132;" horiz-adv-x="590" 
d="M142 623l16 87h252l-16 -87h-68l-94 -537h68l-15 -86h-252l15 86h68l94 537h-68zM674 710l-100 -568q-18 -104 -50 -166.5t-75.5 -91.5t-97.5 -28.5t-115 23.5l26.5 46.5t27.5 51.5q11 -7 26 -10.5t27 -3.5q31 0 51 16t32.5 42t20 59t13.5 68l83 475h-74l16 87h189z" />
    <glyph glyph-name="Jcircumflex" unicode="&#x134;" horiz-adv-x="278" 
d="M362 710l-100 -568q-18 -104 -50 -166.5t-75.5 -91.5t-97.5 -28.5t-115 23.5l26.5 46.5t27.5 51.5q11 -7 26 -10.5t27 -3.5q31 0 51 16t32.5 42t20 59t13.5 68l83 475h-74l16 87h189zM447 758h-93l-63 97l-98 -97h-93l162 146h73z" />
    <glyph glyph-name="Ldot" unicode="&#x13f;" horiz-adv-x="595" 
d="M568 0h-498l15 86h46l94 537h-68l16 87h225l-16 -87h-46l-94 -537h252q8 15 13.5 34.5t9.5 43.5h79zM518 284q-21 0 -38 5t-29 16t-17 28t-1 41q8 44 41.5 67t74.5 23q42 0 66.5 -22t16.5 -68t-40 -68t-74 -22z" />
    <glyph glyph-name="Lcommaaccent" unicode="&#x13b;" horiz-adv-x="595" 
d="M568 0h-498l15 86h46l94 537h-68l16 87h225l-16 -87h-46l-94 -537h252q8 15 13.5 34.5t9.5 43.5h79zM213 -129q6 35 27 52t47 17q21 0 35 -10t15 -36q1 -2 0.5 -9.5t-1.5 -17t-2.5 -17.5t-1.5 -11q-9 -54 -45 -92.5t-85 -60.5l-17 38q28 23 40 40.5t18 39.5
q-18 5 -26.5 21t-3.5 46z" />
    <glyph glyph-name="Uhungarumlaut" unicode="&#x170;" horiz-adv-x="736" 
d="M805 625h-44l-60 -339q-17 -97 -54 -155.5t-84 -90t-99 -41.5t-100 -10t-96.5 10t-84.5 41.5t-52 90t1 155.5l60 339h-44l15 85h160l-73 -411q-13 -74 -5.5 -117.5t27 -66.5t48.5 -30t59 -7q25 0 55.5 5.5t60 27.5t54 66.5t38.5 121.5l73 411h160zM524 885l-101 -126h-63
l89 126h75zM664 885l-101 -126h-63l89 126h75z" />
    <glyph glyph-name="Umacron" unicode="&#x16a;" horiz-adv-x="736" 
d="M805 625h-44l-60 -339q-17 -97 -54 -155.5t-84 -90t-99 -41.5t-100 -10t-96.5 10t-84.5 41.5t-52 90t1 155.5l60 339h-44l15 85h160l-73 -411q-13 -74 -5.5 -117.5t27 -66.5t48.5 -30t59 -7q25 0 55.5 5.5t60 27.5t54 66.5t38.5 121.5l73 411h160zM339 869h364l-13 -73
h-364z" />
    <glyph glyph-name="Tbar" unicode="&#x166;" horiz-adv-x="687" 
d="M203 534h-74l31 176h621l-31 -176h-74l15 89h-182l-94 -537h73l-15 -86h-258l15 86h74l94 537h-180zM234 418h364l-13 -73h-364z" />
    <glyph glyph-name="Tcaron" unicode="&#x164;" horiz-adv-x="687" 
d="M203 534h-74l31 176h621l-31 -176h-74l15 89h-182l-94 -537h73l-15 -86h-258l15 86h74l94 537h-180zM439 754l-54.5 73.5l-56.5 72.5h93l64 -97l97 97h93l-81 -72.5l-82 -73.5h-73v0z" />
    <glyph glyph-name="fl" unicode="&#xfb02;" horiz-adv-x="645" 
d="M168 432h-46l15 88h47l7 35q13 57 34 94t55.5 58.5t85.5 30t123 8.5l-15 -85q-35 0 -63.5 -3t-50.5 -16t-37.5 -39t-25.5 -72l-1 -11h106l-15 -88h-107l-74 -425q-12 -68 -32 -111.5t-55 -69t-88 -35.5t-130 -10l15 85q36 0 64.5 3t51 17t38.5 42.5t25 78.5zM494 683
l15 87h184l-114 -646q-9 -54 -8 -87t6 -41l-72 -22q-11 5 -20 15.5t-14.5 30t-6 50t7.5 75.5l95 538h-73z" />
    <glyph glyph-name="iacute" unicode="&#xed;" 
d="M193 464h-73l16 87h184l-78 -444q-1 -11 0.5 -17t7.5 -7.5t16 -0.5t26 3l-3 -80q-42 -12 -74.5 -11t-52.5 17t-27 48t2 82zM362 712l-88 -121h-91l75 121h104z" />
    <glyph glyph-name="ibreve" unicode="&#x12d;" 
d="M193 464h-73l16 87h184l-78 -444q-1 -11 0.5 -17t7.5 -7.5t16 -0.5t26 3l-3 -80q-42 -12 -74.5 -11t-52.5 17t-27 48t2 82zM262 594q-60 0 -98.5 36t-40.5 101l75 6q2 -38 21.5 -56t54.5 -18t62.5 18.5t41.5 55.5l72 -5q-12 -32 -32 -57.5t-44.5 -43.5t-53 -27.5
t-58.5 -9.5z" />
    <glyph glyph-name="icircumflex" unicode="&#xee;" 
d="M193 464h-73l16 87h184l-78 -444q-1 -11 0.5 -17t7.5 -7.5t16 -0.5t26 3l-3 -80q-42 -12 -74.5 -11t-52.5 17t-27 48t2 82zM437 599h-93l-63 97l-98 -97h-93l162 146h73z" />
    <glyph glyph-name="idieresis" unicode="&#xef;" 
d="M193 464h-73l16 87h184l-78 -444q-1 -11 0.5 -17t7.5 -7.5t16 -0.5t26 3l-3 -80q-42 -12 -74.5 -11t-52.5 17t-27 48t2 82zM101 678q5 29 25 42.5t46 13.5t41.5 -13t10.5 -43q-5 -29 -25.5 -42.5t-46.5 -13.5t-41 12.5t-10 43.5zM329 678q5 29 25.5 42.5t46.5 13.5
t41.5 -13t10.5 -43q-5 -29 -25.5 -42.5t-46.5 -13.5t-41.5 12.5t-10.5 43.5z" />
    <glyph glyph-name="igrave" unicode="&#xec;" 
d="M193 464h-73l16 87h184l-78 -444q-1 -11 0.5 -17t7.5 -7.5t16 -0.5t26 3l-3 -80q-42 -12 -74.5 -11t-52.5 17t-27 48t2 82zM250 591l-24 60t-23 61h105l33 -121h-91v0z" />
    <glyph glyph-name="imacron" unicode="&#x12b;" 
d="M193 464h-73l16 87h184l-78 -444q-1 -11 0.5 -17t7.5 -7.5t16 -0.5t26 3l-3 -80q-42 -12 -74.5 -11t-52.5 17t-27 48t2 82zM101 710h364l-13 -73h-364z" />
    <glyph glyph-name="iogonek" unicode="&#x12f;" 
d="M199 690q6 33 30 49t56 16q31 0 49.5 -15t12.5 -50t-30 -50.5t-55 -15.5q-32 0 -50.5 15t-12.5 51zM193 464h-73l16 87h184l-78 -444q-1 -11 0.5 -17t7.5 -7.5t16 -0.5t26 3l-3 -80q-42 -12 -74.5 -11t-52.5 17t-27 48t2 82zM290 -205q-23 -17 -52 -26.5t-57 -9.5
q-72 0 -104.5 33t-21.5 94q8 40 36 76t65 54l62 -5q-38 -20 -58.5 -49t-26.5 -62q-6 -32 7.5 -53.5t54.5 -21.5q18 0 37.5 6t36.5 14z" />
    <glyph glyph-name="itilde" unicode="&#x129;" 
d="M193 464h-73l16 87h184l-78 -444q-1 -11 0.5 -17t7.5 -7.5t16 -0.5t26 3l-3 -80q-42 -12 -74.5 -11t-52.5 17t-27 48t2 82zM125 685q37 31 61 42t48 11q13 0 27.5 -6t28.5 -12.5l27.5 -12.5t25.5 -6q11 0 30 7.5t41 26.5l16 -56q-36 -32 -60 -43t-48 -11q-13 0 -28 6
l-30 12.5l-28.5 12.5t-23.5 6h-7q-12 -2 -28.5 -9.5t-36.5 -23.5z" />
    <glyph glyph-name="ij" unicode="&#x133;" horiz-adv-x="602" 
d="M199 690q6 33 30 49t56 16q31 0 49.5 -15t12.5 -50t-30 -50.5t-55 -15.5q-32 0 -50.5 15t-12.5 51zM193 464h-73l16 87h184l-78 -444q-1 -11 0.5 -17t7.5 -7.5t16 -0.5t26 3l-3 -80q-42 -12 -74.5 -11t-52.5 17t-27 48t2 82zM625 551l-110 -624q-9 -48 -21 -79.5t-25 -51
t-25.5 -28.5t-22.5 -13l-64 22q7 11 20 42t23 87l98 558h-73l16 87h184zM509 690q6 33 30 49t56 16q31 0 49.5 -15t12.5 -50t-30 -50.5t-55 -15.5q-32 0 -50.5 15t-12.5 51z" />
    <glyph glyph-name="lcaron" unicode="&#x13e;" horiz-adv-x="506" 
d="M129 683l15 87h184l-114 -646q-9 -54 -8 -87t6 -41l-72 -22q-11 5 -20 15.5t-14.5 30t-6 50t7.5 75.5l95 538h-73zM362 651q7 35 27.5 52t46.5 17q21 0 36 -13t12 -45q1 -2 1.5 -7.5t-0.5 -12.5l-2 -13.5t-1 -9.5q-10 -54 -45.5 -92.5t-84.5 -60.5l-18 38
q29 23 40.5 40.5t18.5 39.5q-18 5 -27 21t-4 46z" />
    <glyph glyph-name="ldot" unicode="&#x140;" horiz-adv-x="590" 
d="M129 683l15 87h184l-114 -646q-9 -54 -8 -87t6 -41l-72 -22q-11 5 -20 15.5t-14.5 30t-6 50t7.5 75.5l95 538h-73zM466 165q-21 0 -38 5t-29 16t-17 28t-1 41q8 44 41.5 67t74.5 23q42 0 66.5 -22t16.5 -68t-40 -68t-74 -22z" />
    <glyph glyph-name="oslash" unicode="&#xf8;" horiz-adv-x="545" 
d="M91 320q13 77 42.5 124t68 72.5t82.5 34t87 8.5q42 0 83 -8.5t70 -34t42 -72.5t0 -123l-18 -101q-13 -75 -41 -120.5t-65.5 -69.5t-81.5 -31.5t-90 -7.5q-45 0 -86.5 7.5t-70.5 31t-41 68.5t1 120zM185 231q-9 -53 -3 -83.5t21 -47t37 -21t45 -4.5q22 0 45.5 4.5t45 20.5
t39 46.5t26.5 83.5l15 84q9 52 2.5 84t-22.5 48.5t-37.5 22t-42.5 5.5t-45 -5.5t-45.5 -22.5t-39 -48.5t-26.5 -83.5zM601 771l-433 -900h-113l430 900h116z" />
    <glyph glyph-name="oslashacute" unicode="&#x1ff;" horiz-adv-x="545" 
d="M91 320q13 77 42.5 124t68 72.5t82.5 34t87 8.5q42 0 83 -8.5t70 -34t42 -72.5t0 -123l-18 -101q-13 -75 -41 -120.5t-65.5 -69.5t-81.5 -31.5t-90 -7.5q-45 0 -86.5 7.5t-70.5 31t-41 68.5t1 120zM185 231q-9 -53 -3 -83.5t21 -47t37 -21t45 -4.5q22 0 45.5 4.5t45 20.5
t39 46.5t26.5 83.5l15 84q9 52 2.5 84t-22.5 48.5t-37.5 22t-42.5 5.5t-45 -5.5t-45.5 -22.5t-39 -48.5t-26.5 -83.5zM601 771l-433 -900h-113l430 900h116zM437 710l-88 -121h-91l75 121h104z" />
    <glyph glyph-name="scedilla" unicode="&#x15f;" horiz-adv-x="563" 
d="M461 401l10 57q-18 8 -42 13t-50 5q-58 0 -93 -17t-40 -46q-5 -32 15.5 -48.5t72.5 -25.5q29 -8 69 -14t74.5 -21t54.5 -46t10 -89q-16 -91 -82 -135.5t-173 -44.5q-65 0 -119.5 7t-101.5 20l36 145h85l-10 -57q17 -8 45 -15.5t66 -7.5q45 0 72.5 11t42.5 25.5t20 29
t6 21.5q3 19 -5.5 32t-28 21.5t-47.5 14.5t-64 12q-89 16 -123.5 52t-22.5 103q8 46 29 76.5t54 49.5t76.5 27t96.5 8q38 0 80 -5.5t99 -19.5l-34 -138h-78zM376 13l-114 -207h-107l147 207h74z" />
    <glyph glyph-name="scircumflex" unicode="&#x15d;" horiz-adv-x="563" 
d="M461 401l10 57q-18 8 -42 13t-50 5q-58 0 -93 -17t-40 -46q-5 -32 15.5 -48.5t72.5 -25.5q29 -8 69 -14t74.5 -21t54.5 -46t10 -89q-16 -91 -82 -135.5t-173 -44.5q-65 0 -119.5 7t-101.5 20l36 145h85l-10 -57q17 -8 45 -15.5t66 -7.5q45 0 72.5 11t42.5 25.5t20 29
t6 21.5q3 19 -5.5 32t-28 21.5t-47.5 14.5t-64 12q-89 16 -123.5 52t-22.5 103q8 46 29 76.5t54 49.5t76.5 27t96.5 8q38 0 80 -5.5t99 -19.5l-34 -138h-78zM560 599h-93l-63 97l-98 -97h-93l162 146h73z" />
    </font>
</defs>
</svg>
